<svg xmlns="http://www.w3.org/2000/svg" width="415.166" height="304.705" viewBox="0 0 415.166 304.705">
  <g id="그룹_3079" data-name="그룹 3079" transform="translate(656.505 -418)">
    <path id="패스_1267" data-name="패스 1267" d="M294.413-353.263a16.577,16.577,0,0,0,9.463,6.99c-3.19,2.434-3.15,4.051-3.333,7.633a19.334,19.334,0,0,1-8.709-7.028C290.694-348.837,291.811-351.287,294.413-353.263Z" transform="translate(-756.305 771.263)" fill="#e1350d"/>
    <path id="패스_1269" data-name="패스 1269" d="M235.726-328.9a16.572,16.572,0,0,0,11.395,2.926c-2.043,3.455-1.4,4.936-.221,8.326a19.361,19.361,0,0,1-10.712-3.241C233.942-323.4,234.055-326.093,235.726-328.9Z" transform="translate(-852.54 847.649)" fill="#e7d130"/>
    <path id="패스_1270" data-name="패스 1270" d="M261.32-300.58a16.572,16.572,0,0,0,7.957-8.661c2.081,3.428,3.695,3.56,7.236,4.124A19.339,19.339,0,0,1,268.6-297.2C265.323-296.41,263.007-297.781,261.32-300.58Z" transform="translate(-894.567 866.741)" fill="#e1350d"/>
    <path id="패스_1271" data-name="패스 1271" d="M304.839-321.968a16.581,16.581,0,0,0,11.673-1.455c-.634,3.962.51,5.1,2.845,7.827a19.334,19.334,0,0,1-11.155.91C305.193-316.2,304.313-318.743,304.839-321.968Z" transform="translate(-560.696 1036.96)" fill="#e7d130"/>
    <path id="패스_1272" data-name="패스 1272" d="M379.322-322.489a16.571,16.571,0,0,0,9.077,7.482c-3.314,2.262-3.357,3.878-3.733,7.446a19.347,19.347,0,0,1-8.324-7.479C375.374-318.268,376.618-320.656,379.322-322.489Z" transform="translate(-653.526 847.194)" fill="#e7d130"/>
    <path id="패스_1275" data-name="패스 1275" d="M338.8-340.456a16.583,16.583,0,0,0,11.751.54c-1.3,3.8-.359,5.117,1.479,8.2a19.342,19.342,0,0,1-11.147-.991C338.174-334.71,337.736-337.368,338.8-340.456Z" transform="translate(-654.027 788.316)" fill="#e1350d"/>
    <path id="패스_1276" data-name="패스 1276" d="M226.147-278.621a16.568,16.568,0,0,0,8.623-8c1.8,3.587,3.4,3.846,6.882,4.691a19.34,19.34,0,0,1-8.521,7.255C229.8-274.144,227.6-275.7,226.147-278.621Z" transform="translate(-882.653 906.485)" fill="#e7d130"/>
    <path id="패스_1273" data-name="패스 1273" d="M417.235-297.18a16.574,16.574,0,0,0,11.473-2.591c-.243,4.005,1.009,5.031,3.6,7.511a19.342,19.342,0,0,1-11.012,2C418.153-291.474,417.027-293.92,417.235-297.18Z" transform="translate(-820.538 820.144)" fill="#e1350d"/>
    <path id="패스_1268" data-name="패스 1268" d="M381.812-351.672a16.586,16.586,0,0,0,9.463,6.99c-3.19,2.435-3.147,4.051-3.333,7.633a19.335,19.335,0,0,1-8.71-7.028C378.093-347.246,379.21-349.7,381.812-351.672Z" transform="translate(-1018.278 789.479)" fill="#e1350d"/>
    <path id="패스_1274" data-name="패스 1274" d="M423.494-340.45a16.561,16.561,0,0,0,11.751.5c-1.279,3.8-.34,5.12,1.511,8.191a19.347,19.347,0,0,1-11.152-.947C422.886-334.7,422.441-337.357,423.494-340.45Z" transform="translate(-685.426 773.073)" fill="#e7d130"/>
  </g>
</svg>
