<svg xmlns="http://www.w3.org/2000/svg" width="16.008" height="16.008" viewBox="0 0 16.008 16.008">
  <g id="그룹_2903" data-name="그룹 2903" transform="translate(598.75 -614.742)">
    <path id="패스_1343" data-name="패스 1343" d="M-583.492,623.879v4.948a1.682,1.682,0,0,1-1.682,1.681h-11.145A1.682,1.682,0,0,1-598,628.827V617.681A1.682,1.682,0,0,1-596.319,616h5.044" transform="translate(0 -0.508)" fill="none" stroke="#666" stroke-linecap="round" stroke-linejoin="round" stroke-width="1.5"/>
    <path id="패스_1344" data-name="패스 1344" d="M-587.074,614.177l2.4,2.4a.6.6,0,0,1,0,.852l-7.366,7.525a1.279,1.279,0,0,1-.9.375h-2.72V622.6a1.279,1.279,0,0,1,.374-.9l7.366-7.524A.6.6,0,0,1-587.074,614.177Z" transform="translate(1.5 1.5)" fill="#49b68a"/>
  </g>
</svg>
