<svg xmlns="http://www.w3.org/2000/svg" width="17.094" height="17.342" viewBox="0 0 17.094 17.342">
  <g id="그룹_3102" data-name="그룹 3102" transform="translate(-62.75 -357.917)">
    <path id="패스_3004" data-name="패스 3004" d="M-674.857,376h3.357v8h-3.357Z" transform="translate(739 -10)" fill="#7ed1d4"/>
    <path id="Icon_feather-thumbs-up" data-name="Icon feather-thumbs-up" d="M12.5,8.544V5.376A2.376,2.376,0,0,0,10.129,3L6.96,10.129v8.713h8.935a1.584,1.584,0,0,0,1.584-1.347l1.093-7.129a1.584,1.584,0,0,0-1.584-1.822ZM6.96,18.841H4.584A1.584,1.584,0,0,1,3,17.257V11.713a1.584,1.584,0,0,1,1.584-1.584H6.96" transform="translate(60.5 355.667)" fill="none" stroke="#666" stroke-linecap="round" stroke-linejoin="round" stroke-width="1.5"/>
  </g>
</svg>
