<svg xmlns="http://www.w3.org/2000/svg" xmlns:xlink="http://www.w3.org/1999/xlink" width="18" height="16" viewBox="0 0 18 16">
  <defs>
    <clipPath id="clip-path">
      <rect id="vectorMask" width="18" height="16" transform="translate(277.91 1624.06)" fill="none"/>
    </clipPath>
  </defs>
  <g id="비됴" transform="translate(-277.91 -1624.06)">
    <g id="그룹_3147" data-name="그룹 3147" clip-path="url(#clip-path)">
      <g id="그룹_3147-2" data-name="그룹 3147">
        <path id="패스_3104" data-name="패스 3104" d="M287.183,1629.377,282,1625.2a.667.667,0,0,1,.943-.944h0l4.242,3.561,4.241-3.561a.666.666,0,0,1,.944.941Z" fill="#666"/>
        <rect id="패스_3105" data-name="패스 3105" width="18" height="12.99" rx="2" transform="translate(277.91 1627.06)" fill="#fff"/>
        <rect id="사각형_1031" data-name="사각형 1031" width="16.5" height="11.49" rx="1.25" transform="translate(278.66 1627.81)" fill="none" stroke="#666" stroke-width="1.5"/>
        <path id="패스_3106" data-name="패스 3106" d="M284.973,1631.642v3.838a.611.611,0,0,0,.926.525l3.2-1.92a.61.61,0,0,0,0-1.047l-3.2-1.919A.611.611,0,0,0,284.973,1631.642Z" fill="#0e935d"/>
      </g>
    </g>
  </g>
</svg>
