<svg xmlns="http://www.w3.org/2000/svg" width="18" height="8" viewBox="0 0 18 8">
  <path id="Icon_ionic-ios-arrow-round-forward" data-name="Icon ionic-ios-arrow-round-forward" d="M11.528,11.4a.544.544,0,0,0,0,.767l2.534,2.537H-1.587a.54.54,0,0,0-.538.542.54.54,0,0,0,.538.542H14.054l-2.534,2.537a.548.548,0,0,0,0,.767.54.54,0,0,0,.763,0l3.435-3.458h0a.608.608,0,0,0,.113-.171.517.517,0,0,0,.042-.208.543.543,0,0,0-.154-.379l-3.435-3.458A.531.531,0,0,0,11.528,11.4Z" transform="translate(2.125 -11.252)" fill="#fff"/>
</svg>
