<svg xmlns="http://www.w3.org/2000/svg" width="17.2" height="17.2" viewBox="0 0 17.2 17.2">
  <g id="Icon_feather-settings" data-name="Icon feather-settings" transform="translate(-297.4 -15.4)">
    <circle id="패스_3095" data-name="패스 3095" cx="3" cy="3" r="3" transform="translate(303 21)" fill="none" stroke="#fff" stroke-linecap="round" stroke-width="1.2"/>
    <path id="패스_3096" data-name="패스 3096" d="M311.382,26.182a1.2,1.2,0,0,0,.24,1.323l.044.044a1.455,1.455,0,1,1-2.058,2.058l-.044-.044a1.21,1.21,0,0,0-2.051.858v.124a1.455,1.455,0,1,1-2.909,0V30.48a1.259,1.259,0,0,0-2.109-.858l-.044.044a1.455,1.455,0,1,1-2.058-2.058l.044-.044a1.21,1.21,0,0,0-.858-2.051h-.124a1.455,1.455,0,1,1,0-2.909h.065a1.259,1.259,0,0,0,.858-2.109l-.044-.044a1.455,1.455,0,1,1,2.058-2.058l.044.044a1.2,1.2,0,0,0,1.324.24h.058a1.2,1.2,0,0,0,.727-1.1v-.124a1.455,1.455,0,1,1,2.909,0v.065a1.21,1.21,0,0,0,2.051.858l.044-.044a1.455,1.455,0,1,1,2.058,2.058l-.044.044a1.2,1.2,0,0,0-.24,1.324v.058a1.2,1.2,0,0,0,1.1.727h.124a1.455,1.455,0,0,1,0,2.909h-.065A1.2,1.2,0,0,0,311.382,26.182Z" fill="none" stroke="#fff" stroke-linecap="round" stroke-width="1.2"/>
  </g>
</svg>
