<svg xmlns="http://www.w3.org/2000/svg" width="19" height="19" viewBox="0 0 19 19"><g transform="translate(743.928 -783.485)"><path d="M-740.589,802.485a1.429,1.429,0,0,1-.97-.382,1.32,1.32,0,0,1-.42-.977V790.065h1.461v10.959h12.18v-10.96h1.461v11.071a1.307,1.307,0,0,1-.381.93,1.43,1.43,0,0,1-1,.42Zm12.251-1.345v0Zm-12.18-.008v0Z"/><path d="M-725.659,792.743a.73.73,0,0,1-.493-.191L-734.428,785l-8.277,7.555a.729.729,0,0,1-1.032-.047.73.73,0,0,1,.047-1.032l8.364-7.635a1.32,1.32,0,0,1,1.8,0l8.361,7.633a.73.73,0,0,1,.047,1.032A.729.729,0,0,1-725.659,792.743Zm-8.857-7.826h0Zm.178,0h0Z"/><path d="M-731.749,801.754h-1.461v-6.089h-2.436v6.089h-1.462v-6.819a.731.731,0,0,1,.731-.731h3.9a.73.73,0,0,1,.73.731Z"/></g></svg>