<?xml version="1.0" encoding="utf-8"?>
<!-- Generator: Adobe Illustrator 24.2.3, SVG Export Plug-In . SVG Version: 6.00 Build 0)  -->
<svg version="1.1" id="레이어_1" xmlns="http://www.w3.org/2000/svg" xmlns:xlink="http://www.w3.org/1999/xlink" x="0px"
	 y="0px" viewBox="0 0 19 15.5" style="enable-background:new 0 0 19 15.5;" xml:space="preserve">
<style type="text/css">
	.st0{fill:#0E935D;}
</style>
<g transform="translate(691 -865)">
	<path class="st0" d="M-690.3,879h17.5c0.4,0,0.8,0.3,0.8,0.8l0,0c0,0.4-0.3,0.8-0.8,0.8h-17.5c-0.4,0-0.8-0.3-0.8-0.8l0,0
		C-691,879.3-690.7,879-690.3,879z"/>
	<path class="st0" d="M-690.3,865h17.5c0.4,0,0.8,0.3,0.8,0.8l0,0c0,0.4-0.3,0.8-0.8,0.8h-17.5c-0.4,0-0.8-0.3-0.8-0.8l0,0
		C-691,865.3-690.7,865-690.3,865z"/>
	<path class="st0" d="M-690.3,872h17.5c0.4,0,0.8,0.3,0.8,0.8l0,0c0,0.4-0.3,0.8-0.8,0.8h-17.5c-0.4,0-0.8-0.3-0.8-0.8l0,0
		C-691,872.3-690.7,872-690.3,872z"/>
</g>
</svg>
