<svg xmlns="http://www.w3.org/2000/svg" width="19.001" height="19" viewBox="0 0 19.001 19"><g transform="translate(771.394 -782.624)"><path d="M-756.787,784.446l2.572,2.572-8.275,8.272h-2.57v-2.572l8.273-8.272m0-1.822a.789.789,0,0,0-.559.231l-9,9a.794.794,0,0,0-.231.56v3.6a.791.791,0,0,0,.791.792h3.6a.79.79,0,0,0,.559-.232l9-9a.791.791,0,0,0,0-1.119l-3.6-3.6a.791.791,0,0,0-.56-.231Z"/><path d="M-756.528,801.624h-12a2.872,2.872,0,0,1-2.868-2.868v-12a2.871,2.871,0,0,1,2.868-2.867h4.986a.76.76,0,0,1,.76.76.761.761,0,0,1-.76.76h-4.986a1.349,1.349,0,0,0-1.348,1.347v12a1.35,1.35,0,0,0,1.348,1.348h12a1.35,1.35,0,0,0,1.348-1.348v-4.985a.76.76,0,0,1,.76-.76.76.76,0,0,1,.76.76v4.985A2.872,2.872,0,0,1-756.528,801.624Z"/></g></svg>