<svg xmlns="http://www.w3.org/2000/svg" width="19" height="22" viewBox="0 0 19 22"><defs><style>.a{fill:none;stroke-miterlimit:10;}.b,.c{stroke:none;}.c{fill:#000;}</style></defs><g class="a" transform="translate(711 -842)"><path class="b" d="M-701.726,864c-.094-.114-.241-.122-.367-.168q-3.315-1.213-6.633-2.419a.664.664,0,0,1-.507-.717v-2.232a.186.186,0,0,0-.149-.218l-.014,0a2.13,2.13,0,0,1-1.526-2.624,2.156,2.156,0,0,1,1.526-1.495c.13-.036.169-.086.167-.217-.007-.694,0-1.388,0-2.082a.653.653,0,0,1,.593-.711.674.674,0,0,1,.362.065q.539.191,1.072.392a.186.186,0,0,0,.216-.029,7.845,7.845,0,0,1,2.842-1.785,4.227,4.227,0,0,1-1.76-3.742,4.064,4.064,0,0,1,1.413-2.864,4.469,4.469,0,0,1,6.225.229,4.257,4.257,0,0,1-.234,6.1,4.181,4.181,0,0,1-.351.287,7.732,7.732,0,0,1,2.156,1.183,7.681,7.681,0,0,1,.624.544.259.259,0,0,0,.326.058c.339-.135.683-.257,1.028-.378a.671.671,0,0,1,.882.315.645.645,0,0,1,.059.332v2.056c0,.141.026.205.183.249a2.131,2.131,0,0,1,1.512,2.633,2.159,2.159,0,0,1-1.5,1.479c-.146.041-.193.091-.191.242.01.738.005,1.475,0,2.211a.658.658,0,0,1-.5.72q-3.5,1.273-7.006,2.546c-.017.006-.028.027-.042.041Zm-.453-1.579c0-.044.01-.071.01-.1v-7.406c0-.136-.074-.161-.173-.2q-2.009-.729-4.016-1.464l-1.555-.568v1.25c0,.1.042.123.131.154a1.064,1.064,0,0,1,.754,1.049v2.1a1.048,1.048,0,0,1-.735,1.018.181.181,0,0,0-.151.208q.011.849,0,1.7a.2.2,0,0,0,.162.228c1.162.418,2.322.843,3.482,1.266Zm1.336-.024c.026.007.035.012.04.01l5.6-2.035c.088-.031.1-.082.1-.161v-1.782a.132.132,0,0,0-.106-.151,1.061,1.061,0,0,1-.777-1.1v-2a1.068,1.068,0,0,1,.773-1.1c.056-.022.111-.024.11-.1V852.7l-.111.04q-2.719.993-5.439,1.979a.238.238,0,0,0-.193.27q.007,3.618,0,7.235Zm-.672-13.085a3.037,3.037,0,0,0,3.054-3.02,3.038,3.038,0,0,0-3.082-2.992,3.036,3.036,0,0,0-3.053,2.986,3.054,3.054,0,0,0,3.081,3.025Zm-4.158,2.815c1.356.5,2.7.979,4.033,1.476a.393.393,0,0,0,.292-.008l2.489-.912,1.522-.554a6.474,6.474,0,0,0-8.336,0Zm-2.677,4.07v-.408c0-.519,0-.519-.536-.461a.884.884,0,0,0-.786.778.863.863,0,0,0,.63.9,2.5,2.5,0,0,0,.547.039c.112.009.153-.023.148-.139-.011-.236,0-.472,0-.708Zm13.691-.025v.429c0,.46,0,.46.472.441a.883.883,0,0,0,.847-.761.862.862,0,0,0-.651-.923,2.663,2.663,0,0,0-.591-.033c-.1-.005-.077.066-.077.119,0,.242,0,.484,0,.728Z"/><path class="c" d="M -701.7260131835938 864 C -701.8200073242188 863.885986328125 -701.9669799804688 863.8779907226562 -702.093017578125 863.8319702148438 C -704.302978515625 863.0230102539062 -706.5139770507812 862.2169799804688 -708.7260131835938 861.4130249023438 C -709.0540161132812 861.3319702148438 -709.27099609375 861.0260009765625 -709.2329711914062 860.6959838867188 L -709.2329711914062 858.4639892578125 C -709.2130126953125 858.3629760742188 -709.280029296875 858.2659912109375 -709.3820190429688 858.2459716796875 L -709.39599609375 858.2440185546875 C -710.5570068359375 857.9329833984375 -711.239990234375 856.7579956054688 -710.9219970703125 855.6199951171875 C -710.718994140625 854.8930053710938 -710.1389770507812 854.323974609375 -709.39599609375 854.125 C -709.2659912109375 854.0889892578125 -709.2269897460938 854.0390014648438 -709.22900390625 853.9080200195312 C -709.2360229492188 853.2139892578125 -709.22900390625 852.52001953125 -709.22900390625 851.8259887695312 C -709.2650146484375 851.468994140625 -709 851.1510009765625 -708.635986328125 851.114990234375 C -708.5111694335938 851.1030883789062 -708.3860473632812 851.125 -708.2739868164062 851.1799926757812 C -707.9149780273438 851.3070068359375 -707.5579833984375 851.43701171875 -707.2020263671875 851.572021484375 C -707.130859375 851.6099243164062 -707.0440063476562 851.5980224609375 -706.9860229492188 851.5430297851562 C -706.1820068359375 850.7520141601562 -705.2119750976562 850.1430053710938 -704.1439819335938 849.7579956054688 C -705.3480224609375 848.8900146484375 -706.0130004882812 847.4769897460938 -705.9039916992188 846.0159912109375 C -705.8460083007812 844.9140014648438 -705.3369750976562 843.8809814453125 -704.4910278320312 843.1519775390625 C -702.7080078125 841.531005859375 -699.9199829101562 841.633056640625 -698.2659912109375 843.3809814453125 C -696.6119995117188 845.1290283203125 -696.7169799804688 847.8599853515625 -698.5 849.4810180664062 C -698.6119995117188 849.5830078125 -698.72900390625 849.6790161132812 -698.8510131835938 849.7680053710938 C -698.072021484375 850.0460205078125 -697.343994140625 850.4450073242188 -696.6950073242188 850.9509887695312 C -696.4769897460938 851.1209716796875 -696.2689819335938 851.302978515625 -696.0709838867188 851.4949951171875 C -695.9921264648438 851.5900268554688 -695.8540649414062 851.6150512695312 -695.7449951171875 851.552978515625 C -695.406005859375 851.4180297851562 -695.06201171875 851.2960205078125 -694.7169799804688 851.1749877929688 C -694.3848266601562 851.0238037109375 -693.9899291992188 851.1650390625 -693.8350219726562 851.489990234375 C -693.7860107421875 851.593994140625 -693.7659912109375 851.7080078125 -693.7760009765625 851.822021484375 L -693.7760009765625 853.8779907226562 C -693.7760009765625 854.0189819335938 -693.75 854.0830078125 -693.593017578125 854.1270141601562 C -692.4329833984375 854.4450073242188 -691.7570190429688 855.6240234375 -692.0809936523438 856.760009765625 C -692.2860107421875 857.4760131835938 -692.85498046875 858.0360107421875 -693.5850219726562 858.239013671875 C -693.7310180664062 858.280029296875 -693.7780151367188 858.3300170898438 -693.7760009765625 858.4810180664062 C -693.7659912109375 859.218994140625 -693.77099609375 859.9559936523438 -693.7760009765625 860.6920166015625 C -693.7329711914062 861.02099609375 -693.947021484375 861.3300170898438 -694.2750244140625 861.4119873046875 C -696.6069946289062 862.260986328125 -698.9420166015625 863.1090087890625 -701.281005859375 863.9580078125 C -701.2979736328125 863.9639892578125 -701.3090209960938 863.9849853515625 -701.322998046875 863.9990234375 L -701.7260131835938 864 Z M -707.9130249023438 852.6890258789062 L -707.9130249023438 853.9390258789062 C -707.9130249023438 854.0369873046875 -707.8709716796875 854.06201171875 -707.781982421875 854.093017578125 C -707.3189697265625 854.2379760742188 -707.010986328125 854.6669921875 -707.0280151367188 855.1420288085938 L -707.0280151367188 857.2449951171875 C -707.0180053710938 857.7059936523438 -707.3159790039062 858.1199951171875 -707.7630004882812 858.2630004882812 C -707.8629760742188 858.280029296875 -707.9310302734375 858.3729858398438 -707.9140014648438 858.4710083007812 C -707.906982421875 859.0369873046875 -707.906982421875 859.6019897460938 -707.9140014648438 860.1669921875 C -707.9299926757812 860.2730102539062 -707.8590087890625 860.3729858398438 -707.7520141601562 860.39501953125 C -706.5900268554688 860.81298828125 -705.4299926757812 861.2379760742188 -704.27001953125 861.6610107421875 L -702.1790161132812 862.4210205078125 C -702.1790161132812 862.3770141601562 -702.1690063476562 862.3499755859375 -702.1690063476562 862.322998046875 L -702.1690063476562 854.9169921875 C -702.1690063476562 854.781005859375 -702.2429809570312 854.7559814453125 -702.3419799804688 854.7210083007812 C -703.6810302734375 854.2349853515625 -705.02001953125 853.7470092773438 -706.3579711914062 853.2570190429688 L -707.9130249023438 852.6890258789062 Z M -695.1019897460938 852.6959838867188 L -695.2130126953125 852.7360229492188 C -697.0260009765625 853.3980102539062 -698.8389892578125 854.0570068359375 -700.6519775390625 854.7150268554688 C -700.780029296875 854.739990234375 -700.864990234375 854.8590087890625 -700.844970703125 854.9849853515625 C -700.8400268554688 857.39697265625 -700.8400268554688 859.8079833984375 -700.844970703125 862.219970703125 L -700.843017578125 862.39697265625 C -700.8168334960938 862.404052734375 -700.8075561523438 862.4089965820312 -700.802978515625 862.406982421875 C -698.93798828125 861.72900390625 -697.0700073242188 861.0499877929688 -695.2020263671875 860.3720092773438 C -695.114013671875 860.3410034179688 -695.1019897460938 860.2899780273438 -695.1019897460938 860.2109985351562 L -695.1019897460938 858.4290161132812 C -695.0900268554688 858.3590087890625 -695.1370239257812 858.2919921875 -695.2080078125 858.2780151367188 C -695.698974609375 858.1380004882812 -696.0230102539062 857.6810302734375 -695.9849853515625 857.1820068359375 L -695.9849853515625 855.1849975585938 C -696.02197265625 854.6859741210938 -695.7009887695312 854.22900390625 -695.2119750976562 854.0850219726562 C -695.156005859375 854.06298828125 -695.1010131835938 854.0609741210938 -695.1019897460938 853.9869995117188 L -695.1019897460938 852.6959838867188 Z M -694.5917358398438 855.3247680664062 C -694.681396484375 855.3247680664062 -694.6589965820312 855.3927612304688 -694.6589965820312 855.4439697265625 C -694.6619873046875 855.6859741210938 -694.6610107421875 855.927978515625 -694.6610107421875 856.1719970703125 L -694.6589965820312 856.1719970703125 L -694.6589965820312 856.6010131835938 C -694.6589965820312 857.0609741210938 -694.658935546875 857.0613403320312 -694.18701171875 857.0419921875 C -693.7529907226562 857.0250244140625 -693.39501953125 856.7030029296875 -693.3400268554688 856.281005859375 C -693.2949829101562 855.8579711914062 -693.5709838867188 855.4660034179688 -693.9910278320312 855.3579711914062 C -694.1859130859375 855.3250122070312 -694.3849487304688 855.3140869140625 -694.5819702148438 855.3250122070312 C -694.5853881835938 855.3248291015625 -694.588623046875 855.3247680664062 -694.5917358398438 855.3247680664062 Z M -708.5756225585938 855.3026123046875 C -708.6510620117188 855.3026123046875 -708.751708984375 855.3134765625 -708.885986328125 855.3280029296875 C -709.302001953125 855.375 -709.6279907226562 855.697998046875 -709.6719970703125 856.1060180664062 C -709.7069702148438 856.5139770507812 -709.4429931640625 856.8900146484375 -709.0419921875 857.0050048828125 C -708.862060546875 857.0380249023438 -708.6792602539062 857.0509033203125 -708.4949951171875 857.0440063476562 C -708.3831176757812 857.0528564453125 -708.3419799804688 857.0210571289062 -708.3469848632812 856.905029296875 C -708.3579711914062 856.6690063476562 -708.3499755859375 856.4329833984375 -708.3499755859375 856.197021484375 L -708.3499755859375 855.7890014648438 C -708.3499755859375 855.4000244140625 -708.3500366210938 855.3026123046875 -708.5756225585938 855.3026123046875 Z M -701.506103515625 850.6072387695312 C -702.9910278320312 850.6072387695312 -704.47607421875 851.1134643554688 -705.6729736328125 852.1259765625 L -705.6729736328125 852.1270141601562 C -704.3170166015625 852.6229858398438 -702.9739990234375 853.1060180664062 -701.6400146484375 853.60302734375 C -701.5459594726562 853.6380004882812 -701.4400024414062 853.6349487304688 -701.3480224609375 853.594970703125 C -700.5180053710938 853.2899780273438 -699.68798828125 852.9860229492188 -698.8590087890625 852.6829833984375 L -697.3369750976562 852.1290283203125 C -698.5335693359375 851.114501953125 -700.019775390625 850.6072387695312 -701.506103515625 850.6072387695312 Z M -701.5279541015625 843.2999877929688 C -701.5330200195312 843.2999877929688 -701.5379638671875 843.2999877929688 -701.5430297851562 843.2999877929688 C -703.2239990234375 843.3070068359375 -704.5850219726562 844.6389770507812 -704.5960083007812 846.2860107421875 C -704.5969848632812 847.9550170898438 -703.218017578125 849.3090209960938 -701.5150146484375 849.3109741210938 L -701.5150146484375 849.31201171875 C -699.8200073242188 849.3040161132812 -698.4530029296875 847.9520263671875 -698.4609985351562 846.2919921875 C -698.468994140625 844.636962890625 -699.8399047851562 843.2999877929688 -701.5279541015625 843.2999877929688 Z"/></g></svg>