<svg xmlns="http://www.w3.org/2000/svg" xmlns:xlink="http://www.w3.org/1999/xlink" width="211" height="131" viewBox="0 0 211 131">
  <defs>
    <linearGradient id="linear-gradient" x1="0.217" y1="0.233" x2="0.767" y2="0.767" gradientUnits="objectBoundingBox">
      <stop offset="0" stop-color="#f8a18d"/>
      <stop offset="1" stop-color="#eb778f"/>
    </linearGradient>
  </defs>
  <g id="그룹_3086" data-name="그룹 3086" transform="translate(-22 -435)">
    <g id="그룹_3085" data-name="그룹 3085" transform="translate(-369 4)">
      <circle id="타원_92" data-name="타원 92" cx="23" cy="23" r="23" transform="translate(476 474)" fill="url(#linear-gradient)"/>
      <path id="패스_3019" data-name="패스 3019" d="M2236.563,2050.818a12.282,12.282,0,0,1-3-2.242c-1.517,1.277-4.8,1.967-6.83,1.967-6.624,0-9.867-3.14-9.763-8.348.1-3.795,2.691-5.968,5.312-7.072a8.717,8.717,0,0,1-3.174-6.554c0-4.416,3.8-6.383,8.108-6.383,4.277,0,8.141,2.588,7.21,7.106a9.418,9.418,0,0,1-4.45,6.037l3.76,4.52a9.8,9.8,0,0,0,.656-3.864l6.383.966a13.881,13.881,0,0,1-3.1,7.521,19.854,19.854,0,0,0,3.588,2.9Zm-11.35-12.419a4.641,4.641,0,0,0-1.76,3.691c0,2.347,1.346,3.761,3.243,3.761a4.559,4.559,0,0,0,3.449-1.38Zm2.036-12.109c-.931,0-1.519.9-1.69,2.139a3.9,3.9,0,0,0,1.517,3.175C2228.732,2030.5,2229.836,2026.29,2227.249,2026.29Z" transform="translate(-1730.233 -1539.752)" fill="#fff"/>
    </g>
    <g id="그룹_3083" data-name="그룹 3083" transform="translate(22 435)">
      <path id="패스_3015" data-name="패스 3015" d="M1930.543,1998.1v-8.092h11.03v-4.075H1954.4v4.075h11.029v8.092Zm17.5,19.238c-10.07,0-16.365-3.177-16.365-9.17,0-5.934,6.295-9.11,16.365-9.11,9.89,0,16.244,3.176,16.244,9.17a6.815,6.815,0,0,1-1.139,3.956C1960.874,2015.485,1955.479,2017.343,1948.046,2017.343Zm-12.828,22.236v-20.857h12.168v3.3h20.321v-3.3H1980v20.857Zm12.828-33.024c-3.057,0-5.095.479-5.095,1.618,0,1.259,2.038,1.677,5.095,1.677a14.46,14.46,0,0,0,3.6-.359c.9-.24,1.379-.659,1.379-1.259C1953.021,2007.034,1950.984,2006.555,1948.046,2006.555Zm19.661,22.594h-20.321v2.758h20.321Zm0-11.986v-30.027H1980v10.189h5.155v10.788H1980v9.05Z" transform="translate(-1930.543 -1985.938)" fill="#333"/>
      <path id="패스_3016" data-name="패스 3016" d="M2040.326,2017.064v-3.536h-10.071v-8.511h10.071v-3.057h-8.452c-5.156,8.691-15.645,13.845-26.735,15.1l-3.955-8.93c9.231-.96,17.022-5.094,19.3-10.129h-16.6V1988.3h31.11v2.038a16.486,16.486,0,0,1-.18,2.517h5.515v-5.394h12.168v29.607Zm0,23.255v-11.448h-33.688v-10.249h45.856v21.7Z" transform="translate(-1948.372 -1986.319)" fill="#333"/>
      <path id="패스_3017" data-name="패스 3017" d="M2105.592,2027.433v12.587h-12.529v-12.587h-20.2v-10.248h52.989v10.248Zm14.446-12.046c-7.672-1.438-15.4-4.735-20.679-10.489-5.1,5.575-13.188,9.59-20.68,11.028L2073.1,2007c8.811-2.1,19.841-7.552,19.841-16.182V1987.7h12.828v3.117c0,8.63,11.029,14.084,19.841,15.7Z" transform="translate(-1966.465 -1986.379)" fill="#333"/>
      <path id="패스_3018" data-name="패스 3018" d="M2142.7,2026.894c12.528-6.294,20.02-14.864,21.759-27.151H2145.52v-10.548h31.65v3.776c0,19.6-10.97,34.462-28.113,41.833Zm40.221,13.065v-52.5h12.168v52.5Z" transform="translate(-1984.092 -1986.319)" fill="#333"/>
    </g>
    <g id="그룹_3084" data-name="그룹 3084" transform="translate(51 513)">
      <path id="패스_3020" data-name="패스 3020" d="M2265.828,2017.494c-10.251,0-17.084-6.1-17.084-14.988,0-8.7,6.833-14.989,17.084-14.989,10.31,0,17.143,6.225,17.143,15.049a14.53,14.53,0,0,1-1.26,6.043C2279.314,2014.049,2273.56,2017.494,2265.828,2017.494Zm-12.229,22.663v-19.883h12.169v9.549h33.267v10.335Zm12.229-42.91a5.229,5.229,0,0,0,0,10.456,5,5,0,0,0,5.214-5.137A5.107,5.107,0,0,0,2265.828,1997.247Zm20.68,27.257v-37.047h12.168V2024.5Z" transform="translate(-2248.744 -1987.457)" fill="#333"/>
      <path id="패스_3021" data-name="패스 3021" d="M2355.15,2032c-8.751,1.935-22.777,3.022-33.926,2.538v-45.627h30.69v10.4h-18.822v6.889h16.124v10.153h-16.124v7.494c6.534,0,14.745-.422,20.62-1.874Zm3.237,8.4v-23.69h-7.373v-10.394h7.373v-18.855h12.168v52.94Z" transform="translate(-2266.781 -1987.457)" fill="#333"/>
      <path id="패스_3022" data-name="패스 3022" d="M2421.153,2040.6v-12.39h-8.812a108.009,108.009,0,0,1-2.517,12.45l-11.928-1.148a72.367,72.367,0,0,0,2.277-11.3h-10.31v-10.033h52.989v10.033h-10.31v12.39Zm-27.513-25.505v-26.835h11.869v4.11h21.639v-4.11h11.928v26.835Zm33.508-13.236h-21.639v3.5h21.639Z" transform="translate(-2283.852 -1987.658)" fill="#333"/>
    </g>
  </g>
</svg>
