<svg xmlns="http://www.w3.org/2000/svg" width="599.701" height="824.589" viewBox="0 0 599.701 824.589">
  <g id="그룹_1" data-name="그룹 1" transform="translate(-111 -127.706)">
    <path id="btn_sort_asc" d="M983.7,491.85a38,38,0,0,1-37.481,37.481H421.481A37.271,37.271,0,0,1,395.127,465.5L657.5,203.127a36.772,36.772,0,0,1,52.708,0L972.574,465.5Z" transform="translate(-273 -64.294)"/>
    <path id="btn_sort_asc-2" fill="#087D55" data-name="btn_sort_asc" d="M983.7,716.738a36.02,36.02,0,0,1-11.127,26.354L710.2,1005.461a36.772,36.772,0,0,1-52.708,0L395.127,743.092a37.482,37.482,0,0,1,26.354-63.835H946.22A38,38,0,0,1,983.7,716.738Z" transform="translate(-273 -64.294)"/>
  </g>
</svg>
