<?xml version="1.0" encoding="utf-8"?>
<!-- Generator: Adobe Illustrator 24.2.3, SVG Export Plug-In . SVG Version: 6.00 Build 0)  -->
<svg version="1.1" id="Outlined" xmlns="http://www.w3.org/2000/svg" xmlns:xlink="http://www.w3.org/1999/xlink" x="0px" y="0px"
	 viewBox="0 0 32 32" style="enable-background:new 0 0 32 32;" xml:space="preserve">
<style type="text/css">
	.st0{fill:#FFFFFF;}
</style>
<g id="Fill">
	<path class="st0" d="M28.1,13.3L2.1,2.1l5.3,12.8c0.3,0.7,0.3,1.6,0,2.3L2.1,29.9l26-11c1.5-0.7,2.2-2.4,1.6-3.9
		C29.4,14.2,28.8,13.7,28.1,13.3L28.1,13.3z M27.3,17L5.9,26.1l3.4-8.2c0.1-0.3,0.2-0.6,0.3-0.9H20v-2H9.6c-0.1-0.3-0.2-0.6-0.3-0.9
		L5.9,5.9l21.5,9.3c0.4,0.2,0.6,0.5,0.6,0.9C27.9,16.5,27.7,16.8,27.3,17z"/>
</g>
</svg>
