<?xml version="1.0" encoding="utf-8"?>
<!-- Generator: Adobe Illustrator 24.0.2, SVG Export Plug-In . SVG Version: 6.00 Build 0)  -->
<svg version="1.1" id="Layer_1" xmlns="http://www.w3.org/2000/svg" xmlns:xlink="http://www.w3.org/1999/xlink" x="0px" y="0px"
	 viewBox="0 0 32.7 28.8" style="enable-background:new 0 0 32.7 28.8;" xml:space="preserve">
<style type="text/css">
	.st0{fill-rule:evenodd;clip-rule:evenodd;fill:#FFFFFF;}
</style>
<path class="st0" d="M32.1,8.1L9.7,27c-0.2,0.2-0.4,0.3-0.7,0.3l-7.1,1.4c-0.6,0.1-1.1-0.1-1.5-0.5c-0.4-0.4-0.5-1-0.3-1.6l2.6-6.8
	c0.1-0.2,0.3-0.5,0.5-0.6L25.6,0.4c0.7-0.6,1.7-0.5,2.2,0.2l4.5,5.4C32.9,6.6,32.8,7.6,32.1,8.1L32.1,8.1z M21.2,8.2L5.5,21.4
	l-1.4,3.7L8,24.4l15.7-13.2L21.2,8.2L21.2,8.2z M23.6,6.2l2.5,3l2.8-2.4l-2.5-3L23.6,6.2L23.6,6.2z"/>
</svg>
