<svg xmlns="http://www.w3.org/2000/svg" width="24" height="24" viewBox="0 0 24 24"><defs><style>.a,.b{fill:none;stroke-linecap:round;stroke-linejoin:round;}.b{stroke:#999;stroke-width:1.5px;}.c,.d{stroke:none;}.d{fill:#999;}</style></defs><g transform="translate(-3 -3)"><g class="a"><path class="c" d="M27,15A12,12,0,1,1,15,3,12,12,0,0,1,27,15Z"/><path class="d" d="M 15 25.5 C 20.78972053527832 25.5 25.5 20.78972053527832 25.5 15 C 25.5 9.210280418395996 20.78972053527832 4.5 15 4.5 C 9.210280418395996 4.5 4.5 9.210280418395996 4.5 15 C 4.5 20.78972053527832 9.210280418395996 25.5 15 25.5 M 15 27 C 8.372579574584961 27 3 21.62742042541504 3 15 C 3 8.372579574584961 8.372579574584961 3 15 3 C 21.62742042541504 3 27 8.372579574584961 27 15 C 27 21.62742042541504 21.62742042541504 27 15 27 Z"/></g><path class="b" d="M18,11v7l5,2" transform="translate(-3 -1)"/></g></svg>