<svg xmlns="http://www.w3.org/2000/svg" width="23.616" height="23.616" viewBox="0 0 23.616 23.616"><defs><style>.a{fill:#fff;}.b,.d{fill:none;}.b{stroke:#fff;stroke-width:1.5px;}.c{stroke:none;}</style></defs><g transform="translate(-384 -20)"><path class="a" d="M7.351,21.146a10.363,10.363,0,0,1-5.875-8.354H0A11.8,11.8,0,0,0,11.759,23.616c.226,0,.433-.02.649-.03L8.659,19.828ZM11.857,0c-.226,0-.433.02-.649.039l3.749,3.749L16.266,2.48a10.333,10.333,0,0,1,5.875,8.344h1.476A11.8,11.8,0,0,0,11.857,0Z" transform="translate(384 20)"/><g class="b" transform="translate(397.869 24.592) rotate(45)"><rect class="c" width="7.872" height="13.12" rx="1"/><rect class="d" x="0.75" y="0.75" width="6.372" height="11.62" rx="0.25"/></g></g></svg>