<svg xmlns="http://www.w3.org/2000/svg" width="18" height="22" viewBox="0 0 18 22">
  <g id="전체화면" transform="translate(-1536 -205)">
    <g id="그룹_3034" data-name="그룹 3034">
      <g id="Icon_ionic-md-document" data-name="Icon ionic-md-document" fill="#fff">
        <path d="M 1552.124755859375 225.9998016357422 L 1537.874633789062 225.9998016357422 C 1537.400512695312 225.9998016357422 1536.999877929688 225.4890594482422 1536.999877929688 224.8845062255859 L 1536.999877929688 207.1154022216797 C 1536.999877929688 206.5106201171875 1537.400512695312 205.9996948242188 1537.874633789062 205.9996948242188 L 1547.549438476562 205.9996948242188 L 1552.999389648438 212.1484985351562 L 1552.999389648438 224.8845062255859 C 1552.999389648438 225.4890594482422 1552.598876953125 225.9998016357422 1552.124755859375 225.9998016357422 Z" stroke="none"/>
        <path d="M 1538.017944335938 206.9997100830078 C 1538.008056640625 207.0280914306641 1537.999877929688 207.0668487548828 1537.999877929688 207.1153869628906 L 1537.999877929688 224.8844909667969 C 1537.999877929688 224.9328460693359 1538.008056640625 224.9714813232422 1538.017822265625 224.9998016357422 L 1551.9814453125 224.9998016357422 C 1551.9912109375 224.9714813232422 1551.999389648438 224.9328460693359 1551.999389648438 224.8844909667969 L 1551.999389648438 212.5279083251953 L 1547.099487304688 206.9997100830078 L 1538.017944335938 206.9997100830078 M 1537.874633789062 204.9997100830078 L 1547.999389648438 204.9997100830078 L 1553.999389648438 211.7691192626953 L 1553.999389648438 224.8844909667969 C 1553.999389648438 226.0527038574219 1553.16015625 226.9998016357422 1552.124755859375 226.9998016357422 L 1537.874633789062 226.9998016357422 C 1536.838989257812 226.9998016357422 1535.999877929688 226.0527038574219 1535.999877929688 224.8844909667969 L 1535.999877929688 207.1153869628906 C 1535.999877929688 205.9468078613281 1536.838989257812 204.9997100830078 1537.874633789062 204.9997100830078 Z" stroke="none" fill="#333"/>
      </g>
      <g id="Icon_ionic-md-document-2" data-name="Icon ionic-md-document" fill="#333">
        <path d="M 1551.585205078125 210.9998016357422 L 1547.99951171875 210.9998016357422 L 1547.99951171875 207.4139709472656 L 1551.585205078125 210.9998016357422 Z" stroke="none"/>
        <path d="M 1553.999389648438 211.9998016357422 L 1546.99951171875 211.9998016357422 L 1546.99951171875 204.9997100830078 L 1553.999389648438 211.9998016357422 Z" stroke="none" fill="#333"/>
      </g>
    </g>
    <path id="Icon_awesome-expand-arrows-alt" data-name="Icon awesome-expand-arrows-alt" d="M1550,219.964v2.5a.534.534,0,0,1-.536.536h-2.5a.537.537,0,0,1-.38-.915l.808-.808L1545,218.884l-2.394,2.4.809.806a.537.537,0,0,1-.38.915h-2.5a.535.535,0,0,1-.536-.536v-2.5a.536.536,0,0,1,.915-.38l.808.808,2.395-2.393-2.395-2.4-.808.81a.536.536,0,0,1-.915-.38v-2.5a.535.535,0,0,1,.536-.536h2.5a.537.537,0,0,1,.38.915l-.808.808,2.393,2.393,2.393-2.4-.809-.806a.537.537,0,0,1,.38-.915h2.5a.534.534,0,0,1,.536.536v2.5a.536.536,0,0,1-.915.38l-.808-.808L1545.882,218l2.395,2.4.808-.808A.535.535,0,0,1,1550,219.964Z" fill="#333"/>
  </g>
</svg>
