<svg xmlns="http://www.w3.org/2000/svg" width="15.989" height="15" viewBox="0 0 15.989 15">
  <g id="끝으로" transform="translate(-770 -716)">
    <path id="Icon_awesome-play_copy_2" data-name="Icon awesome-play copy 2" d="M782.631,722.289l-10.476-6.1A1.421,1.421,0,0,0,770,717.4v12.19a1.428,1.428,0,0,0,2.155,1.21l10.476-6.094A1.394,1.394,0,0,0,782.631,722.289Z" fill="#fff"/>
    <path id="사각형_104" data-name="사각형 104" d="M782.989,717a1,1,0,0,1,1-1h1a1,1,0,0,1,1,1v13a1,1,0,0,1-1,1h-1a1,1,0,0,1-1-1Z" fill="#fff"/>
  </g>
</svg>
