<svg xmlns="http://www.w3.org/2000/svg" width="26.667" height="15" viewBox="0 0 26.667 15"><defs><style>.a{fill:#fff;}</style></defs><g transform="translate(27.111 14.92) rotate(180)"><path class="a" d="M6.643,1.429a1,1,0,0,1,1.715,0l5.734,9.556a1,1,0,0,1-.857,1.514H1.766a1,1,0,0,1-.857-1.514Z" transform="translate(12.944 -0.08) rotate(90)"/><path class="a" d="M6.628,1.549a1,1,0,0,1,1.743,0l5.79,10.294a1,1,0,0,1-.872,1.49H1.71a1,1,0,0,1-.872-1.49Z" transform="translate(27.111 -0.08) rotate(90)"/></g></svg>