<svg xmlns="http://www.w3.org/2000/svg" width="423" height="157" viewBox="0 0 423 157"><defs><style>.a{fill:#fff;}.b{fill:#ffd2b0;}.c{fill:#e67545;}.d{fill:#d9875f;}.e{fill:#f6c398;}.f{fill:#7aa679;}.g{fill:#b6b8bc;}.h{fill:#6e423d;}.i{fill:#b8633b;}.j{fill:#ffdd80;}.k{fill:#fffbf0;}.l{fill:#efb868;}.m{fill:#9aa6be;}.n{fill:#5b2714;}</style></defs><g transform="translate(1337.614 -2901.107)"><g transform="translate(-1337.614 2901.107)"><g transform="translate(0 0)"><path class="a" d="M515.827,3683.334l43.391-3.133,21.737,5.029-54.053,3.132Z" transform="translate(-182.089 -3540.266)"/><path class="a" d="M1.289,3710.818l22.315-4.452,35.374.907,26.2,1.566.165,2.721-64.963,1.072-19.009-1.072Z" transform="translate(239.8 -3561.731)"/><path class="a" d="M-566.954,3727.344s.166-1.154,2.479-2.391c4.3-2.226,13.968-5.111,30.167-5.688,25.126-.825,67.773,4.287,67.773,4.287a7.663,7.663,0,0,0-.083,1.813c0,.825.083,2.061.083,2.061l-72.484,1.32Z" transform="translate(705.722 -3572.241)"/><path class="b" d="M-859.336,3056.242s3.388-1.236,4.711-1.9c2.976-1.566,7.769-5.358,8.348-9.151.579-3.874-.165-7.419,2.975-10.47,1.322-1.319,3.719-1.484,5.372-1.236,3.8.577,6.943,2.638,10.579,3.709,5.041,1.484,10.579.248,15.455-.824,1.57-.33,3.058-1.154,4.628-1.567,1.075-.247,2.066-.906,3.223-.824,3.306.33,6.281,1.814,7.273,5.194.827,2.72-.248,6.6-1.736,8.986-.578.907-1.4,2.638-2.479,4.287s-2.727,4.2-3.554,5.771c-.661,1.4-.744,2.72-2.562,5.358s-9.008,11.047-11.984,12.531a6.337,6.337,0,0,1-5.951.083,43.7,43.7,0,0,1-3.719-2.309s-2.728,2.556-3.8,3.875a6.655,6.655,0,0,0,.083,2.556c.248.907-.992,2.885-1.24,3.792-1.323,4.534-7.108,5.688-11.075,4.2-8.513-3.3-11.323-13.933-13.389-21.765a49.443,49.443,0,0,1-1.075-7.007C-859.254,3059.045-859.336,3056.242-859.336,3056.242Z" transform="translate(945.457 -3009.632)"/><path class="c" d="M-330.122,3295.1l26.448,8.821a55.817,55.817,0,0,0,5.372,3.792,116.009,116.009,0,0,1,9.835,7.008c2.314,1.9,6.2,7.008,8.265,10.717,2.232,3.957,4.381,7.832,6.529,11.13a160.1,160.1,0,0,0,11.984,16.571,49.931,49.931,0,0,1-9.422,2.555c-1.57.248-10,1.154-10,1.154a72.756,72.756,0,0,0-6.446-7.584,22.722,22.722,0,0,0-5.951-4.122l-1.24,10.305a61.081,61.081,0,0,1,9.009.247c2.645.495,1.488,1.319,1.488,1.319l-6.282,15.334-12.645,1.072-49.59-8.739-17.274-10.964s4.38-26.052,11.819-37.841c4.711-7.42,10.992-11.377,16.778-14.675,3.554-1.979,6.695-4.04,8.761-5.112A15.458,15.458,0,0,1-330.122,3295.1Z" transform="translate(544.267 -3224.336)"/><path class="b" d="M-138.712,3137.556c.331,4.287-2.562,7.914-5.207,11.212a24.478,24.478,0,0,1-3.967,3.051s.5,2.391.661,3.05c.413,1.814,1.074,3.628,1.488,5.441.5,2.391,2.066,11.377,2.066,11.377a107.654,107.654,0,0,0,6.777,8.574,25.657,25.657,0,0,0,4.546,3.875,4.548,4.548,0,0,0,3.058.99c.5-.083,1.9-1.484,3.141-3.71a26.015,26.015,0,0,0,2.975-10.553,43.2,43.2,0,0,0-1.157-7.419,40.02,40.02,0,0,1,2.479-3.463c.165-.165.909-.989.909-.989s2.562-.082,3.306-.165c1.405-.165,3.719-1.9,4.711-2.8a29.659,29.659,0,0,0,5.62-7.584c1.24-2.309,1.571-4.947,2.149-7.173s1.074-3.628,1.488-5.524a23.552,23.552,0,0,0,.661-3.463,10.124,10.124,0,0,0-3.637-9.893c-3.967-3.38-10.827-2.556-15.455-2.144-1.157.083-2.314.165-3.471.33-6.364.742-16.447,2.8-15.786,11.212a8.723,8.723,0,0,0,1.074,3.792C-139.7,3136.155-138.712,3136.732-138.712,3137.556Z" transform="translate(362.113 -3080.559)"/><path class="d" d="M337.245,3108.969a7.9,7.9,0,0,1,1.074-2.226c1.984-1.979,4.215-2.391,5.868-4.7,1.653-2.143,0-5.276,1.405-7.584.909-1.484,3.884-3.215,5.124-4.2a19.012,19.012,0,0,0,4.876-5.688c2.562-4.287,2.231-9.316,4.463-13.686,2.562-5.111,6.529-7.75,11.488-10.222,2.066-1.072,5.868-1.484,8.182-1.484a15.227,15.227,0,0,1,5.124.907,14.125,14.125,0,0,1,4.628,2.226c.992.742,2.48,1.732,3.471,2.473a20.212,20.212,0,0,1,2.976,2.969c1.074,1.484,1.818,2.308,2.81,3.875a19.052,19.052,0,0,1,2.066,5.853,17.4,17.4,0,0,1-.33,4.616,19.564,19.564,0,0,1-.992,4.2,41.093,41.093,0,0,0-2.314,7.667c-.826,4.04,2.314,7.42,0,11.295-1.653,2.8-5.29,4.7-7.273,7.255a8.582,8.582,0,0,0-1.075,3.957s-5.207,2.144-7.108,2.721c-8.348,2.8-17.852,2.391-26.365.66a34.353,34.353,0,0,1-14.3-6.843,21.264,21.264,0,0,1-2.975-3.133C337.824,3109.712,337.162,3109.3,337.245,3108.969Z" transform="translate(-35.657 -3030.784)"/><path class="e" d="M414.389,3170.911s3.058-1.237,4.3-1.814c4.959-2.143,9.174-5.771,10.331-11.212a3.991,3.991,0,0,0-.992-3.38c-.827-.989-1.074-3.875-.331-4.947,1.818-2.555,4.05.165,6.364.577.661.083,3.637-.165,3.637-.165s5.207.083,5.868-.247a16.061,16.061,0,0,0,5.7-4.7c1.074-1.483,1.322-2.473,4.463-2.143a7.3,7.3,0,0,1,6.116,5.771c.331,1.9-1.24,5.936-1.818,7.75-1.57,4.782-1.322,8-4.38,12.284-1.571,2.143-4.05,4.452-6.695,5.111a20.389,20.389,0,0,1-3.967,0l-2.479,2.968s.33,1.814.413,2.061a6.632,6.632,0,0,1,.083,2.226c-.661,3.71-5.7,4.2-8.6,3.875a21.6,21.6,0,0,1-9.918-4.122c-2.066-1.484-3.8-2.556-5.207-4.781-.661-1.072-1.57-2.473-2.149-3.627C414.8,3171.818,414.389,3170.911,414.389,3170.911Z" transform="translate(-98.916 -3099.404)"/><path class="f" d="M295.388,3299.231s5.455,11.872,16.778,13.6c2.81.412,6.695.412,8.265-1.4,2.149-2.556.248-5.689.248-5.689l1.322-1.319s-.083.5,2.562,2.556c1.736,1.319,5.042,3.3,9.091,6.513,2.728,2.226,5.951,6.678,9.091,10.882a98.289,98.289,0,0,0,8.926,10.471,55.558,55.558,0,0,0,13.306,10.14L353.408,3355.7s-7.934-4.781-13.306-8.573a75.107,75.107,0,0,1-8.182-6.513l-2.81,6.678a14.981,14.981,0,0,0-2.232,4.287,56.48,56.48,0,0,0-1.983,6.76l8.017.412-.661,11.46s-12.315.412-26.035.989c-3.637.165-8.017.577-11.488.66-4.793.165-9.422.494-12.893-.5-15.621-4.2-12.15-18.137-12.15-18.137s.248-4.452.909-11.13c.827-8.409,2.479-20.033,6.033-27.618,2.81-6.018,5.785-9.069,9.339-11.294A36.122,36.122,0,0,1,295.388,3299.231Z" transform="translate(20.003 -3227.723)"/><path class="g" d="M768.709,3495.838l2.232-1.072,24.133,1.649.165.824-9.753,10.058-20.58,18.879-2.149.659-9.835-.495-4.38-12.284Z" transform="translate(-372.9 -3388.138)"/><path class="e" d="M848.6,3558.257a19.555,19.555,0,0,0,2.066-1.814c.661-.66,3.306-2.968,3.306-2.968s-.826-.907-1.57-1.731-3.8-3.051-2.81-5.029c.165-.33.909-.247,1.157-.165a19.66,19.66,0,0,1,3.388,1.9c.083.083,1.57.742,1.57.742.083-.247-1.24-1.649-1.322-1.813-.991-1.155-2.893-2.721-3.306-4.2-.165-.66-.413-1.566.331-1.979a1.9,1.9,0,0,1,2.066.577c1.322,1.237,2.645,2.473,4.05,3.628.248.165,1.322,1.567,1.653,1.4.082,0,0-.577-.083-.577a2.9,2.9,0,0,0-1.157-1.814c-1.4-1.4-3.306-2.061-4.628-3.71-.5-.577-1.571-1.237-.661-2.144.5-.495,1.984-.083,2.562,0,2.314.495,4.05,1.979,5.7,3.545.579.577,1.157,1.072,1.818,1.649.083.082.5.412.661.33.578-.578-.331-1.9-.744-2.227-1.4-1.4-3.471-1.978-4.711-3.462-.248-.33-.992-1.319-.661-1.813.579-.825,1.488-.577,2.232-.5a14.4,14.4,0,0,1,3.306,1.237,9.946,9.946,0,0,1,3.719,2.226,4.778,4.778,0,0,1,.909,1.979,2.543,2.543,0,0,1-1.074,2.473c-.827.495-1.322.165-1.818.99-.413.659-.744,2.638-1.239,3.38s-.909,1.154-1.4,1.9a22.412,22.412,0,0,1-6.282,6.183,19.529,19.529,0,0,1-4.3,1.731c-.331.083-1.57.495-1.57.495Z" transform="translate(-454.943 -3421.949)"/><path class="e" d="M613.11,3581.846s2.066,0,2.645-.082c2.645-.577,4.38-.907,6.529-2.638,1.9-1.484,3.058-3.792,4.877-5.358,2.314-1.979,5.289-2.473,8.182-2.391,1.24,0,2.563-.412,3.719-.082.331.082.5.659.579,1.072s-.579,1.072-.744,1.154c-1.57.908-3.471,1.072-5.042,2.062-.165.082-1.818,1.154-1.735,1.319s.909-.082.992-.082a31.867,31.867,0,0,1,3.967,0,54.059,54.059,0,0,0,6.529,0s4.05.577,4.215,1.4a6.483,6.483,0,0,1,0,1.319s1.24.495,1.322,1.4c.082.824-1.818,1.9-1.818,1.9a2.784,2.784,0,0,1-1.322,1.484,21.221,21.221,0,0,1-2.975,1.484,41.846,41.846,0,0,1-5.042,4.534,18.05,18.05,0,0,1-6.529,2.226c-.5.082-7.108.412-9.587.577a28.685,28.685,0,0,1-5.951,0c-.661-.082-3.719.165-3.719.165s-1.074-4.947-.578-6.513C611.871,3586.3,613.11,3581.846,613.11,3581.846Z" transform="translate(-260.528 -3450.815)"/><path class="b" d="M72.061,3610.129s.331-.66-2.645,3.133c-.578.66-1.735,4.287-1.983,5.112-.661,2.143-.083,6.925.579,7.173a11.735,11.735,0,0,0,3.389-.083c1.9-.247,3.719-.247,5.538-.659a27.031,27.031,0,0,1,5.785-.083c3.058.165,5.207.412,8.265.742a60.28,60.28,0,0,0,10,.248c2.149-.248,3.554.165,5.372,0a7.683,7.683,0,0,0,2.727-.578c.33-.247.33-1.9.33-1.9s.827-.247,1.157-.33c1.074-.33,2.4-.495,2.727-1.731a7.582,7.582,0,0,0,.165-2.061,15.359,15.359,0,0,0,1.653-2.556,13.746,13.746,0,0,0,.578-1.649s2.4-1.978,2.314-3.462c-.083-2.061-3.719-3.957-5.951-5.277a20.607,20.607,0,0,0-7.025-2.226c-2.479-.165-4.959,1.237-7.108,2.062-2.232.824-10.414,3.71-16.117,4.039-2.562.165-3.884.33-6.447.33C74.706,3610.376,72.061,3610.129,72.061,3610.129Z" transform="translate(185.805 -3477.696)"/><path class="b" d="M-579.847,3611.092s-.992.99-1.736,1.9c-2.562,3.133-2.81,8.9-1.984,12.7.331,1.319.992,4.451,2.727,4.781.413.083.827-.412,1.157-.495a54.226,54.226,0,0,1,8.926-1.319c1.818,0,3.388-.248,5.289-.082,2.562.165,5.124.329,7.686.329,3.141.083,6.282.825,9.422.742,2.066-.083,4.877-.495,6.943-.495,2.727-.083,4.794.824,7.6.412a4.023,4.023,0,0,0,2.232-1.566l3.389-1.319s3.141-.165,3.885-.248c1.818-.082,9.174.825,11.571.907,2.562.083,4.711-.247,7.521-.165,1.157,0,3.389.33,4.546.247a6.546,6.546,0,0,0,2.48-.412,3.606,3.606,0,0,0,1.074-.743l7.686.248a4.838,4.838,0,0,0,1.157.165,15.4,15.4,0,0,0,1.9.083,3.572,3.572,0,0,0,1.405-.66s1.653.742,2.066.908c.5.247,1.653.824,2.149.577,2.066-.742,2.479-5.111,2.562-6.925a5.6,5.6,0,0,0-.744-3.215,9.154,9.154,0,0,0-2.066-1.483s-.33-1.979-1.735-2.556a16.328,16.328,0,0,0-3.967-.5c-2.149-.083-7.356-.495-7.356-.495s-2.975-3.792-5.785-3.215a20.921,20.921,0,0,0-5.042,2.226,42.717,42.717,0,0,1-6.116,2.391,17.711,17.711,0,0,1-5.538.906c-1.735.083-6.612,0-6.612,0s1.488-2.8.826-3.709a22.113,22.113,0,0,0-5.289-5.441,16.534,16.534,0,0,0-7.108-3.545c-1.57-.247-3.884.989-5.455,1.484-1.653.577-4.215,1.813-6.364,2.391a125.559,125.559,0,0,1-12.15,3.215,108.258,108.258,0,0,1-12.645,1.649C-575.053,3611.092-579.847,3611.092-579.847,3611.092Z" transform="translate(719.69 -3476.104)"/><path class="h" d="M-209.4,3083.586a32.206,32.206,0,0,0,5.62-14.922c.165-1.979.33-4.617.5-6.6.5-6.018,0-10.882,1.157-16.818.826-4.287,2.562-9.4,6.529-12.366a12.49,12.49,0,0,1,10-2.308,24.206,24.206,0,0,1,3.471,1.319,45.979,45.979,0,0,1,4.546-1.237,24.791,24.791,0,0,1,8.182.165,23.412,23.412,0,0,1,8.678,3.463c1.157.907,6.695,5.194,8.347,7.42,2.562,3.38,5.29,7.667,4.381,11.954a7.964,7.964,0,0,1-3.389,4.287c-.248.082-1.818.494-1.818.494s-.248-2.8-.413-3.462a12.128,12.128,0,0,0-2.562-5.029,5.587,5.587,0,0,0-3.554-1.567c-2.149-.33-2.727,3.38-4.132,4.122-2.48,1.237-8.182,1.484-8.182,1.484s-3.058,2.556-5.124,3.05a14.69,14.69,0,0,1-6.282-.164c-1.487-.33-3.885-2.721-5.538-1.732a6.257,6.257,0,0,0-1.818,1.484c-.826,1.566-.579,2.968.165,4.7.579,1.4,1.9,2.556,1.488,4.287a26.265,26.265,0,0,1-4.628,9.233,14.021,14.021,0,0,1-3.141,2.638c-1.322.659-1.984.412-3.058,1.072-1.9,1.154-3.719,2.309-5.62,3.38A21.463,21.463,0,0,1-209.4,3083.586Z" transform="translate(412.553 -3007.132)"/><path class="i" d="M-806.54,2942.174c-.578-.907.248-2.061.661-3.215a12.879,12.879,0,0,0,.744-4.617c-.248-4.369-1.488-8.986-.083-13.191a31.2,31.2,0,0,1,3.223-6.43,19.432,19.432,0,0,1,11.241-9.069c2.4-.824,5.207-.33,7.686-.824,3.967-.825,7.438-1.814,11.571-1.072,3.058.495,5.868,2.968,8.182,4.864,1.24,1.072,3.141,2.638,4.463,3.71a19.244,19.244,0,0,1,2.975,2.8c1.488,1.9,2.066,4.04,3.141,6.1.909,1.731,2.149,3.462,2.976,5.193,1.983,4.04,2.4,9.729-2.314,12.614-.331.164-2.48.906-2.48.906s.827-2.968.579-3.627a9.709,9.709,0,0,0-6.033-6.018,8.8,8.8,0,0,0-5.455-.165,77.58,77.58,0,0,0-8.43,2.8c-1.322.495-5.868-.247-5.868-.247a20.872,20.872,0,0,1-5.7,1.731c-2.893.33-4.876-1.237-6.942-2.885-1.488-1.237-3.389-3.133-5.7-2.474a4.81,4.81,0,0,0-3.141,3.051,9.507,9.507,0,0,0,.166,4.369c.165.742.661,1.237.413,2.061a7.1,7.1,0,0,1-1.653,2.144,9.707,9.707,0,0,1-2.479,1.567C-805.548,2942.421-806.209,2942.669-806.54,2942.174Z" transform="translate(902.33 -2903.066)"/><path class="j" d="M-1173.093,3160.614s-4.628,1.649-7.438,2.473a98.825,98.825,0,0,0-17.935,7.338,59.342,59.342,0,0,0-15.373,12.2c-3.554,3.957-5.29,7.667-7.521,12.449-1.653,3.545-3.719,9.068-5.042,12.779-2.976,8.326-4.794,14.262-7.6,22.672-2.645,8-4.876,16.9-6.86,25.062-.5,2.226-.909,5.524-1.405,7.75-.165.66-.331,2.885-.331,2.885l39.672-1.319a16.271,16.271,0,0,0,2.314,2.144c1.9,1.4,5.124,1.484,7.356,1.814,11.984,1.483,24.216.907,36.283.907,5.62,0,11.406-.248,17.109-.248,3.884,0,6.777.33,10.414-.082,2.4-.248,4.959-.083,7.356-.577.165,0,1.157-.33,1.24-.577.165-.495-1.24-1.567-1.4-1.9a15.44,15.44,0,0,1-1.405-4.7c-.331-3.3-.578-8.079,1.984-10.635a20.117,20.117,0,0,1,2.4-2.308c.33-.165,2.645.165,5.951.082,2.893-.082,6.777-.577,8.182-.742,2.975-.412,5.537-.742,5.537-.742s-3.058-3.957-4.3-5.276c-1.653-1.814-4.546-5.771-7.025-8.739a72.514,72.514,0,0,1-7.935-11.872c-1.57-2.968-3.141-6.018-4.546-9.069-.909-1.979-2.066-4.7-2.975-6.678-1.322-2.968-2.645-6.266-3.719-9.316a60.415,60.415,0,0,0-3.719-8.162c-1.157-2.061-3.967-7.42-3.967-7.42s-1.405-.659-3.389-1.484a8.032,8.032,0,0,1-1.653-1.319l-4.628,4.122a23.3,23.3,0,0,1-.165,3.875c-1.075,4.122-3.554,7.337-8.348,6.183a16.635,16.635,0,0,1-2.893-.824c-4.628-2.061-9.339-8.409-10.414-13.19-.5-2.144-1.24-3.38-1.818-5.524C-1171.936,3170.259-1173.093,3160.614-1173.093,3160.614Zm30.828,76.176c.165-.082,1.157,3.05,2.975,5.194a51.123,51.123,0,0,0,5.951,5.524c-.083-.082-13.059.082-13.141,0C-1146.645,3247.26-1142.43,3236.872-1142.265,3236.79Z" transform="translate(1259.71 -3114.003)"/><path class="k" d="M-125.4,3404.343s8.513,13.52,13.72,14.18c4.215.494,7.19-12.7,7.19-12.7a129.315,129.315,0,0,1,.827,16.571c-.083,9.728-1.323,23-1.323,23s-2.314,0-6.529-.33-10.166-1.484-10.166-1.484-.5-11.459-1.405-21.352C-123.99,3412.422-125.4,3404.343-125.4,3404.343Z" transform="translate(343.672 -3313.956)"/><path class="l" d="M255.907,3536.386l-4.463-12.7s.082-1.319.826-1.483,1.736.659,1.736.659,4.959,13.768,4.876,14.51c0,.083-.579-.083-.661-.083C257.395,3537.046,255.907,3536.386,255.907,3536.386Z" transform="translate(34.688 -3410.632)"/><path class="l" d="M317.08,3705.766c.165-1.319,1.24.165,1.075.659-.083.412-.331,1.072-.5.577C317.659,3706.838,317.08,3705.931,317.08,3705.766Z" transform="translate(-19.129 -3560.802)"/><path class="a" d="M-368.526,3531.522s-.413-.825-.578-1.237c-.5-1.072-.91-2.226-1.323-3.3-1.24-3.132-4.711-11.212-4.711-11.212a1.541,1.541,0,0,1,.826-1.566,11.218,11.218,0,0,1,1.653-.165c.5,0,1.157,1.4,1.157,1.4l5.868,14.922Z" transform="translate(548.454 -3403.953)"/><path class="m" d="M-277.055,3739.908a.721.721,0,0,1,1.24-.659s.413,1.649,0,1.813C-276.146,3741.062-277.055,3740.073-277.055,3739.908Z" transform="translate(468.058 -3588.514)"/><g transform="translate(106.752 63.808)"><path class="n" d="M-744.314,3265.3a.454.454,0,0,1-.413-.247.519.519,0,0,1,.248-.66,25.428,25.428,0,0,0,4.711-3.792c1.4-1.319,2.975-2.721,4.711-4.122a.431.431,0,0,1,.661.082.429.429,0,0,1-.083.66c-1.736,1.319-3.306,2.8-4.711,4.04a28.631,28.631,0,0,1-4.959,3.958A.256.256,0,0,1-744.314,3265.3Z" transform="translate(744.758 -3256.363)"/></g><g transform="translate(16.613 36.915)"><path class="n" d="M-1244.859,3222.516h0c-.331,0-.5-.248-.5-.577,2.562-20.2,16.778-64.222,23.886-76.589,8.513-14.922,21.241-20.693,32.564-24.9,2.479-.906,4.711-1.649,6.942-2.391,8.017-2.72,13.885-4.616,18.349-11.212a.541.541,0,0,1,.661-.165.538.538,0,0,1,.165.66c-4.628,6.843-10.91,8.986-18.844,11.624-2.149.742-4.463,1.484-6.86,2.391-11.158,4.2-23.72,9.811-31.985,24.486-7.025,12.366-21.241,56.143-23.8,76.258C-1244.446,3222.351-1244.611,3222.516-1244.859,3222.516Z" transform="translate(1245.355 -3106.636)"/></g><g transform="translate(123.888 71.587)"><path class="n" d="M-615.206,3359.94c-.166,0-.248-.083-.413-.165l-1.075-1.319c-6.2-7.337-14.629-17.4-20.414-29.761-2.727-5.853-4.711-10.883-6.447-15.252-2.149-5.358-3.8-9.646-5.951-13.026a.431.431,0,0,1,.165-.659.433.433,0,0,1,.661.165c2.149,3.462,3.884,7.75,6.033,13.191,1.736,4.37,3.719,9.4,6.447,15.169,5.7,12.284,14.133,22.259,20.249,29.6l1.075,1.319a.429.429,0,0,1-.083.659A.362.362,0,0,1-615.206,3359.94Z" transform="translate(649.592 -3299.672)"/></g><g transform="translate(112.538 103.364)"><path class="n" d="M-712.184,3507.143h-.165a.519.519,0,0,1-.248-.66c1.157-2.8,2.48-6.348,3.884-10.058,2.645-7.173,5.62-15.252,8.513-19.621a.541.541,0,0,1,.661-.165.457.457,0,0,1,.165.659c-2.81,4.287-5.785,12.284-8.348,19.374-1.405,3.793-2.645,7.337-3.885,10.14A.716.716,0,0,1-712.184,3507.143Z" transform="translate(712.628 -3476.591)"/></g><g transform="translate(39.641 102.722)"><path class="n" d="M-1067.763,3526.721c-14.3,0-26.779-.577-30.828-3.133-4.794-2.967-8.926-17.395-12.976-31.328-2.066-7.007-3.967-13.685-5.868-18.549a.518.518,0,0,1,.248-.659.521.521,0,0,1,.661.247c1.9,4.947,3.885,11.542,5.868,18.632,3.8,13.109,8.1,27.948,12.563,30.751,4.629,2.886,21.489,3.133,39.01,2.886,5.372-.083,12.067-.166,17.274-.248h5.7c5.868,0,18.018,0,18.514-1.319a.62.62,0,0,1,.413-.577.621.621,0,0,1,.578.412,1.288,1.288,0,0,1-.248.825c-1.322,1.566-8.844,1.648-19.175,1.648h-5.7c-5.207.083-11.9.165-17.274.248C-1062.061,3526.721-1064.953,3526.721-1067.763,3526.721Z" transform="translate(1117.467 -3473.02)"/></g><g transform="translate(137.859 146.843)"><path class="n" d="M-571.507,3726.02a.463.463,0,0,1-.5-.412.62.62,0,0,1,.413-.577c4.628-.495,8.348-.989,10.662-1.319,4.3-.577,9.174,0,13.472.495,2.066.247,4.05.495,5.786.577a33.128,33.128,0,0,0,6.777-.412,20.034,20.034,0,0,1,5.455-.248l1.074.165c4.3.577,5.207.66,5.868-.577a9.734,9.734,0,0,0,.909-3.792c0-.33.083-.577.083-.824a.486.486,0,0,1,.579-.412.485.485,0,0,1,.413.577c0,.247-.083.495-.083.742a11.329,11.329,0,0,1-.992,4.2c-1.074,1.814-2.479,1.649-6.86,1.072l-1.074-.165a18.706,18.706,0,0,0-5.207.247,34.408,34.408,0,0,1-6.943.412c-1.818-.083-3.719-.33-5.868-.577-4.215-.495-9.009-1.072-13.224-.495-2.314.33-6.033.824-10.744,1.319Z" transform="translate(572.003 -3718.667)"/></g><g transform="translate(187.928 139.602)"><path class="n" d="M-293.427,3690.8a.524.524,0,0,1-.5-.412c-.083-.248.165-.494.413-.578,2.314-.412,4.05-1.731,4.215-2.72.331-2.556-2.231-6.76-3.058-8a.445.445,0,0,1,.165-.659.448.448,0,0,1,.661.165c1.075,1.649,3.637,5.771,3.223,8.656-.248,1.566-2.479,3.133-5.124,3.545Z" transform="translate(293.939 -3678.347)"/></g><g transform="translate(189.483 131.649)"><path class="n" d="M-281.556,3649.53c-.165,0-.248-.082-.413-.165a.429.429,0,0,1,.083-.659c.578-.495,1.074-.824,1.57-1.237,1.074-.742,1.818-1.319,2.066-2.226.248-1.319-.413-2.39-1.24-3.545l-.165-.165a49.728,49.728,0,0,0-4.629-5.688l-.909-.99a.435.435,0,0,1,.083-.659.5.5,0,0,1,.661,0l.909.989a53.168,53.168,0,0,1,4.711,5.771l.083.165c.826,1.237,1.735,2.556,1.322,4.287-.248,1.237-1.24,1.979-2.4,2.8a18.051,18.051,0,0,0-1.488,1.154C-281.308,3649.53-281.391,3649.53-281.556,3649.53Z" transform="translate(285.308 -3634.072)"/></g><g transform="translate(139.43 125.711)"><path class="n" d="M-506.584,3614.655a.431.431,0,0,1-.33-.164.5.5,0,0,1,0-.66c1.24-1.237,1.818-2.638,1.157-3.462a20.525,20.525,0,0,0-3.967-4.04l-.413-.33c-2.479-2.061-5.29-4.369-8.513-3.957-1.24.165-5.042,1.649-9.009,3.215l-.909.33c-4.215,1.649-9.009,3.215-20.828,4.7a95.131,95.131,0,0,1-13.389.578.533.533,0,0,1-.5-.495.533.533,0,0,1,.5-.5h0a82.1,82.1,0,0,0,13.224-.576c11.736-1.4,16.447-2.968,20.58-4.617l.909-.33c4.3-1.649,7.934-3.133,9.257-3.3,3.637-.412,6.777,2.143,9.257,4.2l.413.33a25.072,25.072,0,0,1,4.132,4.2c.909,1.237.413,3.215-1.322,4.781A.363.363,0,0,1-506.584,3614.655Z" transform="translate(563.281 -3601.008)"/></g><g transform="translate(78.104 129.769)"><path class="n" d="M-840.219,3628.822a.455.455,0,0,1-.413-.247c-.661-1.237-6.116-.99-11.406-.743-2.893.165-6.281.248-9.5.248-8.43-.083-16.117-.577-19.753-.989q-5.083-.619-9.174-1.237c-5.042-.742-9.092-1.4-12.893-1.237a.475.475,0,0,1-.5-.494.438.438,0,0,1,.5-.5c3.884-.165,7.934.5,13.058,1.237,2.728.412,5.785.906,9.091,1.236,3.554.412,11.241.907,19.671.99,3.223,0,6.529-.083,9.422-.248,7.191-.33,11.323-.412,12.315,1.319a.431.431,0,0,1-.165.659Z" transform="translate(903.859 -3623.603)"/></g><g transform="translate(72.976 68.289)"><path class="n" d="M-922.91,3341.415a.523.523,0,0,1-.5-.412c-.5-3.215-.992-5.853-1.488-8.327a179.836,179.836,0,0,1-2.645-18.22c-.331-3.957-.413-7.5-.413-10.882-.083-7.914-.165-14.674-4.3-21.517a.431.431,0,0,1,.165-.659.433.433,0,0,1,.661.165c4.3,7.09,4.38,14.015,4.463,22.012.083,3.38.083,6.925.413,10.8a154.058,154.058,0,0,0,2.645,18.137c.5,2.556.992,5.112,1.488,8.327a.6.6,0,0,1-.5.577Z" transform="translate(932.336 -3281.312)"/></g><g transform="translate(190.734 143.109)"><path class="n" d="M-249.907,3706.323c-.992,0-2.066-.083-3.058-.165-.5,0-1.074-.083-1.487-.083a29.009,29.009,0,0,0-3.8.083,37.406,37.406,0,0,1-5.372.083c-1.323-.083-2.563-.247-3.719-.33-3.719-.33-7.273-.66-10.414-.083-.248.083-.5-.082-.578-.412-.083-.247.082-.495.413-.577,3.306-.66,6.942-.33,10.744,0,1.24.082,2.479.247,3.719.33a36.17,36.17,0,0,0,5.29-.083,30.2,30.2,0,0,1,3.884-.083c.5,0,.992.083,1.488.083,2.149.165,5.042.33,5.785-.413.165-.165.165-.247.165-.494-.083-1.649-2.314-2.309-4.876-2.968-2.149-.577-4.463-1.154-5.785-2.556a.5.5,0,0,1,0-.66.5.5,0,0,1,.661,0c1.157,1.237,3.306,1.732,5.29,2.309,2.727.742,5.537,1.484,5.62,3.875a1.676,1.676,0,0,1-.5,1.236C-247.1,3706.158-248.336,3706.323-249.907,3706.323Z" transform="translate(278.359 -3697.873)"/></g><g transform="translate(195.879 132.278)"><path class="n" d="M-212.756,3656.688a6.918,6.918,0,0,1-3.967-1.9,20.107,20.107,0,0,1-2.479-2.8,17.306,17.306,0,0,0-1.984-2.226,13.118,13.118,0,0,0-5.042-2.473.468.468,0,0,1-.331-.577.47.47,0,0,1,.578-.33,15.124,15.124,0,0,1,5.455,2.721c.744.742,1.4,1.566,2.066,2.308a18.194,18.194,0,0,0,2.4,2.638c.992.907,2.81,1.978,3.8,1.484.413-.165.5-.33.5-.495.248-.742-.744-2.144-1.322-3.05a2.885,2.885,0,0,0-.5-.742,9.25,9.25,0,0,1-.827-1.814,13.087,13.087,0,0,0-1.322-2.638l-.083-.166a25.162,25.162,0,0,0-3.637-3.875c-.579-.577-1.157-1.154-1.653-1.731-1.653-1.814-2.645-2.8-4.3-2.308a33.8,33.8,0,0,0-4.463,1.9,44.22,44.22,0,0,1-7.19,2.968,34.013,34.013,0,0,1-8.6.742c-1.24,0-2.48,0-3.637.082a.438.438,0,0,1-.5-.494.476.476,0,0,1,.5-.5c1.24-.082,2.479-.082,3.719-.082a31.514,31.514,0,0,0,8.347-.742,42.064,42.064,0,0,0,7.025-2.886,32.3,32.3,0,0,1,4.628-1.979c2.315-.659,3.8.907,5.29,2.556.5.577.992,1.072,1.57,1.649a25.143,25.143,0,0,1,3.719,4.04l.083.165a11.807,11.807,0,0,1,1.488,2.885,17.027,17.027,0,0,0,.826,1.731,7.484,7.484,0,0,0,.413.66c.744,1.154,1.736,2.638,1.405,3.875a1.843,1.843,0,0,1-1.074,1.154A1.888,1.888,0,0,1-212.756,3656.688Z" transform="translate(249.783 -3637.572)"/></g><g transform="translate(225.699 135.879)"><path class="n" d="M-73.58,3672.888a1.247,1.247,0,0,1-.909-.33,3.148,3.148,0,0,1-1.157-1.9,15.993,15.993,0,0,1-.083-2.721,6.17,6.17,0,0,0,0-1.237c-.082-1.649-.413-2.886-.661-2.968a16.608,16.608,0,0,0-3.058-.165.533.533,0,0,1-.5-.495.532.532,0,0,1,.5-.495,18.081,18.081,0,0,1,3.389.247c1.24.413,1.322,3.3,1.405,3.958v1.319a14,14,0,0,0,.083,2.556,1.954,1.954,0,0,0,.744,1.237.681.681,0,0,0,.579.082c.661-.164,1.57-2.226,1.983-5.029.331-2.556-.082-5.936-.909-6.678-.909-.825-1.9-1.319-4.3-1.237a39.031,39.031,0,0,1-5.372-.248c-.579-.082-1.157-.082-1.9-.165a.449.449,0,0,1-.413-.577.45.45,0,0,1,.579-.412,17.793,17.793,0,0,0,1.9.165,37.881,37.881,0,0,0,5.29.248c2.4-.083,3.8.329,5.042,1.484,1.157,1.071,1.57,4.864,1.24,7.585-.331,2.473-1.24,5.441-2.727,5.854A3.2,3.2,0,0,0-73.58,3672.888Z" transform="translate(84.175 -3657.62)"/></g><g transform="translate(237.09 139.519)"><path class="n" d="M-18.9,3690.257h-.33a2.785,2.785,0,0,1-1.653-1.237.518.518,0,0,1,.248-.659.521.521,0,0,1,.661.247,1.6,1.6,0,0,0,.909.742.329.329,0,0,0,.413-.082c.5-.412,1.157-2.474,1.4-3.71l.083-.577a8.063,8.063,0,0,0,0-4.2A5.851,5.851,0,0,0-19.4,3678.8a.445.445,0,0,1-.165-.66.448.448,0,0,1,.661-.165c.248.165,2.232,1.319,2.645,2.556a8.551,8.551,0,0,1,0,4.781l-.083.577s-.661,3.463-1.736,4.369A2.721,2.721,0,0,0-18.9,3690.257Z" transform="translate(20.915 -3677.887)"/></g><g transform="translate(172.826 109.559)"><path class="n" d="M-370.875,3529.174a.514.514,0,0,1-.5-.33c-.248-.577-5.537-13.273-6.281-15.087a1.843,1.843,0,0,1,.992-2.473,2.2,2.2,0,0,1,2.893.99c.992,1.813,5.868,14.427,6.116,15a.519.519,0,0,1-.248.66.521.521,0,0,1-.661-.248c-.083-.164-5.042-13.108-6.033-14.839a1.235,1.235,0,0,0-1.653-.577.884.884,0,0,0-.5,1.236c.661,1.814,6.2,14.922,6.281,15.087a.519.519,0,0,1-.248.66C-370.71,3529.174-370.792,3529.174-370.875,3529.174Z" transform="translate(377.811 -3511.081)"/></g><g transform="translate(190.252 149.724)"><path class="n" d="M-278.8,3738.6c-.248,0-.5,0-2.149-2.308a.5.5,0,0,1,.083-.66.5.5,0,0,1,.661.082l.744.99c-.165-1.237-.165-1.484-.083-1.649a.523.523,0,0,1,.661-.33.552.552,0,0,1,.331.577c0,.165.082.824.165,1.319.165,1.484.165,1.566,0,1.731A.454.454,0,0,1-278.8,3738.6Z" transform="translate(281.037 -3734.703)"/></g><g transform="translate(137.694 151.125)"><path class="n" d="M-543.579,3748.381l-28.845-1.567a.532.532,0,0,1-.5-.494.532.532,0,0,1,.5-.495l28.845,1.566,71.822-1.154a4.854,4.854,0,0,1-.165-1.155,12.926,12.926,0,0,1,.331-2.226.471.471,0,0,1,.579-.33.469.469,0,0,1,.331.577,8.931,8.931,0,0,0-.331,1.9,3.527,3.527,0,0,0,.331,1.4.524.524,0,0,1,0,.494.454.454,0,0,1-.413.248Z" transform="translate(572.92 -3742.506)"/></g><g transform="translate(166.353 153.043)"><path class="n" d="M-413.163,3756.892a.558.558,0,0,1-.5-.33,8.443,8.443,0,0,1-.083-2.061c0-.329.083-.577.083-.824a.532.532,0,0,1,.5-.494.533.533,0,0,1,.5.494,3.689,3.689,0,0,1-.083.907,3.651,3.651,0,0,0,0,1.649.56.56,0,0,1-.331.659Z" transform="translate(413.763 -3753.182)"/></g><g transform="translate(149.595 151.229)"><path class="n" d="M-489.3,3745.97l-17.025-1.237a.533.533,0,0,1-.5-.495.533.533,0,0,1,.5-.494l16.943,1.237c.5,0,55.127-.165,71.74-1.9a.622.622,0,0,1,.579.413c.082.247-.165.494-.413.576C-434.094,3745.8-488.725,3745.97-489.3,3745.97Z" transform="translate(506.825 -3743.085)"/></g><g transform="translate(222.162 149.745)"><path class="n" d="M-94.152,3736.307h0l-9.174-.495a.533.533,0,0,1-.5-.5.533.533,0,0,1,.5-.494l9.091.494a.533.533,0,0,1,.5.5A.384.384,0,0,1-94.152,3736.307Z" transform="translate(103.822 -3734.823)"/></g><g transform="translate(232.824 150.405)"><path class="n" d="M-39.4,3739.814h0l-4.711-.33a.532.532,0,0,1-.5-.494.532.532,0,0,1,.5-.495h.165l4.546.33a.532.532,0,0,1,.5.495A.533.533,0,0,1-39.4,3739.814Z" transform="translate(44.611 -3738.495)"/></g><g transform="translate(86.038 46.281)"><path class="n" d="M-841.282,3191.507c-4.794,0-10.992-4.287-14.547-14.1a58.04,58.04,0,0,1-3.884-17.56l-.083-.5a.62.62,0,0,1,.413-.577.621.621,0,0,1,.579.412l.082.495A57.31,57.31,0,0,0-854.836,3177c3.554,9.729,9.587,13.686,14.05,13.438,3.306-.248,5.7-2.721,6.612-6.76a.621.621,0,0,1,.578-.412.619.619,0,0,1,.413.577c-.992,4.452-3.8,7.338-7.521,7.584A1.225,1.225,0,0,1-841.282,3191.507Z" transform="translate(859.795 -3158.778)"/></g><g transform="translate(135.26 133.719)"><path class="n" d="M-583.179,3666.816a.454.454,0,0,1-.413-.248c-3.885-6.018-4.38-15.416,2.231-20.857a.431.431,0,0,1,.661.083.429.429,0,0,1-.083.659c-6.2,5.112-5.7,13.85-2.066,19.539a.431.431,0,0,1-.165.659A.178.178,0,0,1-583.179,3666.816Z" transform="translate(586.44 -3645.596)"/></g><g transform="translate(183.399 130.222)"><path class="n" d="M-315.788,3627.346h-.165a4.96,4.96,0,0,0-2.4-.165h-.165a.622.622,0,0,1-.579-.413.62.62,0,0,1,.413-.577h.165a6.2,6.2,0,0,1,2.893.247.561.561,0,0,1,.33.66A.589.589,0,0,1-315.788,3627.346Z" transform="translate(319.094 -3626.124)"/></g><path class="n" d="M-613.93,3132.059a1.461,1.461,0,0,1,2.149.083,1.688,1.688,0,0,1-.661,2.143,1.461,1.461,0,0,1-2.149-.082A1.71,1.71,0,0,1-613.93,3132.059Z" transform="translate(744.929 -3090.231)"/><g transform="translate(134.78 45.589)"><path class="n" d="M-588.587,3164.685a.558.558,0,0,1-.5-.33c-.083-.248.083-.577.33-.577q1.86-.494,2.232-1.237c.248-.494,0-1.072-.248-1.814a9.031,9.031,0,0,1-.413-1.4,4.869,4.869,0,0,1,1.405-4.2.437.437,0,0,1,.661-.082.435.435,0,0,1,.083.659,3.977,3.977,0,0,0-1.157,3.463,3.049,3.049,0,0,0,.33,1.154,3.437,3.437,0,0,1,.165,2.556,4.345,4.345,0,0,1-2.81,1.731A.081.081,0,0,1-588.587,3164.685Z" transform="translate(589.105 -3154.925)"/></g><g transform="translate(100.241 25.211)"><path class="n" d="M-775.78,3054.463h-.165c-2.975-.824-5.7-4.864-4.794-8.9a5,5,0,0,1,4.05-4.04,3.834,3.834,0,0,1,4.05,2.144.431.431,0,0,1-.165.66.434.434,0,0,1-.661-.165,3.008,3.008,0,0,0-3.058-1.649,4.255,4.255,0,0,0-3.223,3.3c-.744,3.462,1.653,7.09,4.133,7.749a.469.469,0,0,1,.331.577A.679.679,0,0,1-775.78,3054.463Z" transform="translate(780.916 -3041.473)"/></g><g transform="translate(104.107 30.668)"><path class="n" d="M-757.6,3074.605a.68.68,0,0,1-.5-.33,2.823,2.823,0,0,0-1.075-1.484.519.519,0,0,1-.248-.659.521.521,0,0,1,.661-.248,3.32,3.32,0,0,1,1.57,2.061.56.56,0,0,1-.331.66Z" transform="translate(759.446 -3071.854)"/></g><g transform="translate(107.588 51.123)"><path class="n" d="M-724.06,3202.331c-2.314,0-5.29-1.484-8.017-4.04-2.645-2.556-6.364-7.173-8.017-11.872a.56.56,0,0,1,.331-.659.562.562,0,0,1,.661.33,32.328,32.328,0,0,0,7.769,11.542c2.81,2.638,6.033,4.122,8.1,3.71,2.645-.577,4.546-3.05,4.628-3.05a.438.438,0,0,1,.662-.083.436.436,0,0,1,.082.659,10.185,10.185,0,0,1-5.207,3.463Z" transform="translate(740.116 -3185.739)"/></g><g transform="translate(125.541 55.263)"><path class="n" d="M-633.714,3213.41h0a8.691,8.691,0,0,1-6.612-3.875.431.431,0,0,1,.165-.659.434.434,0,0,1,.661.165,7.743,7.743,0,0,0,5.785,3.381.532.532,0,0,1,.5.494A.475.475,0,0,1-633.714,3213.41Z" transform="translate(640.412 -3208.79)"/></g><g transform="translate(130.421 35.975)"><path class="n" d="M-606.7,3105.524a.634.634,0,0,1-.413-.165c-1.322-1.814-3.306-2.555-5.786-2.968a.621.621,0,0,1-.413-.577c0-.247.331-.412.579-.412,2.4.412,4.876,1.154,6.447,3.38a.5.5,0,0,1-.083.66A.626.626,0,0,1-606.7,3105.524Z" transform="translate(613.313 -3101.402)"/></g><g transform="translate(144.964 32.513)"><path class="n" d="M-532.047,3091.112a.3.3,0,0,1-.248-.083.444.444,0,0,1-.165-.659l.248-.495c1.157-1.979,2.976-4.946,2.727-7.172a.619.619,0,0,1,.413-.577.621.621,0,0,1,.578.412c.248,2.555-1.57,5.606-2.893,7.832l-.248.495A.7.7,0,0,1-532.047,3091.112Z" transform="translate(532.546 -3082.125)"/></g><g transform="translate(141.331 42.158)"><path class="n" d="M-549.831,3137.723c-.166,0-.248-.083-.414-.165a2.994,2.994,0,0,0-1.984-.742.533.533,0,0,1-.5-.495.533.533,0,0,1,.5-.495,3.867,3.867,0,0,1,2.645,1.155.428.428,0,0,1-.083.659A.289.289,0,0,1-549.831,3137.723Z" transform="translate(552.724 -3135.827)"/></g><g transform="translate(95.245 15.609)"><path class="n" d="M-808.2,3010.438a.3.3,0,0,1-.248-.082.538.538,0,0,1-.166-.66c1.736-2.556,1.488-5.029,1.157-8.079l-.083-.742c-.083-.494-.083-.989-.165-1.484-.413-2.968-.909-6.76,1.818-11.129a.447.447,0,0,1,.661-.166.445.445,0,0,1,.165.66c-2.562,4.122-2.066,7.667-1.653,10.471a11.223,11.223,0,0,1,.165,1.566l.082.741c.331,3.133.579,5.854-1.322,8.739A.631.631,0,0,1-808.2,3010.438Z" transform="translate(808.662 -2988.011)"/></g><g transform="translate(100.223 1.576)"><path class="n" d="M-780.492,2920.045a.3.3,0,0,1-.248-.083.519.519,0,0,1-.248-.66c2.975-6.018,10.662-10.388,16.117-9.233a.62.62,0,0,1,.413.577.621.621,0,0,1-.579.412c-5.124-1.072-12.315,3.051-15.042,8.739C-780.079,2919.963-780.327,2920.045-780.492,2920.045Z" transform="translate(781.019 -2909.884)"/></g><g transform="translate(123.292)"><path class="n" d="M-628.668,2913.092h0c-2.066-.247-4.711-2.473-7.438-4.781a39.361,39.361,0,0,0-5.951-4.534,14.185,14.185,0,0,0-10.248-1.319.47.47,0,0,1-.579-.33.469.469,0,0,1,.331-.577,15.121,15.121,0,0,1,10.91,1.4,41.053,41.053,0,0,1,6.116,4.617c2.562,2.143,5.124,4.369,6.86,4.617a.45.45,0,0,1,.413.577C-628.172,2912.845-628.42,2913.092-628.668,2913.092Z" transform="translate(652.906 -2901.108)"/></g><g transform="translate(148.174 15.019)"><path class="n" d="M-513.3,3006.342a.559.559,0,0,1-.5-.329c-.083-.248.083-.577.331-.577.165-.083,3.471-1.154,3.967-6.183.33-3.3-1.488-6.513-3.141-9.4a14.179,14.179,0,0,1-2.066-4.534c-.083-.248.165-.495.413-.578s.5.166.578.413a13.325,13.325,0,0,0,1.984,4.2c1.653,2.8,3.637,6.348,3.306,9.976-.579,5.771-4.546,7.007-4.711,7.09C-513.131,3006.342-513.213,3006.342-513.3,3006.342Z" transform="translate(514.717 -2984.726)"/></g><g transform="translate(111.05 28.113)"><path class="n" d="M-715.9,3061.284a5.739,5.739,0,0,1-4.959-2.968.518.518,0,0,1,.248-.659.521.521,0,0,1,.661.247h0c.083.165,1.57,3.215,5.7,2.144.248-.083.579.083.579.33a.469.469,0,0,1-.331.577A5.128,5.128,0,0,1-715.9,3061.284Z" transform="translate(720.891 -3057.626)"/></g><g transform="translate(119.148 26.176)"><path class="n" d="M-668.776,3051.119a10.371,10.371,0,0,1-6.942-2.8.435.435,0,0,1-.083-.66.438.438,0,0,1,.661-.083c4.711,4.04,9.009,2.391,13.141.824,3.389-1.319,6.612-2.555,9.67-.33a.435.435,0,0,1,.083.66.437.437,0,0,1-.661.083c-2.562-1.9-5.372-.825-8.678.495A19.272,19.272,0,0,1-668.776,3051.119Z" transform="translate(675.917 -3046.844)"/></g><g transform="translate(146.083 26.165)"><path class="n" d="M-525.878,3051.151a.429.429,0,0,1-.33-.165.5.5,0,0,1,0-.659,4.219,4.219,0,0,0,.827-3.05.532.532,0,0,1,.5-.494.532.532,0,0,1,.5.494,5.108,5.108,0,0,1-1.157,3.71A.429.429,0,0,1-525.878,3051.151Z" transform="translate(526.332 -3046.781)"/></g><path class="n" d="M-563.881,3162.2c.5-.66,1.323-1.072,1.818-.742s.579.989.083,1.731c-.5.659-1.322,1.072-1.818.742A1.173,1.173,0,0,1-563.881,3162.2Z" transform="translate(703.475 -3114.603)"/><g transform="translate(116.918 122.179)"><path class="n" d="M-678.766,3593.164a.3.3,0,0,1-.248-.083c-3.719-2.226-7.852-8.326-9.257-11.047a.519.519,0,0,1,.248-.66.521.521,0,0,1,.661.248c1.322,2.555,5.372,8.574,8.926,10.635a.445.445,0,0,1,.165.66A.716.716,0,0,1-678.766,3593.164Z" transform="translate(688.302 -3581.344)"/></g><g transform="translate(0 150.405)"><path class="n" d="M-1337.118,3741.546a.533.533,0,0,1-.5-.495.476.476,0,0,1,.5-.495l55.788-2.061a.476.476,0,0,1,.5.495.476.476,0,0,1-.5.494l-55.788,2.061Z" transform="translate(1337.614 -3738.495)"/></g><g transform="translate(377.708 137.296)"><path class="n" d="M760.511,3667.822a.533.533,0,0,1-.5-.5.476.476,0,0,1,.5-.495l2.4-.082,41.9-1.237a.475.475,0,0,1,.5.494.533.533,0,0,1-.5.5l-44.3,1.319Z" transform="translate(-760.015 -3665.513)"/></g><g transform="translate(186.623 109.101)"><path class="n" d="M-300.035,3526.673a.523.523,0,0,1-.5-.412,76.459,76.459,0,0,1-.579-11.377c0-1.814-.083-3.793-.083-5.853a.533.533,0,0,1,.5-.495.533.533,0,0,1,.5.495c.083,2.061.083,4.039.083,5.853a86.812,86.812,0,0,0,.578,11.212.6.6,0,0,1-.5.577Z" transform="translate(301.192 -3508.536)"/></g><g transform="translate(240.51 141.003)"><path class="n" d="M-1.429,3694.48a.476.476,0,0,1-.5-.495.476.476,0,0,1,.5-.495c10.083-.66,19.588-1.319,23.638-1.731a48.141,48.141,0,0,1,11.158.495,45.823,45.823,0,0,0,5.62.495,43.145,43.145,0,0,0,5.62-.166c.579-.082,1.157-.082,1.818-.165.579,0,1.157.083,1.818.083,1.571.165,3.141.248,3.967-.659.744-.824-1.157-2.885-2.149-3.957a8.258,8.258,0,0,1-.909-.99.482.482,0,0,1,.826-.494c.083.165.413.494.744.907,1.405,1.484,3.554,3.792,2.149,5.359-1.157,1.319-3.141,1.154-4.794.989a11.656,11.656,0,0,0-1.653-.083c-.661,0-1.157.083-1.736.083a43.976,43.976,0,0,1-5.7.165q-2.727-.124-5.7-.495a47.358,47.358,0,0,0-10.993-.495c-4.049.33-13.554,1.072-23.72,1.649Z" transform="translate(1.925 -3686.151)"/></g><g transform="translate(294.365 137.017)"><path class="n" d="M298.271,3672.974a.495.495,0,1,1,0-.989s2.976-.248,3.306-1.979c.165-1.154-1.074-2.226-2.4-3.38a13.754,13.754,0,0,1-1.9-1.9.471.471,0,0,1,.744-.577,18.39,18.39,0,0,0,1.819,1.731c1.488,1.237,2.975,2.556,2.727,4.287-.5,2.473-4.05,2.721-4.3,2.8Z" transform="translate(-297.164 -3663.956)"/></g><g transform="translate(292.712 129.02)"><path class="n" d="M294.462,3632.079a.431.431,0,0,1-.33-.165.5.5,0,0,1,0-.659s2.727-2.638,1.57-4.287a12.817,12.817,0,0,0-3.058-2.72,25.771,25.771,0,0,1-4.546-4.039.471.471,0,0,1,.744-.577,21.41,21.41,0,0,0,4.38,3.875,15.027,15.027,0,0,1,3.306,2.968c1.57,2.392-1.57,5.442-1.735,5.606Z" transform="translate(-287.983 -3619.433)"/></g><g transform="translate(257.371 125.404)"><path class="n" d="M135.765,3611.6a.454.454,0,0,1-.413-.248.444.444,0,0,1,.165-.659s2.645-1.814,1.983-3.71c-.661-1.979-9.752-6.265-12.728-6.6-.909-.082-2.81.66-5.29,1.649a56.34,56.34,0,0,1-13.555,4.122,93.893,93.893,0,0,1-13.72.907h0a.495.495,0,1,1,0-.99,91.467,91.467,0,0,0,13.555-.907,57.816,57.816,0,0,0,13.307-4.122c2.645-1.072,4.546-1.9,5.785-1.731,2.893.33,12.728,4.534,13.555,7.255.826,2.638-2.314,4.781-2.4,4.865C135.93,3611.6,135.847,3611.6,135.765,3611.6Z" transform="translate(-91.713 -3599.3)"/></g><g transform="translate(207.285 126.923)"><path class="n" d="M-133.381,3613.681a.428.428,0,0,1-.33-.166c-1.57-1.565-7.191-1.236-12.645-.989-2.645.165-5.372.248-7.686.165-7.6-.247-15.042-1.071-18.927-2.061-2.562-.66-8.926-2.144-12.893-1.814a.622.622,0,0,1-.579-.412.621.621,0,0,1,.413-.577c4.05-.413,10.579,1.154,13.224,1.814,3.8.989,11.158,1.731,18.679,1.979,2.314.082,5.041-.083,7.6-.165,5.951-.247,11.571-.577,13.389,1.319a.5.5,0,0,1,0,.659C-133.05,3613.6-133.216,3613.681-133.381,3613.681Z" transform="translate(186.442 -3607.759)"/></g><g transform="translate(211.772 94.674)"><path class="n" d="M-160.8,3458.467a.524.524,0,0,1-.5-.412c-.5-2.638-.082-6.348.413-10.718.661-5.276,1.405-11.872.579-18.549a.621.621,0,0,1,.413-.577.622.622,0,0,1,.579.413c.827,6.842,0,13.438-.579,18.8-.5,4.2-.909,7.915-.413,10.388.083.247-.082.495-.413.577A.081.081,0,0,1-160.8,3458.467Z" transform="translate(161.523 -3428.211)"/></g><g transform="translate(213.976 59.367)"><path class="n" d="M-148.783,3244.109a.455.455,0,0,1-.413-.247.445.445,0,0,1,.165-.66,19.276,19.276,0,0,0,8.265-11.212.471.471,0,0,1,.579-.33.469.469,0,0,1,.33.577,20.846,20.846,0,0,1-8.678,11.79A.3.3,0,0,1-148.783,3244.109Z" transform="translate(149.283 -3231.639)"/></g><g transform="translate(177.344 70.163)"><path class="n" d="M-352.285,3335.464h-.083a.469.469,0,0,1-.33-.577,124.365,124.365,0,0,1,5.372-15.911,40.2,40.2,0,0,1,15.042-18.219c1.323-.824,2.81-1.566,4.381-2.391,1.24-.66,2.479-1.319,3.636-1.979.579-.33,1.24-.742,1.9-1.154,3.389-2.144,6.116-3.71,7.521-3.462a.619.619,0,0,1,.413.577.62.62,0,0,1-.578.412c-1.157-.164-4.628,1.9-6.86,3.381-.744.412-1.4.824-1.984,1.154-1.157.66-2.479,1.32-3.719,1.979-1.57.824-3.058,1.567-4.3,2.391a39.016,39.016,0,0,0-14.712,17.725,121.617,121.617,0,0,0-5.289,15.746A.378.378,0,0,1-352.285,3335.464Z" transform="translate(352.72 -3291.744)"/></g><g transform="translate(173.977 118.747)"><path class="n" d="M-370.924,3573.285h-.083a.62.62,0,0,1-.413-.577c.579-3.05,1.157-6.183,1.736-8.739l.248-1.319a.621.621,0,0,1,.578-.412.62.62,0,0,1,.413.577l-.248,1.319c-.5,2.473-1.157,5.606-1.735,8.656Q-370.552,3573.285-370.924,3573.285Z" transform="translate(371.42 -3562.238)"/></g><g transform="translate(241.965 80.651)"><path class="n" d="M46.358,3398.375a.627.627,0,0,1-.331-.165c-1.653-1.567-8.182-10.305-13.224-18.714-.744-1.237-1.488-2.473-2.149-3.628-3.389-5.771-6.529-11.212-10.744-15.417a39.862,39.862,0,0,0-8.926-6.43,32.07,32.07,0,0,1-4.628-3.05.435.435,0,0,1-.083-.66.512.512,0,0,1,.661-.082,30.962,30.962,0,0,0,4.546,2.968,44.057,44.057,0,0,1,9.174,6.6c4.3,4.2,7.521,9.728,10.91,15.582.661,1.237,1.405,2.39,2.149,3.627,4.876,8.162,11.406,16.983,12.976,18.467a.428.428,0,0,1,0,.66A.443.443,0,0,1,46.358,3398.375Z" transform="translate(-6.157 -3350.138)"/></g><g transform="translate(248.94 108.356)"><path class="n" d="M45.389,3527.307h-.083a.62.62,0,0,1-.413-.577,60.054,60.054,0,0,0,.992-8.326c.33-4.865.743-9.4,3.306-13.768a.481.481,0,0,1,.826.494c-2.479,4.122-2.81,8.574-3.141,13.273a61.634,61.634,0,0,1-1.075,8.409C45.8,3527.143,45.637,3527.307,45.389,3527.307Z" transform="translate(-44.893 -3504.385)"/></g><g transform="translate(234.611 77.906)"><path class="n" d="M-34.241,3344.614c-.083,0-.165,0-.165-.083a.518.518,0,0,1-.248-.659c1.488-3.3,5.786-8.574,5.951-8.821a.438.438,0,0,1,.661-.083.511.511,0,0,1,.083.66c-.083.082-4.381,5.359-5.786,8.573C-33.828,3344.531-33.993,3344.614-34.241,3344.614Z" transform="translate(34.686 -3334.853)"/></g><g transform="translate(253.299 122.106)"><path class="n" d="M78.959,3591.594a.632.632,0,0,1-.413-.165c-2.81-3.545-7.521-8.986-9.091-9.48a.522.522,0,1,1,.33-.99c2.314.742,8.761,8.9,9.5,9.811a.429.429,0,0,1-.083.66C79.125,3591.594,79.042,3591.594,78.959,3591.594Z" transform="translate(-69.103 -3580.938)"/></g><g transform="translate(247.422 57.902)"><path class="n" d="M36.987,3231.973a.514.514,0,0,1-.5-.329.519.519,0,0,1,.248-.66c1.57-.577,1.488-.989,1.157-2.061a5.824,5.824,0,0,1,.578-5.194.481.481,0,0,1,.826.494,4.982,4.982,0,0,0-.5,4.453c.413,1.4.5,2.391-1.735,3.3Z" transform="translate(-36.46 -3223.478)"/></g><g transform="translate(226.539 65.386)"><path class="n" d="M-63.394,3278.605c-4.876,0-12.15-4.452-16.034-10.14a.445.445,0,0,1,.165-.66.447.447,0,0,1,.661.165c4.215,6.266,12.645,10.882,16.943,9.4S-52.4,3270.361-51,3265.5a.469.469,0,0,1,.578-.329.468.468,0,0,1,.331.577c-1.488,5.276-6.695,10.965-11.323,12.531A7.115,7.115,0,0,1-63.394,3278.605Z" transform="translate(79.514 -3265.146)"/></g><g transform="translate(239.311 68.746)"><path class="n" d="M-2.836,3286.783a8.148,8.148,0,0,1-5.62-2.144.5.5,0,0,1,0-.659.5.5,0,0,1,.661,0c1.984,1.978,5.7,2.226,7.108,1.4a.434.434,0,0,1,.661.165.431.431,0,0,1-.165.66A5.715,5.715,0,0,1-2.836,3286.783Z" transform="translate(8.581 -3283.856)"/></g><path class="n" d="M70.339,3228.066a1.321,1.321,0,0,0-.33-1.731,1.287,1.287,0,0,0-1.57.742,1.321,1.321,0,0,0,.331,1.731A1.287,1.287,0,0,0,70.339,3228.066Z" transform="translate(184.882 -3167.853)"/><path class="n" d="M3.572,3222.026a1.334,1.334,0,0,0-.413-1.814c-.578-.33-1.322.082-1.736.742a1.406,1.406,0,0,0,.331,1.813A1.334,1.334,0,0,0,3.572,3222.026Z" transform="translate(239.831 -3162.802)"/><g transform="translate(253.042 52.608)"><path class="n" d="M68.116,3195.593a.454.454,0,0,1-.413-.247.519.519,0,0,1,.248-.66,4.86,4.86,0,0,1,4.959,0,.5.5,0,1,1-.413.907,3.96,3.96,0,0,0-4.05,0Z" transform="translate(-67.672 -3194.005)"/></g><g transform="translate(238.275 52.123)"><path class="n" d="M-13.836,3193.132a.454.454,0,0,1-.413-.248.431.431,0,0,1,.165-.66,6.638,6.638,0,0,1,6.447-.165.445.445,0,0,1,.165.66.447.447,0,0,1-.661.165,5.6,5.6,0,0,0-5.455.165C-13.671,3193.049-13.754,3193.132-13.836,3193.132Z" transform="translate(14.336 -3191.307)"/></g><g transform="translate(220.639 47.095)"><path class="n" d="M-108.855,3173.378h-.165a4.477,4.477,0,0,1-2.645-2.8,6.914,6.914,0,0,1-.165-5.277,3.941,3.941,0,0,1,3.058-1.979,2.667,2.667,0,0,1,2.4,1.072.5.5,0,0,1-.083.659.5.5,0,0,1-.661-.082,1.755,1.755,0,0,0-1.488-.66,3.125,3.125,0,0,0-2.314,1.4,5.975,5.975,0,0,0,.165,4.452,3.87,3.87,0,0,0,2.066,2.226.521.521,0,0,1,.331.659A.453.453,0,0,1-108.855,3173.378Z" transform="translate(112.279 -3163.31)"/></g><g transform="translate(223.7 51.195)"><path class="n" d="M-93.927,3188.147a.455.455,0,0,1-.413-.248,2.4,2.4,0,0,0-.744-.906.436.436,0,0,1-.083-.66.438.438,0,0,1,.661-.082,3.46,3.46,0,0,1,.992,1.237.518.518,0,0,1-.248.659Z" transform="translate(95.282 -3186.136)"/></g><g transform="translate(244.808 39.108)"><path class="n" d="M22.44,3126.429a.495.495,0,1,1,0-.989,6.085,6.085,0,0,0,5.538-6.1.5.5,0,0,1,.992,0,7.2,7.2,0,0,1-6.529,7.09Z" transform="translate(-21.944 -3118.844)"/></g><g transform="translate(229.165 43.868)"><path class="n" d="M-61.517,3151.881a12.983,12.983,0,0,1-3.058-.412.469.469,0,0,1-.331-.577.471.471,0,0,1,.579-.33c5.042,1.484,10.331-1.4,11.571-4.864a.563.563,0,0,1,.661-.33.561.561,0,0,1,.331.66C-53,3149.49-57.219,3151.881-61.517,3151.881Z" transform="translate(64.927 -3145.346)"/></g><g transform="translate(254.281 41.138)"><path class="n" d="M79.546,3140.566h0a.476.476,0,0,1-.5-.495c0-.083.33-7.09-4.216-8.986a.5.5,0,1,1,.413-.907c5.124,2.226,4.876,9.646,4.794,9.975C79.959,3140.319,79.794,3140.566,79.546,3140.566Z" transform="translate(-74.556 -3130.148)"/></g><g transform="translate(224.386 22.858)"><path class="n" d="M-53.775,3056.163a.454.454,0,0,1-.413-.247.445.445,0,0,1,.165-.659,5.507,5.507,0,0,0,2.4-4.37c.248-5.029-4.628-11.625-9.587-15.664-9.091-7.42-20.166-7.832-29.506-1.237a.5.5,0,0,1-.661-.082.5.5,0,0,1,.083-.66c9.752-6.925,21.241-6.43,30.746,1.237,5.124,4.122,10.166,11.13,9.918,16.406a6.273,6.273,0,0,1-2.893,5.194A.3.3,0,0,1-53.775,3056.163Z" transform="translate(91.471 -3028.371)"/></g><g transform="translate(214.763 31.161)"><path class="n" d="M-140.321,3104.394a.454.454,0,0,1-.413-.247c-6.86-10.882-4.3-25.392.743-29.432a.431.431,0,0,1,.661.082.429.429,0,0,1-.083.66c-4.711,3.792-7.108,17.642-.5,28.113a.431.431,0,0,1-.165.66C-140.073,3104.394-140.155,3104.394-140.321,3104.394Z" transform="translate(144.909 -3074.6)"/></g><g transform="translate(202.211 22.848)"><path class="n" d="M-214.094,3082.912a.5.5,0,0,1-.33-.082.436.436,0,0,1-.083-.66c6.447-8.326,6.612-16.324,6.695-25.722,0-1.731.082-3.545.082-5.441.413-11.707,4.546-19.951,10.992-21.93a13.078,13.078,0,0,1,9.835.412l.661.248a.56.56,0,0,1,.331.659.562.562,0,0,1-.661.33l-.661-.247a11.891,11.891,0,0,0-9.174-.413c-6.033,1.9-9.918,9.729-10.331,21.023-.083,1.814-.083,3.628-.083,5.359-.083,9.151-.248,17.725-6.86,26.3C-213.846,3082.83-213.929,3082.912-214.094,3082.912Z" transform="translate(214.622 -3028.316)"/></g><g transform="translate(297.204 143.232)"><path class="n" d="M314.67,3702.519c-.248,0-.579-.165-1.653-2.062a.482.482,0,0,1,.827-.494,2.875,2.875,0,0,0,.413.66c0-.495-.083-.99-.083-1.484a.5.5,0,0,1,.992-.165,9.4,9.4,0,0,1,0,3.05.558.558,0,0,1-.5.329C314.753,3702.519,314.753,3702.519,314.67,3702.519Z" transform="translate(-312.931 -3698.561)"/></g><g transform="translate(285.573 110.922)"><path class="n" d="M256.169,3534.66a.559.559,0,0,1-.5-.33c0-.083-3.058-9.481-4.628-13.768-.331-.825-.826-.99-1.157-.825a.686.686,0,0,0-.5.825c.413,1.4,4.3,12.943,4.381,13.026a.523.523,0,0,1-.992.33c-.165-.495-3.967-11.707-4.38-13.108a1.684,1.684,0,0,1,1.157-2.061,1.948,1.948,0,0,1,2.4,1.484c1.57,4.2,4.628,13.685,4.628,13.768a.56.56,0,0,1-.33.659Z" transform="translate(-248.336 -3518.674)"/></g><g transform="translate(240.344 146.761)"><path class="n" d="M16.828,3722.842l-19.175-1.154a.533.533,0,0,1-.5-.494.533.533,0,0,1,.5-.495l19.175,1.155,64.549-1.072a2.277,2.277,0,0,1-.083-.742,10.938,10.938,0,0,1,.083-1.4.5.5,0,0,1,.992.165,10.326,10.326,0,0,0-.083,1.319,10.1,10.1,0,0,0,.165,1.072.361.361,0,0,1-.083.412c-.083.165-.248.165-.413.248Z" transform="translate(2.843 -3718.208)"/></g><g transform="translate(259.333 147.684)"><path class="n" d="M103.211,3726.81a.558.558,0,0,1-.5-.33,6.973,6.973,0,0,1-.083-1.9c0-.248.083-.495.083-.742a.5.5,0,0,1,.992,0,3.079,3.079,0,0,1-.083.824,4.444,4.444,0,0,0,0,1.484.561.561,0,0,1-.33.659Z" transform="translate(-102.612 -3723.347)"/></g><g transform="translate(254.973 146.612)"><path class="n" d="M97.079,3719.605c-7.935,0-13.472-.082-13.555-.082l-4.628-.33a.495.495,0,1,1,0-.989l4.628.33c.166,0,17.439.248,34.8-.165,2.4-.082,4.711-.082,7.108-.165,9.257-.165,18.017-.329,22.811-.824a.5.5,0,1,1,.165.989c-4.793.5-13.637.659-22.894.825-2.314,0-4.711.083-7.108.165C110.881,3719.524,103.278,3719.605,97.079,3719.605Z" transform="translate(-78.4 -3717.38)"/></g><g transform="translate(298.778 145.128)"><path class="n" d="M347.87,3711.591h0c-8.513-.165-25.539-1.4-25.7-1.484a.494.494,0,1,1,0-.989c.165,0,17.108,1.237,25.621,1.484a.532.532,0,0,1,.5.494A.379.379,0,0,1,347.87,3711.591Z" transform="translate(-321.67 -3709.118)"/></g><g transform="translate(308.417 119.946)"><path class="n" d="M418.541,3580.412h-1.9c-3.884-.082-17.108-.989-21.985-1.979-4.959-.989-9.091-1.731-11.24-2.061-2.727-.494-5.868-.906-7.521-.248a.5.5,0,1,1-.413-.907c1.9-.742,5.124-.247,8.017.165,2.232.329,6.281,1.072,11.323,2.061,4.793.989,17.935,1.9,21.819,1.978,3.8.082,6.695,0,9.174-.99,2.066-.907,4.05-3.133,5.62-4.947a24.533,24.533,0,0,1,1.818-1.979c1.57-1.4,5.62-2.638,8.265-2.556h1.488c1.405-.082,2.562-.082,3.141.577a1.676,1.676,0,0,1,.248,1.32c-.331,1.731-2.066,2.061-3.388,2.308l-.992.247a11.492,11.492,0,0,0-3.388,1.9.47.47,0,1,1-.579-.742,15.557,15.557,0,0,1,3.719-2.061c.331-.083.744-.165,1.074-.248,1.405-.247,2.4-.577,2.645-1.566,0-.165.082-.412,0-.495-.248-.33-1.405-.248-2.4-.248h-1.571c-2.4-.082-6.2,1.072-7.6,2.309a13.909,13.909,0,0,0-1.736,1.9c-1.653,1.9-3.637,4.2-5.951,5.193A19.927,19.927,0,0,1,418.541,3580.412Z" transform="translate(-375.202 -3568.916)"/></g><g transform="translate(368.286 125.326)"><path class="n" d="M712.732,3604.739a.505.505,0,0,1-.165-.989,26.966,26.966,0,0,1,4.463-.577c.909-.083,1.735-.083,2.314-.165.165,0,.5-.082.909-.082,1.488-.083,5.455-.412,6.116-1.4a.3.3,0,0,0,.083-.247c-.331-1.237-6.034-1.155-8.513-1.155h-4.876a33.837,33.837,0,0,1-4.959-.248.619.619,0,0,1-.413-.577.484.484,0,0,1,.578-.412,31.714,31.714,0,0,0,4.876.247H718.1c5.125-.083,9.009.083,9.5,1.9a1.247,1.247,0,0,1-.247,1.071c-.909,1.237-3.967,1.567-6.86,1.814-.413,0-.661.082-.826.082-.578.082-1.488.165-2.4.247a24.645,24.645,0,0,0-4.215.495Z" transform="translate(-707.69 -3598.869)"/></g><g transform="translate(373.462 128.371)"><path class="n" d="M736.879,3622.768a.454.454,0,0,1-.413-.247.519.519,0,0,1,.248-.66,38.8,38.8,0,0,1,8.1-1.979,40.758,40.758,0,0,0,4.711-.989c1.322-.495,1.735-1.072,1.735-1.319s-.413-.577-1.322-.824a.47.47,0,1,1,.248-.907c1.653.412,2.066,1.154,2.066,1.731.083.907-.827,1.732-2.4,2.309a29.15,29.15,0,0,1-4.876.989c-2.81.495-5.951.989-7.852,1.9C737.045,3622.686,736.962,3622.768,736.879,3622.768Z" transform="translate(-736.435 -3615.822)"/></g><g transform="translate(373.554 131.769)"><path class="n" d="M737.463,3641.34a.524.524,0,0,1-.5-.413.469.469,0,0,1,.331-.577c1.57-.412,4.876-1.566,6.447-2.143.33-.165.744-.248,1.157-.413,1.735-.66,3.967-1.4,4.876-2.8a.482.482,0,0,1,.827.495c-1.074,1.731-3.471,2.556-5.372,3.215-.413.164-.744.247-1.157.412-1.57.577-4.959,1.814-6.529,2.226Z" transform="translate(-736.946 -3634.741)"/></g><g transform="translate(298.787 134.737)"><path class="n" d="M331.051,3661.244c-3.884,0-7.356-.247-8.678-1.4-.165-.165-.33-.248-.5-.412a.467.467,0,0,1,.661-.66c.165.164.331.248.413.412,1.736,1.484,9.091,1.237,12.563,1.072,4.463-.165,9.174-.33,13.637-.577,5.62-.247,10.91-.495,14.794-.577,3.058-.083,5.951-.248,8.678-.33,3.554-.165,6.86-.33,10.083-.33h1.157a45.708,45.708,0,0,0,10.331-.577,22.425,22.425,0,0,0,5.951-2.226,14.7,14.7,0,0,0,4.711-4.122.459.459,0,0,1,.661-.165.445.445,0,0,1,.165.66,15,15,0,0,1-5.041,4.452,25.462,25.462,0,0,1-6.2,2.308c-3.472.742-6.447.659-10.5.659h-1.157c-3.223,0-6.53.165-10.083.33-2.81.165-5.62.33-8.761.33-3.885.083-9.174.33-14.794.577-4.546.165-9.257.412-13.72.577C334.108,3661.162,332.621,3661.244,331.051,3661.244Z" transform="translate(-321.72 -3651.266)"/></g><g transform="translate(291.881 99.043)"><path class="n" d="M285.388,3480.815a.524.524,0,0,1-.5-.413c-1.24-8.08-2.149-19.539-.992-27.453,0-.247.331-.412.579-.412a.484.484,0,0,1,.413.577c-1.157,7.832-.248,19.126.992,27.123.083.248-.165.5-.5.578Z" transform="translate(-283.367 -3452.537)"/></g><g transform="translate(311.268 97.049)"><path class="n" d="M392.513,3468.653a.463.463,0,0,1-.5-.412c-.413-2.885-.661-6.018-.909-10.058a56.018,56.018,0,0,1,.827-12.036c.166-1.319.331-2.721.579-4.287a.5.5,0,0,1,.992.165c-.165,1.566-.331,2.968-.578,4.287a66.34,66.34,0,0,0-.827,11.79c.248,3.957.5,7.172.909,9.976,0,.33-.166.577-.5.577Z" transform="translate(-391.035 -3441.431)"/></g><g transform="translate(337.904 74.072)"><path class="n" d="M539.425,3321.5a.3.3,0,0,1-.248-.082.537.537,0,0,1-.165-.659,67.588,67.588,0,0,1,5.455-7.091.467.467,0,0,1,.661.66,55.905,55.905,0,0,0-5.372,7.007C539.755,3321.415,539.59,3321.5,539.425,3321.5Z" transform="translate(-538.962 -3313.509)"/></g><g transform="translate(343.541 78.59)"><path class="n" d="M611.708,3377.914a.3.3,0,0,1-.248-.082,60.391,60.391,0,0,1-16.943-13.933c-1.9-2.226-3.885-4.864-5.785-7.42a84.831,84.831,0,0,0-7.356-8.987,26.56,26.56,0,0,0-5.951-4.452,37.972,37.972,0,0,1-4.959-3.545.436.436,0,0,1-.083-.66.513.513,0,0,1,.661-.082,38.775,38.775,0,0,0,4.876,3.462,32.087,32.087,0,0,1,6.116,4.617,86.338,86.338,0,0,1,7.438,9.068c1.9,2.556,3.885,5.112,5.785,7.337a58.166,58.166,0,0,0,16.613,13.686.552.552,0,0,1,.248.66A.421.421,0,0,1,611.708,3377.914Z" transform="translate(-570.268 -3338.665)"/></g><g transform="translate(353.285 113.842)"><path class="n" d="M637.316,3544.779a.3.3,0,0,1-.248-.082,67.566,67.566,0,0,1-12.563-8.986.467.467,0,0,1,.661-.659c2.728,2.72,8.348,6.512,12.4,8.821a.445.445,0,0,1,.166.66C637.729,3544.615,637.564,3544.779,637.316,3544.779Z" transform="translate(-624.381 -3534.928)"/></g><g transform="translate(344.4 102.97)"><path class="n" d="M575.535,3502.294h-.083a.62.62,0,0,1-.413-.577A33.564,33.564,0,0,1,578.924,3491a28.777,28.777,0,0,0,2.4-5.771,41.109,41.109,0,0,0,.744-4.864c.248-2.391.5-4.7.992-5.688a.5.5,0,0,1,.909.412,24,24,0,0,0-.909,5.359,31.347,31.347,0,0,1-.744,5.029,30.309,30.309,0,0,1-2.48,5.936,32.238,32.238,0,0,0-3.8,10.387A.475.475,0,0,1,575.535,3502.294Z" transform="translate(-575.039 -3474.398)"/></g><g transform="translate(392.729 113.397)"><path class="n" d="M843.952,3556.349a.523.523,0,0,1-.5-.412.468.468,0,0,1,.331-.577c3.141-.824,6.364-1.649,9.009-3.71a13.441,13.441,0,0,0,3.389-3.71l.5-.742c.413-.577.909-1.155,1.24-1.649a7.58,7.58,0,0,0,.909-1.236,4.858,4.858,0,0,0,.413-1.072,3.812,3.812,0,0,1,.661-1.648,4.725,4.725,0,0,1,1.322-.907c.744-.412,1.322-.741,1.322-1.813-.083-1.4-.5-2.309-2.976-3.381l-1.735-.742c-1.736-.824-3.389-1.566-4.38-1.319a.264.264,0,0,0-.248.247c-.082.248.083.577.413.99a13.246,13.246,0,0,0,2.976,2.226c.5.33,1.074.659,1.57.989a3.166,3.166,0,0,1,1.653,2.721,1.161,1.161,0,0,1-.5.99c-.579.329-1.24-.248-2.232-1.237a14.618,14.618,0,0,0-3.885-2.968l-.165-.082c-2.728-1.237-4.132-1.814-4.463-.99-.331.66.744,1.4,2.81,2.8a10.8,10.8,0,0,1,1.24.825c2.727,1.9,4.132,4.534,3.967,5.111a.454.454,0,0,1-.5.33c-.33,0-.5-.165-2.893-2.308-1.24-1.155-2.727-2.391-3.388-2.885-.083,0-.165-.082-.248-.165-.744-.659-1.653-1.319-2.314-.825-.165.083-.413.33.083,1.237a32.7,32.7,0,0,0,4.132,4.617c2.149,2.144,2.81,2.721,2.314,3.3-.331.412-.331.412-4.132-2.309-.909-.659-1.819-1.236-2.232-1.566,0,0-1.157-.659-1.57-.082-.331.494.165,1.4,1.57,2.721.992.989,2.562,2.473,3.389,3.38l.5.495a.467.467,0,0,1-.661.66l-.5-.495-3.306-3.3c-1.322-1.236-2.562-2.72-1.653-3.957.744-1.072,2.232-.66,2.975-.165.5.33,1.322.906,2.232,1.566.083.083.248.165.33.248a21.813,21.813,0,0,1-4.05-4.617c-.744-1.319-.331-2.143.165-2.473a2.154,2.154,0,0,1,1.984-.247c-.909-.825-1.322-1.567-.909-2.391.827-1.649,2.81-.824,5.785.494l.165.083a15.579,15.579,0,0,1,4.215,3.133,11.712,11.712,0,0,0,1.074.99,2.352,2.352,0,0,0-1.24-1.814c-.5-.33-1.074-.659-1.571-.989a14.854,14.854,0,0,1-3.223-2.391,2.093,2.093,0,0,1-.661-1.9,1.378,1.378,0,0,1,.992-.907c1.322-.33,3.058.495,5.041,1.4.579.247,1.074.495,1.653.742,2.562,1.072,3.471,2.226,3.554,4.2.083,1.649-.992,2.226-1.818,2.721a3.12,3.12,0,0,0-.992.741,6.355,6.355,0,0,0-.5,1.237,8.882,8.882,0,0,1-.5,1.4,14.372,14.372,0,0,1-.909,1.236,16.975,16.975,0,0,1-1.24,1.649,1.8,1.8,0,0,0-.413.66,14.561,14.561,0,0,1-3.554,3.957c-2.81,2.227-6.116,3.051-9.339,3.875Zm7.438-16.076c.661.577,1.57,1.32,2.314,2.061a3.836,3.836,0,0,1,.579.577,12.816,12.816,0,0,0-2.4-2.226C851.8,3540.521,851.556,3540.438,851.391,3540.273Z" transform="translate(-843.435 -3532.449)"/></g><g transform="translate(374.774 106.216)"><path class="n" d="M744.175,3512.752a.428.428,0,0,1-.33-.165.5.5,0,0,1,0-.659l20.5-18.3a4.707,4.707,0,0,1,1.653-.907,9.342,9.342,0,0,1,2.066-.247l21.737,1.484c.5,0,1.653.083,1.984.824s-.5,1.567-.827,1.9l-9.257,9.233a.467.467,0,0,1-.661-.66l.331-.248,9.009-8.9a2.144,2.144,0,0,0,.578-.825,3.245,3.245,0,0,0-1.075-.164l-21.737-1.484h0a9.669,9.669,0,0,0-1.735.165,4.45,4.45,0,0,0-1.322.742l-20.415,18.3C744.423,3512.67,744.341,3512.752,744.175,3512.752Z" transform="translate(-743.721 -3492.471)"/></g><g transform="translate(379.278 131.072)"><path class="n" d="M778.076,3638.9h-.248l-8.6-.577a.495.495,0,1,1,0-.99l8.6.577h0a9.339,9.339,0,0,0,2.066-.248,4.42,4.42,0,0,0,1.57-.824l3.141-2.8,3.306-3.05a.467.467,0,0,1,.661.659l-3.306,3.05-3.141,2.8a6.017,6.017,0,0,1-1.984,1.072A4.9,4.9,0,0,1,778.076,3638.9Z" transform="translate(-768.737 -3630.86)"/></g><g transform="translate(290.017 58.625)"><path class="n" d="M273.513,3286.887h0a.476.476,0,0,1-.5-.495c.165-2.556.33-4.782.579-6.348l.082-.412c.827-5.771,2.232-16.571,4.793-22.342l.165-.247c1.984-4.534,4.05-9.151,10.662-13.356a38.465,38.465,0,0,1,7.356-3.215c6.447-2.308,13.72-5.029,15.869-12.613a.471.471,0,0,1,.909.247c-2.314,8.079-9.835,10.882-16.53,13.273a35.927,35.927,0,0,0-7.108,3.133c-6.364,3.958-8.348,8.492-10.249,12.861l-.165.248c-2.48,5.688-3.967,16.323-4.711,22.094l-.083.412c-.248,1.566-.413,3.71-.578,6.266A.476.476,0,0,1,273.513,3286.887Z" transform="translate(-273.017 -3227.508)"/></g><g transform="translate(350.403 57.407)"><path class="n" d="M608.9,3227.982a.523.523,0,0,1-.248-.989c1.24-.495,1.157-.742.909-1.649a5.1,5.1,0,0,1,.5-4.37.482.482,0,0,1,.827.495,3.985,3.985,0,0,0-.413,3.627c.331,1.155.413,2.061-1.488,2.8C608.983,3227.982,608.983,3227.982,608.9,3227.982Z" transform="translate(-608.373 -3220.724)"/></g><g transform="translate(332.909 63.654)"><path class="n" d="M524.943,3266.905c-4.215,0-10.414-3.71-13.637-8.491a.482.482,0,0,1,.826-.495c3.388,4.947,10.414,8.9,14.133,7.832,3.554-.989,7.6-5.523,8.844-9.893a.471.471,0,0,1,.909.247c-1.322,4.7-5.7,9.563-9.587,10.635A7.423,7.423,0,0,1,524.943,3266.905Z" transform="translate(-511.219 -3255.507)"/></g><g transform="translate(344.499 67.154)"><path class="n" d="M579.374,3276.627a9.3,9.3,0,0,1-3.471-.66.5.5,0,1,1,.413-.907,9.01,9.01,0,0,0,5.538.248c.248-.083.578.083.578.329a.469.469,0,0,1-.331.577A10.428,10.428,0,0,1,579.374,3276.627Z" transform="translate(-575.588 -3274.994)"/></g><path class="n" d="M638.041,3223.683a1.11,1.11,0,0,0-.33-1.483,1.014,1.014,0,0,0-1.322.66,1.11,1.11,0,0,0,.331,1.483C637.132,3224.59,637.793,3224.26,638.041,3223.683Z" transform="translate(-280.83 -3164.459)"/><path class="n" d="M578.746,3219.175a1.136,1.136,0,0,0-.331-1.566,1.1,1.1,0,0,0-1.405.66,1.135,1.135,0,0,0,.331,1.566A1.037,1.037,0,0,0,578.746,3219.175Z" transform="translate(-232.114 -3160.693)"/><g transform="translate(355.031 53.087)"><path class="n" d="M634.6,3198.027a.524.524,0,0,1-.248-.99,6.141,6.141,0,0,1,4.133,0,.522.522,0,1,1-.331.99,5.034,5.034,0,0,0-3.389,0Z" transform="translate(-634.078 -3196.671)"/></g><g transform="translate(342.726 52.719)"><path class="n" d="M566.256,3196.1a.505.505,0,0,1-.165-.989,9.154,9.154,0,0,1,5.372-.164.5.5,0,1,1-.413.906h0a7.372,7.372,0,0,0-4.629.165C566.339,3196.1,566.339,3196.1,566.256,3196.1Z" transform="translate(-565.739 -3194.623)"/></g><g transform="translate(327.942 48.494)"><path class="n" d="M486.624,3179.605h-.165a3.906,3.906,0,0,1-2.314-2.391,5.569,5.569,0,0,1-.083-4.452,3.408,3.408,0,0,1,2.645-1.649,2.243,2.243,0,0,1,2.066.906.471.471,0,1,1-.744.577,1.233,1.233,0,0,0-1.157-.494,2.385,2.385,0,0,0-1.818,1.154,4.669,4.669,0,0,0,.165,3.628,2.95,2.95,0,0,0,1.653,1.814.521.521,0,0,1,.331.66A1.235,1.235,0,0,1,486.624,3179.605Z" transform="translate(-483.638 -3171.102)"/></g><g transform="translate(330.565 51.772)"><path class="n" d="M499.4,3191.2a.454.454,0,0,1-.413-.247,2.271,2.271,0,0,0-.579-.742.471.471,0,1,1,.579-.742,2.516,2.516,0,0,1,.826,1.072.519.519,0,0,1-.248.66Z" transform="translate(-498.206 -3189.35)"/></g><g transform="translate(357.345 44.189)"><path class="n" d="M650.019,3155.158h-.165a.469.469,0,0,1-.331-.577c.083-.165,1.323-4.947-2.314-6.513a.5.5,0,1,1,.413-.907c4.463,1.9,2.893,7.667,2.893,7.667A.68.68,0,0,1,650.019,3155.158Z" transform="translate(-646.93 -3147.13)"/></g><g transform="translate(331.086 27.982)"><path class="n" d="M534.249,3083.2a.3.3,0,0,1-.248-.083.518.518,0,0,1-.248-.659c.909-1.9,1.157-7.5-.165-10.717a25.73,25.73,0,0,0-7.108-8.986c-7.6-6.183-16.86-6.6-24.63-.989a.47.47,0,1,1-.579-.742c8.182-5.854,17.852-5.441,25.869,1.072a27.585,27.585,0,0,1,7.356,9.316c1.488,3.462,1.157,9.481.165,11.542A.455.455,0,0,1,534.249,3083.2Z" transform="translate(-501.099 -3056.9)"/></g><g transform="translate(376.675 107.535)"><path class="n" d="M754.733,3518.777a.43.43,0,0,1-.33-.165.5.5,0,0,1,0-.659l19.01-16.983a4.709,4.709,0,0,1,1.653-.908,9.351,9.351,0,0,1,2.066-.247l21.737,1.484h0a3.072,3.072,0,0,1,.661.083c.248.082.5.329.413.577a.62.62,0,0,1-.578.412,1.783,1.783,0,0,0-.5-.082l-21.737-1.485h0a9.63,9.63,0,0,0-1.736.166,4.454,4.454,0,0,0-1.322.741l-19.009,16.983A.5.5,0,0,1,754.733,3518.777Z" transform="translate(-754.279 -3499.815)"/></g><g transform="translate(352.742 56.767)"><path class="n" d="M621.867,3246.164a.533.533,0,0,1-.5-.495,6.092,6.092,0,0,1,1.736-4.782,26.349,26.349,0,0,1,2.81-2.555c1.736-1.484,3.472-2.8,4.133-5.194a11.7,11.7,0,0,0-.083-5.606,23.531,23.531,0,0,1-.413-2.556c-.248-2.473.661-4.7,1.487-6.843l.248-.659a.5.5,0,0,1,.909.412l-.248.66c-.826,2.143-1.653,4.122-1.4,6.43.082.824.248,1.649.331,2.473a13.4,13.4,0,0,1,.083,6.018c-.827,2.638-2.645,4.2-4.464,5.689a25.471,25.471,0,0,0-2.727,2.473,5.251,5.251,0,0,0-1.488,4.04c.083.247-.165.413-.413.495Z" transform="translate(-621.365 -3217.16)"/></g><g transform="translate(301.174 35.275)"><path class="n" d="M335.477,3141.484a.532.532,0,0,1-.5-.495c0-2.8,1.984-3.958,3.885-5.194a8.582,8.582,0,0,0,3.058-2.555,6.5,6.5,0,0,0,.661-3.545,6.853,6.853,0,0,1,.992-4.369,16.491,16.491,0,0,1,4.132-3.463,24.146,24.146,0,0,0,3.554-2.8c2.314-2.556,3.223-6.019,4.05-9.4l.165-.742c.992-3.875,2.314-8.326,5.29-11.294a.467.467,0,1,1,.661.659c-2.81,2.8-4.05,7.09-5.042,10.8l-.165.742c-.827,3.3-1.818,7.09-4.3,9.811a15.907,15.907,0,0,1-3.719,2.968,16.481,16.481,0,0,0-3.884,3.216,5.643,5.643,0,0,0-.827,3.71,7.972,7.972,0,0,1-.744,4.122,9.467,9.467,0,0,1-3.389,2.885c-1.818,1.155-3.471,2.144-3.471,4.37A.417.417,0,0,1,335.477,3141.484Z" transform="translate(-334.981 -3097.501)"/></g><g transform="translate(334.121 49.571)"><path class="n" d="M520.213,3179.082a4.408,4.408,0,0,1-1.983-.495.5.5,0,1,1,.413-.907,3.541,3.541,0,0,0,3.884-.494.47.47,0,1,1,.578.742A4.616,4.616,0,0,1,520.213,3179.082Z" transform="translate(-517.95 -3177.096)"/></g><g transform="translate(340.417 42.899)"><path class="n" d="M554.338,3148.361a4.041,4.041,0,0,1-.992-.082.5.5,0,1,1,.165-.989c3.306.329,5.455-1.319,7.356-3.215.413-.412.744-.824,1.157-1.237,1.653-1.814,3.223-3.545,5.538-2.638a.521.521,0,1,1-.331.989c-1.653-.577-2.727.5-4.463,2.391-.413.412-.744.825-1.157,1.237C559.628,3146.713,557.479,3148.361,554.338,3148.361Z" transform="translate(-552.917 -3139.951)"/></g><g transform="translate(351.67 34.323)"><path class="n" d="M619.8,3099.627a.524.524,0,0,1-.5-.412c-.5-2.226-1.24-4.452-3.637-6.1a.481.481,0,1,1,.5-.824c2.728,1.814,3.554,4.369,4.05,6.678.082.247-.083.495-.413.577C619.88,3099.627,619.8,3099.627,619.8,3099.627Z" transform="translate(-615.413 -3092.204)"/></g><g transform="translate(333.79 139.418)"><path class="n" d="M527.221,3686.418h-.165l-10.662-4.7a.5.5,0,1,1,.413-.907l10.579,4.617,51.077-2.721-19.009-4.451a.47.47,0,1,1,.248-.907l22.4,5.194a.523.523,0,0,1,.413.494.462.462,0,0,1-.5.412l-54.8,2.968Z" transform="translate(-516.115 -3677.328)"/></g><g transform="translate(213.71 70.827)"><path class="n" d="M-142.473,3354.242a.533.533,0,0,1-.5-.495c-.33-16.736-3.967-46.58-7.769-57.627a.56.56,0,0,1,.33-.659.562.562,0,0,1,.661.329c3.8,11.13,7.438,41.139,7.769,57.957a.533.533,0,0,1-.5.495Z" transform="translate(150.76 -3295.44)"/></g><g transform="translate(237.353 82.044)"><path class="n" d="M-18.283,3407.375h0c-.331,0-.5-.248-.5-.577,1.9-20.116,1.736-34.543-.661-48.311-.083-.247.165-.495.413-.577s.5.165.579.412c2.4,13.851,2.645,28.36.744,48.559A.6.6,0,0,1-18.283,3407.375Z" transform="translate(19.456 -3357.893)"/></g><g transform="translate(252.54 131.247)"><path class="n" d="M66.162,3649.1a.455.455,0,0,1-.413-.247c-1.24-2.556-1.157-6.266.33-10.141,1.24-3.38,3.223-6.1,4.959-6.843a.5.5,0,1,1,.413.907c-1.488.659-3.306,3.215-4.463,6.266-1.323,3.627-1.488,7.008-.331,9.315a.519.519,0,0,1-.248.66A.3.3,0,0,1,66.162,3649.1Z" transform="translate(-64.885 -3631.835)"/></g><g transform="translate(217.668 88.79)"><path class="n" d="M-114.285,3411.638a1.05,1.05,0,0,1-.5-.083c-3.884-.742-11.571-9.233-13.968-15.416a.519.519,0,0,1,.248-.66.521.521,0,0,1,.661.248c2.479,6.265,10,14.18,13.307,14.757a2,2,0,0,0,1.57-.495c2.563-1.979,4.546-8.574,4.877-13.6a.533.533,0,0,1,.5-.495.533.533,0,0,1,.5.495c-.413,5.359-2.479,12.2-5.29,14.345A2.45,2.45,0,0,1-114.285,3411.638Z" transform="translate(128.78 -3395.449)"/></g><g transform="translate(288.943 122.704)"><path class="n" d="M267.546,3588.063h0a.476.476,0,0,1-.5-.494l.165-2.8a.5.5,0,0,1,.992,0l-.165,2.8A.476.476,0,0,1,267.546,3588.063Z" transform="translate(-267.05 -3584.271)"/></g><g transform="translate(315.204 71.239)"><path class="n" d="M432.915,3312.349c-7.273,0-17.109-5.606-20-13.932a.523.523,0,0,1,.992-.33c2.81,8.244,12.645,13.6,19.671,13.273,1.818-.083,4.959-.66,5.7-3.545a.471.471,0,0,1,.909.247c-.661,2.638-3.058,4.2-6.612,4.287Z" transform="translate(-412.893 -3297.735)"/></g><g transform="translate(350.518 130.67)"><path class="n" d="M610.335,3640.772a.454.454,0,0,1-.413-.247c-2.066-3.38-.083-9.811.826-11.624a.5.5,0,0,1,.909.412c-.992,1.978-2.562,7.75-.826,10.635a.431.431,0,0,1-.165.659C610.5,3640.772,610.418,3640.772,610.335,3640.772Z" transform="translate(-609.015 -3628.622)"/></g><g transform="translate(5.207 109.184)"><path class="n" d="M-1308.2,3510.149a.532.532,0,0,1-.5-.494.533.533,0,0,1,.5-.495l21.737-.165h0a.533.533,0,0,1,.5.5.532.532,0,0,1-.5.494l-21.737.165Z" transform="translate(1308.697 -3508.995)"/></g><g transform="translate(140.669 107.288)"><path class="n" d="M-555.9,3499.674a.532.532,0,0,1-.5-.495.532.532,0,0,1,.5-.495l38.019-.247h0a.533.533,0,0,1,.5.494.533.533,0,0,1-.5.5l-38.019.247Z" transform="translate(556.396 -3498.437)"/></g><g transform="translate(268.197 108.194)"><path class="n" d="M152.336,3504.64a.495.495,0,1,1,0-.989l22.4-.165h0a.495.495,0,1,1,0,.99l-22.4.164Z" transform="translate(-151.84 -3503.486)"/></g><g transform="translate(372.584 107.782)"><path class="n" d="M732.054,3502.345a.495.495,0,1,1,0-.989l21.654-.165a.476.476,0,0,1,.5.494.533.533,0,0,1-.5.5h-.165l-21.489.165Z" transform="translate(-731.558 -3501.191)"/></g><g transform="translate(237.922 58.219)"><path class="n" d="M-11.972,3231.689a1.828,1.828,0,0,1-.661-.082c-2.314-.412-3.885-2.968-3.636-5.936a.45.45,0,0,1,.578-.412.449.449,0,0,1,.413.577c-.248,2.473.992,4.617,2.81,4.864,1.9.33,4.05-1.566,5.041-4.7a.523.523,0,0,1,.661-.33.521.521,0,0,1,.33.659C-7.591,3229.628-9.74,3231.689-11.972,3231.689Z" transform="translate(16.295 -3225.242)"/></g><g transform="translate(250.968 58.543)"><path class="n" d="M58.755,3233.914a2.977,2.977,0,0,1-.909-.166c-1.818-.659-2.066-3.792-1.24-6.348a.471.471,0,0,1,.909.247c-.744,2.391-.413,4.7.661,5.112a2.589,2.589,0,0,0,1.735-.165c.744-.412,2.232-1.484,3.223-4.7a.471.471,0,0,1,.909.248c-.826,2.638-2.066,4.452-3.719,5.276A2.928,2.928,0,0,1,58.755,3233.914Z" transform="translate(-56.155 -3227.05)"/></g><g transform="translate(228.989 51.937)"><path class="n" d="M-56.534,3197.473a.3.3,0,0,1-.248-.082l-8.926-6.265a.436.436,0,0,1-.083-.66.438.438,0,0,1,.661-.083l8.926,6.266a.435.435,0,0,1,.083.659A.632.632,0,0,1-56.534,3197.473Z" transform="translate(65.906 -3190.268)"/></g><g transform="translate(246.687 59.193)"><path class="n" d="M37.031,3232.346a.454.454,0,0,1-.413-.248c-.413-.66-2.4-.495-3.637-.247a.47.47,0,1,1-.248-.907c.661-.165,3.885-.825,4.794.742a.431.431,0,0,1-.165.66Z" transform="translate(-32.381 -3230.666)"/></g></g></g><g transform="translate(-1024.702 2976.882)"><path class="a" d="M401.341,3327.539a.336.336,0,0,1-.328-.264l-.839-3.881a.336.336,0,0,1,.657-.141l.839,3.881a.335.335,0,0,1-.258.4A.322.322,0,0,1,401.341,3327.539Z" transform="translate(-400.167 -3322.989)"/></g><g transform="translate(-1033.302 2981.876)"><path class="a" d="M353.579,3355.341a.336.336,0,0,1-.328-.264l-.839-3.881a.336.336,0,0,1,.657-.141l.839,3.881a.336.336,0,0,1-.258.4A.322.322,0,0,1,353.579,3355.341Z" transform="translate(-352.404 -3350.791)"/></g><g transform="translate(-1040.876 2992.887)"><path class="a" d="M311.519,3416.648a.336.336,0,0,1-.328-.264l-.839-3.881a.336.336,0,0,1,.657-.141l.839,3.881a.335.335,0,0,1-.258.4A.323.323,0,0,1,311.519,3416.648Z" transform="translate(-310.344 -3412.098)"/></g><g transform="translate(-1041.004 3008.252)"><path class="a" d="M310.806,3502.193a.337.337,0,0,1-.328-.264l-.839-3.881a.336.336,0,0,1,.657-.141l.839,3.881a.335.335,0,0,1-.328.405Z" transform="translate(-309.632 -3497.642)"/></g><g transform="translate(-1034.201 2998.521)"><path class="a" d="M348.589,3448.015a.337.337,0,0,1-.328-.264l-.839-3.881a.336.336,0,0,1,.657-.141l.839,3.881a.335.335,0,0,1-.258.4A.322.322,0,0,1,348.589,3448.015Z" transform="translate(-347.414 -3443.464)"/></g><g transform="translate(-1025.857 2988.79)"><path class="a" d="M394.925,3393.836a.336.336,0,0,1-.328-.264l-.839-3.881a.336.336,0,0,1,.657-.141l.839,3.881a.336.336,0,0,1-.257.4A.355.355,0,0,1,394.925,3393.836Z" transform="translate(-393.75 -3389.286)"/></g><g transform="translate(-1016.487 2983.669)"><path class="a" d="M446.965,3365.322a.337.337,0,0,1-.328-.264l-.839-3.881a.336.336,0,0,1,.657-.141l.839,3.881a.335.335,0,0,1-.258.4A.307.307,0,0,1,446.965,3365.322Z" transform="translate(-445.79 -3360.771)"/></g><g transform="translate(-992.611 2984.565)"><path class="a" d="M579.559,3370.311a.336.336,0,0,1-.328-.264l-.839-3.881a.336.336,0,0,1,.657-.141l.839,3.881a.334.334,0,0,1-.328.4Z" transform="translate(-578.384 -3365.761)"/></g><g transform="translate(-1000.185 2990.967)"><path class="a" d="M537.5,3405.956a.337.337,0,0,1-.328-.264l-.839-3.881a.336.336,0,0,1,.657-.141l.839,3.881a.335.335,0,0,1-.258.4A.322.322,0,0,1,537.5,3405.956Z" transform="translate(-536.325 -3401.405)"/></g><g transform="translate(-1013.149 2994.68)"><path class="a" d="M465.5,3426.629a.336.336,0,0,1-.328-.265l-.839-3.881a.336.336,0,0,1,.657-.141l.839,3.881a.335.335,0,0,1-.257.4A.322.322,0,0,1,465.5,3426.629Z" transform="translate(-464.324 -3422.078)"/></g><g transform="translate(-1019.439 2993.272)"><path class="a" d="M430.569,3418.787a.337.337,0,0,1-.328-.264l-.839-3.881a.336.336,0,0,1,.657-.141l.839,3.881a.335.335,0,0,1-.328.405Z" transform="translate(-429.394 -3414.236)"/></g><g transform="translate(-1024.06 3013.118)"><path class="a" d="M404.905,3529.282a.336.336,0,0,1-.328-.264l-.839-3.881a.336.336,0,0,1,.657-.141l.839,3.881a.335.335,0,0,1-.328.405Z" transform="translate(-403.73 -3524.731)"/></g><g transform="translate(-1017.642 3022.208)"><path class="a" d="M440.549,3579.9a.336.336,0,0,1-.328-.264l-.839-3.881a.336.336,0,0,1,.657-.141l.839,3.881a.335.335,0,0,1-.328.405Z" transform="translate(-439.375 -3575.345)"/></g><g transform="translate(-1012.893 3005.179)"><path class="a" d="M466.925,3485.083a.336.336,0,0,1-.328-.264l-.839-3.881a.336.336,0,0,1,.657-.141l.839,3.881a.336.336,0,0,1-.257.4A.323.323,0,0,1,466.925,3485.083Z" transform="translate(-465.751 -3480.533)"/></g><g transform="translate(-1004.806 3000.186)"><path class="a" d="M511.836,3457.281a.336.336,0,0,1-.328-.264l-.839-3.881a.336.336,0,0,1,.657-.141l.839,3.881a.335.335,0,0,1-.258.4A.32.32,0,0,1,511.836,3457.281Z" transform="translate(-510.662 -3452.73)"/></g><g transform="translate(-991.584 2995.32)"><path class="a" d="M585.262,3430.192a.336.336,0,0,1-.328-.264l-.839-3.881a.336.336,0,0,1,.657-.141l.839,3.881a.336.336,0,0,1-.258.4A.32.32,0,0,1,585.262,3430.192Z" transform="translate(-584.087 -3425.642)"/></g><g transform="translate(-994.023 3002.618)"><path class="a" d="M571.717,3470.827a.336.336,0,0,1-.328-.264l-.839-3.881a.336.336,0,0,1,.657-.141l.839,3.881a.335.335,0,0,1-.257.4A.323.323,0,0,1,571.717,3470.827Z" transform="translate(-570.543 -3466.276)"/></g><g transform="translate(-1007.886 3006.204)"><path class="a" d="M494.727,3490.787a.336.336,0,0,1-.328-.264l-.839-3.881a.336.336,0,0,1,.657-.141l.839,3.881a.336.336,0,0,1-.328.405Z" transform="translate(-493.552 -3486.236)"/></g><g transform="translate(-1008.657 3014.91)"><path class="a" d="M490.45,3539.261a.337.337,0,0,1-.328-.264l-.839-3.881a.336.336,0,0,1,.657-.141l.839,3.881a.335.335,0,0,1-.258.4A.321.321,0,0,1,490.45,3539.261Z" transform="translate(-489.275 -3534.711)"/></g><g transform="translate(-1011.609 3022.977)"><path class="a" d="M474.054,3584.173a.337.337,0,0,1-.328-.264l-.839-3.881a.336.336,0,0,1,.657-.141l.839,3.881a.336.336,0,0,1-.328.406Z" transform="translate(-472.879 -3579.622)"/></g><g transform="translate(-1005.191 3022.593)"><path class="a" d="M509.7,3582.035a.337.337,0,0,1-.328-.265l-.839-3.881a.336.336,0,0,1,.657-.141l.839,3.881a.336.336,0,0,1-.257.4A.322.322,0,0,1,509.7,3582.035Z" transform="translate(-508.523 -3577.484)"/></g><g transform="translate(-996.206 3020.928)"><path class="a" d="M559.6,3572.767a.336.336,0,0,1-.328-.264l-.839-3.881a.336.336,0,0,1,.657-.141l.839,3.881a.336.336,0,0,1-.257.4A.354.354,0,0,1,559.6,3572.767Z" transform="translate(-558.423 -3568.217)"/></g><g transform="translate(-1002.11 3014.142)"><path class="a" d="M526.806,3534.985a.336.336,0,0,1-.328-.264l-.839-3.881a.336.336,0,0,1,.657-.141l.839,3.881a.336.336,0,0,1-.328.406Z" transform="translate(-525.631 -3530.434)"/></g><g transform="translate(-978.62 3009.021)"><path class="a" d="M657.262,3506.47a.337.337,0,0,1-.328-.264l-.839-3.881a.336.336,0,0,1,.657-.141l.839,3.881a.336.336,0,0,1-.258.4A.321.321,0,0,1,657.262,3506.47Z" transform="translate(-656.087 -3501.919)"/></g><g transform="translate(-981.572 2998.905)"><path class="a" d="M640.866,3450.153a.336.336,0,0,1-.328-.264l-.839-3.881a.336.336,0,0,1,.657-.141l.839,3.881a.335.335,0,0,1-.258.4A.323.323,0,0,1,640.866,3450.153Z" transform="translate(-639.691 -3445.603)"/></g><g transform="translate(-983.883 2988.662)"><path class="a" d="M628.034,3393.124a.336.336,0,0,1-.328-.264l-.839-3.881a.336.336,0,0,1,.657-.141l.839,3.881a.335.335,0,0,1-.329.405Z" transform="translate(-626.859 -3388.573)"/></g><g transform="translate(-986.707 2991.479)"><path class="a" d="M612.351,3408.807a.336.336,0,0,1-.328-.264l-.839-3.881a.336.336,0,0,1,.657-.141l.839,3.881a.335.335,0,0,1-.328.406Z" transform="translate(-611.177 -3404.256)"/></g><g transform="translate(-988.504 3004.411)"><path class="a" d="M602.371,3480.807a.337.337,0,0,1-.328-.264l-.839-3.881a.336.336,0,0,1,.657-.141l.839,3.881a.336.336,0,0,1-.328.406Z" transform="translate(-601.196 -3476.256)"/></g><g transform="translate(-975.539 3001.85)"><path class="a" d="M674.371,3466.55a.337.337,0,0,1-.328-.264l-.839-3.881a.336.336,0,0,1,.657-.142l.839,3.881a.336.336,0,0,1-.258.4A.323.323,0,0,1,674.371,3466.55Z" transform="translate(-673.196 -3461.999)"/></g><g transform="translate(-983.241 3007.74)"><path class="a" d="M631.6,3499.342a.336.336,0,0,1-.328-.264l-.839-3.881a.336.336,0,0,1,.657-.141l.839,3.881a.336.336,0,0,1-.257.4A.322.322,0,0,1,631.6,3499.342Z" transform="translate(-630.424 -3494.791)"/></g><g transform="translate(-974.256 3015.679)"><path class="a" d="M681.5,3543.539a.337.337,0,0,1-.328-.264l-.839-3.881a.336.336,0,0,1,.657-.141l.839,3.881a.336.336,0,0,1-.328.405Z" transform="translate(-680.325 -3538.989)"/></g><g transform="translate(-970.661 3009.277)"><path class="a" d="M701.46,3507.9a.336.336,0,0,1-.328-.264l-.839-3.881a.336.336,0,0,1,.657-.141l.839,3.881a.335.335,0,0,1-.258.4A.322.322,0,0,1,701.46,3507.9Z" transform="translate(-700.285 -3503.345)"/></g><g transform="translate(-965.142 3014.654)"><path class="a" d="M732.113,3537.836a.336.336,0,0,1-.328-.264l-.839-3.881a.336.336,0,0,1,.657-.141l.839,3.881a.335.335,0,0,1-.257.4A.322.322,0,0,1,732.113,3537.836Z" transform="translate(-730.939 -3533.285)"/></g><g transform="translate(-960.136 3015.935)"><path class="a" d="M759.915,3544.965a.336.336,0,0,1-.328-.264l-.839-3.881a.336.336,0,0,1,.657-.141l.839,3.881a.335.335,0,0,1-.329.4Z" transform="translate(-758.741 -3540.414)"/></g><g transform="translate(-969.506 3016.19)"><path class="a" d="M707.876,3546.39a.336.336,0,0,1-.328-.264l-.839-3.881a.336.336,0,0,1,.657-.141l.839,3.881a.334.334,0,0,1-.328.4Z" transform="translate(-706.701 -3541.84)"/></g><g transform="translate(-1019.311 3002.875)"><path class="a" d="M431.282,3472.252a.336.336,0,0,1-.328-.264l-.839-3.881a.336.336,0,0,1,.657-.141l.839,3.881a.336.336,0,0,1-.258.4A.353.353,0,0,1,431.282,3472.252Z" transform="translate(-430.107 -3467.702)"/></g><g transform="translate(-1008.4 2989.174)"><path class="a" d="M491.876,3395.974a.336.336,0,0,1-.328-.264l-.839-3.881a.336.336,0,0,1,.657-.141l.839,3.881a.336.336,0,0,1-.258.4A.32.32,0,0,1,491.876,3395.974Z" transform="translate(-490.701 -3391.424)"/></g><g transform="translate(-995.435 2989.302)"><path class="a" d="M563.876,3396.688a.337.337,0,0,1-.328-.265l-.839-3.881a.336.336,0,0,1,.657-.141l.839,3.88a.338.338,0,0,1-.328.406Z" transform="translate(-562.701 -3392.137)"/></g><g transform="translate(-999.415 3000.826)"><path class="a" d="M541.777,3460.847a.336.336,0,0,1-.329-.264l-.839-3.881a.336.336,0,0,1,.657-.141l.839,3.881a.336.336,0,0,1-.328.406Z" transform="translate(-540.602 -3456.296)"/></g><g transform="translate(-1000.698 3024.385)"><path class="a" d="M534.648,3592.014a.336.336,0,0,1-.328-.264l-.839-3.881a.336.336,0,0,1,.657-.141l.839,3.881a.335.335,0,0,1-.258.4A.322.322,0,0,1,534.648,3592.014Z" transform="translate(-533.474 -3587.464)"/></g><g transform="translate(-1017.385 3012.99)"><path class="a" d="M441.975,3528.569a.337.337,0,0,1-.328-.264l-.839-3.881a.336.336,0,0,1,.657-.142l.839,3.881a.336.336,0,0,1-.258.4A.322.322,0,0,1,441.975,3528.569Z" transform="translate(-440.8 -3524.018)"/></g><g transform="translate(-991.456 3013.886)"><path class="a" d="M585.975,3533.559a.336.336,0,0,1-.328-.264l-.839-3.881a.336.336,0,0,1,.657-.141l.839,3.881a.335.335,0,0,1-.258.4A.322.322,0,0,1,585.975,3533.559Z" transform="translate(-584.8 -3529.009)"/></g><g transform="translate(-1030.093 3009.789)"><path class="a" d="M371.4,3510.748a.337.337,0,0,1-.328-.264l-.839-3.881a.336.336,0,0,1,.657-.142l.839,3.881a.335.335,0,0,1-.257.4A.322.322,0,0,1,371.4,3510.748Z" transform="translate(-370.226 -3506.197)"/></g><g transform="translate(-1036.64 3011.837)"><path class="a" d="M335.044,3522.153a.337.337,0,0,1-.328-.265l-.839-3.881a.336.336,0,0,1,.657-.141l.839,3.881a.335.335,0,0,1-.258.4A.321.321,0,0,1,335.044,3522.153Z" transform="translate(-333.87 -3517.602)"/></g><g transform="translate(-1041.004 3018.751)"><path class="a" d="M310.806,3560.648a.336.336,0,0,1-.328-.264l-.839-3.881a.336.336,0,0,1,.657-.141l.839,3.881a.335.335,0,0,1-.258.4A.321.321,0,0,1,310.806,3560.648Z" transform="translate(-309.632 -3556.098)"/></g><g transform="translate(-1035.228 3026.178)"><path class="a" d="M342.886,3601.994a.336.336,0,0,1-.328-.264l-.839-3.881a.336.336,0,0,1,.657-.141l.839,3.881a.334.334,0,0,1-.328.405Z" transform="translate(-341.711 -3597.444)"/></g><g transform="translate(-1030.35 3020.544)"><path class="a" d="M369.975,3570.629a.337.337,0,0,1-.328-.264l-.839-3.881a.336.336,0,0,1,.657-.141l.839,3.881a.335.335,0,0,1-.258.4A.322.322,0,0,1,369.975,3570.629Z" transform="translate(-368.8 -3566.078)"/></g><g transform="translate(-1030.093 3031.172)"><path class="a" d="M371.4,3629.8a.337.337,0,0,1-.328-.264l-.839-3.881a.336.336,0,0,1,.657-.141l.839,3.881a.335.335,0,0,1-.257.4A.322.322,0,0,1,371.4,3629.8Z" transform="translate(-370.226 -3625.246)"/></g><g transform="translate(-1033.431 3039.366)"><path class="a" d="M352.866,3675.421a.337.337,0,0,1-.328-.264l-.839-3.881a.336.336,0,0,1,.657-.141l.839,3.881a.335.335,0,0,1-.258.4A.308.308,0,0,1,352.866,3675.421Z" transform="translate(-351.691 -3670.87)"/></g><g transform="translate(-1020.851 3030.275)"><path class="a" d="M422.727,3624.807a.336.336,0,0,1-.328-.264l-.839-3.881a.336.336,0,0,1,.657-.141l.839,3.881a.335.335,0,0,1-.328.405Z" transform="translate(-421.552 -3620.256)"/></g><g transform="translate(-1024.83 3035.269)"><path class="a" d="M400.628,3652.609a.336.336,0,0,1-.328-.265l-.839-3.881a.336.336,0,0,1,.657-.141l.839,3.881a.335.335,0,0,1-.258.4A.321.321,0,0,1,400.628,3652.609Z" transform="translate(-399.454 -3648.058)"/></g><g transform="translate(-1027.911 3039.366)"><path class="a" d="M383.519,3675.421a.336.336,0,0,1-.328-.264l-.839-3.881a.336.336,0,0,1,.657-.141l.839,3.881a.335.335,0,0,1-.257.4A.31.31,0,0,1,383.519,3675.421Z" transform="translate(-382.345 -3670.87)"/></g><g transform="translate(-1019.696 3038.854)"><path class="a" d="M429.143,3672.569a.336.336,0,0,1-.328-.264l-.839-3.881a.336.336,0,0,1,.657-.141l.839,3.881a.335.335,0,0,1-.328.405Z" transform="translate(-427.969 -3668.018)"/></g><g transform="translate(-1013.149 3031.555)"><path class="a" d="M465.5,3631.936a.336.336,0,0,1-.328-.264l-.839-3.881a.336.336,0,0,1,.657-.141l.839,3.881a.336.336,0,0,1-.257.4A.373.373,0,0,1,465.5,3631.936Z" transform="translate(-464.324 -3627.385)"/></g><g transform="translate(-1016.615 3033.86)"><path class="a" d="M446.252,3644.767a.337.337,0,0,1-.328-.264l-.839-3.881a.336.336,0,0,1,.657-.142l.839,3.881a.335.335,0,0,1-.258.4A.321.321,0,0,1,446.252,3644.767Z" transform="translate(-445.078 -3640.216)"/></g><g transform="translate(-1012.122 3038.214)"><path class="a" d="M471.2,3669a.336.336,0,0,1-.328-.264l-.839-3.881a.336.336,0,0,1,.657-.141l.839,3.881a.335.335,0,0,1-.328.405Z" transform="translate(-470.028 -3664.454)"/></g><g transform="translate(-1009.042 3032.196)"><path class="a" d="M488.311,3635.5a.336.336,0,0,1-.328-.264l-.839-3.881a.336.336,0,0,1,.657-.141l.839,3.881a.335.335,0,0,1-.328.405Z" transform="translate(-487.137 -3630.949)"/></g><g transform="translate(-1007.116 3038.342)"><path class="a" d="M499,3669.718a.336.336,0,0,1-.328-.264l-.839-3.881a.336.336,0,0,1,.657-.141l.839,3.881a.336.336,0,0,1-.328.405Z" transform="translate(-497.829 -3665.167)"/></g><g transform="translate(-1004.036 3033.092)"><path class="a" d="M516.113,3640.49a.337.337,0,0,1-.328-.264l-.839-3.881a.336.336,0,0,1,.657-.141l.839,3.881a.336.336,0,0,1-.328.405Z" transform="translate(-514.938 -3635.939)"/></g><g transform="translate(-1000.57 3037.829)"><path class="a" d="M535.361,3666.866a.337.337,0,0,1-.328-.265l-.839-3.88a.336.336,0,0,1,.657-.141l.839,3.881a.335.335,0,0,1-.258.4A.322.322,0,0,1,535.361,3666.866Z" transform="translate(-534.186 -3662.315)"/></g><g transform="translate(-998.003 3033.348)"><path class="a" d="M549.618,3641.915a.336.336,0,0,1-.328-.264l-.839-3.881a.336.336,0,0,1,.657-.141l.839,3.881a.335.335,0,0,1-.258.4A.339.339,0,0,1,549.618,3641.915Z" transform="translate(-548.443 -3637.365)"/></g><g transform="translate(-993.767 3037.958)"><path class="a" d="M573.143,3667.579a.337.337,0,0,1-.328-.264l-.839-3.881a.336.336,0,0,1,.657-.141l.839,3.881a.336.336,0,0,1-.258.4A.32.32,0,0,1,573.143,3667.579Z" transform="translate(-571.969 -3663.028)"/></g><g transform="translate(-991.199 3034.244)"><path class="a" d="M587.4,3646.906a.336.336,0,0,1-.328-.264l-.839-3.881a.336.336,0,0,1,.657-.141l.839,3.881a.335.335,0,0,1-.328.405Z" transform="translate(-586.226 -3642.355)"/></g><g transform="translate(-999.286 3008.508)"><path class="a" d="M542.49,3503.619a.336.336,0,0,1-.328-.264l-.839-3.881a.336.336,0,0,1,.657-.141l.839,3.881a.335.335,0,0,1-.257.4A.308.308,0,0,1,542.49,3503.619Z" transform="translate(-541.315 -3499.068)"/></g></g></svg>