<svg xmlns="http://www.w3.org/2000/svg" width="100" height="74" viewBox="0 0 100 74"><defs><style>.a{fill:#ddd;}</style></defs><g transform="translate(-1229 -1161)"><g transform="translate(2001.311 378.376)"><g transform="translate(-746.311 782.624)"><path class="a" d="M-715.5,792.128l13.416,13.416-43.163,43.147h-13.405V835.276l43.153-43.148m0-9.5a4.115,4.115,0,0,0-2.916,1.2l-46.961,46.95a4.143,4.143,0,0,0-1.2,2.921v18.788a4.126,4.126,0,0,0,4.126,4.131h18.788a4.121,4.121,0,0,0,2.916-1.21l46.961-46.95a4.127,4.127,0,0,0,0-5.837l-18.789-18.794a4.126,4.126,0,0,0-2.921-1.2Z" transform="translate(766.58 -782.624)"/></g></g><rect class="a" width="100" height="6" transform="translate(1229 1229)"/></g></svg>