<svg xmlns="http://www.w3.org/2000/svg" xmlns:xlink="http://www.w3.org/1999/xlink" width="267" height="534" viewBox="0 0 267 534"><defs><style>.a{fill:#fafafa;}.b{clip-path:url(#a);}.c{fill:#c8d9d4;}</style><clipPath id="a"><rect class="a" width="267" height="534" transform="translate(1333 1213)"/></clipPath></defs><g class="b" transform="translate(-1333 -1213)"><g transform="translate(-2246.169 2076.279)"><circle class="c" cx="2.183" cy="2.183" r="2.183" transform="translate(3799.273 -577.667)"/><path class="c" d="M3836.112-503.032a2.183,2.183,0,0,1-2.183-2.183,2.183,2.183,0,0,1,2.183-2.183,2.182,2.182,0,0,1,2.183,2.183A2.182,2.182,0,0,1,3836.112-503.032Z"/><path class="c" d="M3847.033-467.821A2.183,2.183,0,0,1,3844.85-470a2.183,2.183,0,0,1,2.183-2.184,2.184,2.184,0,0,1,2.183,2.184A2.184,2.184,0,0,1,3847.033-467.821Z"/><circle class="c" cx="2.183" cy="2.183" r="2.183" transform="translate(3797.955 -609.023)"/><circle class="c" cx="2.183" cy="2.183" r="2.183" transform="translate(3851.55 -748.514)"/><circle class="c" cx="2.183" cy="2.183" r="2.183" transform="translate(3780.004 -585.322)"/><circle class="c" cx="2.183" cy="2.183" r="2.183" transform="translate(3801.1 -652.509)"/><circle class="c" cx="2.183" cy="2.183" r="2.183" transform="translate(3777.091 -670.062)"/><circle class="c" cx="2.183" cy="2.183" r="2.183" transform="translate(3849.319 -522.814)"/><circle class="c" cx="2.183" cy="2.183" r="2.183" transform="translate(3704.452 -638.078)"/><path class="c" d="M3727.768-570.079a2.183,2.183,0,0,1-2.183-2.183,2.183,2.183,0,0,1,2.183-2.184,2.183,2.183,0,0,1,2.183,2.184A2.183,2.183,0,0,1,3727.768-570.079Z"/><circle class="c" cx="2.183" cy="2.183" r="2.183" transform="translate(3678.581 -591.825)"/><circle class="c" cx="2.183" cy="2.183" r="2.183" transform="translate(3760.167 -666.535)"/><circle class="c" cx="2.183" cy="2.183" r="2.183" transform="translate(3786.846 -739.949)"/><circle class="c" cx="2.183" cy="2.183" r="2.183" transform="translate(3779.217 -748.946)"/><circle class="c" cx="2.183" cy="2.183" r="2.183" transform="translate(3772.633 -592.019)"/><circle class="c" cx="2.183" cy="2.183" r="2.183" transform="translate(3676.799 -582.278)"/><circle class="c" cx="2.183" cy="2.183" r="2.183" transform="translate(3763.904 -511.619)"/><path class="c" d="M3789.795-512.72a2.183,2.183,0,0,1-2.183-2.183,2.183,2.183,0,0,1,2.183-2.183,2.183,2.183,0,0,1,2.183,2.183A2.183,2.183,0,0,1,3789.795-512.72Z"/><circle class="c" cx="2.183" cy="2.183" r="2.183" transform="translate(3811.535 -437.403)"/><circle class="c" cx="2.183" cy="2.183" r="2.183" transform="translate(3730.592 -625.96)"/><circle class="c" cx="2.183" cy="2.183" r="2.183" transform="translate(3679.559 -660.135)"/><circle class="c" cx="2.183" cy="2.183" r="2.183" transform="translate(3643.753 -641.515)"/><circle class="c" cx="2.183" cy="2.183" r="2.183" transform="translate(3822.98 -682.913)"/><circle class="c" cx="2.183" cy="2.183" r="2.183" transform="translate(3815.963 -735.285)"/><circle class="c" cx="2.183" cy="2.183" r="2.183" transform="translate(3801.663 -803.112)"/><path class="c" d="M3851.509-773.155a2.183,2.183,0,0,1-2.183-2.183,2.183,2.183,0,0,1,2.183-2.183,2.182,2.182,0,0,1,2.183,2.183A2.182,2.182,0,0,1,3851.509-773.155Z"/><circle class="c" cx="2.183" cy="2.183" r="2.183" transform="translate(3781.083 -459.008)"/><circle class="c" cx="2.183" cy="2.183" r="2.183" transform="translate(3816.233 -662.205)"/><circle class="c" cx="2.183" cy="2.183" r="2.183" transform="translate(3818.683 -689.491)"/><path class="c" d="M3755.972-626.076a2.183,2.183,0,0,1-2.183-2.184,2.183,2.183,0,0,1,2.183-2.183,2.183,2.183,0,0,1,2.183,2.183A2.183,2.183,0,0,1,3755.972-626.076Z"/><circle class="c" cx="2.183" cy="2.183" r="2.183" transform="translate(3699.789 -574.585)"/><circle class="c" cx="2.183" cy="2.183" r="2.183" transform="translate(3805.96 -740.418)"/><circle class="c" cx="2.183" cy="2.183" r="2.183" transform="translate(3802.463 -459.38)"/><circle class="c" cx="2.183" cy="2.183" r="2.183" transform="translate(3710.482 -508.068)"/><circle class="c" cx="2.183" cy="2.183" r="2.183" transform="translate(3788.949 -540.196)"/><circle class="c" cx="2.183" cy="2.183" r="2.183" transform="translate(3808.524 -749.685)"/><circle class="c" cx="2.183" cy="2.183" r="2.183" transform="translate(3814.536 -601.356)"/><circle class="c" cx="2.183" cy="2.183" r="2.183" transform="translate(3783.199 -485.72)"/><circle class="c" cx="2.183" cy="2.183" r="2.183" transform="translate(3701.587 -610.14)"/><circle class="c" cx="2.183" cy="2.183" r="2.183" transform="translate(3810.718 -463.051)"/><circle class="c" cx="2.183" cy="2.183" r="2.183" transform="translate(3787.78 -529.311)"/><circle class="c" cx="2.183" cy="2.183" r="2.183" transform="translate(3802.659 -446.136)"/><circle class="c" cx="2.183" cy="2.183" r="2.183" transform="translate(3826.758 -435.22)"/><circle class="c" cx="2.183" cy="2.183" r="2.183" transform="translate(3787.563 -498.851)"/><circle class="c" cx="2.183" cy="2.183" r="2.183" transform="translate(3802.991 -590.439)"/><circle class="c" cx="2.183" cy="2.183" r="2.183" transform="translate(3797.612 -600.558)"/><circle class="c" cx="2.183" cy="2.183" r="2.183" transform="translate(3835.007 -655.606)"/><circle class="c" cx="2.183" cy="2.183" r="2.183" transform="translate(3835.603 -794.251)"/><circle class="c" cx="2.183" cy="2.183" r="2.183" transform="translate(3784.441 -690.205)"/><path class="c" d="M3759.841-680.5a2.183,2.183,0,0,1-2.183-2.183,2.183,2.183,0,0,1,2.183-2.183,2.183,2.183,0,0,1,2.184,2.183A2.183,2.183,0,0,1,3759.841-680.5Z"/><circle class="c" cx="2.183" cy="2.183" r="2.183" transform="translate(3796.283 -714.417)"/><circle class="c" cx="2.183" cy="2.183" r="2.183" transform="translate(3765.623 -765.942)"/><circle class="c" cx="2.183" cy="2.183" r="2.183" transform="translate(3823.904 -539.71)"/><circle class="c" cx="2.183" cy="2.183" r="2.183" transform="translate(3714.211 -620.798)"/><circle class="c" cx="2.183" cy="2.183" r="2.183" transform="translate(3725.498 -671.546)"/><circle class="c" cx="2.183" cy="2.183" r="2.183" transform="translate(3772.584 -558.17)"/><circle class="c" cx="2.183" cy="2.183" r="2.183" transform="translate(3794.85 -723.378)"/><circle class="c" cx="2.183" cy="2.183" r="2.183" transform="translate(3695.567 -542.632)"/><path class="c" d="M3692.209-618.8a2.183,2.183,0,0,1-2.183-2.183,2.183,2.183,0,0,1,2.183-2.183,2.183,2.183,0,0,1,2.183,2.183A2.183,2.183,0,0,1,3692.209-618.8Z"/><circle class="c" cx="2.183" cy="2.183" r="2.183" transform="translate(3825.461 -617.721)"/><circle class="c" cx="2.183" cy="2.183" r="2.183" transform="translate(3827.704 -711.409)"/><circle class="c" cx="2.183" cy="2.183" r="2.183" transform="translate(3622.169 -564.055)"/><circle class="c" cx="2.183" cy="2.183" r="2.183" transform="translate(3838.293 -714.624)"/><circle class="c" cx="2.183" cy="2.183" r="2.183" transform="translate(3814.246 -706.471)"/><path class="c" d="M3796.38-517.854a2.183,2.183,0,0,1-2.184-2.183,2.183,2.183,0,0,1,2.184-2.183,2.183,2.183,0,0,1,2.183,2.183A2.183,2.183,0,0,1,3796.38-517.854Z"/><circle class="c" cx="2.183" cy="2.183" r="2.183" transform="translate(3846.491 -801.139)"/><circle class="c" cx="2.183" cy="2.183" r="2.183" transform="translate(3790.506 -468.574)"/><circle class="c" cx="2.183" cy="2.183" r="2.183" transform="translate(3837.179 -752.878)"/><circle class="c" cx="2.183" cy="2.183" r="2.183" transform="translate(3824.191 -673.492)"/><circle class="c" cx="2.183" cy="2.183" r="2.183" transform="translate(3746.264 -525.929)"/><circle class="c" cx="2.183" cy="2.183" r="2.183" transform="translate(3694.391 -585.516)"/><path class="c" d="M3696.644-605.332a2.183,2.183,0,0,1-2.183-2.183,2.183,2.183,0,0,1,2.183-2.184,2.183,2.183,0,0,1,2.183,2.184A2.183,2.183,0,0,1,3696.644-605.332Z"/><circle class="c" cx="2.183" cy="2.183" r="2.183" transform="translate(3831.743 -579.909)"/><circle class="c" cx="2.183" cy="2.183" r="2.183" transform="translate(3842.225 -514.019)"/><circle class="c" cx="2.183" cy="2.183" r="2.183" transform="translate(3778.961 -757.214)"/><circle class="c" cx="2.183" cy="2.183" r="2.183" transform="translate(3789.823 -661.435)"/><circle class="c" cx="2.183" cy="2.183" r="2.183" transform="translate(3831.167 -639.088)"/><path class="c" d="M3697.083-631.491a2.183,2.183,0,0,1-2.183-2.183,2.183,2.183,0,0,1,2.183-2.183,2.183,2.183,0,0,1,2.183,2.183A2.183,2.183,0,0,1,3697.083-631.491Z"/><circle class="c" cx="2.183" cy="2.183" r="2.183" transform="translate(3778.62 -475.159)"/><circle class="c" cx="2.183" cy="2.183" r="2.183" transform="translate(3777.148 -623.609)"/><circle class="c" cx="2.183" cy="2.183" r="2.183" transform="translate(3687.441 -560.739)"/><circle class="c" cx="2.183" cy="2.183" r="2.183" transform="translate(3797.614 -536.547)"/><circle class="c" cx="2.183" cy="2.183" r="2.183" transform="translate(3778.981 -549.44)"/><circle class="c" cx="2.183" cy="2.183" r="2.183" transform="translate(3722.268 -498.511)"/><path class="c" d="M3808.5-767.813a2.183,2.183,0,0,1-2.184-2.183,2.183,2.183,0,0,1,2.184-2.183,2.183,2.183,0,0,1,2.183,2.183A2.183,2.183,0,0,1,3808.5-767.813Z"/><circle class="c" cx="2.183" cy="2.183" r="2.183" transform="translate(3712.342 -535.504)"/><circle class="c" cx="2.183" cy="2.183" r="2.183" transform="translate(3790.632 -646.696)"/><circle class="c" cx="2.183" cy="2.183" r="2.183" transform="translate(3753.505 -603.805)"/><circle class="c" cx="2.183" cy="2.183" r="2.183" transform="translate(3764.963 -741.29)"/><circle class="c" cx="2.183" cy="2.183" r="2.183" transform="translate(3778.772 -466.614)"/><path class="c" d="M3742.184-692.667A2.183,2.183,0,0,1,3740-694.85a2.183,2.183,0,0,1,2.183-2.183,2.183,2.183,0,0,1,2.184,2.183A2.183,2.183,0,0,1,3742.184-692.667Z"/><circle class="c" cx="2.183" cy="2.183" r="2.183" transform="translate(3782.452 -645.807)"/><path class="c" d="M3790.534-706.4a2.183,2.183,0,0,1-2.184-2.183,2.183,2.183,0,0,1,2.184-2.183,2.183,2.183,0,0,1,2.183,2.183A2.183,2.183,0,0,1,3790.534-706.4Z"/><circle class="c" cx="2.183" cy="2.183" r="2.183" transform="translate(3764.525 -794.381)"/><circle class="c" cx="2.183" cy="2.183" r="2.183" transform="translate(3740.541 -748.514)"/><circle class="c" cx="2.183" cy="2.183" r="2.183" transform="translate(3792.483 -617.226)"/><circle class="c" cx="2.183" cy="2.183" r="2.183" transform="translate(3719.546 -632.332)"/><circle class="c" cx="2.183" cy="2.183" r="2.183" transform="translate(3676.262 -642.758)"/><path class="c" d="M3771.051-488.743a2.184,2.184,0,0,1-2.183-2.184,2.184,2.184,0,0,1,2.183-2.183,2.184,2.184,0,0,1,2.184,2.183A2.184,2.184,0,0,1,3771.051-488.743Z"/><circle class="c" cx="2.183" cy="2.183" r="2.183" transform="translate(3848.172 -768.656)"/><circle class="c" cx="2.183" cy="2.183" r="2.183" transform="translate(3769.393 -583.143)"/><circle class="c" cx="2.183" cy="2.183" r="2.183" transform="translate(3706.711 -451.686)"/><circle class="c" cx="2.183" cy="2.183" r="2.183" transform="translate(3759.346 -695.021)"/><circle class="c" cx="2.183" cy="2.183" r="2.183" transform="translate(3741.997 -499.907)"/><path class="c" d="M3851.413-506.864a2.183,2.183,0,0,1-2.184-2.183,2.183,2.183,0,0,1,2.184-2.183,2.183,2.183,0,0,1,2.183,2.183A2.183,2.183,0,0,1,3851.413-506.864Z"/><path class="c" d="M3845.446-500.545a2.183,2.183,0,0,1-2.183-2.183,2.183,2.183,0,0,1,2.183-2.183,2.182,2.182,0,0,1,2.183,2.183A2.182,2.182,0,0,1,3845.446-500.545Z"/><circle class="c" cx="2.183" cy="2.183" r="2.183" transform="translate(3827.771 -731.16)"/><circle class="c" cx="2.183" cy="2.183" r="2.183" transform="translate(3767.422 -722.746)"/><circle class="c" cx="2.183" cy="2.183" r="2.183" transform="translate(3806.094 -729.314)"/><circle class="c" cx="2.183" cy="2.183" r="2.183" transform="translate(3797.028 -502.118)"/><circle class="c" cx="2.183" cy="2.183" r="2.183" transform="translate(3710.335 -517.152)"/><circle class="c" cx="2.183" cy="2.183" r="2.183" transform="translate(3837.991 -611.585)"/><circle class="c" cx="2.183" cy="2.183" r="2.183" transform="translate(3668.825 -576.315)"/><circle class="c" cx="2.183" cy="2.183" r="2.183" transform="translate(3775.133 -688.825)"/><path class="c" d="M3822.645-454.112a2.184,2.184,0,0,1-2.184-2.183,2.184,2.184,0,0,1,2.184-2.184,2.184,2.184,0,0,1,2.183,2.184A2.184,2.184,0,0,1,3822.645-454.112Z"/><circle class="c" cx="2.183" cy="2.183" r="2.183" transform="translate(3804.733 -675.971)"/><circle class="c" cx="2.183" cy="2.183" r="2.183" transform="translate(3786.171 -621.952)"/><circle class="c" cx="2.183" cy="2.183" r="2.183" transform="translate(3697.556 -489.981)"/><circle class="c" cx="2.183" cy="2.183" r="2.183" transform="translate(3807.583 -715.527)"/><circle class="c" cx="2.183" cy="2.183" r="2.183" transform="translate(3729.812 -566.519)"/><circle class="c" cx="2.183" cy="2.183" r="2.183" transform="translate(3689.498 -526.154)"/><path class="c" d="M3705.155-492.082a2.183,2.183,0,0,1-2.183-2.183,2.183,2.183,0,0,1,2.183-2.183,2.183,2.183,0,0,1,2.183,2.183A2.183,2.183,0,0,1,3705.155-492.082Z"/><circle class="c" cx="2.183" cy="2.183" r="2.183" transform="translate(3680.632 -532.777)"/><path class="c" d="M3811.877-510a2.183,2.183,0,0,1-2.183-2.183,2.183,2.183,0,0,1,2.183-2.183,2.183,2.183,0,0,1,2.184,2.183A2.183,2.183,0,0,1,3811.877-510Z"/><path class="c" d="M3777.405-712.769a2.183,2.183,0,0,1-2.184-2.183,2.183,2.183,0,0,1,2.184-2.183,2.183,2.183,0,0,1,2.183,2.183A2.183,2.183,0,0,1,3777.405-712.769Z"/><circle class="c" cx="2.183" cy="2.183" r="2.183" transform="translate(3802.46 -698.584)"/><circle class="c" cx="2.183" cy="2.183" r="2.183" transform="translate(3806.416 -690.552)"/><circle class="c" cx="2.183" cy="2.183" r="2.183" transform="translate(3696.832 -758.253)"/><circle class="c" cx="2.183" cy="2.183" r="2.183" transform="translate(3843.353 -808.917)"/><circle class="c" cx="2.183" cy="2.183" r="2.183" transform="translate(3781.019 -564.557)"/><circle class="c" cx="2.183" cy="2.183" r="2.183" transform="translate(3714.661 -688.292)"/><circle class="c" cx="2.183" cy="2.183" r="2.183" transform="translate(3843.618 -758.42)"/><circle class="c" cx="2.183" cy="2.183" r="2.183" transform="translate(3669.984 -589.866)"/><circle class="c" cx="2.183" cy="2.183" r="2.183" transform="translate(3825.118 -501.476)"/><circle class="c" cx="2.183" cy="2.183" r="2.183" transform="translate(3762.268 -546.314)"/><circle class="c" cx="2.183" cy="2.183" r="2.183" transform="translate(3792.958 -441.769)"/><path class="c" d="M3779.743-363.174a2.183,2.183,0,0,1-2.183-2.183,2.183,2.183,0,0,1,2.183-2.184,2.184,2.184,0,0,1,2.183,2.184A2.184,2.184,0,0,1,3779.743-363.174Z"/><circle class="c" cx="2.183" cy="2.183" r="2.183" transform="translate(3750.799 -494.7)"/><circle class="c" cx="2.183" cy="2.183" r="2.183" transform="translate(3846.252 -639.158)"/><circle class="c" cx="2.183" cy="2.183" r="2.183" transform="translate(3838.93 -699.525)"/><circle class="c" cx="2.183" cy="2.183" r="2.183" transform="translate(3817.089 -650.679)"/><circle class="c" cx="2.183" cy="2.183" r="2.183" transform="translate(3741.753 -473.811)"/><circle class="c" cx="2.183" cy="2.183" r="2.183" transform="translate(3760.549 -495.243)"/><circle class="c" cx="2.183" cy="2.183" r="2.183" transform="translate(3829.307 -608.404)"/><circle class="c" cx="2.183" cy="2.183" r="2.183" transform="translate(3832.199 -622.859)"/><circle class="c" cx="2.183" cy="2.183" r="2.183" transform="translate(3783.309 -555.889)"/><circle class="c" cx="2.183" cy="2.183" r="2.183" transform="translate(3774.271 -648.807)"/><circle class="c" cx="2.183" cy="2.183" r="2.183" transform="translate(3745.353 -584.376)"/><path class="c" d="M3772.017-562.049a2.184,2.184,0,0,1-2.184-2.183,2.184,2.184,0,0,1,2.184-2.184,2.184,2.184,0,0,1,2.183,2.184A2.184,2.184,0,0,1,3772.017-562.049Z"/><circle class="c" cx="2.183" cy="2.183" r="2.183" transform="translate(3705.549 -648.337)"/><circle class="c" cx="2.183" cy="2.183" r="2.183" transform="translate(3736.866 -654.996)"/><path class="c" d="M3730.6-601.952a2.183,2.183,0,0,1-2.184-2.183,2.183,2.183,0,0,1,2.184-2.183,2.183,2.183,0,0,1,2.183,2.183A2.183,2.183,0,0,1,3730.6-601.952Z"/><circle class="c" cx="2.183" cy="2.183" r="2.183" transform="translate(3739.822 -633.255)"/><path class="c" d="M3769.99-689.691a2.184,2.184,0,0,1-2.184-2.184,2.184,2.184,0,0,1,2.184-2.183,2.184,2.184,0,0,1,2.183,2.183A2.184,2.184,0,0,1,3769.99-689.691Z"/><circle class="c" cx="2.183" cy="2.183" r="2.183" transform="translate(3714.381 -772.534)"/><path class="c" d="M3712.284-650.424a2.184,2.184,0,0,1-2.183-2.183,2.184,2.184,0,0,1,2.183-2.184,2.184,2.184,0,0,1,2.184,2.184A2.184,2.184,0,0,1,3712.284-650.424Z"/><path class="c" d="M3746.877-536.829a2.182,2.182,0,0,1-2.183-2.183,2.182,2.182,0,0,1,2.183-2.183,2.183,2.183,0,0,1,2.183,2.183A2.183,2.183,0,0,1,3746.877-536.829Z"/><circle class="c" cx="2.183" cy="2.183" r="2.183" transform="translate(3810.652 -565.244)"/><circle class="c" cx="2.183" cy="2.183" r="2.183" transform="translate(3750.572 -553.871)"/><circle class="c" cx="2.183" cy="2.183" r="2.183" transform="translate(3774.411 -443.952)"/><circle class="c" cx="2.183" cy="2.183" r="2.183" transform="translate(3819.898 -609.178)"/><path class="c" d="M3735.139-642.04a2.183,2.183,0,0,1-2.184-2.183,2.184,2.184,0,0,1,2.184-2.183,2.184,2.184,0,0,1,2.183,2.183A2.183,2.183,0,0,1,3735.139-642.04Z"/><circle class="c" cx="2.183" cy="2.183" r="2.183" transform="translate(3690.558 -511.672)"/><circle class="c" cx="2.183" cy="2.183" r="2.183" transform="translate(3759.437 -536.297)"/><circle class="c" cx="2.183" cy="2.183" r="2.183" transform="translate(3744.882 -465.417)"/><circle class="c" cx="2.183" cy="2.183" r="2.183" transform="translate(3841.043 -630.939)"/><circle class="c" cx="2.183" cy="2.183" r="2.183" transform="translate(3794.724 -590.694)"/><circle class="c" cx="2.183" cy="2.183" r="2.183" transform="translate(3817.507 -747.121)"/><path class="c" d="M3836.345-721.835a2.183,2.183,0,0,1-2.183-2.183,2.183,2.183,0,0,1,2.183-2.184,2.183,2.183,0,0,1,2.183,2.184A2.183,2.183,0,0,1,3836.345-721.835Z"/><circle class="c" cx="2.183" cy="2.183" r="2.183" transform="translate(3781.531 -637.704)"/><circle class="c" cx="2.183" cy="2.183" r="2.183" transform="translate(3815.965 -553.475)"/><path class="c" d="M3735.431-502.511a2.183,2.183,0,0,1-2.183-2.183,2.184,2.184,0,0,1,2.183-2.183,2.184,2.184,0,0,1,2.184,2.183A2.183,2.183,0,0,1,3735.431-502.511Z"/><circle class="c" cx="2.183" cy="2.183" r="2.183" transform="translate(3799.314 -477.393)"/><circle class="c" cx="2.183" cy="2.183" r="2.183" transform="translate(3836.519 -706.406)"/><path class="c" d="M3837.408-681.212a2.183,2.183,0,0,1-2.183-2.183,2.183,2.183,0,0,1,2.183-2.183,2.183,2.183,0,0,1,2.183,2.183A2.183,2.183,0,0,1,3837.408-681.212Z"/><circle class="c" cx="2.183" cy="2.183" r="2.183" transform="translate(3747.625 -724.171)"/><circle class="c" cx="2.183" cy="2.183" r="2.183" transform="translate(3825.244 -511.604)"/><path class="c" d="M3833.306-737.846a2.183,2.183,0,0,1-2.183-2.183,2.183,2.183,0,0,1,2.183-2.183,2.183,2.183,0,0,1,2.183,2.183A2.183,2.183,0,0,1,3833.306-737.846Z"/><path class="c" d="M3806.885-566.055a2.183,2.183,0,0,1-2.184-2.183,2.183,2.183,0,0,1,2.184-2.183,2.183,2.183,0,0,1,2.183,2.183A2.183,2.183,0,0,1,3806.885-566.055Z"/><circle class="c" cx="2.183" cy="2.183" r="2.183" transform="translate(3821.27 -756.452)"/><circle class="c" cx="2.183" cy="2.183" r="2.183" transform="translate(3698.042 -502.982)"/><circle class="c" cx="2.183" cy="2.183" r="2.183" transform="translate(3802.502 -759.339)"/><circle class="c" cx="2.183" cy="2.183" r="2.183" transform="translate(3751.554 -692.492)"/><path class="c" d="M3830.476-552.925a2.183,2.183,0,0,1-2.183-2.183,2.183,2.183,0,0,1,2.183-2.183,2.183,2.183,0,0,1,2.183,2.183A2.183,2.183,0,0,1,3830.476-552.925Z"/><circle class="c" cx="2.183" cy="2.183" r="2.183" transform="translate(3706.487 -616.897)"/><path class="c" d="M3680.084-537.91a2.183,2.183,0,0,1-2.183-2.183,2.183,2.183,0,0,1,2.183-2.183,2.183,2.183,0,0,1,2.183,2.183A2.183,2.183,0,0,1,3680.084-537.91Z"/><circle class="c" cx="2.183" cy="2.183" r="2.183" transform="translate(3805.764 -532.841)"/><circle class="c" cx="2.183" cy="2.183" r="2.183" transform="translate(3848.101 -732.51)"/><circle class="c" cx="2.183" cy="2.183" r="2.183" transform="translate(3701.351 -673.694)"/><circle class="c" cx="2.183" cy="2.183" r="2.183" transform="translate(3736.973 -725.759)"/><circle class="c" cx="2.183" cy="2.183" r="2.183" transform="translate(3819.135 -710.993)"/><circle class="c" cx="2.183" cy="2.183" r="2.183" transform="translate(3800.301 -734.487)"/><circle class="c" cx="2.183" cy="2.183" r="2.183" transform="translate(3705.018 -600.27)"/><circle class="c" cx="2.183" cy="2.183" r="2.183" transform="translate(3828.822 -718.821)"/><path class="c" d="M3781.768-494.894a2.183,2.183,0,0,1-2.184-2.183,2.183,2.183,0,0,1,2.184-2.183,2.183,2.183,0,0,1,2.183,2.183A2.183,2.183,0,0,1,3781.768-494.894Z"/><circle class="c" cx="2.183" cy="2.183" r="2.183" transform="translate(3791.084 -508.812)"/><circle class="c" cx="2.183" cy="2.183" r="2.183" transform="translate(3848.711 -692.886)"/><circle class="c" cx="2.183" cy="2.183" r="2.183" transform="translate(3838.975 -540.951)"/><circle class="c" cx="2.183" cy="2.183" r="2.183" transform="translate(3747.218 -562.869)"/><path class="c" d="M3794.814-671.32a2.183,2.183,0,0,1-2.183-2.184,2.183,2.183,0,0,1,2.183-2.183A2.183,2.183,0,0,1,3797-673.5,2.183,2.183,0,0,1,3794.814-671.32Z"/><circle class="c" cx="2.183" cy="2.183" r="2.183" transform="translate(3704.491 -583.465)"/><circle class="c" cx="2.183" cy="2.183" r="2.183" transform="translate(3809.237 -610.513)"/><circle class="c" cx="2.183" cy="2.183" r="2.183" transform="translate(3689.093 -500.909)"/><circle class="c" cx="2.183" cy="2.183" r="2.183" transform="translate(3779.632 -519.431)"/><circle class="c" cx="2.183" cy="2.183" r="2.183" transform="translate(3834.707 -471.942)"/><path class="c" d="M3697.923-663.123a2.184,2.184,0,0,1-2.184-2.183,2.184,2.184,0,0,1,2.184-2.184,2.184,2.184,0,0,1,2.183,2.184A2.184,2.184,0,0,1,3697.923-663.123Z"/><circle class="c" cx="2.183" cy="2.183" r="2.183" transform="translate(3839.103 -530.158)"/><circle class="c" cx="2.183" cy="2.183" r="2.183" transform="translate(3849.833 -492.601)"/><circle class="c" cx="2.183" cy="2.183" r="2.183" transform="translate(3765.463 -553.518)"/><path class="c" d="M3825.637-447.32a2.182,2.182,0,0,1-2.183-2.183,2.182,2.182,0,0,1,2.183-2.183,2.183,2.183,0,0,1,2.183,2.183A2.183,2.183,0,0,1,3825.637-447.32Z"/><circle class="c" cx="2.183" cy="2.183" r="2.183" transform="translate(3683.952 -520.437)"/><path class="c" d="M3673.7-534.42a2.184,2.184,0,0,1-2.183-2.183,2.184,2.184,0,0,1,2.183-2.184,2.184,2.184,0,0,1,2.184,2.184A2.184,2.184,0,0,1,3673.7-534.42Z"/><circle class="c" cx="2.183" cy="2.183" r="2.183" transform="translate(3774.347 -572.923)"/><circle class="c" cx="2.183" cy="2.183" r="2.183" transform="translate(3774.411 -414.653)"/><circle class="c" cx="2.183" cy="2.183" r="2.183" transform="translate(3749.23 -701.434)"/><circle class="c" cx="2.183" cy="2.183" r="2.183" transform="translate(3730.567 -499.029)"/><circle class="c" cx="2.183" cy="2.183" r="2.183" transform="translate(3786.715 -587.58)"/><circle class="c" cx="2.183" cy="2.183" r="2.183" transform="translate(3768.975 -662.411)"/><circle class="c" cx="2.183" cy="2.183" r="2.183" transform="translate(3743.922 -595.306)"/><path class="c" d="M3793.116-564.048a2.183,2.183,0,0,1-2.183-2.183,2.183,2.183,0,0,1,2.183-2.184,2.183,2.183,0,0,1,2.183,2.184A2.183,2.183,0,0,1,3793.116-564.048Z"/><circle class="c" cx="2.183" cy="2.183" r="2.183" transform="translate(3692.306 -659.352)"/><circle class="c" cx="2.183" cy="2.183" r="2.183" transform="translate(3825.402 -701.55)"/><circle class="c" cx="2.183" cy="2.183" r="2.183" transform="translate(3721.65 -511.938)"/><circle class="c" cx="2.183" cy="2.183" r="2.183" transform="translate(3715.172 -503.018)"/><circle class="c" cx="2.183" cy="2.183" r="2.183" transform="translate(3815.381 -637.128)"/><circle class="c" cx="2.183" cy="2.183" r="2.183" transform="translate(3816.979 -618.374)"/><circle class="c" cx="2.183" cy="2.183" r="2.183" transform="translate(3723.425 -663.945)"/><circle class="c" cx="2.183" cy="2.183" r="2.183" transform="translate(3804.012 -525.479)"/><path class="c" d="M3796.228-681.822a2.183,2.183,0,0,1-2.183-2.183,2.183,2.183,0,0,1,2.183-2.183,2.182,2.182,0,0,1,2.183,2.183A2.182,2.182,0,0,1,3796.228-681.822Z"/><circle class="c" cx="2.183" cy="2.183" r="2.183" transform="translate(3721.344 -584.104)"/><circle class="c" cx="2.183" cy="2.183" r="2.183" transform="translate(3775.668 -545.854)"/><circle class="c" cx="2.183" cy="2.183" r="2.183" transform="translate(3784.986 -720.703)"/><circle class="c" cx="2.183" cy="2.183" r="2.183" transform="translate(3686.68 -616.926)"/><circle class="c" cx="2.183" cy="2.183" r="2.183" transform="translate(3802.002 -685.244)"/><circle class="c" cx="2.183" cy="2.183" r="2.183" transform="translate(3814.875 -490.575)"/><circle class="c" cx="2.183" cy="2.183" r="2.183" transform="translate(3744.869 -657.267)"/><circle class="c" cx="2.183" cy="2.183" r="2.183" transform="translate(3826.56 -747.777)"/><circle class="c" cx="2.183" cy="2.183" r="2.183" transform="translate(3735.036 -593.701)"/><circle class="c" cx="2.183" cy="2.183" r="2.183" transform="translate(3735.557 -514.309)"/><circle class="c" cx="2.183" cy="2.183" r="2.183" transform="translate(3770.8 -505.082)"/><circle class="c" cx="2.183" cy="2.183" r="2.183" transform="translate(3780.461 -707.671)"/><circle class="c" cx="2.183" cy="2.183" r="2.183" transform="translate(3815.304 -695.728)"/><path class="c" d="M3685.286-546.278a2.183,2.183,0,0,1-2.183-2.183,2.183,2.183,0,0,1,2.183-2.183,2.183,2.183,0,0,1,2.183,2.183A2.183,2.183,0,0,1,3685.286-546.278Z"/><circle class="c" cx="2.183" cy="2.183" r="2.183" transform="translate(3754.812 -562.77)"/><path class="c" d="M3832.232-530.063a2.183,2.183,0,0,1-2.183-2.183,2.183,2.183,0,0,1,2.183-2.183,2.183,2.183,0,0,1,2.184,2.183A2.183,2.183,0,0,1,3832.232-530.063Z"/><circle class="c" cx="2.183" cy="2.183" r="2.183" transform="translate(3761.445 -625.2)"/><path class="c" d="M3699.569-514.828a2.183,2.183,0,0,1-2.183-2.183,2.183,2.183,0,0,1,2.183-2.183,2.183,2.183,0,0,1,2.183,2.183A2.183,2.183,0,0,1,3699.569-514.828Z"/><circle class="c" cx="2.183" cy="2.183" r="2.183" transform="translate(3776.226 -725.981)"/><circle class="c" cx="2.183" cy="2.183" r="2.183" transform="translate(3816.897 -575.857)"/><circle class="c" cx="2.183" cy="2.183" r="2.183" transform="translate(3811.115 -541.547)"/><circle class="c" cx="2.183" cy="2.183" r="2.183" transform="translate(3702.188 -511.721)"/><circle class="c" cx="2.183" cy="2.183" r="2.183" transform="translate(3850.698 -785.398)"/><path class="c" d="M3835.518-512.712a2.184,2.184,0,0,1-2.184-2.183,2.184,2.184,0,0,1,2.184-2.184,2.184,2.184,0,0,1,2.183,2.184A2.184,2.184,0,0,1,3835.518-512.712Z"/><circle class="c" cx="2.183" cy="2.183" r="2.183" transform="translate(3747.764 -638.005)"/><circle class="c" cx="2.183" cy="2.183" r="2.183" transform="translate(3802.41 -623.595)"/><circle class="c" cx="2.183" cy="2.183" r="2.183" transform="translate(3849.414 -499.923)"/><circle class="c" cx="2.183" cy="2.183" r="2.183" transform="translate(3739.517 -522.703)"/><circle class="c" cx="2.183" cy="2.183" r="2.183" transform="translate(3684.449 -609.842)"/><path class="c" d="M3768.892-626.608a2.183,2.183,0,0,1-2.183-2.183,2.183,2.183,0,0,1,2.183-2.184,2.184,2.184,0,0,1,2.183,2.184A2.184,2.184,0,0,1,3768.892-626.608Z"/><path class="c" d="M3734.5-663.574a2.183,2.183,0,0,1-2.184-2.183,2.183,2.183,0,0,1,2.184-2.183,2.183,2.183,0,0,1,2.183,2.183A2.183,2.183,0,0,1,3734.5-663.574Z"/><circle class="c" cx="2.183" cy="2.183" r="2.183" transform="translate(3800.41 -545.897)"/><circle class="c" cx="2.183" cy="2.183" r="2.183" transform="translate(3848.312 -610.615)"/><circle class="c" cx="2.183" cy="2.183" r="2.183" transform="translate(3725.063 -592.974)"/><circle class="c" cx="2.183" cy="2.183" r="2.183" transform="translate(3811.495 -758.139)"/><circle class="c" cx="2.183" cy="2.183" r="2.183" transform="translate(3758.547 -704.709)"/><path class="c" d="M3819.973-464.317a2.183,2.183,0,0,1-2.183-2.183,2.183,2.183,0,0,1,2.183-2.184,2.183,2.183,0,0,1,2.183,2.184A2.183,2.183,0,0,1,3819.973-464.317Z"/><circle class="c" cx="2.183" cy="2.183" r="2.183" transform="translate(3760.073 -465.086)"/><circle class="c" cx="2.183" cy="2.183" r="2.183" transform="translate(3726.588 -518.335)"/><path class="c" d="M3820.152-715.529a2.183,2.183,0,0,1-2.183-2.183,2.184,2.184,0,0,1,2.183-2.183,2.184,2.184,0,0,1,2.184,2.183A2.183,2.183,0,0,1,3820.152-715.529Z"/><circle class="c" cx="2.183" cy="2.183" r="2.183" transform="translate(3799.211 -468.618)"/><circle class="c" cx="2.183" cy="2.183" r="2.183" transform="translate(3811.194 -781.537)"/><path class="c" d="M3751.921-474.828a2.183,2.183,0,0,1-2.183-2.183,2.183,2.183,0,0,1,2.183-2.184,2.183,2.183,0,0,1,2.183,2.184A2.183,2.183,0,0,1,3751.921-474.828Z"/><path class="c" d="M3770.119-455.848a2.184,2.184,0,0,1-2.183-2.184,2.184,2.184,0,0,1,2.183-2.183,2.184,2.184,0,0,1,2.184,2.183A2.184,2.184,0,0,1,3770.119-455.848Z"/><circle class="c" cx="2.183" cy="2.183" r="2.183" transform="translate(3674.709 -615.172)"/><circle class="c" cx="2.183" cy="2.183" r="2.183" transform="translate(3846.443 -536.061)"/><circle class="c" cx="2.183" cy="2.183" r="2.183" transform="translate(3813.437 -798.132)"/><circle class="c" cx="2.183" cy="2.183" r="2.183" transform="translate(3746.39 -513.411)"/><circle class="c" cx="2.183" cy="2.183" r="2.183" transform="translate(3804.842 -721.49)"/><circle class="c" cx="2.183" cy="2.183" r="2.183" transform="translate(3799.127 -706.986)"/><path class="c" d="M3850.667-646.428a2.183,2.183,0,0,1-2.183-2.183,2.183,2.183,0,0,1,2.183-2.183,2.183,2.183,0,0,1,2.183,2.183A2.183,2.183,0,0,1,3850.667-646.428Z"/><circle class="c" cx="2.183" cy="2.183" r="2.183" transform="translate(3784.34 -680.332)"/><circle class="c" cx="2.183" cy="2.183" r="2.183" transform="translate(3819.163 -811.71)"/><circle class="c" cx="2.183" cy="2.183" r="2.183" transform="translate(3792.434 -550.708)"/><circle class="c" cx="2.183" cy="2.183" r="2.183" transform="translate(3792.958 -459.447)"/><path class="c" d="M3765.245-601.006a2.183,2.183,0,0,1-2.183-2.183,2.183,2.183,0,0,1,2.183-2.183,2.183,2.183,0,0,1,2.183,2.183A2.183,2.183,0,0,1,3765.245-601.006Z"/><circle class="c" cx="2.183" cy="2.183" r="2.183" transform="translate(3816.979 -321.694)"/><circle class="c" cx="2.183" cy="2.183" r="2.183" transform="translate(3685.822 -539.297)"/><circle class="c" cx="2.183" cy="2.183" r="2.183" transform="translate(3739.745 -705.23)"/><path class="c" d="M3810.9-652.458a2.183,2.183,0,0,1-2.183-2.183,2.183,2.183,0,0,1,2.183-2.183,2.184,2.184,0,0,1,2.183,2.183A2.183,2.183,0,0,1,3810.9-652.458Z"/><circle class="c" cx="2.183" cy="2.183" r="2.183" transform="translate(3823.968 -596.615)"/><circle class="c" cx="2.183" cy="2.183" r="2.183" transform="translate(3683.306 -511.501)"/><circle class="c" cx="2.183" cy="2.183" r="2.183" transform="translate(3672.35 -566.003)"/><path class="c" d="M3840.122-519.075a2.183,2.183,0,0,1-2.184-2.183,2.183,2.183,0,0,1,2.184-2.183,2.183,2.183,0,0,1,2.183,2.183A2.183,2.183,0,0,1,3840.122-519.075Z"/><path class="c" d="M3781.926-766.965a2.183,2.183,0,0,1-2.183-2.183,2.183,2.183,0,0,1,2.183-2.183,2.182,2.182,0,0,1,2.183,2.183A2.182,2.182,0,0,1,3781.926-766.965Z"/><circle class="c" cx="2.183" cy="2.183" r="2.183" transform="translate(3726.447 -643.765)"/><circle class="c" cx="2.183" cy="2.183" r="2.183" transform="translate(3794.723 -769.387)"/><path class="c" d="M3734.518-704.1a2.184,2.184,0,0,1-2.183-2.184,2.184,2.184,0,0,1,2.183-2.183,2.184,2.184,0,0,1,2.184,2.183A2.184,2.184,0,0,1,3734.518-704.1Z"/><circle class="c" cx="2.183" cy="2.183" r="2.183" transform="translate(3829.818 -692.777)"/><circle class="c" cx="2.183" cy="2.183" r="2.183" transform="translate(3767.381 -704.08)"/><circle class="c" cx="2.183" cy="2.183" r="2.183" transform="translate(3829.306 -779.157)"/><circle class="c" cx="2.183" cy="2.183" r="2.183" transform="translate(3835.789 -461.382)"/><circle class="c" cx="2.183" cy="2.183" r="2.183" transform="translate(3694.053 -532.441)"/><circle class="c" cx="2.183" cy="2.183" r="2.183" transform="translate(3817.105 -726.771)"/><circle class="c" cx="2.183" cy="2.183" r="2.183" transform="translate(3831.865 -631.569)"/><circle class="c" cx="2.183" cy="2.183" r="2.183" transform="translate(3824.462 -571.227)"/><circle class="c" cx="2.183" cy="2.183" r="2.183" transform="translate(3813.718 -679.95)"/><circle class="c" cx="2.183" cy="2.183" r="2.183" transform="translate(3677.376 -524.538)"/><circle class="c" cx="2.183" cy="2.183" r="2.183" transform="translate(3781.479 -597.486)"/><circle class="c" cx="2.183" cy="2.183" r="2.183" transform="translate(3774.034 -656.77)"/><circle class="c" cx="2.183" cy="2.183" r="2.183" transform="translate(3801.64 -517.769)"/><circle class="c" cx="2.183" cy="2.183" r="2.183" transform="translate(3808.633 -549.951)"/><circle class="c" cx="2.183" cy="2.183" r="2.183" transform="translate(3844.3 -602.845)"/><circle class="c" cx="2.183" cy="2.183" r="2.183" transform="translate(3719.297 -525.805)"/><circle class="c" cx="2.183" cy="2.183" r="2.183" transform="translate(3826.122 -787.261)"/><circle class="c" cx="2.183" cy="2.183" r="2.183" transform="translate(3734.896 -683.728)"/><circle class="c" cx="2.183" cy="2.183" r="2.183" transform="translate(3729.894 -544.379)"/><circle class="c" cx="2.183" cy="2.183" r="2.183" transform="translate(3826.41 -469.182)"/><circle class="c" cx="2.183" cy="2.183" r="2.183" transform="translate(3715.195 -610.492)"/><circle class="c" cx="2.183" cy="2.183" r="2.183" transform="translate(3704.068 -564.055)"/><path class="c" d="M3770.554-667.071a2.182,2.182,0,0,1-2.183-2.183,2.182,2.182,0,0,1,2.183-2.183,2.183,2.183,0,0,1,2.183,2.183A2.183,2.183,0,0,1,3770.554-667.071Z"/><circle class="c" cx="2.183" cy="2.183" r="2.183" transform="translate(3770.121 -481.657)"/><circle class="c" cx="2.183" cy="2.183" r="2.183" transform="translate(3720.894 -565.105)"/><circle class="c" cx="2.183" cy="2.183" r="2.183" transform="translate(3783.214 -655.511)"/><circle class="c" cx="2.183" cy="2.183" r="2.183" transform="translate(3832.065 -591.191)"/><path class="c" d="M3752.628-502.4a2.183,2.183,0,0,1-2.183-2.183,2.183,2.183,0,0,1,2.183-2.183,2.183,2.183,0,0,1,2.183,2.183A2.183,2.183,0,0,1,3752.628-502.4Z"/><path class="c" d="M3701.2-650.414a2.183,2.183,0,0,1-2.183-2.183,2.183,2.183,0,0,1,2.183-2.183,2.183,2.183,0,0,1,2.183,2.183A2.183,2.183,0,0,1,3701.2-650.414Z"/><circle class="c" cx="2.183" cy="2.183" r="2.183" transform="translate(3819.939 -480.677)"/><path class="c" d="M3810.218-701.2a2.183,2.183,0,0,1-2.183-2.183,2.183,2.183,0,0,1,2.183-2.184,2.183,2.183,0,0,1,2.183,2.184A2.183,2.183,0,0,1,3810.218-701.2Z"/><circle class="c" cx="2.183" cy="2.183" r="2.183" transform="translate(3772.26 -609.137)"/><circle class="c" cx="2.183" cy="2.183" r="2.183" transform="translate(3728.589 -618.9)"/><path class="c" d="M3737.755-479.365a2.184,2.184,0,0,1-2.184-2.184,2.184,2.184,0,0,1,2.184-2.183,2.184,2.184,0,0,1,2.183,2.183A2.184,2.184,0,0,1,3737.755-479.365Z"/><circle class="c" cx="2.183" cy="2.183" r="2.183" transform="translate(3794.5 -695.997)"/><circle class="c" cx="2.183" cy="2.183" r="2.183" transform="translate(3806.54 -665.076)"/><circle class="c" cx="2.183" cy="2.183" r="2.183" transform="translate(3834.612 -600.357)"/><circle class="c" cx="2.183" cy="2.183" r="2.183" transform="translate(3806.667 -581.257)"/><circle class="c" cx="2.183" cy="2.183" r="2.183" transform="translate(3680.693 -602.136)"/><circle class="c" cx="2.183" cy="2.183" r="2.183" transform="translate(3751.378 -742.917)"/><circle class="c" cx="2.183" cy="2.183" r="2.183" transform="translate(3782.892 -575.653)"/><circle class="c" cx="2.183" cy="2.183" r="2.183" transform="translate(3791.829 -730.729)"/><circle class="c" cx="2.183" cy="2.183" r="2.183" transform="translate(3822.404 -774.756)"/><path class="c" d="M3758.08-723.076a2.183,2.183,0,0,1-2.183-2.183,2.183,2.183,0,0,1,2.183-2.183,2.183,2.183,0,0,1,2.183,2.183A2.183,2.183,0,0,1,3758.08-723.076Z"/><circle class="c" cx="2.183" cy="2.183" r="2.183" transform="translate(3746.483 -686.114)"/><circle class="c" cx="2.183" cy="2.183" r="2.183" transform="translate(3738.358 -561.143)"/><circle class="c" cx="2.183" cy="2.183" r="2.183" transform="translate(3800.41 -416.836)"/><path class="c" d="M3671.439-553.1a2.183,2.183,0,0,1-2.183-2.184,2.183,2.183,0,0,1,2.183-2.183,2.183,2.183,0,0,1,2.183,2.183A2.183,2.183,0,0,1,3671.439-553.1Z"/><circle class="c" cx="2.183" cy="2.183" r="2.183" transform="translate(3805.98 -599.872)"/><circle class="c" cx="2.183" cy="2.183" r="2.183" transform="translate(3847.261 -463.861)"/><circle class="c" cx="2.183" cy="2.183" r="2.183" transform="translate(3711.594 -527.265)"/><circle class="c" cx="2.183" cy="2.183" r="2.183" transform="translate(3794.778 -762.275)"/><path class="c" d="M3767.025-591.964a2.183,2.183,0,0,1-2.183-2.183,2.183,2.183,0,0,1,2.183-2.184,2.183,2.183,0,0,1,2.183,2.184A2.183,2.183,0,0,1,3767.025-591.964Z"/><circle class="c" cx="2.183" cy="2.183" r="2.183" transform="translate(3716.764 -674.476)"/><circle class="c" cx="2.183" cy="2.183" r="2.183" transform="translate(3732.695 -717.71)"/><circle class="c" cx="2.183" cy="2.183" r="2.183" transform="translate(3775.367 -630.989)"/><circle class="c" cx="2.183" cy="2.183" r="2.183" transform="translate(3705.031 -683.476)"/><circle class="c" cx="2.183" cy="2.183" r="2.183" transform="translate(3789.534 -749.521)"/><circle class="c" cx="2.183" cy="2.183" r="2.183" transform="translate(3732.329 -474.459)"/><path class="c" d="M3837.185-542.826a2.183,2.183,0,0,1-2.183-2.183,2.183,2.183,0,0,1,2.183-2.183,2.183,2.183,0,0,1,2.184,2.183A2.183,2.183,0,0,1,3837.185-542.826Z"/><circle class="c" cx="2.183" cy="2.183" r="2.183" transform="translate(3787.848 -700.196)"/><circle class="c" cx="2.183" cy="2.183" r="2.183" transform="translate(3761.117 -587.563)"/><circle class="c" cx="2.183" cy="2.183" r="2.183" transform="translate(3677.376 -483.255)"/><circle class="c" cx="2.183" cy="2.183" r="2.183" transform="translate(3704.528 -399.197)"/><circle class="c" cx="2.183" cy="2.183" r="2.183" transform="translate(3710.482 -494.365)"/><circle class="c" cx="2.183" cy="2.183" r="2.183" transform="translate(3702.945 -662.035)"/><path class="c" d="M3834.185-795.91a2.183,2.183,0,0,1-2.183-2.183,2.183,2.183,0,0,1,2.183-2.183,2.182,2.182,0,0,1,2.183,2.183A2.182,2.182,0,0,1,3834.185-795.91Z"/><circle class="c" cx="2.183" cy="2.183" r="2.183" transform="translate(3824.436 -549.421)"/><circle class="c" cx="2.183" cy="2.183" r="2.183" transform="translate(3779.626 -534.364)"/><circle class="c" cx="2.183" cy="2.183" r="2.183" transform="translate(3738.874 -608.079)"/><circle class="c" cx="2.183" cy="2.183" r="2.183" transform="translate(3762.124 -560.933)"/><circle class="c" cx="2.183" cy="2.183" r="2.183" transform="translate(3814.796 -419.019)"/><circle class="c" cx="2.183" cy="2.183" r="2.183" transform="translate(3729.406 -526.786)"/><path class="c" d="M3767.318-469.606a2.184,2.184,0,0,1-2.184-2.184,2.184,2.184,0,0,1,2.184-2.183,2.184,2.184,0,0,1,2.183,2.183A2.184,2.184,0,0,1,3767.318-469.606Z"/><circle class="c" cx="2.183" cy="2.183" r="2.183" transform="translate(3679.888 -575.947)"/><circle class="c" cx="2.183" cy="2.183" r="2.183" transform="translate(3744.717 -603.731)"/><path class="c" d="M3740.188-685.945a2.183,2.183,0,0,1-2.183-2.183,2.183,2.183,0,0,1,2.183-2.183,2.183,2.183,0,0,1,2.184,2.183A2.183,2.183,0,0,1,3740.188-685.945Z"/><circle class="c" cx="2.183" cy="2.183" r="2.183" transform="translate(3798.662 -750.02)"/><circle class="c" cx="2.183" cy="2.183" r="2.183" transform="translate(3791.302 -579.3)"/><circle class="c" cx="2.183" cy="2.183" r="2.183" transform="translate(3768.004 -617.949)"/><path class="c" d="M3749.214-570.76a2.183,2.183,0,0,1-2.183-2.183,2.183,2.183,0,0,1,2.183-2.183,2.183,2.183,0,0,1,2.183,2.183A2.183,2.183,0,0,1,3749.214-570.76Z"/><circle class="c" cx="2.183" cy="2.183" r="2.183" transform="translate(3741.084 -677.578)"/><circle class="c" cx="2.183" cy="2.183" r="2.183" transform="translate(3723.906 -691.088)"/><circle class="c" cx="2.183" cy="2.183" r="2.183" transform="translate(3813.415 -585.236)"/><circle class="c" cx="2.183" cy="2.183" r="2.183" transform="translate(3795.169 -741.461)"/><circle class="c" cx="2.183" cy="2.183" r="2.183" transform="translate(3730.131 -582.243)"/><path class="c" d="M3757.245-733.439a2.183,2.183,0,0,1-2.183-2.183,2.183,2.183,0,0,1,2.183-2.183,2.183,2.183,0,0,1,2.184,2.183A2.183,2.183,0,0,1,3757.245-733.439Z"/><path class="c" d="M3694.533-545.926a2.184,2.184,0,0,1-2.183-2.183,2.184,2.184,0,0,1,2.183-2.184,2.183,2.183,0,0,1,2.183,2.184A2.183,2.183,0,0,1,3694.533-545.926Z"/><circle class="c" cx="2.183" cy="2.183" r="2.183" transform="translate(3814.658 -670.203)"/><circle class="c" cx="2.183" cy="2.183" r="2.183" transform="translate(3850.94 -758.795)"/><circle class="c" cx="2.183" cy="2.183" r="2.183" transform="translate(3770.922 -710.626)"/><circle class="c" cx="2.183" cy="2.183" r="2.183" transform="translate(3671.62 -599.306)"/><circle class="c" cx="2.183" cy="2.183" r="2.183" transform="translate(3803.025 -493.722)"/><circle class="c" cx="2.183" cy="2.183" r="2.183" transform="translate(3749.144 -621.013)"/><path class="c" d="M3801.663-559.353a2.183,2.183,0,0,1-2.183-2.183,2.183,2.183,0,0,1,2.183-2.183,2.183,2.183,0,0,1,2.183,2.183A2.183,2.183,0,0,1,3801.663-559.353Z"/><circle class="c" cx="2.183" cy="2.183" r="2.183" transform="translate(3707.355 -484.799)"/><circle class="c" cx="2.183" cy="2.183" r="2.183" transform="translate(3711.706 -629.446)"/><circle class="c" cx="2.183" cy="2.183" r="2.183" transform="translate(3843.027 -595.176)"/><circle class="c" cx="2.183" cy="2.183" r="2.183" transform="translate(3797.673 -671.521)"/><circle class="c" cx="2.183" cy="2.183" r="2.183" transform="translate(3719.178 -489.988)"/><circle class="c" cx="2.183" cy="2.183" r="2.183" transform="translate(3828.356 -757.575)"/><circle class="c" cx="2.183" cy="2.183" r="2.183" transform="translate(3851.104 -629.26)"/><circle class="c" cx="2.183" cy="2.183" r="2.183" transform="translate(3756.811 -526.044)"/><path class="c" d="M3727.168-699.61a2.183,2.183,0,0,1-2.183-2.183,2.183,2.183,0,0,1,2.183-2.183,2.183,2.183,0,0,1,2.183,2.183A2.183,2.183,0,0,1,3727.168-699.61Z"/><circle class="c" cx="2.183" cy="2.183" r="2.183" transform="translate(3776.719 -697.659)"/><path class="c" d="M3742.228-487.842a2.183,2.183,0,0,1-2.183-2.184,2.183,2.183,0,0,1,2.183-2.183,2.183,2.183,0,0,1,2.183,2.183A2.183,2.183,0,0,1,3742.228-487.842Z"/><circle class="c" cx="2.183" cy="2.183" r="2.183" transform="translate(3847.335 -549.42)"/><path class="c" d="M3794.024-554.913a2.183,2.183,0,0,1-2.183-2.183,2.183,2.183,0,0,1,2.183-2.184,2.183,2.183,0,0,1,2.183,2.184A2.183,2.183,0,0,1,3794.024-554.913Z"/><circle class="c" cx="2.183" cy="2.183" r="2.183" transform="translate(3780.863 -508.318)"/><path class="c" d="M3719.833-636.708a2.183,2.183,0,0,1-2.183-2.183,2.183,2.183,0,0,1,2.183-2.184,2.183,2.183,0,0,1,2.183,2.184A2.183,2.183,0,0,1,3719.833-636.708Z"/><path class="c" d="M3850.007-717.229a2.183,2.183,0,0,1-2.183-2.183,2.183,2.183,0,0,1,2.183-2.183,2.183,2.183,0,0,1,2.183,2.183A2.183,2.183,0,0,1,3850.007-717.229Z"/><circle class="c" cx="2.183" cy="2.183" r="2.183" transform="translate(3761.621 -656.793)"/><circle class="c" cx="2.183" cy="2.183" r="2.183" transform="translate(3623.218 -711.409)"/><path class="c" d="M3776.019-521.844a2.183,2.183,0,0,1-2.183-2.183,2.183,2.183,0,0,1,2.183-2.183,2.183,2.183,0,0,1,2.183,2.183A2.183,2.183,0,0,1,3776.019-521.844Z"/><circle class="c" cx="2.183" cy="2.183" r="2.183" transform="translate(3728.34 -679.897)"/><circle class="c" cx="2.183" cy="2.183" r="2.183" transform="translate(3775.158 -601.517)"/><circle class="c" cx="2.183" cy="2.183" r="2.183" transform="translate(3771.63 -639.808)"/><path class="c" d="M3824.4-626.5a2.183,2.183,0,0,1-2.183-2.184,2.183,2.183,0,0,1,2.183-2.183,2.184,2.184,0,0,1,2.183,2.183A2.184,2.184,0,0,1,3824.4-626.5Z"/><circle class="c" cx="2.183" cy="2.183" r="2.183" transform="translate(3688.461 -653.283)"/><path class="c" d="M3745.086-620.528a2.184,2.184,0,0,1-2.183-2.183,2.183,2.183,0,0,1,2.183-2.183,2.183,2.183,0,0,1,2.184,2.183A2.184,2.184,0,0,1,3745.086-620.528Z"/><circle class="c" cx="2.183" cy="2.183" r="2.183" transform="translate(3712.242 -477.59)"/><circle class="c" cx="2.183" cy="2.183" r="2.183" transform="translate(3740.109 -666.639)"/><circle class="c" cx="2.183" cy="2.183" r="2.183" transform="translate(3818.471 -514.44)"/><circle class="c" cx="2.183" cy="2.183" r="2.183" transform="translate(3810.519 -645.144)"/><circle class="c" cx="2.183" cy="2.183" r="2.183" transform="translate(3822.792 -739.232)"/><circle class="c" cx="2.183" cy="2.183" r="2.183" transform="translate(3789.068 -601.582)"/><path class="c" d="M3793.178-486.891a2.183,2.183,0,0,1-2.183-2.183,2.183,2.183,0,0,1,2.183-2.183,2.183,2.183,0,0,1,2.184,2.183A2.183,2.183,0,0,1,3793.178-486.891Z"/><circle class="c" cx="2.183" cy="2.183" r="2.183" transform="translate(3743.642 -614.83)"/><circle class="c" cx="2.183" cy="2.183" r="2.183" transform="translate(3755.008 -572.111)"/><circle class="c" cx="2.183" cy="2.183" r="2.183" transform="translate(3753.733 -716.734)"/><path class="c" d="M3841.413-489.4a2.183,2.183,0,0,1-2.183-2.183,2.183,2.183,0,0,1,2.183-2.183,2.183,2.183,0,0,1,2.183,2.183A2.183,2.183,0,0,1,3841.413-489.4Z"/><circle class="c" cx="2.183" cy="2.183" r="2.183" transform="translate(3718.717 -650.167)"/><circle class="c" cx="2.183" cy="2.183" r="2.183" transform="translate(3747.285 -486.145)"/><circle class="c" cx="2.183" cy="2.183" r="2.183" transform="translate(3827.802 -480.671)"/><path class="c" d="M3686.255-565.881a2.183,2.183,0,0,1-2.184-2.183,2.183,2.183,0,0,1,2.184-2.183,2.183,2.183,0,0,1,2.183,2.183A2.183,2.183,0,0,1,3686.255-565.881Z"/><path class="c" d="M3834.656-482.22a2.183,2.183,0,0,1-2.183-2.183,2.183,2.183,0,0,1,2.183-2.183,2.183,2.183,0,0,1,2.184,2.183A2.183,2.183,0,0,1,3834.656-482.22Z"/><circle class="c" cx="2.183" cy="2.183" r="2.183" transform="translate(3785.893 -610.483)"/><circle class="c" cx="2.183" cy="2.183" r="2.183" transform="translate(3816.686 -534.338)"/><circle class="c" cx="2.183" cy="2.183" r="2.183" transform="translate(3757.676 -503.479)"/><circle class="c" cx="2.183" cy="2.183" r="2.183" transform="translate(3729.365 -488.242)"/><path class="c" d="M3815.226-621.495a2.183,2.183,0,0,1-2.183-2.183,2.183,2.183,0,0,1,2.183-2.183,2.183,2.183,0,0,1,2.183,2.183A2.183,2.183,0,0,1,3815.226-621.495Z"/><path class="c" d="M3784.957-725.939a2.184,2.184,0,0,1-2.183-2.183,2.184,2.184,0,0,1,2.183-2.184,2.184,2.184,0,0,1,2.184,2.184A2.184,2.184,0,0,1,3784.957-725.939Z"/><circle class="c" cx="2.183" cy="2.183" r="2.183" transform="translate(3714.09 -560.103)"/><circle class="c" cx="2.183" cy="2.183" r="2.183" transform="translate(3775.872 -741.515)"/><path class="c" d="M3697.709-622.764a2.183,2.183,0,0,1-2.183-2.183,2.183,2.183,0,0,1,2.183-2.183,2.183,2.183,0,0,1,2.183,2.183A2.183,2.183,0,0,1,3697.709-622.764Z"/><path class="c" d="M3806.93-503.272a2.183,2.183,0,0,1-2.183-2.183,2.183,2.183,0,0,1,2.183-2.183,2.183,2.183,0,0,1,2.183,2.183A2.183,2.183,0,0,1,3806.93-503.272Z"/><circle class="c" cx="2.183" cy="2.183" r="2.183" transform="translate(3757.725 -675.623)"/><circle class="c" cx="2.183" cy="2.183" r="2.183" transform="translate(3719.443 -482.094)"/><path class="c" d="M3844.42-655.06a2.183,2.183,0,0,1-2.183-2.183,2.183,2.183,0,0,1,2.183-2.183,2.183,2.183,0,0,1,2.184,2.183A2.183,2.183,0,0,1,3844.42-655.06Z"/><circle class="c" cx="2.183" cy="2.183" r="2.183" transform="translate(3760.594 -485.972)"/><circle class="c" cx="2.183" cy="2.183" r="2.183" transform="translate(3844.256 -743.805)"/><circle class="c" cx="2.183" cy="2.183" r="2.183" transform="translate(3751.14 -535.713)"/><circle class="c" cx="2.183" cy="2.183" r="2.183" transform="translate(3728.822 -555.662)"/><path class="c" d="M3773.106-537.284a2.183,2.183,0,0,1-2.183-2.183,2.183,2.183,0,0,1,2.183-2.183,2.183,2.183,0,0,1,2.184,2.183A2.183,2.183,0,0,1,3773.106-537.284Z"/><path class="c" d="M3705.415-587.052a2.184,2.184,0,0,1-2.183-2.184,2.184,2.184,0,0,1,2.183-2.183,2.184,2.184,0,0,1,2.184,2.183A2.184,2.184,0,0,1,3705.415-587.052Z"/><path class="c" d="M3753.847-660.754a2.183,2.183,0,0,1-2.183-2.184,2.183,2.183,0,0,1,2.183-2.183,2.183,2.183,0,0,1,2.183,2.183A2.183,2.183,0,0,1,3753.847-660.754Z"/><circle class="c" cx="2.183" cy="2.183" r="2.183" transform="translate(3760.324 -714.797)"/><path class="c" d="M3749.248-759.478a2.184,2.184,0,0,1-2.183-2.184,2.184,2.184,0,0,1,2.183-2.183,2.184,2.184,0,0,1,2.184,2.183A2.184,2.184,0,0,1,3749.248-759.478Z"/><circle class="c" cx="2.183" cy="2.183" r="2.183" transform="translate(3808.659 -473.607)"/><circle class="c" cx="2.183" cy="2.183" r="2.183" transform="translate(3729.211 -634.187)"/><circle class="c" cx="2.183" cy="2.183" r="2.183" transform="translate(3666.642 -704.833)"/><path class="c" d="M3687.039-665.485a2.183,2.183,0,0,1-2.183-2.183,2.183,2.183,0,0,1,2.183-2.184,2.183,2.183,0,0,1,2.183,2.184A2.183,2.183,0,0,1,3687.039-665.485Z"/><circle class="c" cx="2.183" cy="2.183" r="2.183" transform="translate(3772.228 -515.46)"/><circle class="c" cx="2.183" cy="2.183" r="2.183" transform="translate(3801.918 -554.397)"/><circle class="c" cx="2.183" cy="2.183" r="2.183" transform="translate(3717.127 -702.55)"/><circle class="c" cx="2.183" cy="2.183" r="2.183" transform="translate(3760.766 -749.159)"/><circle class="c" cx="2.183" cy="2.183" r="2.183" transform="translate(3767.148 -533.619)"/><circle class="c" cx="2.183" cy="2.183" r="2.183" transform="translate(3839.795 -585.983)"/><circle class="c" cx="2.183" cy="2.183" r="2.183" transform="translate(3764.858 -520.99)"/><circle class="c" cx="2.183" cy="2.183" r="2.183" transform="translate(3822.132 -801.489)"/><circle class="c" cx="2.183" cy="2.183" r="2.183" transform="translate(3822.809 -582.127)"/><circle class="c" cx="2.183" cy="2.183" r="2.183" transform="translate(3812.128 -765.099)"/><path class="c" d="M3843.2-687.116a2.183,2.183,0,0,1-2.184-2.183,2.183,2.183,0,0,1,2.184-2.183,2.183,2.183,0,0,1,2.183,2.183A2.183,2.183,0,0,1,3843.2-687.116Z"/><circle class="c" cx="2.183" cy="2.183" r="2.183" transform="translate(3749.057 -675.448)"/><circle class="c" cx="2.183" cy="2.183" r="2.183" transform="translate(3754.531 -582.786)"/><path class="c" d="M3739.468-538.774a2.183,2.183,0,0,1-2.183-2.183,2.183,2.183,0,0,1,2.183-2.183,2.183,2.183,0,0,1,2.183,2.183A2.183,2.183,0,0,1,3739.468-538.774Z"/><circle class="c" cx="2.183" cy="2.183" r="2.183" transform="translate(3794.794 -636.446)"/><circle class="c" cx="2.183" cy="2.183" r="2.183" transform="translate(3839.811 -564.507)"/><circle class="c" cx="2.183" cy="2.183" r="2.183" transform="translate(3772.336 -760.611)"/><circle class="c" cx="2.183" cy="2.183" r="2.183" transform="translate(3763.83 -574.018)"/><circle class="c" cx="2.183" cy="2.183" r="2.183" transform="translate(3813.718 -453.87)"/><circle class="c" cx="2.183" cy="2.183" r="2.183" transform="translate(3838.265 -738.088)"/><circle class="c" cx="2.183" cy="2.183" r="2.183" transform="translate(3840.496 -482.345)"/><circle class="c" cx="2.183" cy="2.183" r="2.183" transform="translate(3830.836 -664.927)"/><circle class="c" cx="2.183" cy="2.183" r="2.183" transform="translate(3748.953 -710.557)"/><circle class="c" cx="2.183" cy="2.183" r="2.183" transform="translate(3803.03 -616.422)"/><circle class="c" cx="2.183" cy="2.183" r="2.183" transform="translate(3767.019 -682.814)"/><circle class="c" cx="2.183" cy="2.183" r="2.183" transform="translate(3721.976 -473.179)"/><circle class="c" cx="2.183" cy="2.183" r="2.183" transform="translate(3721.146 -619.64)"/><path class="c" d="M3755.449-589.8a2.182,2.182,0,0,1-2.183-2.183,2.182,2.182,0,0,1,2.183-2.183,2.183,2.183,0,0,1,2.183,2.183A2.183,2.183,0,0,1,3755.449-589.8Z"/><circle class="c" cx="2.183" cy="2.183" r="2.183" transform="translate(3725.498 -433.036)"/><path class="c" d="M3821.445-557.4a2.183,2.183,0,0,1-2.183-2.183,2.183,2.183,0,0,1,2.183-2.183,2.183,2.183,0,0,1,2.184,2.183A2.183,2.183,0,0,1,3821.445-557.4Z"/><circle class="c" cx="2.183" cy="2.183" r="2.183" transform="translate(3778.585 -614.199)"/><circle class="c" cx="2.183" cy="2.183" r="2.183" transform="translate(3841.043 -726.173)"/><circle class="c" cx="2.183" cy="2.183" r="2.183" transform="translate(3833.656 -675.352)"/><circle class="c" cx="2.183" cy="2.183" r="2.183" transform="translate(3822.653 -492.471)"/><circle class="c" cx="2.183" cy="2.183" r="2.183" transform="translate(3834.11 -498.296)"/><circle class="c" cx="2.183" cy="2.183" r="2.183" transform="translate(3717.897 -552.159)"/><path class="c" d="M3687.039-634.966a2.183,2.183,0,0,1-2.183-2.183,2.183,2.183,0,0,1,2.183-2.183,2.182,2.182,0,0,1,2.183,2.183A2.182,2.182,0,0,1,3687.039-634.966Z"/><circle class="c" cx="2.183" cy="2.183" r="2.183" transform="translate(3844.614 -579.474)"/><circle class="c" cx="2.183" cy="2.183" r="2.183" transform="translate(3762.973 -647.442)"/><path class="c" d="M3699.015-691.754a2.183,2.183,0,0,1-2.183-2.183,2.183,2.183,0,0,1,2.183-2.183,2.183,2.183,0,0,1,2.183,2.183A2.183,2.183,0,0,1,3699.015-691.754Z"/><circle class="c" cx="2.183" cy="2.183" r="2.183" transform="translate(3774.165 -678.865)"/><circle class="c" cx="2.183" cy="2.183" r="2.183" transform="translate(3848.978 -587.803)"/><circle class="c" cx="2.183" cy="2.183" r="2.183" transform="translate(3788.222 -757.767)"/><circle class="c" cx="2.183" cy="2.183" r="2.183" transform="translate(3720.064 -683.967)"/><circle class="c" cx="2.183" cy="2.183" r="2.183" transform="translate(3848.906 -713.68)"/><circle class="c" cx="2.183" cy="2.183" r="2.183" transform="translate(3839.643 -645.196)"/><circle class="c" cx="2.183" cy="2.183" r="2.183" transform="translate(3757.99 -611.38)"/><circle class="c" cx="2.183" cy="2.183" r="2.183" transform="translate(3737.68 -572.138)"/><circle class="c" cx="2.183" cy="2.183" r="2.183" transform="translate(3850.446 -794.804)"/><circle class="c" cx="2.183" cy="2.183" r="2.183" transform="translate(3716.619 -603.679)"/><circle class="c" cx="2.183" cy="2.183" r="2.183" transform="translate(3763.356 -730.437)"/><circle class="c" cx="2.183" cy="2.183" r="2.183" transform="translate(3755.706 -517.154)"/><circle class="c" cx="2.183" cy="2.183" r="2.183" transform="translate(3761.445 -439.586)"/><circle class="c" cx="2.183" cy="2.183" r="2.183" transform="translate(3709.041 -572.358)"/><circle class="c" cx="2.183" cy="2.183" r="2.183" transform="translate(3752.079 -546.847)"/><circle class="c" cx="2.183" cy="2.183" r="2.183" transform="translate(3726.477 -533.811)"/><circle class="c" cx="2.183" cy="2.183" r="2.183" transform="translate(3728.516 -655.53)"/><path class="c" d="M3726.858-709.15a2.183,2.183,0,0,1-2.183-2.183,2.183,2.183,0,0,1,2.183-2.183,2.183,2.183,0,0,1,2.183,2.183A2.183,2.183,0,0,1,3726.858-709.15Z"/><circle class="c" cx="2.183" cy="2.183" r="2.183" transform="translate(3753.739 -644.112)"/><path class="c" d="M3755.434-648.98a2.183,2.183,0,0,1-2.183-2.183,2.183,2.183,0,0,1,2.183-2.183,2.183,2.183,0,0,1,2.184,2.183A2.183,2.183,0,0,1,3755.434-648.98Z"/><circle class="c" cx="2.183" cy="2.183" r="2.183" transform="translate(3737.575 -584.403)"/><circle class="c" cx="2.183" cy="2.183" r="2.183" transform="translate(3678.445 -510.501)"/><path class="c" d="M3853.2-478.888a2.183,2.183,0,0,1-2.183-2.184,2.183,2.183,0,0,1,2.183-2.183,2.183,2.183,0,0,1,2.183,2.183A2.183,2.183,0,0,1,3853.2-478.888Z"/><circle class="c" cx="2.183" cy="2.183" r="2.183" transform="translate(3835.249 -762.977)"/><circle class="c" cx="2.183" cy="2.183" r="2.183" transform="translate(3717.06 -658.444)"/><path class="c" d="M3843.734-812.912a2.183,2.183,0,0,1-2.183-2.184,2.183,2.183,0,0,1,2.183-2.183,2.183,2.183,0,0,1,2.183,2.183A2.183,2.183,0,0,1,3843.734-812.912Z"/><circle class="c" cx="2.183" cy="2.183" r="2.183" transform="translate(3686.224 -588.772)"/><circle class="c" cx="2.183" cy="2.183" r="2.183" transform="translate(3783.414 -666.608)"/><circle class="c" cx="2.183" cy="2.183" r="2.183" transform="translate(3742.563 -717.013)"/><circle class="c" cx="2.183" cy="2.183" r="2.183" transform="translate(3815.524 -524.078)"/><circle class="c" cx="2.183" cy="2.183" r="2.183" transform="translate(3697.427 -645.149)"/><circle class="c" cx="2.183" cy="2.183" r="2.183" transform="translate(3771.237 -734.883)"/><circle class="c" cx="2.183" cy="2.183" r="2.183" transform="translate(3840.005 -771.347)"/><circle class="c" cx="2.183" cy="2.183" r="2.183" transform="translate(3805.123 -789.817)"/><circle class="c" cx="2.183" cy="2.183" r="2.183" transform="translate(3831.275 -567.181)"/><circle class="c" cx="2.183" cy="2.183" r="2.183" transform="translate(3704.739 -547.839)"/><circle class="c" cx="2.183" cy="2.183" r="2.183" transform="translate(3706.711 -555.053)"/><path class="c" d="M3740.966-547.149a2.183,2.183,0,0,1-2.183-2.183,2.183,2.183,0,0,1,2.183-2.183,2.182,2.182,0,0,1,2.183,2.183A2.182,2.182,0,0,1,3740.966-547.149Z"/><circle class="c" cx="2.183" cy="2.183" r="2.183" transform="translate(3733.661 -465.854)"/><circle class="c" cx="2.183" cy="2.183" r="2.183" transform="translate(3829.792 -769.058)"/><path class="c" d="M3713.532-661.937a2.184,2.184,0,0,1-2.183-2.184,2.184,2.184,0,0,1,2.183-2.183,2.184,2.184,0,0,1,2.184,2.183A2.184,2.184,0,0,1,3713.532-661.937Z"/><circle class="c" cx="2.183" cy="2.183" r="2.183" transform="translate(3823.75 -657.952)"/><circle class="c" cx="2.183" cy="2.183" r="2.183" transform="translate(3702.741 -527.297)"/><path class="c" d="M3739.465-528.488a2.183,2.183,0,0,1-2.183-2.183,2.183,2.183,0,0,1,2.183-2.183,2.183,2.183,0,0,1,2.183,2.183A2.183,2.183,0,0,1,3739.465-528.488Z"/><path class="c" d="M3732.756-609.121a2.183,2.183,0,0,1-2.183-2.183,2.183,2.183,0,0,1,2.183-2.184,2.183,2.183,0,0,1,2.183,2.184A2.183,2.183,0,0,1,3732.756-609.121Z"/><circle class="c" cx="2.183" cy="2.183" r="2.183" transform="translate(3716.217 -575.658)"/><circle class="c" cx="2.183" cy="2.183" r="2.183" transform="translate(3678.445 -558.828)"/><circle class="c" cx="2.183" cy="2.183" r="2.183" transform="translate(3818.49 -792.222)"/><circle class="c" cx="2.183" cy="2.183" r="2.183" transform="translate(3813.769 -593.952)"/><path class="c" d="M3791.233-624.442a2.183,2.183,0,0,1-2.184-2.183,2.183,2.183,0,0,1,2.184-2.183,2.183,2.183,0,0,1,2.183,2.183A2.183,2.183,0,0,1,3791.233-624.442Z"/><circle class="c" cx="2.183" cy="2.183" r="2.183" transform="translate(3816.404 -770.448)"/><circle class="c" cx="2.183" cy="2.183" r="2.183" transform="translate(3804.268 -641.294)"/><circle class="c" cx="2.183" cy="2.183" r="2.183" transform="translate(3726.784 -599.538)"/><circle class="c" cx="2.183" cy="2.183" r="2.183" transform="translate(3641.57 -585.914)"/><circle class="c" cx="2.183" cy="2.183" r="2.183" transform="translate(3788.04 -478.138)"/><circle class="c" cx="2.183" cy="2.183" r="2.183" transform="translate(3822.264 -644.113)"/><path class="c" d="M3809.833-495.082a2.183,2.183,0,0,1-2.183-2.183,2.183,2.183,0,0,1,2.183-2.183,2.183,2.183,0,0,1,2.183,2.183A2.183,2.183,0,0,1,3809.833-495.082Z"/><circle class="c" cx="2.183" cy="2.183" r="2.183" transform="translate(3714.074 -544.171)"/><path class="c" d="M3849.136-553.911a2.183,2.183,0,0,1-2.183-2.184,2.183,2.183,0,0,1,2.183-2.183,2.183,2.183,0,0,1,2.183,2.183A2.183,2.183,0,0,1,3849.136-553.911Z"/><path class="c" d="M3831.88-644.622a2.183,2.183,0,0,1-2.183-2.183,2.183,2.183,0,0,1,2.183-2.183,2.183,2.183,0,0,1,2.183,2.183A2.183,2.183,0,0,1,3831.88-644.622Z"/><path class="c" d="M3760.07-613.673a2.183,2.183,0,0,1-2.183-2.183,2.183,2.183,0,0,1,2.183-2.183,2.183,2.183,0,0,1,2.183,2.183A2.183,2.183,0,0,1,3760.07-613.673Z"/><circle class="c" cx="2.183" cy="2.183" r="2.183" transform="translate(3798.18 -486.238)"/><circle class="c" cx="2.183" cy="2.183" r="2.183" transform="translate(3771.75 -470.691)"/><path class="c" d="M3717.025-582.75a2.183,2.183,0,0,1-2.183-2.183,2.183,2.183,0,0,1,2.183-2.184,2.183,2.183,0,0,1,2.183,2.184A2.183,2.183,0,0,1,3717.025-582.75Z"/><circle class="c" cx="2.183" cy="2.183" r="2.183" transform="translate(3846.195 -667.057)"/><circle class="c" cx="2.183" cy="2.183" r="2.183" transform="translate(3837.775 -780.063)"/><circle class="c" cx="2.183" cy="2.183" r="2.183" transform="translate(3797.98 -660.709)"/><circle class="c" cx="2.183" cy="2.183" r="2.183" transform="translate(3837.998 -556.634)"/><circle class="c" cx="2.183" cy="2.183" r="2.183" transform="translate(3840.308 -672.281)"/><circle class="c" cx="2.183" cy="2.183" r="2.183" transform="translate(3797.042 -646.229)"/><circle class="c" cx="2.183" cy="2.183" r="2.183" transform="translate(3846.607 -682.683)"/><circle class="c" cx="2.183" cy="2.183" r="2.183" transform="translate(3729.7 -695.946)"/><circle class="c" cx="2.183" cy="2.183" r="2.183" transform="translate(3721.532 -539.717)"/><circle class="c" cx="2.183" cy="2.183" r="2.183" transform="translate(3752.235 -461.502)"/><circle class="c" cx="2.183" cy="2.183" r="2.183" transform="translate(3814.831 -503.662)"/><circle class="c" cx="2.183" cy="2.183" r="2.183" transform="translate(3702.757 -537.214)"/><circle class="c" cx="2.183" cy="2.183" r="2.183" transform="translate(3803.838 -631.89)"/><circle class="c" cx="2.183" cy="2.183" r="2.183" transform="translate(3840.407 -788.047)"/><circle class="c" cx="2.183" cy="2.183" r="2.183" transform="translate(3687.917 -645.501)"/><circle class="c" cx="2.183" cy="2.183" r="2.183" transform="translate(3694.207 -567.085)"/><circle class="c" cx="2.183" cy="2.183" r="2.183" transform="translate(3698.159 -556.158)"/><circle class="c" cx="2.183" cy="2.183" r="2.183" transform="translate(3818.263 -784.327)"/><circle class="c" cx="2.183" cy="2.183" r="2.183" transform="translate(3672.222 -549.873)"/><circle class="c" cx="2.183" cy="2.183" r="2.183" transform="translate(3847.848 -704.701)"/><circle class="c" cx="2.183" cy="2.183" r="2.183" transform="translate(3809.371 -483.058)"/><circle class="c" cx="2.183" cy="2.183" r="2.183" transform="translate(3844.802 -570.526)"/><circle class="c" cx="2.183" cy="2.183" r="2.183" transform="translate(3760.936 -637.602)"/><circle class="c" cx="2.183" cy="2.183" r="2.183" transform="translate(3768.235 -753.135)"/><circle class="c" cx="2.183" cy="2.183" r="2.183" transform="translate(3800.122 -777.715)"/><circle class="c" cx="2.183" cy="2.183" r="2.183" transform="translate(3714.152 -595.808)"/><circle class="c" cx="2.183" cy="2.183" r="2.183" transform="translate(3843.065 -620.878)"/><circle class="c" cx="2.183" cy="2.183" r="2.183" transform="translate(3741.4 -643.691)"/><path class="c" d="M3799.336-779.493a2.183,2.183,0,0,1-2.183-2.183,2.183,2.183,0,0,1,2.183-2.183,2.183,2.183,0,0,1,2.183,2.183A2.183,2.183,0,0,1,3799.336-779.493Z"/><path class="c" d="M3746.368-728.724a2.183,2.183,0,0,1-2.183-2.183,2.183,2.183,0,0,1,2.183-2.183,2.183,2.183,0,0,1,2.183,2.183A2.183,2.183,0,0,1,3746.368-728.724Z"/><circle class="c" cx="2.183" cy="2.183" r="2.183" transform="translate(3826.758 -525.292)"/><circle class="c" cx="2.183" cy="2.183" r="2.183" transform="translate(3834.805 -810.407)"/><circle class="c" cx="2.183" cy="2.183" r="2.183" transform="translate(3781.617 -766.028)"/><path class="c" d="M3712.914-635.569a2.183,2.183,0,0,1-2.183-2.183,2.183,2.183,0,0,1,2.183-2.183,2.182,2.182,0,0,1,2.183,2.183A2.182,2.182,0,0,1,3712.914-635.569Z"/><circle class="c" cx="2.183" cy="2.183" r="2.183" transform="translate(3681.002 -632.627)"/><circle class="c" cx="2.183" cy="2.183" r="2.183" transform="translate(3757.338 -476.827)"/><circle class="c" cx="2.183" cy="2.183" r="2.183" transform="translate(3695.254 -597.454)"/><circle class="c" cx="2.183" cy="2.183" r="2.183" transform="translate(3775.355 -488.554)"/><circle class="c" cx="2.183" cy="2.183" r="2.183" transform="translate(3709.036 -676.623)"/><path class="c" d="M3707.146-621.9a2.183,2.183,0,0,1-2.183-2.183,2.183,2.183,0,0,1,2.183-2.184,2.183,2.183,0,0,1,2.183,2.184A2.183,2.183,0,0,1,3707.146-621.9Z"/><circle class="c" cx="2.183" cy="2.183" r="2.183" transform="translate(3690.551 -578.286)"/><circle class="c" cx="2.183" cy="2.183" r="2.183" transform="translate(3686.819 -598.564)"/><circle class="c" cx="2.183" cy="2.183" r="2.183" transform="translate(3673.32 -606.936)"/><path class="c" d="M3680.874-620.124a2.183,2.183,0,0,1-2.183-2.183,2.183,2.183,0,0,1,2.183-2.183,2.182,2.182,0,0,1,2.183,2.183A2.182,2.182,0,0,1,3680.874-620.124Z"/><circle class="c" cx="2.183" cy="2.183" r="2.183" transform="translate(3827.317 -807.508)"/><circle class="c" cx="2.183" cy="2.183" r="2.183" transform="translate(3789.509 -776.076)"/><circle class="c" cx="2.183" cy="2.183" r="2.183" transform="translate(3712.198 -694.24)"/></g></g></svg>