<svg xmlns="http://www.w3.org/2000/svg" width="20" height="23" viewBox="0 0 20 23">
  <g id="그룹_491" data-name="그룹 491" transform="translate(-2239.357 -944.208)">
    <path id="패스_1221" data-name="패스 1221" d="M2249.125,962.208c-.1-.119-.254-.129-.386-.177q-3.492-1.268-6.987-2.53a.7.7,0,0,1-.534-.749c0-.779,0-1.557,0-2.336a.2.2,0,0,0-.172-.229,2.219,2.219,0,0,1,0-4.309c.137-.038.178-.09.177-.226-.008-.726-.005-1.452,0-2.179a.7.7,0,0,1,1.007-.675q.565.2,1.128.409a.2.2,0,0,0,.228-.031,8.271,8.271,0,0,1,2.993-1.866,4.412,4.412,0,0,1-1.855-3.915,4.243,4.243,0,0,1,1.489-3,4.77,4.77,0,0,1,6.429.113,4.431,4.431,0,0,1-.488,6.808,8.049,8.049,0,0,1,2.928,1.806.275.275,0,0,0,.343.062c.357-.141.72-.269,1.083-.4a.7.7,0,0,1,.992.676c0,.719,0,1.437,0,2.156,0,.147.027.214.192.26a2.219,2.219,0,0,1,.008,4.3c-.154.043-.2.095-.2.253.01.771.005,1.542,0,2.313a.689.689,0,0,1-.529.752q-3.69,1.335-7.381,2.666c-.018.006-.029.028-.044.043Zm-.477-1.653c.005-.046.011-.074.011-.1q0-3.873,0-7.747c0-.143-.078-.168-.182-.206q-2.116-.763-4.23-1.531l-1.638-.594c0,.455,0,.881,0,1.307,0,.105.044.129.138.162a1.112,1.112,0,0,1,.794,1.1q0,1.1,0,2.2a1.1,1.1,0,0,1-.773,1.064.191.191,0,0,0-.159.218c.007.591.008,1.183,0,1.774a.211.211,0,0,0,.171.237c1.224.438,2.445.882,3.667,1.324Zm1.407-.024c.027.007.036.012.042.01q2.95-1.065,5.9-2.128c.092-.033.105-.086.1-.168q0-.932,0-1.864a.138.138,0,0,0-.112-.158,1.111,1.111,0,0,1-.819-1.146q0-1.044,0-2.088a1.122,1.122,0,0,1,.815-1.151c.059-.022.116-.024.116-.108,0-.444,0-.887,0-1.35l-.117.042q-2.864,1.037-5.729,2.07a.251.251,0,0,0-.2.283q.009,3.784,0,7.567Zm-.708-13.688a3.146,3.146,0,1,0-3.246-3.165A3.209,3.209,0,0,0,2249.347,946.843Zm-4.38,2.945c1.428.518,2.839,1.028,4.247,1.544a.416.416,0,0,0,.308-.008q1.311-.479,2.623-.954l1.6-.58A6.854,6.854,0,0,0,2244.968,949.788Zm-2.821,4.257v-.426c0-.543,0-.543-.565-.482a.925.925,0,0,0-.827.813.9.9,0,0,0,.662.941,2.585,2.585,0,0,0,.576.04c.118.009.162-.024.156-.146C2242.14,954.539,2242.147,954.293,2242.147,954.046Zm14.419-.026v.449c0,.482,0,.482.5.461a.927.927,0,0,0,.893-.8.9.9,0,0,0-.686-.966,2.843,2.843,0,0,0-.623-.033c-.1-.005-.081.069-.081.124C2256.566,953.512,2256.566,953.766,2256.566,954.02Z" transform="translate(0 5)" fill="#fff"/>
  </g>
</svg>
