<?xml version="1.0" encoding="utf-8"?>
<!-- Generator: Adobe Illustrator 24.2.3, SVG Export Plug-In . SVG Version: 6.00 Build 0)  -->
<svg version="1.1" id="Layer_2" xmlns="http://www.w3.org/2000/svg" xmlns:xlink="http://www.w3.org/1999/xlink" x="0px" y="0px"
	 viewBox="0 0 32 32" style="enable-background:new 0 0 32 32;" xml:space="preserve">
<style type="text/css">
	.st0{fill:#DDDDDD;}
</style>
<g>
	<path class="st0" d="M26.4,10.5l-4.7,4.7c0.2,0.6,0.2,1.3,0.2,1.9c-0.2,3.6-3.9,6.3-7.4,5.3c0,0-3.2,3.2-3.2,3.2
		c7.6,2.2,16.1-1.3,20-8.2c0.3-0.5,0.3-1,0-1.5C30.1,13.7,28.4,12,26.4,10.5z"/>
	<path class="st0" d="M0.7,15.9c-0.3,0.5-0.3,1,0,1.5c1.3,2.2,2.9,4,4.9,5.4l-2.1,2.1c-0.6,0.6-0.6,1.5,0,2.1c0.6,0.6,1.5,0.6,2.1,0
		l20-20c1.3-1.4-0.8-3.5-2.1-2.1c0,0-2.8,2.8-2.8,2.8C13.1,5.5,4.6,9.1,0.7,15.9z M17.5,10.9c0,0-7.3,7.3-7.3,7.3
		c-0.1-0.5-0.2-1-0.2-1.5C10,12.8,13.8,9.9,17.5,10.9z"/>
</g>
</svg>
