<svg xmlns="http://www.w3.org/2000/svg" width="36" height="36" viewBox="0 0 36 36">
  <g id="그룹_3103" data-name="그룹 3103" transform="translate(-1992.812 -1804.827)">
    <g id="그룹_3099" data-name="그룹 3099">
      <circle id="타원_3-3" data-name="타원 3-3" cx="18" cy="18" r="18" transform="translate(1992.812 1804.827)" fill="#00b900"/>
    </g>
    <g id="g7906">
      <g id="g7928">
        <g id="그룹_3100" data-name="그룹 3100">
          <g id="g7930">
            <g id="g7962">
              <path id="path7964" d="M2022.1,1821.984c0-5.052-5.064-9.161-11.289-9.161s-11.29,4.113-11.29,9.161c0,4.529,4.016,8.32,9.44,9.04.368.08.868.24.995.56a2.333,2.333,0,0,1,.036,1.021s-.133.8-.16.967c-.049.285-.228,1.12.977.608a36.551,36.551,0,0,0,8.871-6.554h0a8.148,8.148,0,0,0,2.42-5.642" fill="#fff"/>
            </g>
            <g id="g7966">
              <path id="path7968" d="M2008.518,1819.547h-.792a.22.22,0,0,0-.22.219v4.919a.22.22,0,0,0,.22.219h.792a.22.22,0,0,0,.22-.219v-4.919a.22.22,0,0,0-.22-.219" fill="#00b900"/>
            </g>
            <g id="g7970">
              <path id="path7972" d="M2013.969,1819.547h-.792a.219.219,0,0,0-.22.219v2.922l-2.255-3.044-.017-.022h0l-.013-.014h0l-.012-.009-.006-.005-.011-.008h-.006l-.012-.006h-.008l-.012-.006h-.008l-.013,0h-.852a.22.22,0,0,0-.22.219v4.919a.22.22,0,0,0,.22.22h.792a.221.221,0,0,0,.22-.22v-2.921l2.257,3.048a.223.223,0,0,0,.056.054h0l.013.008h.007l.01.005.011.005h.007l.015.005h0a.259.259,0,0,0,.056.007h.792a.22.22,0,0,0,.22-.219h0v-4.92a.22.22,0,0,0-.22-.219" fill="#00b900"/>
            </g>
            <g id="g7974">
              <path id="path7976" d="M2006.609,1823.676h-2.152v-3.907a.22.22,0,0,0-.22-.22h-.792a.221.221,0,0,0-.22.22h0v4.919h0a.228.228,0,0,0,.062.152h0a.22.22,0,0,0,.152.061h3.164a.22.22,0,0,0,.219-.22v-.792a.219.219,0,0,0-.218-.22h0" fill="#00b900"/>
            </g>
            <g id="g7978">
              <path id="path7980" d="M2018.345,1820.779a.219.219,0,0,0,.22-.219h0v-.792a.22.22,0,0,0-.22-.22h-3.168a.218.218,0,0,0-.152.062h0a.218.218,0,0,0-.06.151h0v4.919h0a.222.222,0,0,0,.061.152h0a.222.222,0,0,0,.152.061h3.167a.219.219,0,0,0,.22-.22v-.792a.221.221,0,0,0-.22-.22h-2.151v-.831h2.151a.22.22,0,0,0,.22-.22v-.792a.221.221,0,0,0-.22-.22h-2.151v-.831Z" fill="#00b900"/>
            </g>
          </g>
        </g>
      </g>
    </g>
  </g>
</svg>
