<?xml version="1.0" encoding="utf-8"?>
<!-- Generator: Adobe Illustrator 24.2.3, SVG Export Plug-In . SVG Version: 6.00 Build 0)  -->
<svg version="1.1" id="Layer_1" xmlns="http://www.w3.org/2000/svg" xmlns:xlink="http://www.w3.org/1999/xlink" x="0px" y="0px"
	 viewBox="0 0 19 16" style="enable-background:new 0 0 19 16;" xml:space="preserve">
<style type="text/css">
	.st0{fill:#DDDDDD;}
</style>
<g transform="translate(-1553 -194)">
	<g transform="translate(0 -7)">
		<g transform="translate(446 41)">
			<g transform="translate(1102.58 152.688)">
				<path class="st0" d="M8.4,21.3c0,1.1-0.9,2-2,2s-2-0.9-2-2s0.9-2,2-2S8.4,20.2,8.4,21.3z"/>
				<path class="st0" d="M8.4,15.3c0,1.1-0.9,2-2,2s-2-0.9-2-2s0.9-2,2-2S8.4,14.2,8.4,15.3z"/>
				<path class="st0" d="M8.4,9.3c0,1.1-0.9,2-2,2s-2-0.9-2-2s0.9-2,2-2S8.4,8.2,8.4,9.3z"/>
				<path class="st0" d="M22.7,20.3H11.2c-0.6,0.2-0.9,0.7-0.7,1.3c0.1,0.4,0.4,0.6,0.7,0.7h11.5c0.6-0.2,0.9-0.7,0.7-1.3
					C23.3,20.7,23,20.4,22.7,20.3z"/>
				<path class="st0" d="M22.7,14.3H11.2c-0.6,0.2-0.9,0.7-0.7,1.3c0.1,0.4,0.4,0.6,0.7,0.7h11.5c0.6-0.2,0.9-0.7,0.7-1.3
					C23.3,14.7,23,14.4,22.7,14.3z"/>
				<path class="st0" d="M22.7,8.3H11.2c-0.6,0.2-0.9,0.7-0.7,1.3c0.1,0.4,0.4,0.6,0.7,0.7h11.5c0.6-0.2,0.9-0.7,0.7-1.3
					C23.3,8.7,23,8.4,22.7,8.3z"/>
			</g>
		</g>
	</g>
</g>
</svg>
