<svg xmlns="http://www.w3.org/2000/svg" width="17.5" height="14.318" viewBox="0 0 17.5 14.318">
  <g id="그룹_3103" data-name="그룹 3103" transform="translate(-258.25 -103.841)">
    <path id="패스_1752" data-name="패스 1752" d="M12.1,17.5a.581.581,0,0,0-.589.569.747.747,0,0,1-.757.732H5.311a.747.747,0,0,1-.757-.732V7.5a.747.747,0,0,1,.757-.732h5.44a.747.747,0,0,1,.757.732.589.589,0,0,0,1.178,0,1.9,1.9,0,0,0-1.936-1.871H5.311A1.9,1.9,0,0,0,3.375,7.5V18.072a1.9,1.9,0,0,0,1.936,1.871h5.44a1.9,1.9,0,0,0,1.936-1.871A.581.581,0,0,0,12.1,17.5Z" transform="translate(254.875 98.216)" fill="#ddd"/>
    <path id="패스_1753" data-name="패스 1753" d="M19.869,10.995a.6.6,0,0,0-.417-.167.586.586,0,0,0-.417.167.554.554,0,0,0,0,.805l2.743,2.611H11a.57.57,0,1,0,0,1.139h10.8l-2.676,2.607a.561.561,0,0,0,0,.805l0,0a.62.62,0,0,0,.412.159.579.579,0,0,0,.417-.167l3.476-3.352a.781.781,0,0,0,0-1.188Z" transform="translate(252.052 96.023)" fill="#ddd"/>
  </g>
</svg>
