<?xml version="1.0" encoding="utf-8"?>
<!-- Generator: Adobe Illustrator 24.2.3, SVG Export Plug-In . SVG Version: 6.00 Build 0)  -->
<svg version="1.1" id="레이어_1" xmlns="http://www.w3.org/2000/svg" xmlns:xlink="http://www.w3.org/1999/xlink" x="0px"
	 y="0px" viewBox="0 0 19 19" style="enable-background:new 0 0 19 19;" xml:space="preserve">
<style type="text/css">
	.st0{fill:#333333;}
</style>
<g transform="translate(743.928 -783.485)">
	<path class="st0" d="M-740.6,802.5c-0.4,0-0.7-0.1-1-0.4c-0.3-0.3-0.4-0.6-0.4-1v-11.1h1.5v11h12.2v-11h1.5v11.1
		c0,0.3-0.1,0.7-0.4,0.9c-0.3,0.3-0.6,0.4-1,0.4L-740.6,802.5z M-728.3,801.1L-728.3,801.1z M-740.5,801.1L-740.5,801.1z"/>
	<path class="st0" d="M-725.7,792.7c-0.2,0-0.4-0.1-0.5-0.2l-8.3-7.6l-8.3,7.6c-0.3,0.3-0.8,0.3-1,0c0,0,0,0,0,0
		c-0.3-0.3-0.3-0.8,0-1c0,0,0,0,0,0l8.4-7.6c0.5-0.5,1.3-0.5,1.8,0l8.4,7.6c0.3,0.3,0.3,0.7,0,1c0,0,0,0,0,0
		C-725.3,792.7-725.5,792.7-725.7,792.7z M-734.5,784.9L-734.5,784.9z M-734.3,784.9L-734.3,784.9z"/>
	<path class="st0" d="M-731.7,801.8h-1.5v-6.1h-2.4v6.1h-1.5v-6.8c0-0.4,0.3-0.7,0.7-0.7c0,0,0,0,0,0h3.9c0.4,0,0.7,0.3,0.7,0.7
		c0,0,0,0,0,0L-731.7,801.8z"/>
</g>
</svg>
