<svg xmlns="http://www.w3.org/2000/svg" width="19" height="16" viewBox="0 0 19 16"><defs><style>.a{fill:#333;}</style></defs><path class="a" d="M8.5,26.75a2,2,0,1,1-2-2,2,2,0,0,1,2,2Z" transform="translate(-4.5 -12.75)"/><path class="a" d="M8.5,26.75a2,2,0,1,1-2-2,2,2,0,0,1,2,2Z" transform="translate(-4.5 -18.75)"/><path class="a" d="M8.5,26.75a2,2,0,1,1-2-2,2,2,0,0,1,2,2Z" transform="translate(-4.5 -24.75)"/><path class="a" d="M24.577,25.594H13.1a1.037,1.037,0,0,0,0,2H24.577a1.037,1.037,0,0,0,0-2Z" transform="translate(-6.34 -12.594)"/><path class="a" d="M24.577,25.594H13.1a1.037,1.037,0,0,0,0,2H24.577a1.037,1.037,0,0,0,0-2Z" transform="translate(-6.34 -18.594)"/><path class="a" d="M24.577,25.594H13.1a1.037,1.037,0,0,0,0,2H24.577a1.037,1.037,0,0,0,0-2Z" transform="translate(-6.34 -24.594)"/></svg>