<svg xmlns="http://www.w3.org/2000/svg" width="18" height="17.999" viewBox="0 0 18 17.999">
  <g id="아이콘_수강신청" transform="translate(771.394 -782.624)">
    <g id="패스_41" data-name="패스 41" transform="translate(-766.834 782.624)">
      <path id="패스_1237" data-name="패스 1237" d="M-757.3,784.35l2.436,2.437-7.839,7.836h-2.435v-2.436l7.837-7.836m0-1.726a.747.747,0,0,0-.53.219l-8.529,8.527a.752.752,0,0,0-.219.531v3.412a.749.749,0,0,0,.749.75h3.412a.749.749,0,0,0,.53-.22l8.529-8.527a.75.75,0,0,0,0-1.06l-3.412-3.413a.75.75,0,0,0-.531-.219Z" transform="translate(766.58 -782.624)" fill="#29de95"/>
    </g>
    <g id="그룹_598" data-name="그룹 598" transform="translate(-771.394 783.824)">
      <path id="패스_1238" data-name="패스 1238" d="M-757.311,800.69h-11.366a2.721,2.721,0,0,1-2.717-2.717V786.607a2.72,2.72,0,0,1,2.717-2.716h4.723a.72.72,0,0,1,.72.72.721.721,0,0,1-.72.72h-4.723a1.278,1.278,0,0,0-1.277,1.276v11.366a1.279,1.279,0,0,0,1.277,1.277h11.366a1.279,1.279,0,0,0,1.277-1.277v-4.722a.72.72,0,0,1,.72-.72.72.72,0,0,1,.72.72v4.722A2.721,2.721,0,0,1-757.311,800.69Z" transform="translate(771.394 -783.891)" fill="#29de95"/>
    </g>
  </g>
</svg>
