<svg xmlns="http://www.w3.org/2000/svg" width="22" height="22" viewBox="0 0 22 22">
  <g id="그룹_2922" data-name="그룹 2922" transform="translate(-1229 -118)">
    <g id="그룹_2921" data-name="그룹 2921" transform="translate(1086 -19)">
      <g id="그룹_658" data-name="그룹 658" transform="translate(143 137)">
        <g id="타원_15" data-name="타원 15" fill="none" stroke="#ddd" stroke-width="1">
          <circle cx="11" cy="11" r="11" stroke="none"/>
          <circle cx="11" cy="11" r="10.5" fill="none"/>
        </g>
      </g>
      <g id="그룹_678" data-name="그룹 678" transform="translate(146.385 140.385)">
        <g id="패스_1265" data-name="패스 1265" transform="translate(766.308 -746)" fill="none">
          <path d="M-758.692,753.615a3.812,3.812,0,0,1-3.808-3.808A3.812,3.812,0,0,1-758.692,746a3.812,3.812,0,0,1,3.808,3.808A3.812,3.812,0,0,1-758.692,753.615Z" stroke="none"/>
          <path d="M -758.6923217773438 752.6153564453125 C -757.1441040039062 752.6153564453125 -755.8845825195312 751.3558349609375 -755.8845825195312 749.8076782226562 C -755.8845825195312 748.259521484375 -757.1441040039062 747 -758.6923217773438 747 C -760.240478515625 747 -761.5 748.259521484375 -761.5 749.8076782226562 C -761.5 751.3558349609375 -760.240478515625 752.6153564453125 -758.6923217773438 752.6153564453125 M -758.6923217773438 753.6153564453125 C -760.7916870117188 753.6153564453125 -762.5 751.9070434570312 -762.5 749.8076782226562 C -762.5 747.7084350585938 -760.7916870117188 746 -758.6923217773438 746 C -756.5929565429688 746 -754.8845825195312 747.7084350585938 -754.8845825195312 749.8076782226562 C -754.8845825195312 751.9070434570312 -756.5929565429688 753.6153564453125 -758.6923217773438 753.6153564453125 Z" stroke="none" fill="#ddd"/>
        </g>
        <path id="패스_1266" data-name="패스 1266" d="M-767,762.615A7.624,7.624,0,0,1-759.385,755a7.624,7.624,0,0,1,7.615,7.615" transform="translate(767 -747.385)" fill="none" stroke="#ddd" stroke-width="1"/>
      </g>
    </g>
    <g id="그룹_2920" data-name="그룹 2920" transform="translate(-9 -3)">
      <g id="타원_40" data-name="타원 40" transform="translate(1249 132)" fill="#494949" stroke="#dcdcdc" stroke-width="1">
        <circle cx="5.5" cy="5.5" r="5.5" stroke="none"/>
        <circle cx="5.5" cy="5.5" r="5" fill="none"/>
      </g>
      <rect id="사각형_274" data-name="사각형 274" width="5" height="1" transform="translate(1252 137)" fill="#dcdcdc"/>
      <rect id="사각형_275" data-name="사각형 275" width="5" height="1" transform="translate(1255 135) rotate(90)" fill="#dcdcdc"/>
    </g>
  </g>
</svg>
