<?xml version="1.0" encoding="utf-8"?>
<!-- Generator: Adobe Illustrator 24.2.3, SVG Export Plug-In . SVG Version: 6.00 Build 0)  -->
<svg version="1.1" id="Layer_2" xmlns="http://www.w3.org/2000/svg" xmlns:xlink="http://www.w3.org/1999/xlink" x="0px" y="0px"
	 viewBox="0 0 32 32" style="enable-background:new 0 0 32 32;" xml:space="preserve">
<style type="text/css">
	.st0{fill:#DDDDDD;}
</style>
<g>
	<path class="st0" d="M16,6.4c-6.3,0-12.1,3.4-15.3,8.8c-0.3,0.5-0.3,1,0,1.5c3.1,5.4,9,8.8,15.3,8.8s12.1-3.4,15.3-8.8
		c0.3-0.5,0.3-1,0-1.5C28.1,9.8,22.3,6.4,16,6.4z M16,21.9c-3.3,0-5.9-2.7-5.9-5.9s2.7-5.9,5.9-5.9s5.9,2.7,5.9,5.9
		S19.3,21.9,16,21.9z"/>
	<circle class="st0" cx="16" cy="16" r="2.9"/>
</g>
</svg>
