<svg xmlns="http://www.w3.org/2000/svg" width="56.414" height="51.4" viewBox="0 0 56.414 51.4"><defs><style>.a,.b,.c,.f{fill:none;}.a{stroke:#333;}.a,.b{stroke-linecap:round;}.a,.b,.c{stroke-linejoin:round;stroke-width:2px;}.b,.c{stroke:#0e935d;}.d{fill:#0e935d;}.e{stroke:none;}</style></defs><g transform="translate(-551 -1435)"><path class="a" d="M574.19,1476H558.476a6.475,6.475,0,0,1-6.476-6.476v-27.048a6.475,6.475,0,0,1,6.476-6.476h27.048a6.475,6.475,0,0,1,6.476,6.476v9.81"/><line class="a" x2="20" transform="translate(565 1443)"/><line class="a" x2="1" transform="translate(559 1443)"/><line class="a" x2="20" transform="translate(565 1449)"/><line class="a" x2="1" transform="translate(559 1449)"/><line class="a" x2="5" transform="translate(565 1455)"/><line class="a" x2="1" transform="translate(559 1455)"/><line class="a" x2="5" transform="translate(565 1461)"/><line class="a" x2="1" transform="translate(559 1461)"/><line class="a" x2="5" transform="translate(565 1467)"/><line class="a" x2="1" transform="translate(559 1467)"/><g class="b" transform="translate(577 1457)"><circle class="e" cx="14" cy="14" r="14"/><circle class="f" cx="14" cy="14" r="13"/></g><g class="b" transform="translate(581 1461)"><circle class="e" cx="10" cy="10" r="10"/><circle class="f" cx="10" cy="10" r="9"/></g><path class="b" d="M597,1454.262a5.5,5.5,0,0,1,7.738,7.738Z"/><line class="c" x1="2" y2="2" transform="translate(599 1458)"/><line class="b" x1="1" y2="1" transform="translate(605 1453)"/><path class="b" d="M585,1454.262a5.5,5.5,0,0,0-7.738,7.738Z"/><line class="c" x2="2" y2="2" transform="translate(581 1458)"/><line class="b" x2="1" y2="1" transform="translate(576 1453)"/><line class="b" y1="4" x2="3" transform="translate(579 1481)"/><line class="b" x1="3" y1="4" transform="translate(600 1481)"/><circle class="d" cx="2" cy="2" r="2" transform="translate(589 1469)"/><line class="b" x2="5" transform="translate(591 1471)"/><line class="b" y1="7" transform="translate(591 1464)"/></g></svg>