<svg xmlns="http://www.w3.org/2000/svg" width="57.398" height="50" viewBox="0 0 57.398 50"><defs><style>.a,.b,.c,.e{fill:none;}.a{stroke:#333;}.a,.b{stroke-linecap:round;stroke-linejoin:round;}.a,.b,.c{stroke-width:2px;}.b,.c{stroke:#0e935d;}.c{stroke-miterlimit:10;}.d{stroke:none;}</style></defs><g transform="translate(-621 -1435)"><path class="a" d="M644.19,1476H628.476a6.475,6.475,0,0,1-6.476-6.476v-27.048a6.475,6.475,0,0,1,6.476-6.476h27.048a6.475,6.475,0,0,1,6.476,6.476v9.81"/><line class="a" x2="20" transform="translate(635 1443)"/><line class="a" x2="1" transform="translate(629 1443)"/><line class="a" x2="20" transform="translate(635 1449)"/><line class="a" x2="1" transform="translate(629 1449)"/><line class="a" x2="5" transform="translate(635 1455)"/><line class="a" x2="1" transform="translate(629 1455)"/><line class="a" x2="5" transform="translate(635 1461)"/><line class="a" x2="1" transform="translate(629 1461)"/><line class="a" x2="5" transform="translate(635 1467)"/><line class="a" x2="1" transform="translate(629 1467)"/><path class="b" d="M670,1484v-14l6.774-8.042a1.771,1.771,0,0,0-.124-2.5h0a1.77,1.77,0,0,0-2.5.124L669,1466H655l-5.424-6.418a1.77,1.77,0,0,0-2.5-.124h0a1.771,1.771,0,0,0-.124,2.5L654,1470v14"/><path class="b" d="M664,1466l-2,4v14"/><g class="c" transform="translate(654 1456)"><circle class="d" cx="3.5" cy="3.5" r="3.5"/><circle class="e" cx="3.5" cy="3.5" r="2.5"/></g><g class="c" transform="translate(663 1456)"><circle class="d" cx="3.5" cy="3.5" r="3.5"/><circle class="e" cx="3.5" cy="3.5" r="2.5"/></g></g></svg>