<svg xmlns="http://www.w3.org/2000/svg" width="40" height="34" viewBox="0 0 40 34"><defs><style>.a{fill:#fff;}.b,.d{fill:none;stroke:#333;stroke-linecap:round;stroke-width:2px;}.b{stroke-linejoin:round;}.c{fill:#49b68a;}.c,.d{stroke-miterlimit:10;}.e,.f{stroke:none;}.f{fill:#333;}</style></defs><g transform="translate(742 -476)"><path class="a" d="M3.4,0H28.9a3.4,3.4,0,0,1,3.4,3.4V17.425C32.3,19.3,23.128,32.3,21.25,32.3H3.4A3.4,3.4,0,0,1,0,28.9V3.4A3.4,3.4,0,0,1,3.4,0Z" transform="translate(-741.1 476)"/><line class="b" x2="18" transform="translate(-734 484)"/><line class="b" x2="17" transform="translate(-734 489)"/><line class="b" x2="8" transform="translate(-734 494)"/><line class="b" x2="8" transform="translate(-734 499)"/><g class="c" transform="translate(-602.667 -307.624)"><path class="e" d="M -115.0333862304688 816.6240844726562 L -120.3330001831055 816.6240844726562 L -120.3330001831055 811.324462890625 C -120.3330001831055 810.8079223632812 -120.123649597168 810.3023681640625 -119.7586288452148 809.9373779296875 L -106.5611114501953 796.7398071289062 C -106.4602432250977 796.6392822265625 -106.3421096801758 796.6240844726562 -106.2807693481445 796.6240844726562 C -106.219612121582 796.6240844726562 -106.1019744873047 796.6390991210938 -106.0012817382812 796.7398071289062 L -100.4487533569336 802.29150390625 C -100.2947845458984 802.4456787109375 -100.2945404052734 802.6970825195312 -100.4487609863281 802.8512573242188 L -113.6471099853516 816.0496215820312 C -114.0175552368164 816.4201049804688 -114.5098724365234 816.6240844726562 -115.0333862304688 816.6240844726562 Z"/><path class="f" d="M -106.2811584472656 797.8740844726562 L -119.0515823364258 810.64453125 C -119.2304306030273 810.8233642578125 -119.3330001831055 811.0711669921875 -119.3330001831055 811.324462890625 L -119.3330001831055 815.6240844726562 L -115.0333862304688 815.6240844726562 C -114.7807006835938 815.6240844726562 -114.5331726074219 815.521484375 -114.3542098999023 815.342529296875 L -101.583137512207 802.5714111328125 L -106.2811584472656 797.8740844726562 M -106.2807693481445 795.6240844726562 C -105.9237060546875 795.6240844726562 -105.5666122436523 795.76025390625 -105.2941589355469 796.03271484375 L -99.74169921875 801.5843505859375 C -99.19678497314453 802.1300659179688 -99.19678497314453 803.0135498046875 -99.74169921875 803.5584106445312 L -112.9400024414062 816.7567138671875 C -113.4950790405273 817.3118286132812 -114.2481536865234 817.6240844726562 -115.0333862304688 817.6240844726562 L -121.3330001831055 817.6240844726562 L -121.3330001831055 811.324462890625 C -121.3330001831055 810.5391845703125 -121.0207595825195 809.7852172851562 -120.465690612793 809.230224609375 L -107.2682189941406 796.03271484375 C -106.9949188232422 795.76025390625 -106.6378555297852 795.6240844726562 -106.2807693481445 795.6240844726562 Z"/></g><path class="d" d="M-128.22,813.624h-12.225a3.173,3.173,0,0,1-2.888-3.4V785.022a3.174,3.174,0,0,1,2.888-3.4h26.223a3.174,3.174,0,0,1,2.888,3.4v6.148" transform="translate(-597.667 -304.624)"/></g></svg>