<svg xmlns="http://www.w3.org/2000/svg" width="40" height="35" viewBox="0 0 40 35">
  <g id="학원전문가상담" transform="translate(-160 -4199)">
    <g id="패스_1302" data-name="패스 1302" fill="#fff">
      <path d="M 197.3762054443359 4233.24951171875 L 162.6237030029297 4233.24951171875 C 161.5905456542969 4233.24951171875 160.75 4232.37158203125 160.75 4231.29296875 L 160.75 4204.705078125 C 160.75 4203.62646484375 161.5905456542969 4202.7490234375 162.6237030029297 4202.7490234375 L 167.8527984619141 4202.7490234375 L 192.1472930908203 4202.7490234375 L 197.3762054443359 4202.7490234375 C 198.4093627929688 4202.7490234375 199.2498931884766 4203.62646484375 199.2498931884766 4204.705078125 L 199.2498931884766 4231.29296875 C 199.2498931884766 4232.37158203125 198.4093627929688 4233.24951171875 197.3762054443359 4233.24951171875 Z" stroke="none"/>
      <path d="M 162.6236877441406 4203.4990234375 C 162.0040588378906 4203.4990234375 161.4999847412109 4204.0400390625 161.4999847412109 4204.705078125 L 161.4999847412109 4231.29296875 C 161.4999847412109 4231.95849609375 162.0040588378906 4232.49951171875 162.6236877441406 4232.49951171875 L 197.3761901855469 4232.49951171875 C 197.9958190917969 4232.49951171875 198.4998931884766 4231.95849609375 198.4998931884766 4231.29296875 L 198.4998931884766 4204.705078125 C 198.4998931884766 4204.0400390625 197.9958190917969 4203.4990234375 197.3761901855469 4203.4990234375 L 162.6236877441406 4203.4990234375 M 162.6236877441406 4201.9990234375 L 197.3761901855469 4201.9990234375 C 198.8251037597656 4201.9990234375 199.9998931884766 4203.2109375 199.9998931884766 4204.705078125 L 199.9998931884766 4231.29296875 C 199.9998931884766 4232.78759765625 198.8251037597656 4233.99951171875 197.3761901855469 4233.99951171875 L 162.6236877441406 4233.99951171875 C 161.1748962402344 4233.99951171875 159.9999847412109 4232.78759765625 159.9999847412109 4231.29296875 L 159.9999847412109 4204.705078125 C 159.9999847412109 4203.2109375 161.1748962402344 4201.9990234375 162.6236877441406 4201.9990234375 Z" stroke="none" fill="#333"/>
    </g>
    <line id="선_45" data-name="선 45" transform="translate(180 4221)" fill="none" stroke="#333" stroke-linecap="round" stroke-width="2"/>
    <line id="선_46" data-name="선 46" transform="translate(180 4226)" fill="none" stroke="#333" stroke-linecap="round" stroke-width="2"/>
    <path id="패스_1300" data-name="패스 1300" d="M170,4219.833l2-.833v9" fill="none" stroke="#333" stroke-linecap="round" stroke-width="2"/>
    <path id="패스_1301" data-name="패스 1301" d="M187,4219.833l2-.833v9" fill="none" stroke="#333" stroke-linecap="round" stroke-width="2"/>
    <g id="사각형_126" data-name="사각형 126" fill="#0e935d">
      <path d="M 199.2498931884766 4213.2490234375 L 160.75 4213.2490234375 L 160.75 4204.99951171875 C 160.75 4203.7587890625 161.7345733642578 4202.7490234375 162.9447937011719 4202.7490234375 L 197.0550994873047 4202.7490234375 C 198.2653045654297 4202.7490234375 199.2498931884766 4203.7587890625 199.2498931884766 4204.99951171875 L 199.2498931884766 4213.2490234375 Z" stroke="none"/>
      <path d="M 162.9447784423828 4203.4990234375 C 162.1481018066406 4203.4990234375 161.4999847412109 4204.17236328125 161.4999847412109 4204.99951171875 L 161.4999847412109 4212.4990234375 L 198.4998931884766 4212.4990234375 L 198.4998931884766 4204.99951171875 C 198.4998931884766 4204.17236328125 197.8517761230469 4203.4990234375 197.0550994873047 4203.4990234375 L 162.9447784423828 4203.4990234375 M 162.9447784423828 4201.9990234375 L 197.0550994873047 4201.9990234375 C 198.6816864013672 4201.9990234375 199.9998931884766 4203.34228515625 199.9998931884766 4204.99951171875 L 199.9998931884766 4213.9990234375 L 159.9999847412109 4213.9990234375 L 159.9999847412109 4204.99951171875 C 159.9999847412109 4203.34228515625 161.3183135986328 4201.9990234375 162.9447784423828 4201.9990234375 Z" stroke="none" fill="#333"/>
    </g>
    <g id="사각형_125" data-name="사각형 125" transform="translate(169 4199)" fill="#fff" stroke="#333" stroke-linecap="round" stroke-width="1.5">
      <rect width="6" height="10" rx="3" stroke="none"/>
      <rect x="0.75" y="0.75" width="4.5" height="8.5" rx="2.25" fill="none"/>
    </g>
    <g id="사각형_1181" data-name="사각형 1181" transform="translate(186 4199)" fill="#fff" stroke="#333" stroke-linecap="round" stroke-width="1.5">
      <rect width="6" height="10" rx="3" stroke="none"/>
      <rect x="0.75" y="0.75" width="4.5" height="8.5" rx="2.25" fill="none"/>
    </g>
  </g>
</svg>
