<svg xmlns="http://www.w3.org/2000/svg" width="52" height="46" viewBox="0 0 52 46"><defs><style>.a{fill:#0e935d;}.b,.c{fill:none;stroke-linecap:round;stroke-linejoin:round;stroke-width:2px;}.b{stroke:#333;}.c{stroke:#0e935d;}</style></defs><g transform="translate(-761 -1435)"><circle class="a" cx="1.5" cy="1.5" r="1.5" transform="translate(793 1465)"/><circle class="a" cx="1.5" cy="1.5" r="1.5" transform="translate(798 1465)"/><circle class="a" cx="1.5" cy="1.5" r="1.5" transform="translate(803 1465)"/><path class="b" d="M784.19,1476H768.476a6.475,6.475,0,0,1-6.476-6.476v-27.048a6.475,6.475,0,0,1,6.476-6.476h27.048a6.475,6.475,0,0,1,6.476,6.476v9.81"/><line class="b" x2="20" transform="translate(775 1443)"/><line class="b" x2="1" transform="translate(769 1443)"/><line class="b" x2="20" transform="translate(775 1449)"/><line class="b" x2="1" transform="translate(769 1449)"/><line class="b" x2="5" transform="translate(775 1455)"/><line class="b" x2="1" transform="translate(769 1455)"/><line class="b" x2="5" transform="translate(775 1461)"/><line class="b" x2="1" transform="translate(769 1461)"/><line class="b" x2="5" transform="translate(775 1467)"/><line class="b" x2="1" transform="translate(769 1467)"/><path class="c" d="M799.816,1456a10.094,10.094,0,0,0-10.185,10,9.8,9.8,0,0,0,1.185,4.675L788,1476l5.925-1.847-.007-.01a10.253,10.253,0,0,0,5.9,1.857,10,10,0,1,0,0-20Z"/><path class="c" d="M810.187,1467a8.3,8.3,0,0,1,.242,8.436L812,1480l-4.283-1.583.006-.009a9.052,9.052,0,0,1-5.145,1.592c-3.206,0-7.015-2.544-8.578-5"/></g></svg>