<svg xmlns="http://www.w3.org/2000/svg" width="55" height="50.029" viewBox="0 0 55 50.029"><defs><style>.a,.b{fill:none;stroke-width:2px;}.a{stroke:#333;stroke-linecap:round;stroke-linejoin:round;}.b{stroke:#0e935d;stroke-miterlimit:10;}</style></defs><g transform="translate(-691 -1435)"><path class="a" d="M714.19,1476H698.476a6.475,6.475,0,0,1-6.476-6.476v-27.048a6.475,6.475,0,0,1,6.476-6.476h27.048a6.475,6.475,0,0,1,6.476,6.476v9.81"/><line class="a" x2="20" transform="translate(705 1443)"/><line class="a" x2="1" transform="translate(699 1443)"/><line class="a" x2="20" transform="translate(705 1449)"/><line class="a" x2="1" transform="translate(699 1449)"/><line class="a" x2="5" transform="translate(705 1455)"/><line class="a" x2="1" transform="translate(699 1455)"/><line class="a" x2="5" transform="translate(705 1461)"/><line class="a" x2="1" transform="translate(699 1461)"/><line class="a" x2="5" transform="translate(705 1467)"/><line class="a" x2="1" transform="translate(699 1467)"/><path class="b" d="M730,1456a15.017,15.017,0,0,1,15,15"/><path class="b" d="M730,1460.813A10.2,10.2,0,0,1,740.187,1471"/><path class="b" d="M730,1466.174a4.832,4.832,0,0,1,4.827,4.826"/><path class="b" d="M740.986,1479.545a1.78,1.78,0,0,1-.46.986l-1.745,1.749c-5.951,4.983-13.508-2.439-13.583-2.514l-3.952-3.954c-.075-.076-7.5-7.631-2.54-13.561l1.775-1.777a1.78,1.78,0,0,1,.986-.46,1.731,1.731,0,0,1,.211-.014.906.906,0,0,1,.631.2l3.693,4.261a1.137,1.137,0,0,1,0,1.6l-1.348,1.348a3.782,3.782,0,0,0-.715,1.034,4.849,4.849,0,0,0,1.263,5.1l2.27,2.271a4.832,4.832,0,0,0,5.11,1.24,3.791,3.791,0,0,0,1.019-.716l1.335-1.336a1.147,1.147,0,0,1,1.627.022l4.221,3.66A1.042,1.042,0,0,1,740.986,1479.545Z"/></g></svg>