<svg xmlns="http://www.w3.org/2000/svg" width="40" height="35" viewBox="0 0 40 35"><defs><style>.a,.c{fill:#fff;}.a,.b,.c{stroke-linecap:round;}.b{fill:#49b68a;}.c{stroke:#333;stroke-linejoin:round;stroke-width:2px;}.d{fill:#333;}.e,.f{stroke:none;}.f{fill:#333;}.g{fill:none;}</style></defs><g transform="translate(597 -475)"><g class="a" transform="translate(-605 475)"><path class="e" d="M 38 34 L 12 34 C 10.34578990936279 34 9 32.65420913696289 9 31 L 9 7 C 9 5.345789909362793 10.34578990936279 4 12 4 L 38 4 C 39.65420913696289 4 41 5.345789909362793 41 7 L 41 31 C 41 32.65420913696289 39.65420913696289 34 38 34 Z"/><path class="f" d="M 12 5 C 10.89720153808594 5 10 5.897201538085938 10 7 L 10 31 C 10 32.10279846191406 10.89720153808594 33 12 33 L 38 33 C 39.10279846191406 33 40 32.10279846191406 40 31 L 40 7 C 40 5.897201538085938 39.10279846191406 5 38 5 L 12 5 M 12 3 L 38 3 C 40.20914077758789 3 42 4.790859222412109 42 7 L 42 31 C 42 33.20914077758789 40.20914077758789 35 38 35 L 12 35 C 9.790859222412109 35 8 33.20914077758789 8 31 L 8 7 C 8 4.790859222412109 9.790859222412109 3 12 3 Z"/></g><g class="b" transform="translate(-605 478)"><path class="e" d="M 41 11 L 9 11 L 9 4 C 9 2.345789909362793 10.34578990936279 1 12 1 L 38 1 C 39.65420913696289 1 41 2.345789909362793 41 4 L 41 11 Z"/><path class="f" d="M 12 2 C 10.89720153808594 2 10 2.897199630737305 10 4 L 10 10 L 40 10 L 40 4 C 40 2.897199630737305 39.10279846191406 2 38 2 L 12 2 M 12 0 L 38 0 C 40.20914077758789 0 42 1.790860176086426 42 4 L 42 12 L 8 12 L 8 4 C 8 1.790860176086426 9.790859222412109 0 12 0 Z"/></g><g class="c" transform="translate(-584 475) rotate(90)"><rect class="e" width="10" height="6" rx="3"/><rect class="g" x="1" y="1" width="8" height="4" rx="2"/></g><g class="c" transform="translate(-570 475) rotate(90)"><rect class="e" width="10" height="6" rx="3"/><rect class="g" x="1" y="1" width="8" height="4" rx="2"/></g><g class="c" transform="translate(-575 492)"><circle class="e" cx="9" cy="9" r="9"/><circle class="g" cx="9" cy="9" r="8"/></g><g transform="translate(-571 496)"><path class="d" d="M-197.489,1168.749a.712.712,0,0,1-.183.391l-.692.694c-2.36,1.975-5.356-.967-5.386-1l-1.567-1.568c-.029-.03-2.973-3.025-1.007-5.376l.7-.7a.7.7,0,0,1,.39-.182.563.563,0,0,1,.084-.006.355.355,0,0,1,.25.081l1.465,1.689a.451.451,0,0,1,0,.636l-.535.535a1.517,1.517,0,0,0-.284.41,1.924,1.924,0,0,0,.5,2.022l.9.9a1.915,1.915,0,0,0,2.026.491,1.5,1.5,0,0,0,.4-.284l.529-.529a.455.455,0,0,1,.645.009l1.673,1.451A.416.416,0,0,1-197.489,1168.749Z" transform="translate(207 -1161)"/></g></g></svg>