<svg xmlns="http://www.w3.org/2000/svg" width="46" height="35" viewBox="0 0 46 35"><defs><style>.a,.b{fill:#fff;}.a,.b,.c,.d{stroke-linejoin:round;}.b,.d{stroke:#333;stroke-width:2px;}.c,.d{fill:#49b68a;}.e,.f{stroke:none;}.f{fill:#333;}.g{fill:none;}</style></defs><g transform="translate(652 -475)"><g transform="translate(194 -1469)"><g class="a"><path class="e" d="M -823.1090698242188 1959 L -837.8909301757812 1959 C -837.2756958007812 1955.563110351562 -834.2113647460938 1952 -830.5 1952 C -826.7886352539062 1952 -823.7243041992188 1955.563110351562 -823.1090698242188 1959 Z"/><path class="f" d="M -830.5 1953 C -832.630615234375 1953 -834.1962890625 1954.39892578125 -834.93994140625 1955.23291015625 C -835.6700439453125 1956.051635742188 -836.2373657226562 1957.013916015625 -836.5908203125 1958 L -824.4091796875 1958 C -824.7626342773438 1957.013916015625 -825.3299560546875 1956.051635742188 -826.06005859375 1955.23291015625 C -826.8037109375 1954.39892578125 -828.369384765625 1953 -830.5 1953 M -830.5 1951 C -825.8820190429688 1951 -822.1309814453125 1955.738037109375 -822 1960 L -839 1960 C -838.8690185546875 1955.738037109375 -835.1179809570312 1951 -830.5 1951 Z"/></g><g class="b" transform="translate(-835 1944)"><circle class="e" cx="4.5" cy="4.5" r="4.5"/><circle class="g" cx="4.5" cy="4.5" r="3.5"/></g></g><g transform="translate(194 -1469)"><g class="a"><path class="e" d="M -808.1090698242188 1959 L -822.8909301757812 1959 C -822.2756958007812 1955.563110351562 -819.2113647460938 1952 -815.5 1952 C -811.7886352539062 1952 -808.7243041992188 1955.563110351562 -808.1090698242188 1959 Z"/><path class="f" d="M -815.5 1953 C -817.630615234375 1953 -819.1962890625 1954.39892578125 -819.93994140625 1955.23291015625 C -820.6700439453125 1956.051635742188 -821.2373657226562 1957.013916015625 -821.5908203125 1958 L -809.4091796875 1958 C -809.7626342773438 1957.013916015625 -810.3299560546875 1956.051635742188 -811.06005859375 1955.23291015625 C -811.8037109375 1954.39892578125 -813.369384765625 1953 -815.5 1953 M -815.5 1951 C -810.8820190429688 1951 -807.1309814453125 1955.738037109375 -807 1960 L -824 1960 C -823.8690185546875 1955.738037109375 -820.1179809570312 1951 -815.5 1951 Z"/></g><g class="b" transform="translate(-820 1944)"><circle class="e" cx="4.5" cy="4.5" r="4.5"/><circle class="g" cx="4.5" cy="4.5" r="3.5"/></g></g><g class="a" transform="translate(194 -1469.2)"><path class="e" d="M -803.7639770507812 1978.199951171875 L -842.2360229492188 1978.199951171875 C -843.2265625 1978.199951171875 -844.119384765625 1977.782104492188 -844.624267578125 1977.082153320312 C -844.9957885742188 1976.567138671875 -845.0951538085938 1975.967041015625 -844.9041137695312 1975.392456054688 L -844.8943481445312 1975.363037109375 L -844.8864135742188 1975.333129882812 L -840.9910278320312 1960.635375976562 C -840.6557006835938 1959.671142578125 -839.5670776367188 1959 -838.3319702148438 1959 L -807.6680297851562 1959 C -806.4329223632812 1959 -805.3443603515625 1959.671020507812 -805.0089721679688 1960.63525390625 L -801.1135864257812 1975.333129882812 L -801.1056518554688 1975.363037109375 L -801.0958862304688 1975.392456054688 C -800.9048461914062 1975.967041015625 -801.0042114257812 1976.567138671875 -801.375732421875 1977.082153320312 C -801.880615234375 1977.782104492188 -802.7734375 1978.199951171875 -803.7639770507812 1978.199951171875 Z"/><path class="f" d="M -838.3319702148438 1960 C -839.1201171875 1960 -839.8270263671875 1960.390380859375 -840.0357666015625 1960.934448242188 L -843.9197998046875 1975.589233398438 C -843.9303588867188 1975.629150390625 -843.9421997070312 1975.668823242188 -843.9552001953125 1975.7080078125 C -843.988525390625 1975.808227539062 -844.0900268554688 1976.113403320312 -843.813232421875 1976.497192382812 C -843.568115234375 1976.8369140625 -843.025146484375 1977.199951171875 -842.2360229492188 1977.199951171875 L -803.7639770507812 1977.199951171875 C -802.9749145507812 1977.199951171875 -802.431884765625 1976.8369140625 -802.186767578125 1976.497192382812 C -801.9099731445312 1976.113403320312 -802.011474609375 1975.808227539062 -802.0447998046875 1975.7080078125 C -802.0578002929688 1975.668823242188 -802.0696411132812 1975.629150390625 -802.0802001953125 1975.589233398438 L -805.9642333984375 1960.934448242188 C -806.1730346679688 1960.390380859375 -806.8799438476562 1960 -807.6680297851562 1960 L -838.3319702148438 1960 M -838.3319702148438 1958 L -807.6680297851562 1958 C -805.9879760742188 1958 -804.5120239257812 1958.957275390625 -804.051025390625 1960.346435546875 L -800.14697265625 1975.076904296875 C -799.4600219726562 1977.142822265625 -801.2650146484375 1979.199951171875 -803.7639770507812 1979.199951171875 L -842.2360229492188 1979.199951171875 C -844.7349853515625 1979.199951171875 -846.5399780273438 1977.142822265625 -845.85302734375 1975.076904296875 L -841.948974609375 1960.346435546875 C -841.4879760742188 1958.957275390625 -840.0120239257812 1958 -838.3319702148438 1958 Z"/></g><g transform="translate(195 -1473)"><g class="c"><path class="e" d="M -825.0955200195312 1982 L -840.9044799804688 1982 C -840.2994384765625 1978.096435546875 -837.0020141601562 1974 -833 1974 C -828.9979858398438 1974 -825.7005615234375 1978.096435546875 -825.0955200195312 1982 Z"/><path class="f" d="M -833 1975 C -835.2769165039062 1975 -836.9581298828125 1976.578247070312 -837.757568359375 1977.519165039062 C -838.624755859375 1978.53955078125 -839.2809448242188 1979.759399414062 -839.6539306640625 1981 L -826.3460693359375 1981 C -826.7190551757812 1979.759399414062 -827.375244140625 1978.53955078125 -828.242431640625 1977.519165039062 C -829.0418701171875 1976.578247070312 -830.7230834960938 1975 -833 1975 M -833 1973 C -828.1099853515625 1973 -824.1389770507812 1978.264038085938 -824 1983 L -842 1983 C -841.8610229492188 1978.264038085938 -837.8900146484375 1973 -833 1973 Z"/></g><g class="d" transform="translate(-838 1965)"><circle class="e" cx="5" cy="5" r="5"/><circle class="g" cx="5" cy="5" r="4"/></g></g><g transform="translate(193 -1473)"><g class="c"><path class="e" d="M -805.0955200195312 1982 L -820.9044799804688 1982 C -820.2994384765625 1978.096435546875 -817.0020141601562 1974 -813 1974 C -808.9979858398438 1974 -805.7005615234375 1978.096435546875 -805.0955200195312 1982 Z"/><path class="f" d="M -813 1975 C -815.2769165039062 1975 -816.9581298828125 1976.578247070312 -817.757568359375 1977.519165039062 C -818.624755859375 1978.53955078125 -819.2809448242188 1979.759399414062 -819.6539306640625 1981 L -806.3460693359375 1981 C -806.7190551757812 1979.759399414062 -807.375244140625 1978.53955078125 -808.242431640625 1977.519165039062 C -809.0418701171875 1976.578247070312 -810.7230834960938 1975 -813 1975 M -813 1973 C -808.1099853515625 1973 -804.1389770507812 1978.264038085938 -804 1983 L -822 1983 C -821.8610229492188 1978.264038085938 -817.8900146484375 1973 -813 1973 Z"/></g><g class="d" transform="translate(-818 1965)"><circle class="e" cx="5" cy="5" r="5"/><circle class="g" cx="5" cy="5" r="4"/></g></g></g></svg>