<svg xmlns="http://www.w3.org/2000/svg" width="32" height="35" viewBox="0 0 32 35"><defs><style>.a{fill:#fff;}.a,.b{stroke:#333;stroke-linejoin:round;stroke-width:2px;}.b{fill:#49b68a;stroke-linecap:round;}</style></defs><g transform="translate(251 -1206)"><path class="a" d="M-224.764,1227h-20.472L-250,1240h30Z"/><path class="b" d="M-235,1207c-6.627,0-11,4.626-11,11s11,17,11,17,11-10.626,11-17S-228.373,1207-235,1207Zm0,16a5,5,0,0,1-5-5,5,5,0,0,1,5-5,5,5,0,0,1,5,5A5,5,0,0,1-235,1223Z"/></g></svg>