<svg xmlns="http://www.w3.org/2000/svg" width="41" height="35" viewBox="0 0 41 35"><defs><style>.a{fill:#fff;}.b,.d{fill:#49b68a;}.b,.d,.e{stroke:#333;stroke-width:2px;}.c{fill:#333;}.d,.e{stroke-linecap:round;stroke-linejoin:round;}.e,.h{fill:none;}.f,.g{stroke:none;}.g{fill:#333;}</style></defs><g transform="translate(-618 -944)"><g class="a" transform="translate(-106.644 643.886)"><path class="f" d="M 756.2135009765625 334.1140441894531 L 728.0734252929688 334.1140441894531 C 726.7337646484375 334.1140441894531 725.6438598632812 332.7530517578125 725.6438598632812 331.0801696777344 L 725.6438598632812 311.7916870117188 L 725.6438598632812 304.1489562988281 C 725.6438598632812 302.4754943847656 726.7337646484375 301.1140441894531 728.0734252929688 301.1140441894531 L 756.2135009765625 301.1140441894531 C 757.5535888671875 301.1140441894531 758.6438598632812 302.4754943847656 758.6438598632812 304.1489562988281 L 758.6438598632812 331.0801696777344 C 758.6438598632812 332.7530517578125 757.5535888671875 334.1140441894531 756.2135009765625 334.1140441894531 Z"/><path class="g" d="M 756.2135009765625 333.1140441894531 C 756.9754638671875 333.1140441894531 757.6438598632812 332.1636352539062 757.6438598632812 331.0801696777344 L 757.6438598632812 304.1489562988281 C 757.6438598632812 303.06494140625 756.9754638671875 302.1140441894531 756.2135009765625 302.1140441894531 L 728.0734252929688 302.1140441894531 C 727.3118896484375 302.1140441894531 726.6438598632812 303.06494140625 726.6438598632812 304.1489562988281 L 726.6438598632812 331.0801696777344 C 726.6438598632812 332.1636352539062 727.3118896484375 333.1140441894531 728.0734252929688 333.1140441894531 L 756.2135009765625 333.1140441894531 M 756.2135009765625 335.1140441894531 L 728.0734252929688 335.1140441894531 C 726.1788940429688 335.1140441894531 724.6438598632812 333.3085632324219 724.6438598632812 331.0801696777344 L 724.6438598632812 304.1489562988281 C 724.6438598632812 301.9205932617188 726.1788940429688 300.1140441894531 728.0734252929688 300.1140441894531 L 756.2135009765625 300.1140441894531 C 758.1079711914062 300.1140441894531 759.6438598632812 301.9205932617188 759.6438598632812 304.1489562988281 L 759.6438598632812 331.0801696777344 C 759.6438598632812 333.3085632324219 758.1079711914062 335.1140441894531 756.2135009765625 335.1140441894531 Z"/></g><g class="b" transform="translate(618 955)"><path class="f" d="M0,0H5A2,2,0,0,1,7,2V13a2,2,0,0,1-2,2H0a0,0,0,0,1,0,0V0A0,0,0,0,1,0,0Z"/><rect class="h" x="1" y="1" width="5" height="13" rx="1"/></g><g transform="translate(3 4)"><rect class="c" width="12" height="2" rx="1" transform="translate(632 946)"/><rect class="c" width="12" height="2" rx="1" transform="translate(632 950)"/><rect class="c" width="12" height="2" rx="1" transform="translate(632 954)"/></g><g transform="translate(738 54)"><g class="d" transform="translate(-96 908)"><circle class="f" cx="8.5" cy="8.5" r="8.5"/><circle class="h" cx="8.5" cy="8.5" r="7.5"/></g><path class="e" d="M-90,916.667l3,3,4-5" transform="translate(-1 -0.667)"/></g></g></svg>