<svg xmlns="http://www.w3.org/2000/svg" width="58.001" height="42" viewBox="0 0 58.001 42"><defs><style>.a,.b,.c,.d,.e{fill:none;}.a,.c{stroke:#fff;stroke-width:2px;}.a,.c,.d{stroke-linecap:round;}.a,.d,.e{stroke-linejoin:round;}.b,.c{stroke-miterlimit:10;}.e{stroke:#55cf96;stroke-width:1.5px;}.f,.g,.h{stroke:none;}.g{fill:#fff;}.h{fill:#55cf96;}</style></defs><g transform="translate(-859 -2319)"><g transform="translate(326 1579)"><g transform="translate(677.333 -40.624)"><line class="a" x2="22" transform="translate(-135.333 791.624)"/><line class="a" x2="12" transform="translate(-135.333 797.624)"/><line class="a" x2="6" transform="translate(-135.333 803.624)"/><g transform="translate(-8)"><g class="b"><path class="f" d="M-103.544,795.624a1.644,1.644,0,0,1,1.166.483l6.562,6.561a1.65,1.65,0,0,1,0,2.333l-15.6,15.6a3.5,3.5,0,0,1-2.474,1.025h-7.445v-7.445a3.5,3.5,0,0,1,1.025-2.475l15.6-15.6A1.648,1.648,0,0,1-103.544,795.624Z"/><path class="g" d="M -103.5444869995117 797.7689208984375 L -118.8937911987305 813.1181640625 C -119.1729125976562 813.3973388671875 -119.3330001831055 813.7839965820312 -119.3330001831055 814.1790161132812 L -119.3330001831055 819.6240234375 L -113.8880004882812 819.6240234375 C -113.4936294555664 819.6240234375 -113.1073608398438 819.4639282226562 -112.8282089233398 819.1847534179688 L -97.47798156738281 803.8345336914062 L -103.5444869995117 797.7689208984375 M -103.5439987182617 795.6240234375 C -103.1220016479492 795.6240234375 -102.6999893188477 795.7849731445312 -102.3780059814453 796.1069946289062 L -95.81600189208984 802.6680297851562 C -95.17200469970703 803.31298828125 -95.17200469970703 804.3569946289062 -95.81600189208984 805.0009765625 L -111.4140014648438 820.5989990234375 C -112.0699996948242 821.2550048828125 -112.9599990844727 821.6240234375 -113.8880004882812 821.6240234375 L -121.3330001831055 821.6240234375 L -121.3330001831055 814.1790161132812 C -121.3330001831055 813.2509765625 -120.9640045166016 812.3599853515625 -120.3079986572266 811.7039794921875 L -104.7110061645508 796.1069946289062 C -104.3880004882812 795.7849731445312 -103.9660034179688 795.6240234375 -103.5439987182617 795.6240234375 Z"/></g></g><path class="c" d="M-133.333,819.624h-6.57c-1.9,0-3.43-1.806-3.43-4.034V785.659c0-2.229,1.535-4.035,3.43-4.035h31.14c1.894,0,3.43,1.806,3.43,4.035v4.3"/></g></g><g transform="translate(-326 1967)"><g transform="translate(1221.5 374)"><g class="d"><path class="f" d="M3.318,6H19.683A1.785,1.785,0,0,1,21.5,7.75v10.5A1.785,1.785,0,0,1,19.683,20H3.318A1.785,1.785,0,0,1,1.5,18.25V7.75A1.785,1.785,0,0,1,3.318,6Z"/><path class="h" d="M 3.318267822265625 7.499998092651367 C 3.145748138427734 7.499998092651367 2.999998092651367 7.61448860168457 2.999998092651367 7.749998092651367 L 2.999998092651367 18.25 C 2.999998092651367 18.3855094909668 3.145748138427734 18.5 3.318267822265625 18.5 L 19.68270874023438 18.5 C 19.85522842407227 18.5 20.00097846984863 18.3855094909668 20.00097846984863 18.25 L 20.00097846984863 7.749998092651367 C 20.00097846984863 7.61448860168457 19.85522842407227 7.499998092651367 19.68270874023438 7.499998092651367 L 3.318267822265625 7.499998092651367 M 3.318267822265625 5.999998092651367 L 19.68270874023438 5.999998092651367 C 20.68690872192383 5.999998092651367 21.50097846984863 6.783498764038086 21.50097846984863 7.749998092651367 L 21.50097846984863 18.25 C 21.50097846984863 19.21649932861328 20.68690872192383 20 19.68270874023438 20 L 3.318267822265625 20 C 2.314067840576172 20 1.499998092651367 19.21649932861328 1.499998092651367 18.25 L 1.499998092651367 7.749998092651367 C 1.499998092651367 6.783498764038086 2.314067840576172 5.999998092651367 3.318267822265625 5.999998092651367 Z"/></g><path class="e" d="M1.5,15h18" transform="translate(1 -4)"/></g><path class="e" d="M1.5,15h6" transform="translate(1225.5 374)"/><path class="e" d="M1.5,15h3" transform="translate(1234.5 374)"/></g></g></svg>