<svg xmlns="http://www.w3.org/2000/svg" width="43" height="35" viewBox="0 0 43 35"><defs><style>.a{fill:#49b68a;}.a,.b,.d{stroke:#333;stroke-width:2px;}.a,.b{stroke-linejoin:round;}.b,.d{fill:#fff;}.c{fill:#333;}.d{stroke-miterlimit:10;}.e{stroke:none;}.f{fill:none;}</style></defs><g transform="translate(154.5 -1204)"><rect class="a" width="18" height="12" rx="3.01" transform="translate(-142 1205)"/><g class="b" transform="translate(-144 1221)"><rect class="e" width="22" height="7"/><rect class="f" x="1" y="1" width="20" height="5"/></g><g class="b" transform="translate(-154 1232)"><path class="e" d="M3,0H5A3,3,0,0,1,8,3V7A0,0,0,0,1,8,7H0A0,0,0,0,1,0,7V3A3,3,0,0,1,3,0Z"/><path class="f" d="M3,1H5A2,2,0,0,1,7,3V5A1,1,0,0,1,6,6H2A1,1,0,0,1,1,5V3A2,2,0,0,1,3,1Z"/></g><rect class="c" width="2" height="21" transform="translate(-151 1212.5)"/><g class="b" transform="translate(-120 1232)"><path class="e" d="M3,0H5A3,3,0,0,1,8,3V7A0,0,0,0,1,8,7H0A0,0,0,0,1,0,7V3A3,3,0,0,1,3,0Z"/><path class="f" d="M3,1H5A2,2,0,0,1,7,3V5A1,1,0,0,1,6,6H2A1,1,0,0,1,1,5V3A2,2,0,0,1,3,1Z"/></g><rect class="c" width="2" height="21" transform="translate(-117 1212.5)"/><rect class="c" width="2" height="13" transform="translate(-141 1226)"/><rect class="c" width="2" height="13" transform="translate(-127 1226)"/><rect class="c" width="2" height="5" transform="translate(-139 1217.5)"/><rect class="c" width="2" height="5" transform="translate(-129 1217.5)"/><rect class="c" width="13" height="2" transform="translate(-139.5 1230)"/><g class="d" transform="translate(-152.5 1214)"><rect class="e" width="39" height="3"/><rect class="f" x="-1" y="-1" width="41" height="5"/></g></g></svg>