<svg xmlns="http://www.w3.org/2000/svg" width="28" height="22" viewBox="0 0 28 22"><defs><style>.a,.b{fill:#eee;}.a,.d{stroke:#333;}.a{stroke-width:1.5px;}.b,.d{stroke-miterlimit:10;}.c{fill:#333;}.d,.f{fill:none;}.d{stroke-width:2px;}.e,.g{stroke:none;}.g{fill:#333;}</style></defs><g transform="translate(-1107 -10)"><g class="a" transform="translate(1109 23)"><rect class="e" width="24" height="9"/><rect class="f" x="0.75" y="0.75" width="22.5" height="7.5"/></g><g class="b" transform="translate(-121 -539.188)"><path class="e" d="M 1247.25 570.4375 L 1236.753540039062 570.4375 L 1236.81591796875 557.0105590820312 L 1241.950561523438 554.9917602539062 L 1247.25 557.01318359375 L 1247.25 570.4375 Z"/><path class="g" d="M 1241.95458984375 555.7960205078125 L 1237.5634765625 557.5225219726562 L 1237.506958007812 569.6875 L 1246.5 569.6875 L 1246.5 557.5298461914062 L 1241.95458984375 555.7960205078125 M 1241.946411132812 554.1875 L 1247.721435546875 556.3903198242188 C 1247.89453125 556.5177001953125 1248 556.7391357421875 1248 556.977783203125 L 1248 571.1875 L 1236 571.1875 L 1236.066040039062 556.977783203125 C 1236.066040039062 556.7391357421875 1236.170532226562 556.5177001953125 1236.34375 556.3903198242188 L 1241.946411132812 554.1875 Z"/></g><path class="c" d="M1243.492,554.178v-1.821l4.457-1.852a.234.234,0,0,0-.013-.45l-5.134-1.877a.647.647,0,0,0-.691.592v5.408Z" transform="translate(-122.111 -538.178)"/><g transform="translate(1106.25 30.5)"><rect class="c" width="28" height="1.5" transform="translate(0.75)"/></g><line class="d" y2="2" transform="translate(1123 20)"/><line class="d" y2="2" transform="translate(1123 24)"/><line class="d" y2="2" transform="translate(1119 20)"/><line class="d" y2="2" transform="translate(1119 24)"/></g></svg>