<svg xmlns="http://www.w3.org/2000/svg" width="39.414" height="32.414" viewBox="0 0 39.414 32.414"><defs><style>.a,.h{fill:none;}.a,.c,.d,.e{stroke:#333;stroke-width:2px;}.a,.e{stroke-linecap:round;}.b,.d{fill:#fff;}.b,.d,.e{stroke-linejoin:round;}.c,.e{fill:#49b68a;}.c{stroke-miterlimit:10;}.f,.g{stroke:none;}.g{fill:#333;}</style></defs><g transform="translate(-365 -793)"><path class="a" d="M0,0,3,3" transform="translate(400 821)"/><g transform="translate(1151 317)"><g class="b" transform="translate(-1364.149 -246.9)"><path class="f" d="M 612.140625 749.900146484375 L 580.4722290039062 749.900146484375 C 579.7426147460938 749.900146484375 579.1489868164062 749.2860717773438 579.1489868164062 748.5313110351562 L 579.1489868164062 725.2687377929688 C 579.1489868164062 724.5140991210938 579.7426147460938 723.900146484375 580.4722290039062 723.900146484375 L 607.3947143554688 723.900146484375 C 611.1190185546875 723.900146484375 614.1489868164062 727.3641357421875 614.1489868164062 731.6219482421875 L 614.14892578125 744.7133178710938 L 612.140625 749.900146484375 Z"/><path class="g" d="M 611.4554443359375 748.900146484375 L 613.14892578125 744.5264892578125 L 613.1489868164062 731.6219482421875 C 613.1489868164062 727.91552734375 610.567626953125 724.900146484375 607.3947143554688 724.900146484375 L 580.4722290039062 724.900146484375 C 580.2940063476562 724.900146484375 580.1489868164062 725.0654907226562 580.1489868164062 725.2687377929688 L 580.1489868164062 748.5313110351562 C 580.1489868164062 748.7346801757812 580.2940063476562 748.900146484375 580.4722290039062 748.900146484375 L 611.4554443359375 748.900146484375 M 612.8257446289062 750.900146484375 L 580.4722290039062 750.900146484375 C 579.1890258789062 750.900146484375 578.1489868164062 749.8392944335938 578.1489868164062 748.5313110351562 L 578.1489868164062 725.2687377929688 C 578.1489868164062 723.9609375 579.1890258789062 722.900146484375 580.4722290039062 722.900146484375 L 607.3947143554688 722.900146484375 C 611.6767578125 722.900146484375 615.1489868164062 726.8048095703125 615.1489868164062 731.6219482421875 L 615.14892578125 744.900146484375 L 612.8257446289062 750.900146484375 Z"/></g><g class="c" transform="translate(-786 496)"><rect class="f" width="16" height="8"/><rect class="h" x="1" y="1" width="14" height="6"/></g><g transform="translate(-773 497)"><g class="b" transform="translate(574.493 -541)"><path class="f" d="M -557.98095703125 551 L -572.0048828125 551 C -572.5028686523438 551 -572.9674682617188 550.7719116210938 -573.2476196289062 550.389892578125 C -573.3855590820312 550.201904296875 -573.5935668945312 549.8125 -573.4375 549.317138671875 C -572.2906494140625 545.68115234375 -569.0216674804688 542 -564.992919921875 542 C -560.9642944335938 542 -557.6952514648438 545.68115234375 -556.5482177734375 549.3175048828125 C -556.3922729492188 549.8125 -556.6002807617188 550.201904296875 -556.7382202148438 550.389892578125 C -557.0183715820312 550.7719116210938 -557.4829711914062 551 -557.98095703125 551 Z"/><path class="g" d="M -564.992919921875 543 C -566.95849609375 543 -568.524169921875 544.0403442382812 -569.4915771484375 544.9131469726562 C -570.85107421875 546.1397094726562 -571.9137573242188 547.8106689453125 -572.4837036132812 549.6176147460938 C -572.4931640625 549.647705078125 -572.5108032226562 549.7036743164062 -572.4412841796875 549.7985229492188 C -572.4066162109375 549.8457641601562 -572.272705078125 550 -572.0048828125 550 L -557.98095703125 550 C -557.713134765625 550 -557.5792236328125 549.8457641601562 -557.5445556640625 549.7985229492188 C -557.4750366210938 549.7036743164062 -557.49267578125 549.647705078125 -557.5018920898438 549.6182861328125 C -558.0720825195312 547.8106689453125 -559.1348266601562 546.1397094726562 -560.4943237304688 544.9131469726562 C -561.461669921875 544.0403442382812 -563.0274047851562 543 -564.992919921875 543 M -564.992919921875 541 C -560.6260375976562 541 -556.9237060546875 544.8029174804688 -555.5945434570312 549.0166625976562 C -555.125 550.5071411132812 -556.34423828125 552 -557.98095703125 552 L -572.0048828125 552 C -573.6416015625 552 -574.86083984375 550.5071411132812 -574.3912963867188 549.0166625976562 C -573.0621948242188 544.8029174804688 -569.35986328125 541 -564.992919921875 541 Z"/></g></g><g class="d" transform="translate(-770 486)"><circle class="f" cx="6.5" cy="6.5" r="6.5"/><circle class="h" cx="6.5" cy="6.5" r="5.5"/></g><g class="e" transform="translate(-760 495)"><circle class="f" cx="6" cy="6" r="6"/><circle class="h" cx="6" cy="6" r="5"/></g></g></g></svg>