<svg xmlns="http://www.w3.org/2000/svg" width="51" height="45" viewBox="0 0 51 45"><defs><style>.a{fill:#fff;}.b,.d{fill:#49b68a;}.b,.d,.e{stroke:#333;stroke-width:2px;}.c{fill:#333;}.d,.e{stroke-linecap:round;stroke-linejoin:round;}.e,.h{fill:none;}.f,.g{stroke:none;}.g{fill:#333;}</style></defs><g transform="translate(-613 -939)"><g class="a" transform="translate(-106.644 643.886)"><path class="f" d="M 760.78466796875 339.1140441894531 L 723.5020751953125 339.1140441894531 C 721.926025390625 339.1140441894531 720.6438598632812 337.52685546875 720.6438598632812 335.5759582519531 L 720.6438598632812 308.2514038085938 L 720.6438598632812 299.6533203125 C 720.6438598632812 297.7017517089844 721.926025390625 296.1140441894531 723.5020751953125 296.1140441894531 L 760.78466796875 296.1140441894531 C 762.3612060546875 296.1140441894531 763.6438598632812 297.7017517089844 763.6438598632812 299.6533203125 L 763.6438598632812 335.5759582519531 C 763.6438598632812 337.52685546875 762.3612060546875 339.1140441894531 760.78466796875 339.1140441894531 Z"/><path class="g" d="M 760.78466796875 338.1140441894531 C 761.79248046875 338.1140441894531 762.6438598632812 336.9517517089844 762.6438598632812 335.5759582519531 L 762.6438598632812 299.6533203125 C 762.6438598632812 298.2768859863281 761.79248046875 297.1140441894531 760.78466796875 297.1140441894531 L 723.5020751953125 297.1140441894531 C 722.4948120117188 297.1140441894531 721.6438598632812 298.2768859863281 721.6438598632812 299.6533203125 L 721.6438598632812 335.5759582519531 C 721.6438598632812 336.9517517089844 722.4948120117188 338.1140441894531 723.5020751953125 338.1140441894531 L 760.78466796875 338.1140441894531 M 760.78466796875 340.1140441894531 L 723.5020751953125 340.1140441894531 C 721.3707275390625 340.1140441894531 719.6438598632812 338.0828857421875 719.6438598632812 335.5759582519531 L 719.6438598632812 299.6533203125 C 719.6438598632812 297.1464233398438 721.3707275390625 295.1140441894531 723.5020751953125 295.1140441894531 L 760.78466796875 295.1140441894531 C 762.9159545898438 295.1140441894531 764.6438598632812 297.1464233398438 764.6438598632812 299.6533203125 L 764.6438598632812 335.5759582519531 C 764.6438598632812 338.0828857421875 762.9159545898438 340.1140441894531 760.78466796875 340.1140441894531 Z"/></g><g class="b" transform="translate(613 952)"><rect class="f" width="8" height="17"/><rect class="h" x="1" y="1" width="6" height="15"/></g><g transform="translate(638 946)"><rect class="c" width="14" height="2" rx="1" transform="translate(0)"/><rect class="c" width="14" height="2" rx="1" transform="translate(0 4)"/><rect class="c" width="14" height="2" rx="1" transform="translate(0 8)"/></g><g transform="translate(645 965)"><g class="d" transform="translate(0 0)"><circle class="f" cx="9.5" cy="9.5" r="9.5"/><circle class="h" cx="9.5" cy="9.5" r="8.5"/></g><path class="e" d="M-89,916.667l3,4,4-5" transform="translate(95 -908.667)"/></g></g></svg>