<svg xmlns="http://www.w3.org/2000/svg" xmlns:xlink="http://www.w3.org/1999/xlink" width="40" height="35" viewBox="0 0 40 35">
  <defs>
    <clipPath id="clip-path">
      <rect id="사각형_1" data-name="사각형 1" width="40" height="35" transform="translate(0 0)" fill="none"/>
    </clipPath>
  </defs>
  <g id="생활스터디" transform="translate(-39 -413)">
    <path id="패스_3204" data-name="패스 3204" d="M54.983,441.008H44.373A4.372,4.372,0,0,1,40,436.635V418.372A4.372,4.372,0,0,1,44.373,414H62.636a4.372,4.372,0,0,1,4.373,4.373V425" fill="none" stroke="#333" stroke-linecap="round" stroke-width="1.5"/>
    <g id="그룹_1889" data-name="그룹 1889">
      <line id="선_29" data-name="선 29" x2="17.74" transform="translate(44.74 420.75)" fill="none" stroke="#333" stroke-linecap="round" stroke-width="1.5"/>
      <line id="선_29_copy" data-name="선 29 copy" x2="7.74" transform="translate(44.74 425.75)" fill="none" stroke="#333" stroke-linecap="round" stroke-width="1.5"/>
      <line id="선_29_copy_2" data-name="선 29 copy 2" x2="7.74" transform="translate(44.74 429.75)" fill="none" stroke="#333" stroke-linecap="round" stroke-width="1.5"/>
      <line id="선_29_copy_3" data-name="선 29 copy 3" x2="7.74" transform="translate(44.74 433.75)" fill="none" stroke="#333" stroke-linecap="round" stroke-width="1.5"/>
    </g>
    <g id="Vector_Smart_Object" data-name="Vector Smart Object" transform="translate(39 413)">
      <g id="그룹_2" data-name="그룹 2">
        <g id="그룹_1" data-name="그룹 1" clip-path="url(#clip-path)">
          <path id="패스_1" data-name="패스 1" d="M28.744,31.488a6.9,6.9,0,1,1,6.995-6.9,6.941,6.941,0,0,1-6.995,6.9" fill="#25824a" fill-rule="evenodd"/>
          <path id="패스_2" data-name="패스 2" d="M28.744,31.488a6.9,6.9,0,1,1,6.995-6.9A6.941,6.941,0,0,1,28.744,31.488Z" fill="none" stroke="#272727" stroke-linecap="round" stroke-miterlimit="10" stroke-width="1.517"/>
          <line id="선_1" data-name="선 1" y1="4.83" transform="translate(28.744 20.762)" fill="none" stroke="#272727" stroke-linecap="round" stroke-miterlimit="10" stroke-width="1.507"/>
          <line id="선_2" data-name="선 2" x2="3.498" transform="translate(28.744 25.592)" fill="none" stroke="#272727" stroke-linecap="round" stroke-miterlimit="10" stroke-width="1.527"/>
          <line id="선_3" data-name="선 3" x1="2.099" y1="2.76" transform="translate(35.039 31.487)" fill="none" stroke="#272727" stroke-miterlimit="10" stroke-width="1.517"/>
          <line id="선_4" data-name="선 4" y1="2.76" x2="2.099" transform="translate(20.35 31.487)" fill="none" stroke="#272727" stroke-miterlimit="10" stroke-width="1.517"/>
          <line id="선_5" data-name="선 5" x2="0.7" y2="0.69" transform="translate(18.251 12.168)" fill="none" stroke="#272727" stroke-linecap="round" stroke-miterlimit="10" stroke-width="1.517"/>
          <line id="선_6" data-name="선 6" x2="1.399" y2="1.38" transform="translate(21.749 15.618)" fill="none" stroke="#272727" stroke-miterlimit="10" stroke-width="1.517"/>
          <path id="패스_3" data-name="패스 3" d="M24.547,13.039a3.891,3.891,0,0,0-5.173.237,3.761,3.761,0,0,0-.24,5.1Z" fill="none" stroke="#272727" stroke-linecap="round" stroke-miterlimit="10" stroke-width="1.517"/>
          <line id="선_7" data-name="선 7" x1="0.7" y2="0.69" transform="translate(38.537 12.168)" fill="none" stroke="#272727" stroke-linecap="round" stroke-miterlimit="10" stroke-width="1.517"/>
          <line id="선_8" data-name="선 8" x1="1.399" y2="1.38" transform="translate(34.34 15.618)" fill="none" stroke="#272727" stroke-miterlimit="10" stroke-width="1.517"/>
          <path id="패스_4" data-name="패스 4" d="M32.941,13.039a3.891,3.891,0,0,1,5.173.237,3.76,3.76,0,0,1,.239,5.1Z" fill="none" stroke="#272727" stroke-linecap="round" stroke-miterlimit="10" stroke-width="1.517"/>
          <ellipse id="타원_1" data-name="타원 1" cx="9.793" cy="9.659" rx="9.793" ry="9.659" transform="translate(18.951 14.929)" fill="none" stroke="#272727" stroke-linecap="round" stroke-miterlimit="10" stroke-width="1.517"/>
          <line id="선_9" data-name="선 9" x2="7.88" transform="translate(5.593 20.586)" fill="none" stroke="#272727" stroke-linecap="round" stroke-miterlimit="10" stroke-width="1.527"/>
          <line id="선_10" data-name="선 10" x2="7.88" transform="translate(5.593 16.568)" fill="none" stroke="#272727" stroke-linecap="round" stroke-miterlimit="10" stroke-width="1.527"/>
          <line id="선_11" data-name="선 11" x2="7.88" transform="translate(5.593 12.551)" fill="none" stroke="#272727" stroke-linecap="round" stroke-miterlimit="10" stroke-width="1.527"/>
          <line id="선_12" data-name="선 12" x2="18.063" transform="translate(5.593 7.529)" fill="none" stroke="#272727" stroke-linecap="round" stroke-miterlimit="10" stroke-width="1.527"/>
          <path id="패스_5" data-name="패스 5" d="M16.021,27.88H5.217A4.422,4.422,0,0,1,.764,23.488V5.144A4.422,4.422,0,0,1,5.217.753h18.6a4.422,4.422,0,0,1,4.453,4.391V11.8" fill="none" stroke="#272727" stroke-linecap="round" stroke-miterlimit="10" stroke-width="1.517"/>
        </g>
      </g>
    </g>
  </g>
</svg>
