<svg xmlns="http://www.w3.org/2000/svg" width="18.107" height="17.607" viewBox="0 0 18.107 17.607">
  <g id="search_icon" data-name="search icon" transform="translate(-326.405 -1098.905)">
    <g id="Ellipse_532_copy" data-name="Ellipse 532 copy" fill="none">
      <path d="M328.535,1101.035a7.273,7.273,0,1,1,0,10.285A7.273,7.273,0,0,1,328.535,1101.035Z" stroke="none"/>
      <path d="M 333.6774291992188 1100.904663085938 C 332.2690734863281 1100.904663085938 330.9450073242188 1101.453002929688 329.9492492675781 1102.44873046875 C 328.953369140625 1103.444580078125 328.4049072265625 1104.768798828125 328.4049072265625 1106.17724609375 C 328.4049072265625 1107.585571289062 328.9533386230469 1108.909545898438 329.94921875 1109.905395507812 C 330.945068359375 1110.901245117188 332.2691040039062 1111.44970703125 333.6774291992188 1111.44970703125 C 335.0857543945312 1111.44970703125 336.4097595214844 1110.901245117188 337.4056701660156 1109.9052734375 C 338.4015197753906 1108.909545898438 338.949951171875 1107.585571289062 338.949951171875 1106.17724609375 C 338.949951171875 1104.768798828125 338.4014892578125 1103.444702148438 337.4056091308594 1102.448852539062 C 336.4098205566406 1101.453002929688 335.0857849121094 1100.904663085938 333.6774291992188 1100.904663085938 M 333.6774291992188 1098.904663085938 C 335.5386047363281 1098.904663085938 337.3997802734375 1099.614624023438 338.8197937011719 1101.034545898438 C 341.6600036621094 1103.874755859375 341.6600036621094 1108.479736328125 338.8197937011719 1111.319580078125 C 335.9797668457031 1114.15966796875 331.3750915527344 1114.15966796875 328.5350036621094 1111.319580078125 C 325.6948852539062 1108.479736328125 325.6948852539062 1103.874755859375 328.5350036621094 1101.034545898438 C 329.9550476074219 1099.614624023438 331.8162536621094 1098.904663085938 333.6774291992188 1098.904663085938 Z" stroke="none" fill="#666"/>
    </g>
    <path id="Rectangle_839" data-name="Rectangle 839" d="M338.439,1110.439a.891.891,0,0,1,1.261,0l4.551,4.551a.892.892,0,1,1-1.261,1.261l-4.551-4.551A.892.892,0,0,1,338.439,1110.439Z" fill="#666"/>
  </g>
</svg>
