<svg xmlns="http://www.w3.org/2000/svg" xmlns:xlink="http://www.w3.org/1999/xlink" width="19" height="18" viewBox="0 0 19 18">
  <defs>
    <clipPath id="clip-path">
      <rect id="사각형_51" data-name="사각형 51" width="19" height="18" transform="translate(0 0)" fill="none"/>
    </clipPath>
  </defs>
  <g id="Vector_Smart_Object" data-name="Vector Smart Object" transform="translate(0 0)">
    <g id="그룹_69" data-name="그룹 69">
      <g id="그룹_68" data-name="그룹 68" clip-path="url(#clip-path)">
        <path id="패스_75" data-name="패스 75" d="M5.651,16.458A1.532,1.532,0,1,1,7.183,18a1.538,1.538,0,0,1-1.532-1.542" fill="#fff"/>
        <path id="패스_76" data-name="패스 76" d="M11.78,16.458A1.532,1.532,0,1,1,13.312,18a1.538,1.538,0,0,1-1.532-1.542" fill="#fff"/>
        <path id="패스_77" data-name="패스 77" d="M0,.617H2.839L6.292,12a1.352,1.352,0,0,0,1.3.95h6.3a1.353,1.353,0,0,0,1.271-.869l3.222-8.557H5.29" fill="none" stroke="#fff" stroke-linejoin="round" stroke-width="1.23"/>
      </g>
    </g>
  </g>
</svg>
