<svg xmlns="http://www.w3.org/2000/svg" width="16" height="16" viewBox="0 0 16 16"><defs><style>.a,.b{fill:none;stroke-linecap:round;}.b{stroke:#666;stroke-linejoin:round;stroke-width:2px;}.c,.d{stroke:none;}.d{fill:#666;}</style></defs><g transform="translate(0 1)"><g class="a" transform="translate(-3.5 -4.444)"><path class="c" d="M5.056,5H17.944A1.528,1.528,0,0,1,19.5,6.5V17.947a1.528,1.528,0,0,1-1.556,1.5H5.056a1.528,1.528,0,0,1-1.556-1.5V6.5A1.528,1.528,0,0,1,5.056,5Z"/><path class="d" d="M 5.499996185302734 7 L 5.499996185302734 17.44449996948242 L 17.49951553344727 17.44449996948242 L 17.49951553344727 7 L 5.499996185302734 7 M 5.055505752563477 5 L 17.94401550292969 5 C 18.80308532714844 5 19.49951553344727 5.670650482177734 19.49951553344727 6.497940063476562 L 19.49951553344727 17.94655990600586 C 19.49951553344727 18.77384948730469 18.80308532714844 19.44449996948242 17.94401550292969 19.44449996948242 L 5.055505752563477 19.44449996948242 C 4.196426391601562 19.44449996948242 3.499996185302734 18.77384948730469 3.499996185302734 17.94655990600586 L 3.499996185302734 6.497940063476562 C 3.499996185302734 5.670650482177734 4.196426391601562 5 5.055505752563477 5 Z"/></g><path class="b" d="M24,3V6.111" transform="translate(-12.889 -3)"/><path class="b" d="M12,3V6.111" transform="translate(-7.111 -3)"/><path class="b" d="M4.5,15h12" transform="translate(-2.5 -9)"/></g></svg>