<svg xmlns="http://www.w3.org/2000/svg" width="24" height="24" viewBox="0 0 24 24">
  <g id="그룹_642" data-name="그룹 642" transform="translate(-774.999 -565)">
    <g id="Rectangle_723_copy" data-name="Rectangle 723 copy" fill="#fff">
      <path d="M 786.9993896484375 588.4998168945312 C 783.9275512695312 588.4998168945312 781.0396728515625 587.3035888671875 778.8676147460938 585.131591796875 C 776.695556640625 582.9595336914062 775.4993896484375 580.0716552734375 775.4993896484375 576.9998779296875 C 775.4993896484375 573.9281005859375 776.695556640625 571.0402221679688 778.8676147460938 568.8681030273438 C 781.0396728515625 566.696044921875 783.9275512695312 565.4998168945312 786.9993896484375 565.4998168945312 C 790.0711669921875 565.4998168945312 792.9591064453125 566.696044921875 795.1311645507812 568.8681030273438 C 797.3031616210938 571.0402221679688 798.4993896484375 573.9281005859375 798.4993896484375 576.9998779296875 C 798.4993896484375 580.0716552734375 797.3031616210938 582.9595336914062 795.1311645507812 585.131591796875 C 792.9591064453125 587.3035888671875 790.0711669921875 588.4998168945312 786.9993896484375 588.4998168945312 Z" stroke="none"/>
      <path d="M 786.9993896484375 587.9998168945312 C 789.9376220703125 587.9998168945312 792.7000122070312 586.8556518554688 794.777587890625 584.7780151367188 C 796.855224609375 582.700439453125 797.9993896484375 579.9381103515625 797.9993896484375 576.9998779296875 C 797.9993896484375 574.0617065429688 796.855224609375 571.29931640625 794.777587890625 569.2216796875 C 792.699951171875 567.14404296875 789.9376220703125 565.9998168945312 786.9993896484375 565.9998168945312 C 784.0611572265625 565.9998168945312 781.2987670898438 567.14404296875 779.22119140625 569.2216796875 C 777.1435546875 571.29931640625 775.9993896484375 574.0617065429688 775.9993896484375 576.9998779296875 C 775.9993896484375 579.9381103515625 777.1435546875 582.700439453125 779.22119140625 584.7780151367188 C 781.2987670898438 586.8556518554688 784.0610961914062 587.9998168945312 786.9993896484375 587.9998168945312 M 786.9993896484375 588.9998168945312 C 780.371826171875 588.9998168945312 774.9993896484375 583.6273193359375 774.9993896484375 576.9998779296875 C 774.9993896484375 570.3724975585938 780.371826171875 564.9998168945312 786.9993896484375 564.9998168945312 C 793.6268920898438 564.9998168945312 798.9993896484375 570.3724975585938 798.9993896484375 576.9998779296875 C 798.9993896484375 583.6273193359375 793.6268920898438 588.9998168945312 786.9993896484375 588.9998168945312 Z" stroke="none" fill="#aaa"/>
    </g>
    <path id="Rectangle_971_copy_2" data-name="Rectangle 971 copy 2" d="M781,576.672l1.663-1.663,3.327,3.327L791.326,573l1.664,1.664L787.654,580h0l-.177.177-.655.655h0l-.832.832Z" fill="#aaa"/>
  </g>
</svg>
