<svg xmlns="http://www.w3.org/2000/svg" xmlns:xlink="http://www.w3.org/1999/xlink" width="50" height="50" viewBox="0 0 50 50"><defs><style>.a{fill:#fafafa;stroke:#ddd;}.b{fill:#ddd;}.c{clip-path:url(#a);}.d{fill:#fff;}</style><clipPath id="a"><circle class="a" cx="24" cy="24" r="24" transform="translate(0 0)"/></clipPath></defs><g transform="translate(-480 -1472)"><g transform="translate(480 1472)"><circle class="b" cx="25" cy="25" r="25"/></g><g class="c" transform="translate(481 1473)"><path class="d" d="M118.072-847.556a2.673,2.673,0,0,1,1.637-1.856l9.565-5.425,1-2.2a3.735,3.735,0,0,1-2.925.169s1.671-1.352,1-4.563-1.839-4.31.334-13.182,9.025-9.21,11.449-6.76c0,0,2.841-2.028,5.014,3.464s3.593,10.562,2.591,13.942-1.421,5.661-.167,7.436a4.559,4.559,0,0,1-2.674-.254l.919,2.113,10.024,5.833A2.673,2.673,0,0,1,157.434-847l3.514,17.341H114.9Z" transform="translate(-113.226 889.935)"/></g></g></svg>