<svg xmlns="http://www.w3.org/2000/svg" width="28.75" height="28.75" viewBox="0 0 28.75 28.75">
  <g id="전화" transform="translate(-29.25 -5325)">
    <path id="Icon_map-volume-control-telephone" data-name="Icon map-volume-control-telephone" d="M52.568,5330.569a13.188,13.188,0,0,0-9.157-4.023l.032-1.546a14.659,14.659,0,0,1,10.189,4.478A15.446,15.446,0,0,1,58,5339.969l-1.512.031A13.836,13.836,0,0,0,52.568,5330.569Zm-2.7,2.551a9.585,9.585,0,0,0-6.587-2.919l.07-1.549a11.067,11.067,0,0,1,7.587,3.37,11.617,11.617,0,0,1,3.279,7.816l-1.5.064A10.042,10.042,0,0,0,49.863,5333.121Zm-2.7,2.542a5.964,5.964,0,0,0-4.023-1.811l.1-1.539a7.4,7.4,0,0,1,4.983,2.258,7.823,7.823,0,0,1,2.206,5.129l-1.506.11A6.24,6.24,0,0,0,47.163,5335.663Zm-2.7,2.553A2.343,2.343,0,0,0,43,5337.51l.145-1.542a3.87,3.87,0,0,1,2.379,1.157,4.069,4.069,0,0,1,1.126,2.44l-1.5.148A2.458,2.458,0,0,0,44.46,5338.216Z" fill="#333"/>
    <path id="Icon_metro-phone" data-name="Icon metro-phone" d="M45.2,5344.706c-1.382,1.383-1.382,2.765-2.764,2.765s-2.764-1.382-4.147-2.765-2.764-2.765-2.764-4.147,1.382-1.382,2.764-2.764-2.764-5.529-4.147-5.529S30,5336.412,30,5336.412c0,2.764,2.84,8.37,5.529,11.058S43.823,5353,46.587,5353c0,0,4.147-2.764,4.147-4.146s-4.147-5.529-5.529-4.147Z" fill="#0e935d" stroke="#333" stroke-width="1.5"/>
  </g>
</svg>
