<svg xmlns="http://www.w3.org/2000/svg" xmlns:xlink="http://www.w3.org/1999/xlink" width="50" height="50" viewBox="0 0 50 50"><defs><style>.a{fill:#fafafa;stroke:#ddd;}.b{fill:#ddd;}.c{clip-path:url(#a);}.d{fill:#fff;}</style><clipPath id="a"><circle class="a" cx="24" cy="24" r="24" transform="translate(0 0)"/></clipPath></defs><g transform="translate(-480 -1412)"><g transform="translate(480 1412)"><circle class="b" cx="25" cy="25" r="25"/></g><g class="c" transform="translate(481 1413)"><path class="d" d="M-150.856-843.532a3.321,3.321,0,0,1,1.695-1.938l13.741-6.668a3.274,3.274,0,0,1,.916-2.369l-.083-2.2s-1.582-1.353-1.582-2.115-.167-3.383-.167-3.383-.333.169-.833-.338a8.158,8.158,0,0,1-1.166-5.921,8.078,8.078,0,0,1,.833-8.881c3.5-4.314,6.829-5.413,8.828-5.329a6.518,6.518,0,0,1,5.33,3.721s2.915-.423,4.081,3.468.583,6.513-.416,7.867c0,0,1.166,4.483-1.666,5.329l-.416,3.045a2.585,2.585,0,0,1-1.582,2.368l.083,2.284a6.666,6.666,0,0,1,.833,2.453l13.751,6.75a3.321,3.321,0,0,1,1.682,1.932l1.14,13.8H-151.9Z" transform="translate(153.575 889.935)"/></g></g></svg>