<svg xmlns="http://www.w3.org/2000/svg" width="33" height="32" viewBox="0 0 33 32"><defs><style>.a{fill:#333;}.b,.d{fill:none;}.c{fill:#fff;}.c,.d{stroke:#333;stroke-linecap:round;stroke-linejoin:round;stroke-width:2px;}.e,.f{stroke:none;}.f{fill:#333;}</style></defs><g transform="translate(158 -1071)"><rect class="a" width="30" height="10" transform="translate(-156 1075)"/><g class="b"><path class="e" d="M-131.947,1074h4.884a1.993,1.993,0,0,1,2.063,1.914v25.172a1.993,1.993,0,0,1-2.063,1.914h-28.873a1.993,1.993,0,0,1-2.063-1.914v-25.172a1.993,1.993,0,0,1,2.063-1.914h23.989Z"/><path class="f" d="M -155.9366302490234 1076 C -155.9637145996094 1076 -155.9845886230469 1076.004028320312 -156.0000305175781 1076.008911132812 L -156.0000305175781 1100.991088867188 C -155.9845886230469 1100.995971679688 -155.9637145996094 1101 -155.9366302490234 1101 L -127.0633850097656 1101 C -127.0363159179688 1101 -127.0154418945312 1100.995971679688 -127 1100.991088867188 L -127 1076.008911132812 C -127.0154418945312 1076.004028320312 -127.0363159179688 1076 -127.0633850097656 1076 L -155.9366302490234 1076 M -155.9366302490234 1074 L -127.0633850097656 1074 C -125.9240112304688 1074 -125 1074.857055664062 -125 1075.9140625 L -125 1101.0859375 C -125 1102.142944335938 -125.9240112304688 1103 -127.0633850097656 1103 L -155.9366302490234 1103 C -157.0759887695312 1103 -158.0000305175781 1102.142944335938 -158.0000305175781 1101.0859375 L -158.0000305175781 1075.9140625 C -158.0000305175781 1074.857055664062 -157.0759887695312 1074 -155.9366302490234 1074 Z"/></g><rect class="c" width="7" height="4" rx="2" transform="translate(-147 1072) rotate(90)"/><rect class="c" width="7" height="4" rx="2" transform="translate(-132 1072) rotate(90)"/><g transform="translate(0.25 -1.125)"><line class="d" transform="translate(-141 1093)"/><line class="d" transform="translate(-141 1096)"/><path class="d" d="M-148,1091.729l1.75-.729v8.75" transform="translate(-1.25 -0.875)"/><path class="d" d="M-133,1091.729l1.75-.729v8.75" transform="translate(-3.125 -0.875)"/></g></g></svg>