<svg xmlns="http://www.w3.org/2000/svg" width="36.001" height="40.75" viewBox="0 0 36.001 40.75"><defs><style>.a{fill:#49b68a;}.a,.b{stroke-linecap:round;stroke-linejoin:round;}.b{fill:none;stroke:#333;stroke-width:1.5px;}.c,.d{stroke:none;}.d{fill:#333;}</style></defs><g transform="translate(-66 -813.25)"><g class="a"><path class="c" d="M 100.7239990234375 853.25 L 67.2760009765625 853.25 C 67.11131286621094 853.25 66.99282836914062 853.1390380859375 66.92243957519531 853.0459594726562 C 66.79379272460938 852.8757934570312 66.69081115722656 852.5722045898438 66.78762054443359 852.2303466796875 L 67.61653900146484 849.3076782226562 C 68.21933746337891 847.1796264648438 69.87439727783203 845.75 71.73500061035156 845.75 L 96.26499938964844 845.75 C 98.12560272216797 845.75 99.78066253662109 847.1796264648438 100.3833923339844 849.3074340820312 L 101.2124633789062 852.2306518554688 C 101.3091888427734 852.5722045898438 101.2062072753906 852.8757934570312 101.0775604248047 853.0459594726562 C 101.0071716308594 853.1390380859375 100.8886871337891 853.25 100.7239990234375 853.25 Z"/><path class="d" d="M 100.5003433227539 852.5 C 100.5001754760742 852.48046875 100.4975433349609 852.4586791992188 100.4909210205078 852.435302734375 L 99.66178131103516 849.5118408203125 C 99.1514892578125 847.7103881835938 97.78643035888672 846.5 96.26499938964844 846.5 L 71.73500061035156 846.5 C 70.21356964111328 846.5 68.8485107421875 847.7103881835938 68.33808135986328 849.5123291015625 L 67.50923919677734 852.4347534179688 C 67.50254821777344 852.4583740234375 67.49989318847656 852.4803466796875 67.49971008300781 852.5 L 100.5003433227539 852.5 M 100.7239990234375 854 L 67.2760009765625 854 C 66.40599822998047 854 65.79100036621094 852.9970092773438 66.06600189208984 852.0260009765625 L 66.89499664306641 849.10302734375 C 67.58899688720703 846.6530151367188 69.53900146484375 845 71.73500061035156 845 L 96.26499938964844 845 C 98.46099853515625 845 100.411003112793 846.6530151367188 101.1050033569336 849.10302734375 L 101.9339981079102 852.0260009765625 C 102.2089996337891 852.9970092773438 101.5940017700195 854 100.7239990234375 854 Z"/></g><path class="b" d="M71,845V833.84A12.92,12.92,0,0,1,84,821h0a12.92,12.92,0,0,1,13,12.84V845"/><path class="b" d="M93,834a8.009,8.009,0,0,0-8-8"/><line class="b" y2="3" transform="translate(84 814)"/><line class="b" x2="2" y2="2" transform="translate(75 817)"/><line class="b" x1="2" y2="2" transform="translate(91 817)"/></g></svg>