<svg xmlns="http://www.w3.org/2000/svg" width="37" height="35.75" viewBox="0 0 37 35.75"><defs><style>.a,.c{fill:none;}.a,.c,.d{stroke:#333;stroke-linejoin:round;}.a,.d{stroke-linecap:round;}.a{stroke-width:2px;}.b,.d{fill:#333;}.c,.d{stroke-width:1.5px;}.e{fill:#fff;}</style></defs><g transform="translate(-640 -1423.25)"><path class="a" d="M1861.644,1022.787h-2.506a5.389,5.389,0,0,0-5.593,5.158v11.515a5.566,5.566,0,0,0,5.778,5.328h15.444a5.567,5.567,0,0,0,5.778-5.328v-11.345c0-1.471-.456-1.932-1.5-2.9" transform="translate(-1208.544 413.213)"/><path class="a" d="M3.786,0H4A0,0,0,0,1,4,0V8A0,0,0,0,1,4,8H3.786A3.786,3.786,0,0,1,0,4.214V3.786A3.786,3.786,0,0,1,3.786,0Z" transform="translate(641 1443)"/><path class="a" d="M3.786,0H4A0,0,0,0,1,4,0V8A0,0,0,0,1,4,8H3.786A3.786,3.786,0,0,1,0,4.214V3.786A3.786,3.786,0,0,1,3.786,0Z" transform="translate(676 1451) rotate(180)"/><path class="b" d="M2,0A2,2,0,1,1,0,2,2,2,0,0,1,2,0Z" transform="translate(641 1433)"/><line class="c" y2="9" transform="translate(643 1435)"/><line class="a" y2="3" transform="translate(654 1445)"/><line class="a" y2="3" transform="translate(663.295 1445)"/><line class="a" x2="4.676" transform="translate(656.378 1452.199)"/><path class="d" d="M1871.139,1012.634a8.171,8.171,0,0,0-8.332,8,7.71,7.71,0,0,0,.969,3.74l-2.3,3.673,4.848-.891-.006-.008a8.514,8.514,0,0,0,4.825,1.486,8.007,8.007,0,1,0,0-16Z" transform="translate(-1208.473 411.366)"/><circle class="e" cx="1.5" cy="1.5" r="1.5" transform="translate(657 1431)"/><circle class="e" cx="1.5" cy="1.5" r="1.5" transform="translate(661 1431)"/><circle class="e" cx="1.5" cy="1.5" r="1.5" transform="translate(665 1431)"/></g></svg>