<svg xmlns="http://www.w3.org/2000/svg" width="30.116" height="27.596" viewBox="0 0 30.116 27.596">
  <g id="학원위치" transform="translate(-28.942 -5076.25)">
    <path id="패스_3221" data-name="패스 3221" d="M54.489,5093H33.511L30,5103H58Z" fill="#fff" stroke="#333" stroke-width="1.5"/>
    <path id="패스_3222" data-name="패스 3222" d="M44,5100l0,0a58.778,58.778,0,0,1-4.5-5.018,32.24,32.24,0,0,1-3.094-4.555,9.706,9.706,0,0,1-1.407-4.39,10.057,10.057,0,0,1,.644-3.621,8.36,8.36,0,0,1,1.823-2.86A8.9,8.9,0,0,1,44,5077a8.9,8.9,0,0,1,6.534,2.555,8.322,8.322,0,0,1,1.823,2.86,10.049,10.049,0,0,1,.644,3.621,9.7,9.7,0,0,1-1.405,4.39,32.37,32.37,0,0,1-3.095,4.555A58.612,58.612,0,0,1,44,5100Zm0-18.072a4.111,4.111,0,1,0,4.089,4.11A4.1,4.1,0,0,0,44,5081.93Z" fill="#0e935d" stroke="#333" stroke-linecap="round" stroke-width="1.5"/>
  </g>
</svg>
