<svg xmlns="http://www.w3.org/2000/svg" width="36.75" height="35.896" viewBox="0 0 36.75 35.896"><defs><style>.a,.c{fill:#333;}.a,.b{stroke:#333;stroke-linejoin:round;}.a{stroke-width:1.5px;}.b{fill:#fff;stroke-linecap:round;stroke-width:2px;}</style></defs><g transform="translate(46 -811)"><path class="a" d="M-11.912,830.318a12.337,12.337,0,0,1,1.6,6.1,12.339,12.339,0,0,1-1.425,5.765l3.386,5.662-7.124-1.374.008-.013a12.121,12.121,0,0,1-7.092,2.29A12.221,12.221,0,0,1-33,842.859" transform="translate(-1.65 -2.601)"/><path class="b" d="M-28.27,812c-7.964,0-14.421,6.748-14.421,15.073a15.544,15.544,0,0,0,1.677,7.047L-45,841.041l8.389-1.679-.01-.016a13.919,13.919,0,0,0,8.351,2.8c7.963,0,14.42-6.749,14.42-15.073S-20.306,812-28.27,812Z"/><path class="c" d="M-23.6,828.7a1.7,1.7,0,0,1-1.7,1.7,1.7,1.7,0,0,1-1.7-1.7,1.7,1.7,0,0,1,1.7-1.7A1.7,1.7,0,0,1-23.6,828.7Z" transform="translate(-2.627 -2.189)"/><path class="c" d="M-16.6,828.7a1.7,1.7,0,0,1-1.7,1.7,1.7,1.7,0,0,1-1.7-1.7,1.7,1.7,0,0,1,1.7-1.7A1.7,1.7,0,0,1-16.6,828.7Z" transform="translate(-4.503 -2.189)"/><path class="c" d="M-30.6,828.7a1.7,1.7,0,0,1-1.7,1.7,1.7,1.7,0,0,1-1.7-1.7,1.7,1.7,0,0,1,1.7-1.7A1.7,1.7,0,0,1-30.6,828.7Z" transform="translate(-0.751 -2.189)"/></g></svg>