<svg xmlns="http://www.w3.org/2000/svg" width="30" height="30" viewBox="0 0 30 30"><defs><style>.a{fill:#333;}</style></defs><g transform="translate(-377 -555)"><path class="a" d="M0,7.948A2.264,2.264,0,0,1,.521,9.4,2.267,2.267,0,0,1,0,10.853l1.114.918A3.751,3.751,0,0,0,1.962,9.4,3.751,3.751,0,0,0,1.114,7.03L0,7.948Zm3.583,6.471a7.215,7.215,0,0,0,1.89-4.873A7.18,7.18,0,0,0,3.59,4.686l-1.084.946A5.778,5.778,0,0,1,4.033,9.546a5.746,5.746,0,0,1-1.542,3.927l1.092.946Zm2.466,2.648A10.69,10.69,0,0,0,8.983,9.7a10.712,10.712,0,0,0-2.91-7.354l-1.068.974A9.281,9.281,0,0,1,7.536,9.7a9.252,9.252,0,0,1-2.547,6.4Zm2.476,2.649a14.215,14.215,0,0,0,3.962-9.872A14.2,14.2,0,0,0,8.548,0L7.505,1a12.761,12.761,0,0,1,3.542,8.847,12.736,12.736,0,0,1-3.566,8.869l1.043,1Z" transform="translate(384.229 563.83) rotate(-45)"/><path class="a" d="M17.029,15.686C15.715,17,15.715,18.314,14.4,18.314S11.771,17,10.457,15.686s-2.629-2.629-2.629-3.943,1.314-1.314,2.629-2.629S7.828,3.856,6.514,3.856,2.571,7.8,2.571,7.8c0,2.629,2.7,7.958,5.258,10.515s7.886,5.258,10.515,5.258c0,0,3.943-2.629,3.943-3.943s-3.943-5.258-5.258-3.943Z" transform="translate(374.429 561.428)"/></g></svg>