<svg xmlns="http://www.w3.org/2000/svg" width="58.113" height="38.75" viewBox="0 0 58.113 38.75"><defs><style>.a{fill:#49b68a;}.a,.b,.c{stroke:#333;stroke-linejoin:round;stroke-width:1.5px;}.a,.b{stroke-linecap:round;}.b,.c{fill:#fff;}.d{fill:#323232;}.e{fill:#333;}.f{stroke:none;}.g{fill:none;}</style></defs><g transform="translate(-909.25 -1544.25)"><path class="a" d="M923,1552.137v-3.363a3.774,3.774,0,0,1,3.774-3.774h32.4a4.08,4.08,0,0,1,4.08,4.08V1568.6a4.08,4.08,0,0,1-4.08,4.08H932.417L924.146,1571Z" transform="translate(3.355)"/><g class="b" transform="translate(916 1551)"><circle class="f" cx="9" cy="9" r="9"/><circle class="g" cx="9" cy="9" r="8.25"/></g><path class="c" d="M910,1579.1a15.1,15.1,0,1,1,30.193,0" transform="translate(0 3.903)"/><path class="d" d="M1,0H9a1,1,0,0,1,1,1V3a0,0,0,0,1,0,0H0A0,0,0,0,1,0,3V1A1,1,0,0,1,1,0Z" transform="translate(952 1569)"/><rect class="e" width="24" height="2" transform="translate(938 1552)"/><rect class="e" width="20" height="2" transform="translate(938 1557)"/></g></svg>