<svg xmlns="http://www.w3.org/2000/svg" width="40.5" height="40.75" viewBox="0 0 40.5 40.75"><defs><style>.a{fill:none;stroke:#333;stroke-width:1.5px;}.a,.b{stroke-linecap:round;stroke-linejoin:round;}.b{fill:#49b68a;}.c,.d{stroke:none;}.d{fill:#333;}</style></defs><g transform="translate(99.75 -998)"><path class="a" d="M-64,1002h1.668A2.332,2.332,0,0,1-60,1004.332v31.336A2.332,2.332,0,0,1-62.332,1038H-92.668A2.332,2.332,0,0,1-95,1035.668V1029"/><path class="a" d="M-95,1011v-6.668A2.332,2.332,0,0,1-92.668,1002H-74"/><g class="b"><path class="c" d="M -65.07697296142578 1013.140930175781 C -65.14607238769531 1013.140930175781 -65.20897674560547 1013.118225097656 -65.26927185058594 1013.071655273438 L -69.04138946533203 1010.156555175781 L -69.5 1009.802124023438 L -69.95861053466797 1010.156555175781 L -73.73061370849609 1013.071533203125 C -73.79102325439453 1013.118225097656 -73.85392761230469 1013.140930175781 -73.92304992675781 1013.140930175781 C -74.00598907470703 1013.140930175781 -74.09245300292969 1013.10595703125 -74.15432739257812 1013.047424316406 C -74.21781158447266 1012.987426757812 -74.25 1012.909851074219 -74.25 1012.817016601562 L -74.25 999.218017578125 C -74.25 998.9599609375 -74.04006195068359 998.75 -73.78199768066406 998.75 L -65.21800231933594 998.75 C -64.95993804931641 998.75 -64.75 998.9599609375 -64.75 999.218017578125 L -64.75 1012.817016601562 C -64.75 1013.040405273438 -64.94120025634766 1013.140930175781 -65.07697296142578 1013.140930175781 Z"/><path class="d" d="M -73.5 1011.945495605469 L -70.41722106933594 1009.563110351562 C -69.87699890136719 1009.145629882812 -69.12300109863281 1009.145629882812 -68.58277893066406 1009.563110351562 L -65.5 1011.945434570312 L -65.5 999.5 L -73.5 999.5 L -73.5 1011.945495605469 M -65.07697296142578 1013.890930175781 C -65.29912567138672 1013.890930175781 -65.5264892578125 1013.820739746094 -65.72799682617188 1013.664978027344 L -69.5 1010.75 L -73.27200317382812 1013.664978027344 C -73.97698974609375 1014.210021972656 -75 1013.706909179688 -75 1012.817016601562 L -75 999.218017578125 C -75 998.5449829101562 -74.45500183105469 998 -73.78199768066406 998 L -65.21800231933594 998 C -64.54499816894531 998 -64 998.5449829101562 -64 999.218017578125 L -64 1012.817016601562 C -64 1013.452575683594 -64.52189636230469 1013.890930175781 -65.07697296142578 1013.890930175781 Z"/></g><line class="a" x2="18" transform="translate(-84 1020)"/><line class="a" x2="18" transform="translate(-84 1026)"/><rect class="a" width="8" height="4" rx="2" transform="translate(-99 1011)"/><rect class="a" width="8" height="4" rx="2" transform="translate(-99 1018)"/><rect class="a" width="8" height="4" rx="2" transform="translate(-99 1025)"/></g></svg>