<svg xmlns="http://www.w3.org/2000/svg" width="30" height="30" viewBox="0 0 30 30"><defs><style>.a,.c{fill:none;stroke-linecap:round;stroke-linejoin:round;}.b{fill:#333;}.c{stroke:#fff;stroke-width:1.5px;}.d,.e{stroke:none;}.e{fill:#333;}</style></defs><g transform="translate(-726 -835)"><g transform="translate(723 832)"><g class="a"><path class="d" d="M33,18A15,15,0,1,1,18,3,15,15,0,0,1,33,18Z"/><path class="e" d="M 18 4.5 C 14.39402008056641 4.5 11.00387001037598 5.90424919128418 8.454059600830078 8.454059600830078 C 5.90424919128418 11.00387001037598 4.5 14.39402008056641 4.5 18 C 4.5 21.60597991943359 5.90424919128418 24.99612998962402 8.454059600830078 27.54594039916992 C 11.00387001037598 30.09574890136719 14.39402008056641 31.5 18 31.5 C 21.60597991943359 31.5 24.99612998962402 30.09574890136719 27.54594039916992 27.54594039916992 C 30.09574890136719 24.99612998962402 31.5 21.60597991943359 31.5 18 C 31.5 14.39402008056641 30.09574890136719 11.00387001037598 27.54594039916992 8.454059600830078 C 24.99612998962402 5.90424919128418 21.60597991943359 4.5 18 4.5 M 18 3 C 26.28427124023438 3 33 9.715730667114258 33 18 C 33 26.28427124023438 26.28427124023438 33 18 33 C 9.715730667114258 33 3 26.28427124023438 3 18 C 3 9.715730667114258 9.715730667114258 3 18 3 Z"/></g></g><g transform="translate(727 836)"><path class="b" d="M25,14A11,11,0,1,1,14,3,11,11,0,0,1,25,14Z" transform="translate(0 0)"/></g><path class="c" d="M18,9v9l6,3" transform="translate(723 833)"/></g></svg>