<svg xmlns="http://www.w3.org/2000/svg" width="39.5" height="41.5" viewBox="0 0 39.5 41.5"><defs><style>.a,.c,.d{fill:none;}.a,.c,.d,.e{stroke:#333;stroke-width:1.5px;}.a,.e{stroke-linecap:round;}.a,.c,.e{stroke-linejoin:round;}.b{fill:#49b68a;}.e{fill:#fff;}</style></defs><g transform="translate(158.75 -1069.25)"><line class="a" transform="translate(-139 1096)"/><line class="a" transform="translate(-139 1100)"/><path class="a" d="M-148,1091.833l2-.833v10" transform="translate(0 2)"/><path class="a" d="M-133,1091.833l2-.833v10" transform="translate(0 2)"/><rect class="b" width="38" height="11" transform="translate(-158 1074)"/><line class="c" x2="15" transform="translate(-146 1074)"/><path class="d" d="M-128,1074h5.624a2.376,2.376,0,0,1,2.376,2.376v31.248a2.376,2.376,0,0,1-2.376,2.376h-33.248a2.376,2.376,0,0,1-2.376-2.376v-31.248a2.376,2.376,0,0,1,2.376-2.376H-150"/><line class="c" x2="38" transform="translate(-158 1085)"/><rect class="e" width="8" height="4" rx="2" transform="translate(-128 1070) rotate(90)"/><rect class="e" width="8" height="4" rx="2" transform="translate(-146 1070) rotate(90)"/></g></svg>