<svg xmlns="http://www.w3.org/2000/svg" width="42.5" height="41.5" viewBox="0 0 42.5 41.5"><defs><style>.a{fill:#49b68a;}.a,.b{stroke:#333;stroke-linejoin:round;stroke-width:1.5px;}.b{fill:#fff;stroke-linecap:round;}.c{fill:#333;}</style></defs><g transform="translate(45.75 -811.25)"><path class="a" d="M-8.191,830.318a14.514,14.514,0,0,1,1.884,7.176,14.516,14.516,0,0,1-1.676,6.782L-4,850.937l-8.381-1.616.01-.015A14.26,14.26,0,0,1-20.714,852,14.378,14.378,0,0,1-33,845.072"/><path class="b" d="M-25.128,812a17.318,17.318,0,0,0-17.129,17.5,17.717,17.717,0,0,0,1.992,8.181L-45,845.717l9.965-1.949-.012-.018A16.784,16.784,0,0,0-25.128,847,17.317,17.317,0,0,0-8,829.5,17.317,17.317,0,0,0-25.128,812Z"/><path class="c" d="M-23,829a2,2,0,0,1-2,2,2,2,0,0,1-2-2,2,2,0,0,1,2-2A2,2,0,0,1-23,829Z"/><path class="c" d="M-16,829a2,2,0,0,1-2,2,2,2,0,0,1-2-2,2,2,0,0,1,2-2A2,2,0,0,1-16,829Z" transform="translate(-1)"/><path class="c" d="M-30,829a2,2,0,0,1-2,2,2,2,0,0,1-2-2,2,2,0,0,1,2-2A2,2,0,0,1-30,829Z" transform="translate(1)"/></g></svg>