<?xml version="1.0" encoding="utf-8"?>
<!-- Generator: Adobe Illustrator 24.2.3, SVG Export Plug-In . SVG Version: 6.00 Build 0)  -->
<svg version="1.1" id="Layer_1" xmlns="http://www.w3.org/2000/svg" xmlns:xlink="http://www.w3.org/1999/xlink" x="0px" y="0px"
	 viewBox="0 0 41.8 34.8" style="enable-background:new 0 0 41.8 34.8;" xml:space="preserve">
<style type="text/css">
	.st0{fill:#49B68A;stroke:#333333;stroke-width:1.5;stroke-linecap:round;stroke-linejoin:round;}
	.st1{fill:#FFFFFF;}
	.st2{fill:none;stroke:#333333;stroke-width:1.5;stroke-linecap:round;stroke-linejoin:round;}
	.st3{enable-background:new    ;}
	.st4{fill:#333333;}
</style>
<g id="그룹_787" transform="translate(224.999 -997.001)">
	<path id="패스_1294" class="st0" d="M-194.1,1020l10,7.1c0.1,0.1,0.2,0.3,0.1,0.4c0,0,0,0,0,0l-2.5,3.3c-0.1,0.1-0.3,0.2-0.4,0.1
		l-10-7.1"/>
	<g id="타원_39" transform="translate(-224.999 997.001)">
		<circle class="st1" cx="16.5" cy="16.5" r="16.5"/>
		<circle class="st2" cx="16.5" cy="16.5" r="15.7"/>
	</g>
	<g class="st3">
		<path class="st4" d="M-208.6,1017.6c0-0.3,0-0.5,0-0.6c0-0.8,0.1-1.4,0.3-2c0.2-0.4,0.4-0.8,0.8-1.3c0.3-0.3,0.7-0.8,1.4-1.3
			c0.7-0.6,1.1-1.1,1.3-1.4c0.2-0.4,0.3-0.7,0.3-1.1c0-0.8-0.3-1.4-0.9-2c-0.6-0.6-1.3-0.9-2.2-0.9c-0.8,0-1.5,0.3-2.1,0.8
			c-0.6,0.5-0.9,1.3-1.1,2.4l-2-0.2c0.2-1.5,0.7-2.6,1.6-3.4c0.9-0.8,2.1-1.2,3.5-1.2c1.5,0,2.8,0.4,3.7,1.3c0.9,0.8,1.4,1.9,1.4,3
			c0,0.7-0.2,1.3-0.5,1.9s-1,1.3-1.9,2.1c-0.6,0.6-1,1-1.2,1.2s-0.3,0.6-0.4,0.9c-0.1,0.3-0.1,0.9-0.2,1.7H-208.6z M-208.8,1021.5
			v-2.2h2.2v2.2H-208.8z"/>
	</g>
</g>
</svg>
