<?xml version="1.0" encoding="utf-8"?>
<!-- Generator: Adobe Illustrator 24.2.3, SVG Export Plug-In . SVG Version: 6.00 Build 0)  -->
<svg version="1.1" id="Layer_1" xmlns="http://www.w3.org/2000/svg" xmlns:xlink="http://www.w3.org/1999/xlink" x="0px" y="0px"
	 viewBox="0 0 9.1 15" style="enable-background:new 0 0 9.1 15;" xml:space="preserve">
<style type="text/css">
	.st0{fill:none;stroke:#666666;stroke-linecap:round;stroke-linejoin:round;}
</style>
<g transform="translate(11.193 23.592) rotate(-135)">
	<g transform="translate(0 0)">
		<path class="st0" d="M17.7,2.6L22,6.9c1,1,1,2.6,0.1,3.6c-1,1-2.6,1-3.6,0.1c0,0,0,0-0.1-0.1L16.8,9"/>
		<line class="st0" x1="13.3" y1="5.4" x2="16.8" y2="9"/>
		<path class="st0" d="M16.9,1.8L16.9,1.8c-1.7-1.7-4.2-1.7-5.8-0.1s-1.6,4.1,0,5.7L12,8.3l3,3"/>
		<line class="st0" x1="16.8" y1="9" x2="13.3" y2="5.4"/>
		<line class="st0" x1="16.9" y1="1.8" x2="17.7" y2="2.6"/>
	</g>
	<path class="st0" d="M19.1,7.4l-3.9-3.9c-0.5-0.5-1.4-0.5-1.9,0l0,0c-0.5,0.5-0.5,1.4,0,1.9"/>
</g>
</svg>
