<svg 
 xmlns="http://www.w3.org/2000/svg"
 xmlns:xlink="http://www.w3.org/1999/xlink"
 width="67px" height="67px">
<path fill-rule="evenodd"  fill="rgb(226, 98, 98)"
 d="M33.499,66.999 C14.974,66.999 0.0,52.25 0.0,33.499 C0.0,14.974 14.974,0.0 33.499,0.0 C52.25,0.0 66.999,14.974 66.999,33.499 C66.999,52.25 52.25,66.999 33.499,66.999 Z"/>
<path fill-rule="evenodd"  fill="rgb(255, 255, 255)"
 d="M49.729,24.759 L41.194,33.537 C41.131,33.602 41.131,33.698 41.194,33.762 L47.167,40.186 C47.572,40.594 47.572,41.251 47.167,41.659 C46.969,41.860 46.699,41.964 46.438,41.964 C46.175,41.964 45.906,41.860 45.708,41.659 L39.758,35.260 C39.695,35.196 39.592,35.196 39.528,35.260 L38.76,36.749 C36.863,37.991 35.252,38.680 33.523,38.688 C31.770,38.696 30.104,37.951 28.874,36.693 L27.478,35.260 C27.415,35.196 27.311,35.196 27.248,35.260 L21.299,41.659 C21.100,41.860 20.831,41.964 20.569,41.964 C20.307,41.964 20.38,41.860 19.839,41.659 C19.435,41.251 19.435,40.594 19.839,40.186 L25.812,33.762 C25.868,33.698 25.868,33.602 25.812,33.537 L17.269,24.759 C17.166,24.654 16.999,24.727 16.999,24.871 L16.999,42.436 C16.999,43.846 18.142,45.0 19.538,45.0 L47.461,45.0 C48.857,45.0 49.999,43.846 49.999,42.436 L49.999,24.871 C49.999,24.727 49.825,24.662 49.729,24.759 Z"/>
<path fill-rule="evenodd"  fill="rgb(255, 255, 255)"
 d="M33.499,36.304 C34.675,36.304 35.778,35.851 36.604,35.23 L49.62,22.546 C48.625,22.203 48.85,22.0 47.489,22.0 L19.517,22.0 C18.921,22.0 18.373,22.203 17.944,22.546 L30.403,35.23 C31.220,35.843 32.324,36.304 33.499,36.304 Z"/>
</svg>