<svg xmlns="http://www.w3.org/2000/svg" width="39.869" height="34.989" viewBox="0 0 39.869 34.989">
  <g id="합격자사례발표" transform="translate(-581.124 -1976.011)">
    <g id="패스_2995" data-name="패스 2995" fill="#0e935d" stroke-linejoin="round">
      <path d="M 602.6610717773438 1994.557739257812 L 603.8634643554688 1990.992065429688 L 603.998779296875 1990.5908203125 L 603.72509765625 1990.267700195312 C 602.7901611328125 1989.163696289062 602.1802368164062 1987.913208007812 601.9121704101562 1986.550903320312 C 601.4999389648438 1984.461547851562 601.9566650390625 1982.337036132812 603.1982421875 1980.568115234375 C 604.5728759765625 1978.609497070312 606.8087158203125 1977.264526367188 609.3323974609375 1976.877807617188 C 609.8399658203125 1976.800048828125 610.3566284179688 1976.760620117188 610.8681030273438 1976.760620117188 C 613.0406494140625 1976.760620117188 615.1688232421875 1977.470581054688 616.8607177734375 1978.759643554688 C 618.556640625 1980.051879882812 619.7054443359375 1981.851928710938 620.0953979492188 1983.828125 C 620.5069580078125 1985.91748046875 620.0498046875 1988.04248046875 618.8079223632812 1989.811401367188 C 617.4334106445312 1991.769287109375 615.1979370117188 1993.114013671875 612.6746826171875 1993.500732421875 C 612.1718139648438 1993.578002929688 611.6598510742188 1993.6171875 611.1529541015625 1993.6171875 C 611.15283203125 1993.6171875 611.15283203125 1993.6171875 611.1527709960938 1993.6171875 C 609.7391357421875 1993.617065429688 608.3658447265625 1993.32470703125 607.071044921875 1992.748168945312 L 606.2603149414062 1993.954223632812 L 606.4542846679688 1992.763916015625 L 602.6610717773438 1994.557739257812 Z" stroke="none"/>
      <path d="M 610.8670654296875 1976.010620117188 L 610.8670654296875 1977.510620117188 C 610.3942260742188 1977.510620117188 609.9161376953125 1977.547119140625 609.4459838867188 1977.619140625 C 607.1233520507812 1977.97509765625 605.0698852539062 1979.206909179688 603.8121337890625 1980.998901367188 C 602.6891479492188 1982.598876953125 602.2756958007812 1984.518920898438 602.6480712890625 1986.406127929688 C 602.89111328125 1987.6416015625 603.446044921875 1988.777709960938 604.2974243164062 1989.783081054688 C 604.6370849609375 1990.18408203125 604.7420654296875 1990.733764648438 604.5741577148438 1991.231689453125 L 603.9356079101562 1993.125366210938 L 605.9605712890625 1992.167724609375 C 606.374267578125 1991.904541015625 606.9044799804688 1991.852783203125 607.3761596679688 1992.063110351562 C 608.5574951171875 1992.589111328125 609.8634033203125 1992.8671875 611.1527099609375 1992.8671875 C 611.6217651367188 1992.8671875 612.095458984375 1992.830932617188 612.5610961914062 1992.759399414062 C 614.88330078125 1992.403442382812 616.9364624023438 1991.171875 618.194091796875 1989.380493164062 C 619.3173828125 1987.780517578125 619.7312622070312 1985.859985351562 619.3595581054688 1983.973388671875 C 619.005126953125 1982.177124023438 617.956298828125 1980.537475585938 616.4061889648438 1979.356323242188 C 614.8441772460938 1978.166259765625 612.8773803710938 1977.5107421875 610.867919921875 1977.510620117188 L 610.8670654296875 1976.010620117188 M 610.8681030273438 1976.010620117188 C 615.6622924804688 1976.010986328125 619.9453125 1979.193115234375 620.8311767578125 1983.682983398438 C 621.8162841796875 1988.683349609375 618.2158813476562 1993.41015625 612.788330078125 1994.242065429688 C 610.6644287109375 1994.568603515625 608.5809326171875 1994.241577148438 606.7659912109375 1993.433349609375 L 606.77490234375 1993.44189453125 L 601.3865966796875 1995.990112304688 L 603.1527709960938 1990.75244140625 C 602.177001953125 1989.600219726562 601.477294921875 1988.2255859375 601.17626953125 1986.695678710938 C 600.189697265625 1981.695556640625 603.79150390625 1976.968017578125 609.2188110351562 1976.136474609375 C 609.7726440429688 1976.051635742188 610.3232421875 1976.010498046875 610.8681030273438 1976.010620117188 Z" stroke="none" fill="#333"/>
    </g>
    <circle id="Ellipse_1" data-name="Ellipse 1" cx="1.5" cy="1.5" r="1.5" transform="translate(610 1984)" fill="#333"/>
    <circle id="Ellipse_1_copy" data-name="Ellipse 1 copy" cx="1.5" cy="1.5" r="1.5" transform="translate(614 1984)" fill="#333"/>
    <circle id="Ellipse_1_copy_2" data-name="Ellipse 1 copy 2" cx="1.5" cy="1.5" r="1.5" transform="translate(606 1984)" fill="#333"/>
    <path id="패스_2989_copy" data-name="패스 2989 copy" d="M581.874,2011a12.567,12.567,0,1,1,25.133,0" fill="#fff" stroke="#333" stroke-width="1.5"/>
    <g id="타원_57_copy" data-name="타원 57 copy" transform="translate(586.87 1985.36)" fill="#fff" stroke="#333" stroke-linecap="round" stroke-width="1.5">
      <circle cx="7.49" cy="7.49" r="7.49" stroke="none"/>
      <circle cx="7.49" cy="7.49" r="6.74" fill="none"/>
    </g>
  </g>
</svg>
