<svg xmlns="http://www.w3.org/2000/svg" width="62.001" height="48.398" viewBox="0 0 62.001 48.398"><defs><style>.a,.b{fill:none;stroke-linecap:round;stroke-linejoin:round;stroke-width:2px;}.a{stroke:#fff;}.b{stroke:#49b68a;}.c{fill:#fff;font-size:14px;font-family:GmarketSansTTFBold, Gmarket Sans TTF;letter-spacing:-0.06em;}</style></defs><g transform="translate(-955 -257)"><g transform="translate(352 -712)"><g transform="translate(604 970)"><path class="a" d="M364.142,375.956a5.559,5.559,0,0,1-8-1.792c1.214-1.851,4.331-2.475,5.895-2.07" transform="translate(-351.654 -339.414)"/><path class="a" d="M362.9,376.509a5.472,5.472,0,0,0-1.7-7.538,5.3,5.3,0,0,0-2.14,3.219" transform="translate(-349.05 -342.157)"/><path class="a" d="M368.48,355.9a19.93,19.93,0,0,0-2.29,34.964c5.292,3.446,17.5,5.355,22.9,9.313" transform="translate(-351.087 -354.18)"/><path class="a" d="M359.977,372.527a5.557,5.557,0,0,1-6.192-5.366c1.942-1.054,4.986-.128,6.171.97" transform="translate(-353.784 -344.254)"/><path class="a" d="M358.857,372.639a5.469,5.469,0,0,0,2.075-7.441,5.3,5.3,0,0,0-3.411,1.82" transform="translate(-350.433 -345.624)"/><path class="a" d="M357.847,368.036a5.558,5.558,0,0,1-2.912-7.66c2.21-.008,4.451,2.25,4.974,3.776" transform="translate(-353.316 -350.054)"/><path class="a" d="M357.518,367.21a5.471,5.471,0,0,0,5.351-5.574,5.3,5.3,0,0,0-3.865-.011" transform="translate(-350.438 -349.242)"/><path class="a" d="M358.547,363.123A5.559,5.559,0,0,1,359.61,355c1.95,1.04,2.855,4.09,2.593,5.682" transform="translate(-350.674 -354.997)"/><path class="a" d="M359.13,361.9a5.472,5.472,0,0,0,7.354-2.372,5.308,5.308,0,0,0-3.4-1.841" transform="translate(-348.995 -352.575)"/></g><g transform="translate(626 970)"><path class="b" d="M373.284,375.956a5.559,5.559,0,0,0,8-1.792c-1.212-1.851-4.331-2.475-5.893-2.07" transform="translate(-347.774 -339.414)"/><path class="b" d="M372.942,376.509a5.472,5.472,0,0,1,1.7-7.538,5.3,5.3,0,0,1,2.14,3.219" transform="translate(-348.797 -342.157)"/><path class="b" d="M380.426,355.9a19.929,19.929,0,0,1,2.292,34.964c-5.294,3.446-17.5,5.355-22.9,9.313" transform="translate(-359.819 -354.18)"/><path class="b" d="M376.593,372.527a5.559,5.559,0,0,0,6.194-5.366c-1.944-1.054-4.988-.128-6.171.97" transform="translate(-344.788 -344.254)"/><path class="b" d="M376.741,372.639a5.469,5.469,0,0,1-2.075-7.441,5.3,5.3,0,0,1,3.411,1.82" transform="translate(-347.167 -345.624)"/><path class="b" d="M378.445,368.036a5.558,5.558,0,0,0,2.912-7.66c-2.21-.008-4.449,2.25-4.974,3.776" transform="translate(-344.978 -350.054)"/><path class="b" d="M378.659,367.21a5.468,5.468,0,0,1-5.351-5.574,5.3,5.3,0,0,1,3.863-.011" transform="translate(-347.739 -349.242)"/><path class="b" d="M377.454,363.123A5.559,5.559,0,0,0,376.392,355c-1.952,1.04-2.855,4.09-2.595,5.682" transform="translate(-347.329 -354.997)"/><path class="b" d="M377.99,361.9a5.469,5.469,0,0,1-7.352-2.372,5.3,5.3,0,0,1,3.4-1.841" transform="translate(-350.127 -352.575)"/></g></g><text class="c" transform="translate(973 284)"><tspan x="0" y="0">합격</tspan></text></g></svg>