<svg xmlns="http://www.w3.org/2000/svg" width="82" height="98.5" viewBox="0 0 82 98.5"><defs><style>.a,.c,.g{fill:none;}.a,.b,.c{stroke-linejoin:round;}.b,.d{fill:#49b68a;}.b{stroke:#333;}.b,.c{stroke-width:3px;}.c{stroke:#31966e;}.e,.f{stroke:none;}.f{fill:#333;}</style></defs><g transform="translate(-932 -1133.5)"><g transform="translate(3230 1707)"><g class="a"><path class="e" d="M-2236-516v-19l-21-14-21,14v19h-20v41h82v-41Z"/><path class="f" d="M -2257 -545.3944091796875 L -2275 -533.3944091796875 L -2275 -516 C -2275 -514.3431396484375 -2276.34326171875 -513 -2278 -513 L -2295 -513 L -2295 -478 L -2219 -478 L -2219 -513 L -2236 -513 C -2237.65673828125 -513 -2239 -514.3431396484375 -2239 -516 L -2239 -533.3944091796875 L -2257 -545.3944091796875 M -2257 -549 L -2236 -535 L -2236 -516 L -2216 -516 L -2216 -475 L -2298 -475 L -2298 -516 L -2278 -516 L -2278 -535 L -2257 -549 Z"/></g><path class="b" d="M-2257-547v-25l15,10-15,7"/><g class="c" transform="translate(-2265 -532)"><circle class="e" cx="8" cy="8" r="8"/><circle class="g" cx="8" cy="8" r="6.5"/></g></g><rect class="d" width="8" height="8" transform="translate(969 1214)"/><rect class="d" width="8" height="8" transform="translate(969 1201)"/><rect class="d" width="8" height="8" transform="translate(956 1214)"/><rect class="d" width="8" height="8" transform="translate(956 1201)"/><rect class="d" width="8" height="8" transform="translate(982 1214)"/><rect class="d" width="8" height="8" transform="translate(982 1201)"/></g></svg>