<svg xmlns="http://www.w3.org/2000/svg" width="24" height="40" viewBox="0 0 24 40"><defs><style>.a{fill:#fff;stroke:#333;stroke-miterlimit:10;stroke-width:2px;}.b{fill:#49b68a;stroke-linecap:round;}.c{fill:#333;}.d,.f{stroke:none;}.e{fill:none;}.f{fill:#333;}</style></defs><g transform="translate(-1291 -150)"><g class="a" transform="translate(1291 162)"><path class="d" d="M3.335,0H20.665A3.335,3.335,0,0,1,24,3.335V10A12,12,0,0,1,12,22h0A12,12,0,0,1,0,10V3.335A3.335,3.335,0,0,1,3.335,0Z"/><path class="e" d="M3.335,1H20.665A2.335,2.335,0,0,1,23,3.335V10A11,11,0,0,1,12,21h0A11,11,0,0,1,1,10V3.335A2.335,2.335,0,0,1,3.335,1Z"/></g><g class="b" transform="translate(1295 150)"><path class="d" d="M 8.000009536743164 29 C 4.140190124511719 29 1 25.85981941223145 1 22.00000953674316 L 1 7.999989986419678 C 1 4.140180110931396 4.140180110931396 1 7.999989986419678 1 C 11.85980987548828 1 15 4.140180110931396 15 7.999989986419678 L 15 22.00000953674316 C 15 25.85981941223145 11.85982036590576 29 8.000009536743164 29 Z"/><path class="f" d="M 7.999990463256836 2 C 4.691579818725586 2 2 4.691579818725586 2 7.999990463256836 L 2 22.00000953674316 C 2 25.30842018127441 4.691590309143066 28 8.000009536743164 28 C 11.30842018127441 28 14 25.30842018127441 14 22.00000953674316 L 14 7.999990463256836 C 14 4.691579818725586 11.30841064453125 2 7.999990463256836 2 M 7.999990463256836 0 L 8.000009536743164 0 C 12.41827964782715 0 16 3.581720352172852 16 7.999990463256836 L 16 22.00000953674316 C 16 26.41827964782715 12.41827964782715 30 8.000009536743164 30 L 7.999990463256836 30 C 3.581720352172852 30 0 26.41827964782715 0 22.00000953674316 L 0 7.999990463256836 C 0 3.581720352172852 3.581720352172852 0 7.999990463256836 0 Z"/></g><rect class="c" width="2" height="5" transform="translate(1302 183)"/><rect class="c" width="16" height="2" transform="translate(1295 188)"/><path class="c" d="M0,0H5A1,1,0,0,1,6,1V1A1,1,0,0,1,5,2H0A0,0,0,0,1,0,2V0A0,0,0,0,1,0,0Z" transform="translate(1296 160)"/><path class="c" d="M0,0H5A1,1,0,0,1,6,1V1A1,1,0,0,1,5,2H0A0,0,0,0,1,0,2V0A0,0,0,0,1,0,0Z" transform="translate(1296 164)"/><path class="c" d="M0,0H5A1,1,0,0,1,6,1V1A1,1,0,0,1,5,2H0A0,0,0,0,1,0,2V0A0,0,0,0,1,0,0Z" transform="translate(1310 162) rotate(180)"/><path class="c" d="M0,0H5A1,1,0,0,1,6,1V1A1,1,0,0,1,5,2H0A0,0,0,0,1,0,2V0A0,0,0,0,1,0,0Z" transform="translate(1310 166) rotate(180)"/></g></svg>