<svg xmlns="http://www.w3.org/2000/svg" width="93.001" height="78.34" viewBox="0 0 93.001 78.34"><defs><style>.a,.b{fill:none;stroke-linecap:round;stroke-linejoin:round;stroke-width:2px;}.a{stroke:#fff;}.b{stroke:#55cf96;}.c{fill:#fff;}.d{fill:#55cf96;}</style></defs><g transform="translate(-752 -7766)"><g transform="translate(-295.924 6368.343)"><path class="a" d="M1095.061,1455.685l11.315,3.722a4,4,0,0,0,5.126-2.391h0a4,4,0,0,0-2.391-5.127l-18.691-6.356a12.005,12.005,0,0,0-8.605.39l-8.45,3.763" transform="translate(0 0.292)"/><path class="a" d="M1111.376,1457.574l11.892-4.84a4,4,0,0,1,5.316,1.934h0a4,4,0,0,1-1.934,5.316l-18.125,8.454-.756.324a12,12,0,0,1-10.53-.526l-7.187-3.97a12,12,0,0,0-10.6-.5" transform="translate(-0.036 0.417)"/><path class="a" d="M1063.924,1474.24l14.615-7.249a2,2,0,0,0,.952-2.663l-6.615-15.588a2,2,0,0,0-2.664-.952l-6.288,2.887" transform="translate(0 0.417)"/><circle class="a" cx="1" cy="1" r="1" transform="translate(1067.542 1455.878)"/><path class="a" d="M1080.131,1445.633a23,23,0,1,1,31.466,7.739" transform="translate(-0.036)"/><path class="b" d="M1087.495,1443.921a15.993,15.993,0,1,1,16.41,5.192" transform="translate(-0.022)"/><path class="b" d="M1096.167,1430.824l4-3v13.167" transform="translate(-0.019 0.142)"/></g><path class="c" d="M-4885,15V9h-6a1,1,0,0,1-1-1,1,1,0,0,1,1-1h6V1a1,1,0,0,1,1-1,1,1,0,0,1,1,1V7h6a1,1,0,0,1,1,1,1,1,0,0,1-1,1h-6v6a1,1,0,0,1-1,1A1,1,0,0,1-4885,15Z" transform="translate(5721 7771)"/><path class="d" d="M-4885,15V9h-6a1,1,0,0,1-1-1,1,1,0,0,1,1-1h6V1a1,1,0,0,1,1-1,1,1,0,0,1,1,1V7h6a1,1,0,0,1,1,1,1,1,0,0,1-1,1h-6v6a1,1,0,0,1-1,1A1,1,0,0,1-4885,15Z" transform="translate(5644 7795)"/><path class="d" d="M-4885,12V9h-3a1,1,0,0,1-1-1,1,1,0,0,1,1-1h3V4a1,1,0,0,1,1-1,1,1,0,0,1,1,1V7h3a1,1,0,0,1,1,1,1,1,0,0,1-1,1h-3v3a1,1,0,0,1-1,1A1,1,0,0,1-4885,12Z" transform="translate(5668 7763)"/></g></svg>