<svg xmlns="http://www.w3.org/2000/svg" width="44.659" height="32.978" viewBox="0 0 44.659 32.978"><defs><style>.a{fill:#ddd;}.b,.e{fill:none;stroke-linejoin:round;}.b,.d,.e{stroke:#333;stroke-width:1.5px;}.b{stroke-linecap:round;}.c,.d{fill:#fff;}.d{stroke-miterlimit:10;}</style></defs><g transform="translate(-1179.507 -1655.067)"><path class="a" d="M1196.6,1679.627h23.266a3.528,3.528,0,0,0,3.547-3.509v-16.792a3.528,3.528,0,0,0-3.547-3.509H1191.7a3.264,3.264,0,0,0-3.281,3.247v2.893l.188,6.993-.3.612.3,1.646,4.158.238,1.805-.1,3.577,2.385,4.77-5.962.779,3.79-.713,2.258-4.277,4.158Z"/><path class="b" d="M1188.416,1661.957v-2.893a3.264,3.264,0,0,1,3.281-3.247h28.172a3.528,3.528,0,0,1,3.547,3.509v16.792a3.528,3.528,0,0,1-3.547,3.509H1196.6"/><rect class="c" width="29" height="18" transform="translate(1191.257 1658.817)"/><path class="d" d="M1192.182,1665.687a3.875,3.875,0,1,0-3.876,3.875A3.876,3.876,0,0,0,1192.182,1665.687Z"/><path class="e" d="M1194.567,1688.045v-10.732l4.173,1.193,4.552-5.563a2.46,2.46,0,0,0,.461-2.232l-.839-2.937"/><path class="e" d="M1206.491,1663.6l-8.347,10.136-3.577-2.385h-12.521c-1.232,0-1.789,1.152-1.789,2.385v9.539c0,1.233.557,2.385,1.789,2.385h8.347v-8.347h-6.558v10.732"/></g></svg>