<svg xmlns="http://www.w3.org/2000/svg" width="36.5" height="34.859" viewBox="0 0 36.5 34.859"><defs><style>.a{fill:#ddd;}.a,.b,.c{stroke:#333;stroke-linecap:round;stroke-linejoin:round;stroke-width:1.5px;}.b{fill:none;}.c{fill:#fff;}</style></defs><g transform="translate(-1148.859 -1639.259)"><path class="a" d="M1175.8,1644.337a4.387,4.387,0,0,0-4.621-4.328,4.627,4.627,0,0,1-8.429,0,4.387,4.387,0,0,0-4.621,4.328,6.438,6.438,0,0,0,1.155,3.246c2.393,3.49,7.1,7.575,7.68,7.575.672,0,5.26-4.108,7.545-7.575A9.427,9.427,0,0,0,1175.8,1644.337Z"/><path class="b" d="M1179.9,1668.762v-2.1c0-.821,2.885-4.57,4.138-6.768a4.448,4.448,0,0,0,.568-2.192v-11.066a2.48,2.48,0,0,0-2.725-2.65,2.668,2.668,0,0,0-1.981,2.732v5.866"/><path class="b" d="M1178.29,1660.649l2.589-3.946a2.937,2.937,0,0,0-.372-3.463,2.116,2.116,0,0,0-3.394.547l-4.4,7.108a4.571,4.571,0,0,0-.816,2.632v5.235"/><rect class="c" width="10.355" height="4.605" rx="2" transform="translate(1170.96 1668.762)"/><path class="b" d="M1154.316,1668.762v-2.1c0-.821-2.885-4.57-4.138-6.768a4.438,4.438,0,0,1-.569-2.192v-11.066a2.481,2.481,0,0,1,2.726-2.65,2.668,2.668,0,0,1,1.981,2.732v5.866"/><path class="b" d="M1155.928,1660.649l-2.588-3.946a2.936,2.936,0,0,1,.372-3.463,2.116,2.116,0,0,1,3.394.547l4.4,7.108a4.564,4.564,0,0,1,.817,2.632v5.235"/><rect class="c" width="10.355" height="4.605" rx="2" transform="translate(1163.259 1673.368) rotate(180)"/></g></svg>