<svg xmlns="http://www.w3.org/2000/svg" width="51.086" height="50.911" viewBox="0 0 51.086 50.911"><defs><style>.a,.b,.c,.e,.f{fill:none;stroke-width:2px;}.a,.f{stroke:#49b68a;}.a,.c{stroke-linecap:square;}.a,.b,.c{stroke-linejoin:round;}.b,.c,.e{stroke:#fff;}.b{stroke-linecap:round;}.d{fill:#fff;}.e,.f{stroke-miterlimit:10;}</style></defs><g transform="translate(-359.847 -305.46)"><g transform="translate(360.847 306.46)"><g transform="translate(37.888)"><line class="a" y1="2.061" x2="2.089" transform="translate(2.568 6.578)"/><path class="a" d="M408.165,308.381a6.559,6.559,0,0,1,9.276,9.276Z" transform="translate(-408.165 -306.46)"/></g><line class="a" x1="2.089" y1="2.061" transform="translate(6.541 6.578)"/><path class="a" d="M372.045,308.381a6.559,6.559,0,0,0-9.276,9.276Z" transform="translate(-360.847 -306.46)"/><ellipse class="b" cx="21.188" cy="21.197" rx="21.188" ry="21.197" transform="translate(3.355 2.796)"/><line class="c" x2="6.261" y2="7.206" transform="translate(37.163 41.294)"/><line class="c" x1="6.261" y2="7.206" transform="translate(5.662 41.294)"/><circle class="d" cx="2.252" cy="2.252" r="2.252" transform="translate(22.274 23.722)"/><path class="e" d="M383.079,329.708l6.768,5.238,9.263-9.97" transform="translate(-365.395 -308.774)"/></g><line class="f" y2="3.04" transform="translate(385.408 311.616)"/><line class="f" x2="1.52" y2="2.633" transform="translate(375.769 314.01)"/><line class="f" x2="2.633" y2="1.52" transform="translate(368.72 321.046)"/><line class="f" x2="3.04" transform="translate(366.304 330.68)"/><line class="f" y1="1.52" x2="2.633" transform="translate(368.703 338.798)"/><line class="f" y1="2.633" x2="1.52" transform="translate(375.74 344.507)"/><line class="f" y1="3.04" transform="translate(385.373 346.764)"/><line class="f" x1="1.52" y1="2.633" transform="translate(393.491 344.525)"/><line class="f" x1="2.633" y1="1.52" transform="translate(399.428 338.827)"/><line class="f" x1="3.04" transform="translate(401.435 330.715)"/><line class="f" x1="2.633" y2="1.52" transform="translate(399.445 321.076)"/><line class="f" x1="1.52" y2="2.633" transform="translate(393.521 314.027)"/></g></svg>