<svg xmlns="http://www.w3.org/2000/svg" width="42.5" height="37.443" viewBox="0 0 42.5 37.443"><defs><style>.a{fill:#fff;}.a,.b,.c{stroke:#333;stroke-linecap:round;stroke-linejoin:round;}.a,.b{stroke-width:1.5px;}.b{fill:#ddd;}.c{fill:none;stroke-width:2px;}</style></defs><g transform="translate(-1088.818 -1694.307)"><path class="a" d="M3,0H32a3,3,0,0,1,3,3V20a0,0,0,0,1,0,0H0a0,0,0,0,1,0,0V3A3,3,0,0,1,3,0Z" transform="translate(1092.568 1704)"/><rect class="b" width="41" height="4" transform="translate(1089.568 1727)"/><line class="c" y2="2.59" transform="translate(1110.068 1695.307)"/><line class="c" x1="1.781" y2="2.377" transform="translate(1114.952 1696.448)"/><line class="c" x2="1.781" y2="2.377" transform="translate(1103.402 1696.448)"/><path class="a" d="M1112.483,1713.695a.707.707,0,0,0,.7-.712v-1.425a.677.677,0,0,0-.035-.175,6.084,6.084,0,0,0,2.85-5.175,5.929,5.929,0,1,0-11.855,0,6.084,6.084,0,0,0,2.85,5.175.721.721,0,0,0-.035.175v1.425a.707.707,0,0,0,.7.712Z"/><path class="a" d="M0,0H6.295a0,0,0,0,1,0,0V1.777a2,2,0,0,1-2,2H2a2,2,0,0,1-2-2V0A0,0,0,0,1,0,0Z" transform="translate(1106.92 1715.964)"/></g></svg>