<svg xmlns="http://www.w3.org/2000/svg" width="19" height="19" viewBox="0 0 19 19"><defs><style>.a{fill:none;stroke-linecap:round;stroke-linejoin:bevel;}.b{fill:#fff;}.c,.d{stroke:none;}.d{fill:#fff;}</style></defs><g transform="translate(-1221.001 -776)"><g class="a" transform="translate(1216.501 771.5)"><path class="c" d="M23.5,17.167a2.111,2.111,0,0,1-2.111,2.111H8.722L4.5,23.5V6.611A2.111,2.111,0,0,1,6.611,4.5H21.389A2.111,2.111,0,0,1,23.5,6.611Z"/><path class="d" d="M 6.000000953674316 19.87868118286133 L 7.661561012268066 18.21712112426758 L 8.722221374511719 17.77778053283691 L 21.38889122009277 17.77778053283691 C 21.72586059570312 17.77778053283691 22 17.50364112854004 22 17.16667175292969 L 22 6.611111164093018 C 22 6.27414083480835 21.72586059570312 6.000000953674316 21.38889122009277 6.000000953674316 L 6.611111164093018 6.000000953674316 C 6.27414083480835 6.000000953674316 6.000000953674316 6.27414083480835 6.000000953674316 6.611111164093018 L 6.000000953674316 19.87868118286133 M 4.500000953674316 23.5 L 4.500000953674316 6.611111164093018 C 4.500000953674316 5.445180892944336 5.445180892944336 4.500000953674316 6.611111164093018 4.500000953674316 L 21.38889122009277 4.500000953674316 C 22.55483055114746 4.500000953674316 23.5 5.445180892944336 23.5 6.611111164093018 L 23.5 17.16667175292969 C 23.5 18.33260154724121 22.55483055114746 19.27778053283691 21.38889122009277 19.27778053283691 L 8.722221374511719 19.27778053283691 L 4.500000953674316 23.5 Z"/></g><circle class="b" cx="1.5" cy="1.5" r="1.5" transform="translate(1225 782)"/><circle class="b" cx="1.5" cy="1.5" r="1.5" transform="translate(1229 782)"/><circle class="b" cx="1.5" cy="1.5" r="1.5" transform="translate(1233 782)"/></g></svg>