<svg xmlns="http://www.w3.org/2000/svg" width="77" height="60.5" viewBox="0 0 77 60.5"><defs><style>.a,.d{fill:none;}.a{stroke:#333;stroke-linejoin:round;stroke-width:3px;}.b{fill:#31966e;}.c{stroke:none;}</style></defs><g transform="translate(2361.5 200)"><g class="a" transform="translate(-2340 -176.5)"><path class="c" d="M17,0h0A17,17,0,0,1,34,17V37a0,0,0,0,1,0,0H0a0,0,0,0,1,0,0V17A17,17,0,0,1,17,0Z"/><path class="d" d="M17,1.5h0A15.5,15.5,0,0,1,32.5,17V34A1.5,1.5,0,0,1,31,35.5H3A1.5,1.5,0,0,1,1.5,34V17A15.5,15.5,0,0,1,17,1.5Z"/></g><g class="a" transform="translate(-2361.5 -172.5)"><path class="c" d="M12,0h0A12,12,0,0,1,24,12V25a0,0,0,0,1,0,0H0a0,0,0,0,1,0,0V12A12,12,0,0,1,12,0Z"/><path class="d" d="M12,1.5h0A10.5,10.5,0,0,1,22.5,12V22A1.5,1.5,0,0,1,21,23.5H3A1.5,1.5,0,0,1,1.5,22V12A10.5,10.5,0,0,1,12,1.5Z"/></g><g class="a" transform="translate(-2336 -200)"><circle class="c" cx="13" cy="13" r="13"/><circle class="d" cx="13" cy="13" r="11.5"/></g><g class="a" transform="translate(-2358.5 -188)"><circle class="c" cx="9" cy="9" r="9"/><circle class="d" cx="9" cy="9" r="7.5"/></g><g class="a" transform="translate(-2308.5 -172.5)"><path class="c" d="M12,0h0A12,12,0,0,1,24,12V25a0,0,0,0,1,0,0H0a0,0,0,0,1,0,0V12A12,12,0,0,1,12,0Z"/><path class="d" d="M12,1.5h0A10.5,10.5,0,0,1,22.5,12V22A1.5,1.5,0,0,1,21,23.5H3A1.5,1.5,0,0,1,1.5,22V12A10.5,10.5,0,0,1,12,1.5Z"/></g><g class="a" transform="translate(-2305.5 -188)"><circle class="c" cx="9" cy="9" r="9"/><circle class="d" cx="9" cy="9" r="7.5"/></g><path class="b" d="M-2321-160l-2,2-2-2v-14h4Z"/></g></svg>