<svg xmlns="http://www.w3.org/2000/svg" width="64.772" height="71" viewBox="0 0 64.772 71"><defs><style>.a{fill:#0e935d;}.b,.c{fill:none;}.b{stroke-miterlimit:10;}.c{stroke:#333;stroke-linejoin:round;stroke-width:2px;}.d,.e,.f{stroke:none;}.e{fill:#333;}.f{fill:#0e935d;}</style></defs><g transform="translate(-767.228 -7603)"><rect class="a" width="11" height="15" transform="translate(796 7656)"/><g transform="translate(-494 6197)"><g class="b"><path class="d" d="M1291.5,1447a7.5,7.5,0,1,0-7.5-7.5A7.5,7.5,0,0,0,1291.5,1447Z"/><path class="e" d="M 1291.501953125 1445 C 1294.533813476562 1444.999145507812 1297 1442.532104492188 1297 1439.5 C 1297 1436.46728515625 1294.53271484375 1434 1291.5 1434 C 1288.46728515625 1434 1286 1436.46728515625 1286 1439.49755859375 C 1286.003662109375 1442.52783203125 1288.471801757812 1444.99609375 1291.501953125 1445 M 1291.5 1447 C 1287.359985351562 1446.994995117188 1284.005004882812 1443.640014648438 1284 1439.5 C 1284 1435.358032226562 1287.358032226562 1432 1291.5 1432 C 1295.641967773438 1432 1299 1435.358032226562 1299 1439.5 C 1299 1443.641967773438 1295.641967773438 1447 1291.5 1447 Z"/></g><g class="b"><path class="d" d="M1308.5,1406c-9.65,0-17.5,6.423-17.5,14.318,0,5.98,4.425,11.22,11.136,13.345v5.746a1.591,1.591,0,0,0,1.591,1.591,7.966,7.966,0,0,0,7.828-6.581c8.323-1.187,14.445-7.066,14.445-14.1C1326,1412.423,1318.15,1406,1308.5,1406Z"/><path class="f" d="M 1308.5 1408 C 1306.364990234375 1408 1304.295654296875 1408.342041015625 1302.349609375 1409.0166015625 C 1300.489379882812 1409.661499023438 1298.823364257812 1410.579833984375 1297.397705078125 1411.746337890625 C 1294.561767578125 1414.066528320312 1293 1417.110717773438 1293 1420.317993164062 C 1293 1425.392944335938 1296.823120117188 1429.8828125 1302.73974609375 1431.756225585938 L 1304.135986328125 1432.198364257812 L 1304.135986328125 1438.984985351562 C 1306.848510742188 1438.793334960938 1309.1064453125 1436.784301757812 1309.585571289062 1434.071166992188 L 1309.837646484375 1432.643676757812 L 1311.272705078125 1432.43896484375 C 1318.6474609375 1431.387329101562 1324 1426.290161132812 1324 1420.318969726562 C 1324 1417.111328125 1322.438232421875 1414.066772460938 1319.602294921875 1411.746337890625 C 1318.176635742188 1410.579833984375 1316.510620117188 1409.661499023438 1314.650390625 1409.0166015625 C 1312.704345703125 1408.342041015625 1310.635009765625 1408 1308.5 1408 M 1308.5 1406 C 1318.150024414062 1406 1326 1412.422973632812 1326 1420.318969726562 C 1326 1427.35302734375 1319.878051757812 1433.232055664062 1311.555053710938 1434.4189453125 C 1310.884033203125 1438.218994140625 1307.586059570312 1440.991943359375 1303.72705078125 1441 C 1302.848022460938 1441 1302.135986328125 1440.287963867188 1302.135986328125 1439.409057617188 L 1302.135986328125 1433.662963867188 C 1295.425048828125 1431.537963867188 1291 1426.297973632812 1291 1420.317993164062 C 1291 1412.422973632812 1298.849975585938 1406 1308.5 1406 Z"/></g><circle class="a" cx="2" cy="2" r="2" transform="translate(1299 1418)"/><circle class="a" cx="2" cy="2" r="2" transform="translate(1306 1418)"/><circle class="a" cx="2" cy="2" r="2" transform="translate(1313 1418)"/><path class="c" d="M1282,1477v-18l-7,2-7.634-9.331a4.118,4.118,0,0,1-.773-3.743L1268,1443"/><path class="c" d="M1262,1436l14,17,6-4h21c2.067,0,3,1.933,3,4v16c0,2.067-.933,4-3,4h-14v-14h11v18"/></g></g></svg>