<svg xmlns="http://www.w3.org/2000/svg" width="89" height="54" viewBox="0 0 89 54"><defs><style>.a,.c{fill:#fff;}.b,.d{fill:none;stroke-linecap:round;stroke-width:2px;}.b{stroke:#333;}.b,.c,.d{stroke-miterlimit:10;}.d{stroke:#0e935d;}.e{fill:#333;}.f{fill:#0e935d;}.g,.h{stroke:none;}.h{fill:#0e935d;}</style></defs><g transform="translate(-756 -6140)"><path class="a" d="M5693.366,6149.625s-11.345-13.241-24.026,0,2,22.839,2,22.839l18.02,20.191,6.34-6.289s6.007,4.3,7.675-3.641c7.425-1.738,5.339-6.62,5.339-6.62s6.006,1.986,5.339-6.29c1-2.482,11.012-11.254,0-21.847S5693.366,6149.625,5693.366,6149.625Z" transform="translate(-4892.18 0.344)"/><g transform="translate(219 4246)"><path class="b" d="M591.272,1935.461a4.041,4.041,0,0,1,0,5.694,3.991,3.991,0,0,1-5.666,0"/><g class="c"><path class="g" d="M 562.1925659179688 1932.052124023438 C 561.3989868164062 1932.052124023438 560.6597290039062 1931.748291015625 560.1109008789062 1931.196655273438 C 558.9358520507812 1930.015625 558.9807739257812 1928.048217773438 560.2110595703125 1926.811157226562 L 565.6768798828125 1921.318359375 C 566.290283203125 1920.701538085938 567.0946044921875 1920.361938476562 567.9420776367188 1920.361938476562 C 568.7356567382812 1920.361938476562 569.4749755859375 1920.666015625 570.0238647460938 1921.218017578125 C 571.1997680664062 1922.399169921875 571.1548461914062 1924.365966796875 569.9241943359375 1925.602661132812 L 564.4591064453125 1931.095703125 C 563.8453979492188 1931.71240234375 563.0404052734375 1932.052124023438 562.1925659179688 1932.052124023438 Z"/><path class="h" d="M 562.1925659179688 1931.052124023438 C 562.7723999023438 1931.052124023438 563.3256225585938 1930.817016601562 563.7501831054688 1930.390380859375 L 569.21533203125 1924.897216796875 C 570.058837890625 1924.049560546875 570.1038208007812 1922.7158203125 569.314697265625 1921.923095703125 C 568.9549560546875 1921.561279296875 568.4674682617188 1921.361938476562 567.9420776367188 1921.361938476562 C 567.36279296875 1921.361938476562 566.8102416992188 1921.596801757812 566.3856811523438 1922.023803710938 L 560.920166015625 1927.516235351562 C 560.0765991210938 1928.364501953125 560.0315551757812 1929.699096679688 560.8197631835938 1930.491333007812 C 561.1795654296875 1930.85302734375 561.6671142578125 1931.052124023438 562.1925659179688 1931.052124023438 M 562.1925659179688 1933.052124023438 C 561.1732177734375 1933.052124023438 560.166259765625 1932.670166015625 559.4019775390625 1931.901977539062 C 557.8369750976562 1930.328979492188 557.8820190429688 1927.734985351562 559.5020141601562 1926.10595703125 L 564.968017578125 1920.613037109375 C 566.5869140625 1918.984985351562 569.1688842773438 1918.93994140625 570.7329711914062 1920.512939453125 C 572.2979736328125 1922.0849609375 572.2529907226562 1924.680053710938 570.6329956054688 1926.307983398438 L 565.1680297851562 1931.801025390625 C 564.339599609375 1932.633422851562 563.2593383789062 1933.052124023438 562.1925659179688 1933.052124023438 Z"/></g><g class="c"><path class="g" d="M 567.1505126953125 1937.035034179688 C 566.3568725585938 1937.035034179688 565.6173095703125 1936.73095703125 565.0679321289062 1936.1787109375 C 563.8930053710938 1934.997802734375 563.9382934570312 1933.031005859375 565.1688842773438 1931.794311523438 L 570.6339111328125 1926.30126953125 C 571.2476196289062 1925.6845703125 572.0524291992188 1925.344848632812 572.8999633789062 1925.344848632812 C 573.6934814453125 1925.344848632812 574.4329833984375 1925.648681640625 574.9822998046875 1926.200561523438 C 576.1572265625 1927.381469726562 576.1124267578125 1929.348266601562 574.8821411132812 1930.584716796875 L 569.4160766601562 1936.078735351562 C 568.802490234375 1936.695434570312 567.9978637695312 1937.035034179688 567.1505126953125 1937.035034179688 Z"/><path class="h" d="M 567.1505126953125 1936.035034179688 C 567.7297973632812 1936.035034179688 568.28271484375 1935.800048828125 568.7071533203125 1935.373413085938 L 574.1732788085938 1929.87939453125 C 575.0166015625 1929.031860351562 575.0614013671875 1927.697875976562 574.2736206054688 1926.906005859375 C 573.913330078125 1926.544189453125 573.425537109375 1926.344848632812 572.8999633789062 1926.344848632812 C 572.3204345703125 1926.344848632812 571.7673950195312 1926.579956054688 571.3428344726562 1927.006591796875 L 565.8777465820312 1932.499633789062 C 565.0341796875 1933.347412109375 564.9888916015625 1934.681518554688 565.7767944335938 1935.473388671875 C 566.1371459960938 1935.835571289062 566.625 1936.035034179688 567.1505126953125 1936.035034179688 M 567.1505126953125 1938.035034179688 C 566.131103515625 1938.035034179688 565.1238403320312 1937.652709960938 564.3590087890625 1936.884033203125 C 562.7949829101562 1935.31201171875 562.8400268554688 1932.717041015625 564.4600219726562 1931.088989257812 L 569.9249877929688 1925.595947265625 C 571.544921875 1923.96826171875 574.1260375976562 1923.922973632812 575.6909790039062 1925.494995117188 C 577.2559814453125 1927.067993164062 577.2109985351562 1929.661987304688 575.5910034179688 1931.2900390625 L 570.125 1936.784057617188 C 569.2966918945312 1937.616455078125 568.2169799804688 1938.035034179688 567.1505126953125 1938.035034179688 Z"/></g><g class="c"><path class="g" d="M 572.1080932617188 1942.01708984375 C 571.3145751953125 1942.01708984375 570.5750732421875 1941.713256835938 570.0256958007812 1941.161376953125 C 568.8507080078125 1939.98046875 568.8955688476562 1938.013671875 570.1257934570312 1936.77734375 L 575.5918579101562 1931.284301757812 C 576.2057495117188 1930.6669921875 577.0104370117188 1930.3271484375 577.85791015625 1930.3271484375 C 578.6513061523438 1930.3271484375 579.3907470703125 1930.631225585938 579.9400634765625 1931.183349609375 C 581.114990234375 1932.3642578125 581.0697021484375 1934.3310546875 579.8391723632812 1935.567504882812 L 574.3740844726562 1941.060668945312 C 573.7603759765625 1941.677490234375 572.9556274414062 1942.01708984375 572.1080932617188 1942.01708984375 Z"/><path class="h" d="M 572.1080932617188 1941.01708984375 C 572.6875610351562 1941.01708984375 573.2406005859375 1940.782104492188 573.6651611328125 1940.355346679688 L 579.1303100585938 1934.862182617188 C 579.973876953125 1934.014526367188 580.0191040039062 1932.680541992188 579.2311401367188 1931.888671875 C 578.8709106445312 1931.526489257812 578.3831787109375 1931.3271484375 577.85791015625 1931.3271484375 C 577.2786254882812 1931.3271484375 576.7257690429688 1931.562255859375 576.3007202148438 1931.98974609375 L 570.8346557617188 1937.482788085938 C 569.9913940429688 1938.330200195312 569.9465942382812 1939.6640625 570.734375 1940.455932617188 C 571.0946655273438 1940.817749023438 571.58251953125 1941.01708984375 572.1080932617188 1941.01708984375 M 572.1080932617188 1943.01708984375 C 571.0888061523438 1943.01708984375 570.0817260742188 1942.635131835938 569.3170166015625 1941.866943359375 C 567.7520141601562 1940.2939453125 567.7969970703125 1937.699951171875 569.4169921875 1936.072021484375 L 574.8829956054688 1930.578979492188 C 576.5029296875 1928.950073242188 579.0840454101562 1928.905029296875 580.6489868164062 1930.47802734375 C 582.2130126953125 1932.050048828125 582.1680297851562 1934.64501953125 580.5479736328125 1936.27294921875 L 575.0830078125 1941.765991210938 C 574.254638671875 1942.598510742188 573.1746826171875 1943.01708984375 572.1080932617188 1943.01708984375 Z"/></g><g class="c"><path class="g" d="M 577.0659790039062 1947 C 576.2723388671875 1947 575.5330200195312 1946.695922851562 574.9841918945312 1946.143920898438 C 573.8082885742188 1944.962768554688 573.8532104492188 1942.99609375 575.0838623046875 1941.75927734375 L 580.5489501953125 1936.266357421875 C 581.16259765625 1935.649658203125 581.9673461914062 1935.309936523438 582.8148803710938 1935.309936523438 C 583.6085815429688 1935.309936523438 584.3479614257812 1935.614013671875 584.8968505859375 1936.166137695312 C 586.0728149414062 1937.347290039062 586.02783203125 1939.313842773438 584.7971801757812 1940.550659179688 L 579.3311157226562 1946.043701171875 C 578.7177734375 1946.660400390625 577.9133911132812 1947 577.0659790039062 1947 Z"/><path class="h" d="M 577.0659790039062 1946 C 577.645263671875 1946 578.1978149414062 1945.76513671875 578.6222534179688 1945.338256835938 L 584.0883178710938 1939.84521484375 C 584.931884765625 1938.99755859375 584.9769287109375 1937.663818359375 584.1876831054688 1936.871215820312 C 583.8279418945312 1936.50927734375 583.3403930664062 1936.309936523438 582.8148803710938 1936.309936523438 C 582.2353515625 1936.309936523438 581.682373046875 1936.545043945312 581.2578125 1936.9716796875 L 575.792724609375 1942.464599609375 C 574.9491577148438 1943.312377929688 574.9041748046875 1944.646240234375 575.6932983398438 1945.438842773438 C 576.0530395507812 1945.800659179688 576.5405883789062 1946 577.0659790039062 1946 M 577.0659790039062 1948 C 576.046630859375 1948 575.0393676757812 1947.617797851562 574.2750244140625 1946.848999023438 C 572.7100219726562 1945.276977539062 572.7550048828125 1942.682006835938 574.375 1941.053955078125 L 579.8400268554688 1935.56103515625 C 581.4600830078125 1933.932861328125 584.0419921875 1933.887817382812 585.6060180664062 1935.461059570312 C 587.1710205078125 1937.032958984375 587.1259765625 1939.628051757812 585.5059814453125 1941.255981445312 L 580.0399780273438 1946.7490234375 C 579.2122192382812 1947.581420898438 578.1325073242188 1948 577.0659790039062 1948 Z"/></g><path class="b" d="M578.524,1922.648l12.758,12.823a3.986,3.986,0,0,0,5.656-.01,4.035,4.035,0,0,0,.01-5.685l-12.758-12.822"/><path class="d" d="M559.4,1926.207l-.708-.712a16.163,16.163,0,0,1,0-22.778h0a15.97,15.97,0,0,1,22.663,0l.708.712"/><path class="b" d="M602.6,1924.072l1.334-1.34a14.46,14.46,0,0,0-.271-20.37h0a14.284,14.284,0,0,0-20.268-.273l-.625.628-8.379,8.422a4.156,4.156,0,0,0-.386,5.52,3.988,3.988,0,0,0,5.922.3l6.511-6.544a1.818,1.818,0,0,1,2.58,0l.834.839,12.629,12.693a4.155,4.155,0,0,1,.385,5.52,3.987,3.987,0,0,1-5.921.3"/></g><path class="e" d="M-4885,15V9h-6a1,1,0,0,1-1-1,1,1,0,0,1,1-1h6V1a1,1,0,0,1,1-1,1,1,0,0,1,1,1V7h6a1,1,0,0,1,1,1,1,1,0,0,1-1,1h-6v6a1,1,0,0,1-1,1A1,1,0,0,1-4885,15Z" transform="translate(5648 6178)"/><path class="f" d="M-4885,12V9h-3a1,1,0,0,1-1-1,1,1,0,0,1,1-1h3V4a1,1,0,0,1,1-1,1,1,0,0,1,1,1V7h3a1,1,0,0,1,1,1,1,1,0,0,1-1,1h-3v3a1,1,0,0,1-1,1A1,1,0,0,1-4885,12Z" transform="translate(5724 6137)"/></g></svg>