<svg xmlns="http://www.w3.org/2000/svg" width="39.5" height="41.75" viewBox="0 0 39.5 41.75"><defs><style>.a,.c{fill:#fff;}.a,.b,.c{stroke:#333;stroke-width:1.5px;}.b,.d{fill:#ddd;}.c{stroke-linecap:round;stroke-linejoin:round;}.e{stroke:none;}.f{fill:none;}</style></defs><g transform="translate(-520.25 -399)"><g transform="translate(521 399)"><path class="a" d="M-128,1074h5.624a2.376,2.376,0,0,1,2.376,2.376v31.248a2.376,2.376,0,0,1-2.376,2.376h-33.248a2.376,2.376,0,0,1-2.376-2.376v-31.248a2.376,2.376,0,0,1,2.376-2.376H-128Z" transform="translate(158 -1069)"/><path class="b" d="M4,0H34a4,4,0,0,1,4,4v6a0,0,0,0,1,0,0H0a0,0,0,0,1,0,0V4A4,4,0,0,1,4,0Z" transform="translate(0 4)"/><g class="c" transform="translate(32 0) rotate(90)"><rect class="e" width="10" height="6" rx="3"/><rect class="f" x="0.75" y="0.75" width="8.5" height="4.5" rx="2.25"/></g><g class="c" transform="translate(12 0) rotate(90)"><rect class="e" width="10" height="6" rx="3"/><rect class="f" x="0.75" y="0.75" width="8.5" height="4.5" rx="2.25"/></g></g><circle class="d" cx="2" cy="2" r="2" transform="translate(538 416)"/><circle class="d" cx="2" cy="2" r="2" transform="translate(538 422)"/><circle class="d" cx="2" cy="2" r="2" transform="translate(538 428)"/><circle class="d" cx="2" cy="2" r="2" transform="translate(538 434)"/><circle class="d" cx="2" cy="2" r="2" transform="translate(552 416)"/><circle class="d" cx="2" cy="2" r="2" transform="translate(552 422)"/><circle class="d" cx="2" cy="2" r="2" transform="translate(552 428)"/><circle class="d" cx="2" cy="2" r="2" transform="translate(531 422)"/><circle class="d" cx="2" cy="2" r="2" transform="translate(531 428)"/><circle class="d" cx="2" cy="2" r="2" transform="translate(531 434)"/><circle class="d" cx="2" cy="2" r="2" transform="translate(545 416)"/><circle class="d" cx="2" cy="2" r="2" transform="translate(545 422)"/><circle class="d" cx="2" cy="2" r="2" transform="translate(545 428)"/><circle class="d" cx="2" cy="2" r="2" transform="translate(524 422)"/><circle class="d" cx="2" cy="2" r="2" transform="translate(524 428)"/><circle class="d" cx="2" cy="2" r="2" transform="translate(524 434)"/></g></svg>