<svg xmlns="http://www.w3.org/2000/svg" width="104.001" height="83.597" viewBox="0 0 104.001 83.597"><defs><style>.a{fill:none;stroke:#333;stroke-linecap:round;stroke-linejoin:round;stroke-width:3px;}.b{fill:#31966e;font-size:55px;font-family:TTGulimH, '\32 10 Gulim \30 90';letter-spacing:-0.06em;}</style></defs><g transform="translate(-620.499 -734.458)"><g transform="translate(657 735.958)"><g transform="translate(0 0)"><g transform="translate(0)"><path class="a" d="M373.284,378.9c4.556,3.176,11.4,1.809,13.889-3.116-2.1-3.219-7.523-4.3-10.235-3.6" transform="translate(-328.976 -315.346)"/><path class="a" d="M373.552,382.081c-2.7-4.347-1.526-10.573,2.95-13.11a9.212,9.212,0,0,1,3.717,5.6" transform="translate(-331.615 -322.338)"/><path class="a" d="M395.61,355.9a34.681,34.681,0,0,1,3.981,60.806c-9.195,5.993-30.4,9.313-39.772,16.2" transform="translate(-359.819 -352.906)"/><path class="a" d="M376.593,376.835c5.514.638,10.89-3.811,10.757-9.332-3.377-1.833-8.663-.222-10.718,1.687" transform="translate(-321.353 -327.666)"/><path class="a" d="M378.81,378.14c-4.434-2.547-6.347-8.585-3.6-12.942a9.2,9.2,0,0,1,5.924,3.166" transform="translate(-327.444 -331.157)"/><path class="a" d="M379.964,373.7c5.157-2.054,7.79-8.522,5.058-13.322-3.839-.013-7.728,3.914-8.64,6.567" transform="translate(-321.837 -342.425)"/><path class="a" d="M382.611,371.6c-5.111-.142-9.651-4.552-9.294-9.693a9.189,9.189,0,0,1,6.71-.02" transform="translate(-328.908 -340.355)"/><path class="a" d="M380.18,369.13c3.571-4.254,2.831-11.2-1.844-14.133-3.39,1.81-4.959,7.113-4.506,9.882" transform="translate(-327.858 -354.997)"/><path class="a" d="M383.407,365.01c-4.569,2.3-10.652.566-12.769-4.125a9.2,9.2,0,0,1,5.9-3.2" transform="translate(-335.013 -348.799)"/></g></g></g><g transform="translate(622 735.958)"><g transform="translate(0 0)"><path class="a" d="M387.173,378.9c-4.556,3.176-11.4,1.809-13.889-3.116,2.1-3.219,7.523-4.3,10.235-3.6" transform="translate(-365.481 -315.346)"/><path class="a" d="M378.782,382.081c2.7-4.347,1.526-10.573-2.95-13.11a9.212,9.212,0,0,0-3.717,5.6" transform="translate(-354.719 -322.338)"/><path class="a" d="M379.959,355.9a34.681,34.681,0,0,0-3.981,60.806c9.195,5.993,30.4,9.313,39.772,16.2" transform="translate(-349.75 -352.906)"/><path class="a" d="M387.353,376.835c-5.514.638-10.89-3.811-10.757-9.332,3.377-1.833,8.663-.222,10.718,1.687" transform="translate(-376.593 -327.666)"/><path class="a" d="M376.252,378.14c4.434-2.547,6.347-8.585,3.6-12.942a9.2,9.2,0,0,0-5.924,3.166" transform="translate(-361.618 -331.157)"/><path class="a" d="M382.537,373.7c-5.157-2.054-7.79-8.522-5.058-13.322,3.839-.013,7.728,3.914,8.639,6.567" transform="translate(-374.665 -342.425)"/><path class="a" d="M373.3,371.6c5.111-.142,9.651-4.552,9.294-9.693a9.189,9.189,0,0,0-6.71-.02" transform="translate(-361 -340.355)"/><path class="a" d="M376,369.13c-3.571-4.254-2.831-11.2,1.844-14.133,3.39,1.81,4.959,7.113,4.506,9.882" transform="translate(-362.323 -354.997)"/><path class="a" d="M370.638,365.01c4.569,2.3,10.652.566,12.769-4.125a9.2,9.2,0,0,0-5.9-3.2" transform="translate(-353.032 -348.799)"/></g></g><text class="b" transform="translate(672 790.729)"><tspan x="-15.262" y="0">1</tspan></text></g></svg>