<svg xmlns="http://www.w3.org/2000/svg" width="71.001" height="68" viewBox="0 0 71.001 68"><defs><style>.a{fill:#333;}.b{fill:#0e935d;}.c,.d,.f{fill:#fff;}.c{stroke:#0e935d;}.c,.d,.e,.f{stroke-linejoin:round;stroke-width:2px;}.d,.e,.f{stroke:#333;}.e,.h{fill:none;}.e,.f{stroke-linecap:round;}.g{stroke:none;}</style></defs><g transform="translate(-770 -6876)"><path class="a" d="M-4885,15V9h-6a1,1,0,0,1-1-1,1,1,0,0,1,1-1h6V1a1,1,0,0,1,1-1,1,1,0,0,1,1,1V7h6a1,1,0,0,1,1,1,1,1,0,0,1-1,1h-6v6a1,1,0,0,1-1,1A1,1,0,0,1-4885,15Z" transform="translate(5717 6913)"/><path class="b" d="M-4885,12V9h-3a1,1,0,0,1-1-1,1,1,0,0,1,1-1h3V4a1,1,0,0,1,1-1,1,1,0,0,1,1,1V7h3a1,1,0,0,1,1,1,1,1,0,0,1-1,1h-3v3a1,1,0,0,1-1,1A1,1,0,0,1-4885,12Z" transform="translate(5659 6881)"/><g transform="translate(0 2)"><g transform="translate(1698 4878)"><path class="c" d="M-911,2023c0-6.627,5.82-12,13-12s13,5.373,13,12"/><path class="d" d="M-921,2024v7l10,6v17h26v-17l10-6v-7Z"/><line class="e" y1="10" transform="translate(-911 2032)"/><line class="e" y2="10" transform="translate(-885 2032)"/><g class="f" transform="translate(-906 1996)"><circle class="g" cx="8" cy="8" r="8"/><circle class="h" cx="8" cy="8" r="7"/></g></g><g transform="translate(2246 4904)"><g class="d" transform="translate(-1465 2015)"><path class="g" d="M7,0H7a7,7,0,0,1,7,7v8a0,0,0,0,1,0,0H0a0,0,0,0,1,0,0V7A7,7,0,0,1,7,0Z"/><path class="h" d="M7,1H7a6,6,0,0,1,6,6v6a1,1,0,0,1-1,1H2a1,1,0,0,1-1-1V7A6,6,0,0,1,7,1Z"/></g><g class="d" transform="translate(-1453 2015)"><path class="g" d="M7,0H7a7,7,0,0,1,7,7v8a0,0,0,0,1,0,0H0a0,0,0,0,1,0,0V7A7,7,0,0,1,7,0Z"/><path class="h" d="M7,1H7a6,6,0,0,1,6,6v6a1,1,0,0,1-1,1H2a1,1,0,0,1-1-1V7A6,6,0,0,1,7,1Z"/></g><g class="d" transform="translate(-1441 2015)"><path class="g" d="M7,0H7a7,7,0,0,1,7,7v8a0,0,0,0,1,0,0H0a0,0,0,0,1,0,0V7A7,7,0,0,1,7,0Z"/><path class="h" d="M7,1H7a6,6,0,0,1,6,6v6a1,1,0,0,1-1,1H2a1,1,0,0,1-1-1V7A6,6,0,0,1,7,1Z"/></g><g class="d" transform="translate(-1471 2023)"><path class="g" d="M7,0H7a7,7,0,0,1,7,7v8a0,0,0,0,1,0,0H0a0,0,0,0,1,0,0V7A7,7,0,0,1,7,0Z"/><path class="h" d="M7,1H7a6,6,0,0,1,6,6v6a1,1,0,0,1-1,1H2a1,1,0,0,1-1-1V7A6,6,0,0,1,7,1Z"/></g><g class="d" transform="translate(-1459 2023)"><path class="g" d="M7,0H7a7,7,0,0,1,7,7v8a0,0,0,0,1,0,0H0a0,0,0,0,1,0,0V7A7,7,0,0,1,7,0Z"/><path class="h" d="M7,1H7a6,6,0,0,1,6,6v6a1,1,0,0,1-1,1H2a1,1,0,0,1-1-1V7A6,6,0,0,1,7,1Z"/></g><g class="d" transform="translate(-1447 2023)"><path class="g" d="M7,0H7a7,7,0,0,1,7,7v8a0,0,0,0,1,0,0H0a0,0,0,0,1,0,0V7A7,7,0,0,1,7,0Z"/><path class="h" d="M7,1H7a6,6,0,0,1,6,6v6a1,1,0,0,1-1,1H2a1,1,0,0,1-1-1V7A6,6,0,0,1,7,1Z"/></g><g class="d" transform="translate(-1435 2023)"><path class="g" d="M7,0H7a7,7,0,0,1,7,7v8a0,0,0,0,1,0,0H0a0,0,0,0,1,0,0V7A7,7,0,0,1,7,0Z"/><path class="h" d="M7,1H7a6,6,0,0,1,6,6v6a1,1,0,0,1-1,1H2a1,1,0,0,1-1-1V7A6,6,0,0,1,7,1Z"/></g></g></g></g></svg>