<svg xmlns="http://www.w3.org/2000/svg" width="40.5" height="35.5" viewBox="0 0 40.5 35.5">
  <g id="교원임용입문서" transform="translate(-579.25 -2000.25)">
    <path id="패스_2991" data-name="패스 2991" d="M613,2006h4a1.972,1.972,0,0,1,2,1.943v25.114a1.972,1.972,0,0,1-2,1.943H591a1.972,1.972,0,0,1-2-1.943V2031Z" fill="#0e935d"/>
    <path id="패스_2994" data-name="패스 2994" d="M613,2005h4a1.972,1.972,0,0,1,2,1.943v26.114a1.972,1.972,0,0,1-2,1.943H590a1.972,1.972,0,0,1-2-1.943V2031" fill="none" stroke="#333" stroke-width="1.5"/>
    <path id="패스_2992" data-name="패스 2992" d="M583,2007v-4.057a1.971,1.971,0,0,1,2-1.943h27a1.972,1.972,0,0,1,2,1.943v26.114a1.972,1.972,0,0,1-2,1.943H585a1.971,1.971,0,0,1-2-1.943V2022" fill="#fff"/>
    <path id="패스_2993" data-name="패스 2993" d="M583,2007v-4.057a1.971,1.971,0,0,1,2-1.943h27a1.972,1.972,0,0,1,2,1.943v26.114a1.972,1.972,0,0,1-2,1.943H585a1.971,1.971,0,0,1-2-1.943V2022" fill="none" stroke="#333" stroke-width="1.5"/>
    <line id="선_46" data-name="선 46" x2="15" transform="translate(593 2016)" fill="none" stroke="#333" stroke-linecap="round" stroke-width="1.5"/>
    <line id="선_47" data-name="선 47" x2="15" transform="translate(593 2020)" fill="none" stroke="#333" stroke-linecap="round" stroke-width="1.5"/>
    <line id="선_48" data-name="선 48" x2="7" transform="translate(593 2024)" fill="none" stroke="#333" stroke-linecap="round" stroke-width="1.5"/>
    <path id="사각형_633" data-name="사각형 633" d="M580,2008.5a1.5,1.5,0,0,1,1.5-1.5h5a1.5,1.5,0,0,1,1.5,1.5h0a1.5,1.5,0,0,1-1.5,1.5h-5a1.5,1.5,0,0,1-1.5-1.5Z" fill="#fff" stroke="#333" stroke-linecap="round" stroke-width="1.5"/>
    <path id="사각형_634" data-name="사각형 634" d="M580,2014.5a1.5,1.5,0,0,1,1.5-1.5h5a1.5,1.5,0,0,1,1.5,1.5h0a1.5,1.5,0,0,1-1.5,1.5h-5a1.5,1.5,0,0,1-1.5-1.5Z" fill="#fff" stroke="#333" stroke-linecap="round" stroke-width="1.5"/>
    <path id="사각형_635" data-name="사각형 635" d="M580,2020.5a1.5,1.5,0,0,1,1.5-1.5h5a1.5,1.5,0,0,1,1.5,1.5h0a1.5,1.5,0,0,1-1.5,1.5h-5a1.5,1.5,0,0,1-1.5-1.5Z" fill="#fff" stroke="#333" stroke-linecap="round" stroke-width="1.5"/>
    <g id="사각형_636" data-name="사각형 636" fill="#0e935d">
      <path d="M 607.9995727539062 2011.249389648438 L 592.9998168945312 2011.249389648438 C 592.8619384765625 2011.249389648438 592.7498168945312 2011.137329101562 592.7498168945312 2010.99951171875 L 592.7498168945312 2006.999389648438 C 592.7498168945312 2006.861572265625 592.8619384765625 2006.749389648438 592.9998168945312 2006.749389648438 L 607.9995727539062 2006.749389648438 C 608.1375732421875 2006.749389648438 608.2498779296875 2006.861572265625 608.2498779296875 2006.999389648438 L 608.2498779296875 2010.99951171875 C 608.2498779296875 2011.137329101562 608.1375732421875 2011.249389648438 607.9995727539062 2011.249389648438 Z" stroke="none"/>
      <path d="M 593.4998168945312 2007.499389648438 L 593.4998168945312 2010.499389648438 L 607.4998779296875 2010.499389648438 L 607.4998779296875 2007.499389648438 L 593.4998168945312 2007.499389648438 M 592.9998168945312 2005.999389648438 L 607.9995727539062 2005.999389648438 C 608.5518798828125 2005.999389648438 608.9998779296875 2006.447387695312 608.9998779296875 2006.999389648438 L 608.9998779296875 2010.99951171875 C 608.9998779296875 2011.55224609375 608.5518798828125 2011.999389648438 607.9995727539062 2011.999389648438 L 592.9998168945312 2011.999389648438 C 592.4473876953125 2011.999389648438 591.9998168945312 2011.55224609375 591.9998168945312 2010.99951171875 L 591.9998168945312 2006.999389648438 C 591.9998168945312 2006.447387695312 592.4473876953125 2005.999389648438 592.9998168945312 2005.999389648438 Z" stroke="none" fill="#333"/>
    </g>
  </g>
</svg>
