<svg xmlns="http://www.w3.org/2000/svg" width="22.5" height="16.5" viewBox="0 0 22.5 16.5"><defs><style>.a{fill:#eee;}.b,.c{fill:none;stroke:#333;stroke-width:1.5px;}.b{stroke-linecap:round;stroke-linejoin:round;}</style></defs><g transform="translate(-1111.25 -47.25)"><path class="a" d="M-2436,49V61.5h6.75L-2426,63l3-1.5h7.75V49H-2423l-3,2.75-3.25-2.75Z" transform="translate(3548 -1)"/><g transform="translate(1109 43.5)"><path class="b" d="M3,4.5H9.3c2.32,0,4.2,1.492,4.2,3.333V19.5c0-1.381-1.41-2.5-3.15-2.5H3Z" transform="translate(0 0)"/><path class="b" d="M28.5,4.5H22.2C19.88,4.5,18,5.992,18,7.833V19.5c0-1.381,1.41-2.5,3.15-2.5H28.5Z" transform="translate(-4.5 0)"/></g><line class="c" x2="5" transform="translate(1114.5 52.5)"/><line class="c" x2="3" transform="translate(1125.5 52.5)"/><line class="c" x2="5" transform="translate(1114.5 55.5)"/><line class="c" x2="5" transform="translate(1125.5 55.5)"/></g></svg>