<svg xmlns="http://www.w3.org/2000/svg" width="19" height="16" viewBox="0 0 19 16"><defs><style>.a{fill:#333;}</style></defs><g transform="translate(-4.42 -7.313)"><path class="a" d="M8.5,26.75a2,2,0,1,1-2-2,2,2,0,0,1,2,2Z" transform="translate(-0.08 -5.437)"/><path class="a" d="M8.5,26.75a2,2,0,1,1-2-2,2,2,0,0,1,2,2Z" transform="translate(-0.08 -11.437)"/><path class="a" d="M8.5,26.75a2,2,0,1,1-2-2,2,2,0,0,1,2,2Z" transform="translate(-0.08 -17.437)"/><path class="a" d="M24.577,25.594H13.1a1.037,1.037,0,0,0,0,2H24.577a1.037,1.037,0,0,0,0-2Z" transform="translate(-1.92 -5.281)"/><path class="a" d="M24.577,25.594H13.1a1.037,1.037,0,0,0,0,2H24.577a1.037,1.037,0,0,0,0-2Z" transform="translate(-1.92 -11.281)"/><path class="a" d="M24.577,25.594H13.1a1.037,1.037,0,0,0,0,2H24.577a1.037,1.037,0,0,0,0-2Z" transform="translate(-1.92 -17.281)"/></g></svg>