<?xml version="1.0" encoding="utf-8"?>
<!-- Generator: Adobe Illustrator 24.2.3, SVG Export Plug-In . SVG Version: 6.00 Build 0)  -->
<svg version="1.1" id="그룹_503" xmlns="http://www.w3.org/2000/svg" xmlns:xlink="http://www.w3.org/1999/xlink" x="0px" y="0px"
	 viewBox="0 0 16 14.1" style="enable-background:new 0 0 16 14.1;" xml:space="preserve">
<style type="text/css">
	.st0{fill:none;}
	.st1{fill:#D1555F;}
</style>
<g id="패스_1224" transform="translate(-1311.228 -1165.511)">
	<path class="st0" d="M1327.2,1169.5c0-2.2-1.8-4-4-4c-0.1,0-0.1,0-0.2,0c-0.9,2.1-3.3,3.1-5.4,2.2c-1-0.4-1.8-1.2-2.2-2.2
		c-2.2-0.1-4.1,1.6-4.2,3.9c0,0.1,0,0.1,0,0.2c0.1,1.1,0.4,2.1,1,3c2.2,3.3,6.4,7.1,7,7.1c0.6,0,4.8-3.8,6.8-7.1
		C1326.6,1171.6,1327,1170.6,1327.2,1169.5z"/>
	<path class="st1" d="M1315.4,1165.5c1.7,0,3.2,1,3.8,2.5c0.7-1.5,2.1-2.5,3.8-2.5c2.3,0,4.2,1.7,4.2,4c0,0.3-0.5,1.9-1.2,3
		c-2.1,3.2-6.2,7.1-6.8,7.1c-0.5,0-4.8-3.8-7-7.1c-0.9-1.3-1-2.7-1-3C1311.2,1167.2,1313.1,1165.5,1315.4,1165.5z"/>
</g>
</svg>
