<svg id="그룹_503" data-name="그룹 503" xmlns="http://www.w3.org/2000/svg" width="16" height="14.118" viewBox="0 0 16 14.118">
  <g id="패스_1224" data-name="패스 1224" transform="translate(-1311.228 -1165.511)" fill="none" stroke-linecap="round" stroke-linejoin="round">
    <path d="M1327.228,1169.545a4.023,4.023,0,0,0-4.184-4.034,4.142,4.142,0,0,1-7.632,0,4.023,4.023,0,0,0-4.183,4.034,6.126,6.126,0,0,0,1.047,3.025c2.166,3.252,6.424,7.059,6.953,7.059.608,0,4.761-3.829,6.831-7.059A8.969,8.969,0,0,0,1327.228,1169.545Z" stroke="none"/>
    <path d="M 1315.411499023438 1166.511108398438 C 1314.533203125 1166.511108398438 1313.725952148438 1166.815551757812 1313.138671875 1167.368286132812 C 1312.542846679688 1167.928833007812 1312.22802734375 1168.681518554688 1312.22802734375 1169.544921875 C 1312.22802734375 1169.843139648438 1312.389526367188 1170.937255859375 1313.10693359375 1172.015625 C 1314.260620117188 1173.747802734375 1315.916259765625 1175.472045898438 1316.800537109375 1176.345703125 C 1317.970581054688 1177.501708984375 1318.816528320312 1178.198486328125 1319.242919921875 1178.505981445312 C 1320.333862304688 1177.730590820312 1323.499145507812 1174.711669921875 1325.216796875 1172.031005859375 C 1325.776611328125 1171.156005859375 1326.182983398438 1169.8330078125 1326.227905273438 1169.514404296875 C 1326.220581054688 1168.663818359375 1325.906127929688 1167.922241210938 1325.3173828125 1167.368286132812 C 1324.729858398438 1166.815551757812 1323.92236328125 1166.511108398438 1323.043579101562 1166.511108398438 C 1321.796752929688 1166.511108398438 1320.658569335938 1167.269897460938 1320.143920898438 1168.4443359375 C 1319.984619140625 1168.807983398438 1319.625122070312 1169.04296875 1319.22802734375 1169.04296875 C 1318.830932617188 1169.04296875 1318.471435546875 1168.807983398438 1318.312133789062 1168.4443359375 C 1317.797485351562 1167.269897460938 1316.658935546875 1166.511108398438 1315.411499023438 1166.511108398438 M 1315.411499023438 1165.511108398438 C 1317.113159179688 1165.511108398438 1318.573852539062 1166.550170898438 1319.22802734375 1168.04296875 C 1319.882202148438 1166.550170898438 1321.34375 1165.511108398438 1323.043579101562 1165.511108398438 C 1325.355102539062 1165.511108398438 1327.22802734375 1167.176879882812 1327.22802734375 1169.544921875 C 1327.22802734375 1169.863037109375 1326.76123046875 1171.472534179688 1326.05908203125 1172.569946289062 C 1323.989501953125 1175.800048828125 1319.836059570312 1179.628784179688 1319.22802734375 1179.628784179688 C 1318.699096679688 1179.628784179688 1314.440307617188 1175.821655273438 1312.274658203125 1172.569946289062 C 1311.386108398438 1171.234375 1311.22802734375 1169.911010742188 1311.22802734375 1169.544921875 C 1311.22802734375 1167.176879882812 1313.100952148438 1165.511108398438 1315.411499023438 1165.511108398438 Z" stroke="none" fill="#d1555f"/>
  </g>
</svg>
