<?xml version="1.0" encoding="utf-8"?>
<!-- Generator: Adobe Illustrator 24.2.3, SVG Export Plug-In . SVG Version: 6.00 Build 0)  -->
<svg version="1.1" id="Layer_1" xmlns="http://www.w3.org/2000/svg" xmlns:xlink="http://www.w3.org/1999/xlink" x="0px" y="0px"
	 viewBox="0 0 220.6 31.4" style="enable-background:new 0 0 220.6 31.4;" xml:space="preserve">
<style type="text/css">
	.st0{fill:#B8B8B8;}
	.st1{fill:#231F20;}
	.st2{fill:#17923F;}
</style>
<g>
	<g>
		<polygon class="st0" points="0,11.5 3.9,11.5 3.9,18.9 10.8,11.5 15.8,11.5 8,19.8 16.5,29.2 11.1,29.2 3.9,20.8 3.9,29.2 0,29.2 
					"/>
		<path class="st0" d="M32.6,28c-2.3,1.2-4.8,1.7-7.4,1.7c-5.5,0-9.5-3.6-9.5-9.3c0-5.7,4-9.3,9.5-9.3c2.8,0,5.3,0.6,7,2.3l-2.7,3
			c-1-1.1-2.3-1.7-4.3-1.7c-3.3,0-5.5,2.4-5.5,5.7c0,3.3,2.2,5.7,5.5,5.7c1.7,0,2.9-0.5,3.7-0.9v-2.9h-3.2v-3.6h6.9V28z"/>
		<rect x="55.4" y="11.2" class="st0" width="2.6" height="18.2"/>
		<polygon class="st0" points="51.7,19 51.7,28.7 54.2,28.7 54.2,11.4 51.7,11.4 51.7,16.7 		"/>
		<polygon class="st0" points="74.4,17.2 65.2,17.2 65.2,13.5 74.4,13.5 74.4,11.3 62.8,11.3 62.8,19.5 74.4,19.5 		"/>
		<polygon class="st0" points="59.9,23.2 64.2,23.2 64.2,29.4 66.7,29.4 66.7,23.2 70.4,23.2 70.4,29.4 72.9,29.4 72.9,23.2 
			77.1,23.2 77.1,21 59.9,21 		"/>
		<path class="st0" d="M82,18c0.4,0.3,0.8,0.6,1.3,0.8c0.5,0.2,1.1,0.3,1.7,0.3c0.6,0,1.2-0.1,1.7-0.3c0.5-0.2,1-0.5,1.3-0.8
			c0.4-0.3,0.6-0.8,0.8-1.2c0.2-0.5,0.3-1,0.3-1.6c0-0.6-0.1-1.1-0.3-1.6c-0.2-0.5-0.5-0.9-0.8-1.3c-0.4-0.4-0.8-0.6-1.3-0.8
			c-0.5-0.2-1.1-0.3-1.7-0.3c-0.6,0-1.2,0.1-1.7,0.3c-0.5,0.2-0.9,0.5-1.3,0.8c-0.4,0.3-0.7,0.8-0.9,1.3c-0.2,0.5-0.3,1-0.3,1.6
			c0,0.6,0.1,1.1,0.3,1.6C81.4,17.2,81.7,17.6,82,18 M85,13.4c0.6,0,1.1,0.2,1.4,0.5c0.3,0.3,0.5,0.8,0.5,1.3c0,0.5-0.2,0.9-0.5,1.2
			c-0.3,0.3-0.8,0.5-1.4,0.5c-0.6,0-1.1-0.2-1.4-0.5c-0.4-0.3-0.5-0.7-0.5-1.2c0-0.5,0.2-0.9,0.5-1.3C84,13.6,84.4,13.4,85,13.4"/>
		<polygon class="st0" points="88.6,24.9 92.7,24.9 92.7,26.2 95.3,26.2 95.3,11.2 92.7,11.2 92.7,22.7 88.6,22.7 		"/>
		<polygon class="st0" points="86.3,28.2 86.3,25.6 83.8,25.6 83.8,30.4 95.6,30.4 95.6,28.2 		"/>
		<rect x="79" y="19.7" class="st0" width="13.9" height="2.2"/>
		<rect x="83.8" y="21.4" class="st0" width="2.5" height="3.4"/>
		<path class="st0" d="M50.3,16.7c-0.1-0.1-0.1-0.4-0.2-0.7c-0.4-0.9-1-1.6-1.7-2.1c-0.8-0.5-1.7-0.8-2.8-0.8
			c-0.7,0-1.3,0.1-1.9,0.3c-0.6,0.2-1.1,0.6-1.5,1c-0.4,0.4-0.8,1-1,1.6c-0.2,0.6-0.4,1.3-0.4,2c0,0.7,0.1,1.4,0.4,2
			c0.2,0.6,0.6,1.1,1,1.6c0.4,0.4,0.9,0.8,1.5,1c0.6,0.2,1.2,0.3,1.9,0.3c1.1,0,2-0.3,2.8-0.8c0.8-0.5,1.3-1.2,1.7-2.1
			c0.1-0.3,0.2-0.7,0.3-1h1.3v-2.4H50.3z M47.3,19.8c-0.4,0.4-1,0.6-1.7,0.6c-0.7,0-1.2-0.2-1.6-0.6c-0.4-0.4-0.7-1-0.7-1.8
			c0-0.8,0.2-1.4,0.7-1.8c0.4-0.4,1-0.6,1.6-0.6c0.7,0,1.2,0.2,1.7,0.6c0.4,0.4,0.7,1,0.7,1.8C47.9,18.7,47.7,19.3,47.3,19.8"/>
	</g>
</g>
<g>
	<g>
		<path class="st1" d="M158,10.6c0,1.3-0.2,2.6-0.6,3.9c-0.4,1.3-1,2.3-1.7,3.2c-1,1.2-2.1,2-3.4,2.6c-1.2,0.6-2.8,0.9-4.6,0.9h-4
			v9.6h-6.5V1.3h10.7c1.6,0,3,0.2,4.1,0.5c1.1,0.3,2.1,0.8,2.9,1.5c1,0.8,1.8,1.8,2.3,3C157.7,7.4,158,8.9,158,10.6z M151.2,10.8
			c0-0.8-0.2-1.5-0.6-2.1c-0.4-0.6-0.8-1-1.3-1.2c-0.7-0.3-1.3-0.5-2-0.5c-0.6,0-1.5,0-2.6,0h-1.1v8.7h1.9c1.1,0,2-0.1,2.7-0.2
			c0.7-0.2,1.3-0.5,1.8-0.9c0.4-0.4,0.7-0.9,0.9-1.5C151.2,12.3,151.2,11.6,151.2,10.8z"/>
		<path class="st1" d="M166.7,30.7h-6.1V0h6.1V30.7z"/>
		<path class="st1" d="M189.6,30.7h-6.1v-2.4c-1.1,1-2.2,1.8-3.1,2.3c-0.9,0.5-2,0.8-3.3,0.8c-2.1,0-3.7-0.7-4.8-2.1
			c-1.1-1.4-1.7-3.5-1.7-6.3V8.5h6.1v11c0,1.1,0,2.1,0.1,2.8c0.1,0.7,0.2,1.4,0.4,1.9c0.2,0.5,0.5,0.8,1,1.1c0.4,0.2,1,0.3,1.8,0.3
			c0.5,0,1.1-0.1,1.7-0.3c0.6-0.2,1.2-0.6,1.8-1V8.5h6.1V30.7z"/>
		<path class="st1" d="M210.2,23.7c0,2.3-0.9,4.1-2.6,5.6c-1.8,1.4-4.2,2.1-7.2,2.1c-1.7,0-3.2-0.2-4.6-0.6
			c-1.4-0.4-2.5-0.8-3.3-1.2v-5.8h0.6c0.3,0.2,0.7,0.5,1.1,0.8c0.4,0.3,1,0.6,1.7,1c0.6,0.3,1.4,0.6,2.2,0.8
			c0.8,0.2,1.7,0.3,2.6,0.3c1.2,0,2.1-0.2,2.7-0.5c0.6-0.3,0.9-0.8,0.9-1.4c0-0.5-0.2-0.9-0.5-1.2c-0.3-0.2-1-0.5-1.9-0.7
			c-0.5-0.1-1.1-0.2-1.8-0.4c-0.8-0.1-1.5-0.3-2.1-0.5c-1.7-0.5-3-1.3-3.8-2.5c-0.8-1.1-1.3-2.5-1.3-4.2c0-2.1,0.9-3.9,2.6-5.3
			c1.7-1.4,4.1-2.1,7.1-2.1c1.4,0,2.8,0.2,4.1,0.5c1.3,0.3,2.3,0.7,3.1,1.1v5.6h-0.5c-0.9-0.7-1.9-1.3-3.1-1.8
			c-1.2-0.5-2.3-0.7-3.5-0.7c-1,0-1.8,0.2-2.5,0.5c-0.7,0.3-1,0.8-1,1.4c0,0.5,0.2,0.9,0.5,1.2c0.3,0.3,1,0.6,2.2,0.8
			c0.6,0.1,1.3,0.3,2,0.4c0.7,0.1,1.4,0.3,2.2,0.5c1.6,0.5,2.8,1.3,3.6,2.3C209.9,20.8,210.2,22.1,210.2,23.7z"/>
	</g>
</g>
<g>
	<g>
		<path class="st2" d="M120.6,17.6c-0.7-0.5-1.3-1.2-1.9-2c-0.6-0.8-1.1-1.6-1.4-2.3c-0.5,1-1.1,1.9-1.7,2.6c-0.6,0.7-1.3,1.4-1.9,2
			c-0.4-0.2-1-0.8-1.8-1.8c-0.8-0.9-1.5-1.9-1.8-2.8c-0.3,0.8-0.8,1.6-1.5,2.5c-0.7,0.9-1.4,1.5-2.1,2l-2.5-3.2c1-0.7,2-1.8,2.9-3.3
			c0.9-1.4,1.3-3.4,1.3-5.9v-3h3.8v3c0,2,0.2,3.5,0.5,4.5c0.3,1,0.7,1.8,1.2,2.5c0.5-0.9,0.9-1.9,1.2-2.8c0.3-0.9,0.5-2.3,0.5-4.2
			v-3h3.8v3c0,2.2,0.3,4,1,5.2c0.6,1.2,1.5,2.4,2.5,3.5L120.6,17.6z M110.6,31V19.8h21.5V31H110.6z M127.8,23.6H115v3.5h12.8V23.6z
			 M128.6,18.6v-6.3h-2v6.3h-3.7V2.1h3.7v6.2h2V1.7h3.7v17H128.6z"/>
	</g>
</g>
<g>
	<rect x="213.7" y="0.7" class="st2" width="2.4" height="11.5"/>
	
		<rect x="213.7" y="0.7" transform="matrix(6.123234e-17 -1 1 6.123234e-17 208.4254 221.2747)" class="st2" width="2.4" height="11.5"/>
</g>
</svg>
