<svg 
 xmlns="http://www.w3.org/2000/svg"
 xmlns:xlink="http://www.w3.org/1999/xlink"
 width="20px" height="29px">
<path fill-rule="evenodd"  fill="rgb(51, 51, 51)"
 d="M17.999,16.999 L17.999,16.999 L17.999,25.161 C17.999,27.140 16.717,28.752 15.141,28.752 L2.856,28.752 C1.280,28.752 0.0,27.140 0.0,25.161 L0.0,3.837 C0.0,1.856 1.280,0.245 2.856,0.245 L15.141,0.245 C16.717,0.245 17.999,1.856 17.999,3.837 L17.999,7.999 L17.999,7.999 C19.104,7.999 19.999,8.895 19.999,9.999 L19.999,14.999 C19.999,16.104 19.104,16.999 17.999,16.999 ZM8.999,26.999 C10.104,26.999 11.4,26.100 11.4,24.995 C11.4,23.888 10.104,22.989 8.999,22.989 C7.893,22.989 6.994,23.888 6.994,24.995 C6.994,26.100 7.893,26.999 8.999,26.999 ZM16.486,16.999 L12.332,16.999 L8.999,20.998 L8.999,16.999 L6.999,16.999 C5.895,16.999 4.999,16.104 4.999,14.999 L4.999,9.999 C4.999,8.895 5.895,7.999 6.999,7.999 L16.486,7.999 L16.486,5.185 L1.512,5.185 L1.512,21.812 L16.486,21.812 L16.486,16.999 Z"/>
</svg>