<svg xmlns="http://www.w3.org/2000/svg" width="40" height="34.757" viewBox="0 0 40 34.757">
  <g id="그룹_2982" data-name="그룹 2982" transform="translate(44.653 -1228.501)">
    <g id="사각형_1122" data-name="사각형 1122" transform="translate(-44.653 1235.258)" fill="#fff" stroke="#333" stroke-linecap="round" stroke-linejoin="round" stroke-width="1.5">
      <rect width="40" height="28" rx="2.5" stroke="none"/>
      <rect x="0.75" y="0.75" width="38.5" height="26.5" rx="1.75" fill="none"/>
    </g>
    <path id="패스_3179" data-name="패스 3179" d="M-39.67,1235.734s-2.972-5.307,1.417-6.333,7.083,3.8,7.083,3.8" transform="translate(1.667)" fill="none" stroke="#333" stroke-linejoin="round" stroke-width="1.5"/>
    <path id="패스_3180" data-name="패스 3180" d="M-18.153,1235.734s2.972-5.307-1.417-6.333-7.083,3.8-7.083,3.8" transform="translate(7.501)" fill="none" stroke="#333" stroke-linejoin="round" stroke-width="1.5"/>
    <path id="패스_3181" data-name="패스 3181" d="M0,0V14.733" transform="translate(-24.82 1247.877)" fill="none" stroke="#333" stroke-width="1.5"/>
    <g id="패스_3178" data-name="패스 3178" transform="translate(3.75 0.416)" fill="#0e935d" stroke-linecap="round" stroke-linejoin="round">
      <path d="M -22.23611831665039 1251.599365234375 L -28.18368911743164 1248.030883789062 L -28.56955909729004 1247.79931640625 L -28.95542907714844 1248.030883789062 L -34.90299987792969 1251.599365234375 L -34.90299987792969 1233.506958007812 C -34.90299987792969 1232.12841796875 -33.94424819946289 1231.0068359375 -32.76578903198242 1231.0068359375 L -24.37474822998047 1231.0068359375 C -23.19550895690918 1231.0068359375 -22.23611831665039 1232.12841796875 -22.23611831665039 1233.506958007812 L -22.23611831665039 1251.599365234375 Z" stroke="none"/>
      <path d="M -22.98611831665039 1250.274658203125 L -22.98611831665039 1233.506958007812 C -22.98611831665039 1232.558349609375 -23.62202835083008 1231.7568359375 -24.37474822998047 1231.7568359375 L -32.76578903198242 1231.7568359375 C -33.51773834228516 1231.7568359375 -34.15299987792969 1232.558349609375 -34.15299987792969 1233.506958007812 L -34.15299987792969 1250.274658203125 L -29.34129905700684 1247.3876953125 C -28.86627769470215 1247.102783203125 -28.27284049987793 1247.102783203125 -27.79781913757324 1247.3876953125 L -22.98611831665039 1250.274658203125 M -21.48611831665039 1252.923950195312 L -28.56955909729004 1248.673950195312 L -35.65299987792969 1252.923950195312 L -35.65299987792969 1233.506958007812 C -35.65299987792969 1231.712036132812 -34.36098098754883 1230.2568359375 -32.76578903198242 1230.2568359375 L -24.37474822998047 1230.2568359375 C -22.77954864501953 1230.2568359375 -21.48611831665039 1231.712036132812 -21.48611831665039 1233.506958007812 L -21.48611831665039 1252.923950195312 Z" stroke="none" fill="#333"/>
    </g>
  </g>
</svg>
