<svg xmlns="http://www.w3.org/2000/svg" width="28.846" height="28.591" viewBox="0 0 28.846 28.591"><defs><style>.a{fill:none;stroke-linecap:round;stroke-linejoin:round;}.a,.b,.c{stroke:#333;stroke-width:1.5px;}.b{fill:#49b68a;}.b,.c{stroke-miterlimit:10;}.c{fill:#fff;}.d{fill:#333;}</style></defs><g transform="translate(-243.5 -656.638)"><g transform="translate(244.25 684.479)"><line class="a" x2="23.444" transform="translate(3.902)"/><line class="a" x2="5.635"/></g><path class="b" d="M274.8,660.114l1.581-1.581a3.934,3.934,0,0,1,5.564.014h0l.6.6a3.934,3.934,0,0,1,.014,5.563h0l-1.581,1.582" transform="translate(-12.39)"/><path class="c" d="M249.053,677.331l15.515-15.515,3.848,3.848L270.748,668l-15.515,15.515" transform="translate(-2.087 -1.772)"/><path class="a" d="M247.241,687.682l-2.715,8.9,8.9-2.715Z" transform="translate(-0.276 -12.123)"/><path class="d" d="M246.188,696.962l-.872,2.855,2.855-.872Z" transform="translate(-0.592 -15.837)"/></g></svg>