<svg xmlns="http://www.w3.org/2000/svg" width="40.027" height="46.877" viewBox="0 0 40.027 46.877">
  <g id="그룹_2974" data-name="그룹 2974" transform="translate(-1032.188 -639.062)">
    <path id="패스_2983" data-name="패스 2983" d="M1049.119,684.319" fill="none" stroke="#999" stroke-linecap="round" stroke-linejoin="round" stroke-width="1.5"/>
    <g id="그룹_2287" data-name="그룹 2287">
      <circle id="타원_137" data-name="타원 137" cx="13.876" cy="13.876" r="13.876" transform="translate(1032.938 639.812)" fill="#0e935d" stroke="#333" stroke-linecap="round" stroke-linejoin="round" stroke-width="1.5"/>
      <g id="그룹_2286" data-name="그룹 2286">
        <path id="패스_2984" data-name="패스 2984" d="M1049.139,657.973a4.62,4.62,0,0,0,2.325.627h0a4.664,4.664,0,0,0,4.65-4.65h0a4.663,4.663,0,0,0-4.65-4.65h0a4.664,4.664,0,0,0-4.65,4.65h0c.047,3.377-2.085,4.642-4.65,4.65h0a4.665,4.665,0,0,1-4.652-4.65h0a4.664,4.664,0,0,1,4.652-4.65h0a4.606,4.606,0,0,1,2.49.728" fill="none" stroke="#333" stroke-linecap="round" stroke-linejoin="round" stroke-width="1.5"/>
        <path id="패스_2985" data-name="패스 2985" d="M1043.318,647.052l1.978,3.163-3.3,1.75" fill="none" stroke="#333" stroke-linecap="round" stroke-linejoin="round" stroke-width="1.5"/>
      </g>
    </g>
    <g id="그룹_2411" data-name="그룹 2411">
      <path id="패스_2986" data-name="패스 2986" d="M1054.652,675.232l-4.971-10a2.185,2.185,0,0,1,.7-2.981h0a2.186,2.186,0,0,1,2.8,1.242l4.971,10" fill="#fff" stroke="#333" stroke-linecap="round" stroke-linejoin="round" stroke-width="1.5"/>
      <path id="패스_2987" data-name="패스 2987" d="M1054.244,674.408l1.352,2.718-1.037-.418-2.137-.763s-1.8-.543-2.416-.638c-2.032-.318-2.268,1.128-2.268,1.128s-.214,1.319,2.751,2.414c0,0,4.3,2.92,4.523,3.221,0,0,2.68,2.666,4.862,3.022,0,0,6.907,1.024,10.269-4.353,3.052-4.069-.171-9.516-.171-9.516" fill="#fff" stroke="#333" stroke-linecap="round" stroke-linejoin="round" stroke-width="1.5"/>
      <path id="패스_2986-2" data-name="패스 2986" d="M1058.348,674.162l-1.573-3.328a2.185,2.185,0,0,1,.7-2.981h0a2.186,2.186,0,0,1,2.8,1.242l1.573,3.328" fill="#fff" stroke="#333" stroke-linecap="round" stroke-linejoin="round" stroke-width="1.5"/>
      <path id="패스_2986-3" data-name="패스 2986" d="M1062.283,673.309l-1.573-3.328a2.185,2.185,0,0,1,.7-2.981h0a2.186,2.186,0,0,1,2.8,1.242l1.573,3.328" fill="#fff" stroke="#333" stroke-linecap="round" stroke-linejoin="round" stroke-width="1.5"/>
      <path id="패스_2986-4" data-name="패스 2986" d="M1066.462,672.969l-1.572-3.328a2.185,2.185,0,0,1,.7-2.981h0a2.185,2.185,0,0,1,2.8,1.242l1.573,3.328" fill="#fff" stroke="#333" stroke-linecap="round" stroke-linejoin="round" stroke-width="1.5"/>
    </g>
  </g>
</svg>