<svg xmlns="http://www.w3.org/2000/svg" width="19.95" height="15.517" viewBox="0 0 19.95 15.517"><defs><style>.a{fill:#45c6a8;}</style></defs><path class="a" d="M18.78,2.252c-1.9.108-5.671.5-8,1.925a.533.533,0,0,0-.252.456v12.6a.548.548,0,0,0,.806.467,21.125,21.125,0,0,1,7.575-1.625,1.08,1.08,0,0,0,1.04-1.062V3.315a1.086,1.086,0,0,0-1.17-1.063ZM9.169,4.177c-2.329-1.426-6.1-1.817-8-1.925A1.086,1.086,0,0,0,0,3.315v11.7a1.08,1.08,0,0,0,1.04,1.062A21.123,21.123,0,0,1,8.617,17.7a.546.546,0,0,0,.8-.466V4.627A.521.521,0,0,0,9.169,4.177Z" transform="translate(0 -2.25)"/></svg>