<svg xmlns="http://www.w3.org/2000/svg" width="49.338" height="28.611" viewBox="0 0 49.338 28.611">
  <g id="그룹_2278" data-name="그룹 2278" transform="translate(-992.249 -1675.034)">
    <path id="패스_2975" data-name="패스 2975" d="M1040.53,1702.927h-6.151l-1.705-2.035-1.861-.881v-21.549l2.11-.85.7-1.8h6.909Z" fill="#0e935d"/>
    <path id="패스_2976" data-name="패스 2976" d="M1038.691,1675.784h-5.224a2.655,2.655,0,0,1-5.309,0H995.145a2.143,2.143,0,0,0-2.146,2.138v22.833a2.143,2.143,0,0,0,2.146,2.139h33.013a2.655,2.655,0,0,1,5.309,0h5.224a2.143,2.143,0,0,0,2.146-2.139v-22.833A2.142,2.142,0,0,0,1038.691,1675.784Z" fill="none" stroke="#333" stroke-width="1.5"/>
    <line id="선_151" data-name="선 151" y2="21.82" transform="translate(1030.81 1678.46)" fill="none" stroke="#333" stroke-linecap="round" stroke-width="1.5"/>
    <text id="FREE" transform="translate(996.822 1694.284)" fill="#333" font-size="12" font-family="SegoeUI, Segoe UI"><tspan x="0" y="0">FREE</tspan></text>
  </g>
</svg>
