<svg xmlns="http://www.w3.org/2000/svg" width="25.74" height="22.461" viewBox="0 0 25.74 22.461">
  <g id="그룹_2483" data-name="그룹 2483" transform="translate(-992.25 -1052.289)">
    <path id="사각형_929" data-name="사각형 929" d="M993,1056.733a3.694,3.694,0,0,1,3.695-3.694h16.851a3.7,3.7,0,0,1,3.694,3.694v13.572a3.7,3.7,0,0,1-3.694,3.694H996.694a3.7,3.7,0,0,1-3.695-3.694Z" fill="none" stroke="#333" stroke-linecap="round" stroke-width="1.5"/>
    <g id="그룹_2274" data-name="그룹 2274">
      <circle id="타원_132" data-name="타원 132" cx="5.52" cy="5.52" r="5.52" transform="translate(999.6 1056.44)" fill="#0e935d" stroke="#333" stroke-linecap="round" stroke-width="1.5"/>
      <path id="패스_2971" data-name="패스 2971" d="M1007.545,1061.461l-3.172-1.832a.579.579,0,0,0-.87.5v3.664a.581.581,0,0,0,.87.5l3.172-1.832a.579.579,0,0,0,.214-.791A.587.587,0,0,0,1007.545,1061.461Z" fill="#fff" stroke="#333" stroke-linecap="round" stroke-width="1.5"/>
    </g>
    <line id="선_150" data-name="선 150" x2="20.13" transform="translate(995.1 1070.44)" fill="none" stroke="#333" stroke-linecap="round" stroke-width="1.5"/>
    <path id="사각형_930" data-name="사각형 930" d="M996.414,1068.6a.282.282,0,0,1,.282-.282h1.473a.282.282,0,0,1,.281.282v3.692a.282.282,0,0,1-.281.282H996.7a.282.282,0,0,1-.282-.282Z" fill="#333"/>
    <rect id="사각형_931" data-name="사각형 931" width="3.72" height="1.56" rx="0.78" transform="translate(994.73 1054.89)" fill="#333"/>
  </g>
</svg>
