<svg xmlns="http://www.w3.org/2000/svg" width="42.378" height="36.687" viewBox="0 0 42.378 36.687">
  <g id="그룹_2271" data-name="그룹 2271" transform="translate(-424.249 -1793.894)">
    <path id="패스_2969" data-name="패스 2969" d="M463.469,1824.764c.08-.094.172-.181.247-.277a7.059,7.059,0,0,0,1.576-4.4c0-4.392-4.224-7.951-9.434-7.951s-9.435,3.559-9.435,7.951,4.225,7.951,9.435,7.951a10.829,10.829,0,0,0,4.051-.785l5.383,2.023Z" fill="#0e935d" stroke="#333" stroke-width="1.5"/>
    <path id="패스_2970" data-name="패스 2970" d="M443.549,1794.644c-10.245,0-18.549,6.981-18.549,15.591a14.159,14.159,0,0,0,4.453,10.119l-.014-.009-2.984,7.372,9.1-3.414-.059-.039a21.37,21.37,0,0,0,8.052,1.562c10.244,0,18.548-6.979,18.548-15.591S453.792,1794.644,443.549,1794.644Z" fill="#fff" stroke="#333" stroke-linejoin="round" stroke-width="1.5"/>
    <g id="그룹_2270" data-name="그룹 2270">
      <circle id="타원_129_copy_2" data-name="타원 129 copy 2" cx="2" cy="2" r="2" transform="translate(448.66 1808.53)" fill="#333"/>
      <circle id="타원_129_copy_3" data-name="타원 129 copy 3" cx="2" cy="2" r="2" transform="translate(441.66 1808.53)" fill="#333"/>
      <circle id="타원_129_copy_4" data-name="타원 129 copy 4" cx="2" cy="2" r="2" transform="translate(434.66 1808.53)" fill="#333"/>
    </g>
  </g>
</svg>
