<svg xmlns="http://www.w3.org/2000/svg" width="68" height="65" viewBox="0 0 68 65">
  <g id="그룹_2925" data-name="그룹 2925" transform="translate(-1494.205 -1721.844)">
    <path id="패스_3141" data-name="패스 3141" d="M1523.2,1759.952l-12.328-2.244-4.261,12.032-18.411-34,15-10Z" transform="translate(38.006 16.104)" fill="#fff" stroke="#333" stroke-linecap="round" stroke-linejoin="round" stroke-width="2"/>
    <path id="패스_3142" data-name="패스 3142" d="M1488.2,1759.952l12.328-2.244,4.261,12.032,18.411-34-15-10Z" transform="translate(7.006 16.104)" fill="#fff" stroke="#333" stroke-linecap="round" stroke-linejoin="round" stroke-width="2"/>
    <g id="패스_3140" data-name="패스 3140" transform="translate(5.709 -2)" fill="#fff" stroke-linecap="round" stroke-linejoin="round">
      <path d="M 1522.495483398438 1768.843994140625 C 1519.515502929688 1768.843994140625 1517.091064453125 1766.41845703125 1517.091064453125 1763.43701171875 C 1517.091064453125 1763.096069335938 1517.117309570312 1762.791137695312 1517.17138671875 1762.505004882812 L 1517.330078125 1761.664184570312 L 1516.52392578125 1761.377319335938 C 1516.478149414062 1761.361083984375 1516.4248046875 1761.339599609375 1516.388671875 1761.324829101562 L 1515.653930664062 1761.025756835938 L 1515.195556640625 1761.67333984375 C 1515.00927734375 1761.936401367188 1514.8046875 1762.181396484375 1514.587280273438 1762.401733398438 C 1513.566650390625 1763.421020507812 1512.209228515625 1763.982421875 1510.764770507812 1763.982421875 C 1509.3193359375 1763.982421875 1507.96044921875 1763.420288085938 1506.938354492188 1762.399536132812 C 1504.831176757812 1760.292358398438 1504.831176757812 1756.863159179688 1506.938842773438 1754.755615234375 C 1507.161743164062 1754.532470703125 1507.40576171875 1754.32763671875 1507.663940429688 1754.146606445312 L 1508.288330078125 1753.708862304688 L 1508.031494140625 1752.990966796875 C 1507.998657226562 1752.899169921875 1507.962768554688 1752.8193359375 1507.933837890625 1752.755249023438 L 1507.92822265625 1752.74267578125 L 1507.609375 1752.03369140625 L 1506.84375 1752.167846679688 C 1506.524780273438 1752.223754882812 1506.216552734375 1752.250854492188 1505.901489257812 1752.250854492188 C 1502.92138671875 1752.250854492188 1500.496826171875 1749.825317382812 1500.496826171875 1746.843994140625 C 1500.496826171875 1743.8623046875 1502.92138671875 1741.4365234375 1505.901489257812 1741.4365234375 C 1506.216552734375 1741.4365234375 1506.524780273438 1741.463745117188 1506.84375 1741.51953125 L 1507.609375 1741.653686523438 L 1507.92822265625 1740.944702148438 L 1507.93505859375 1740.929443359375 C 1507.96337890625 1740.86669921875 1507.99853515625 1740.78857421875 1508.030883789062 1740.698852539062 L 1508.289306640625 1739.980834960938 L 1507.664916992188 1739.5419921875 C 1507.408203125 1739.361694335938 1507.163330078125 1739.15673828125 1506.937133789062 1738.93310546875 C 1504.831665039062 1736.823486328125 1504.832275390625 1733.39453125 1506.938842773438 1731.2880859375 C 1507.96044921875 1730.267456054688 1509.3193359375 1729.705200195312 1510.764770507812 1729.705200195312 C 1512.208862304688 1729.705200195312 1513.56591796875 1730.266357421875 1514.586547851562 1731.28564453125 C 1514.810791015625 1731.512084960938 1515.013916015625 1731.755859375 1515.190551757812 1732.009887695312 L 1515.667724609375 1732.696533203125 L 1516.427978515625 1732.348510742188 C 1516.4375 1732.344116210938 1516.46533203125 1732.333374023438 1516.485717773438 1732.325561523438 C 1516.512451171875 1732.315307617188 1516.5390625 1732.304931640625 1516.565185546875 1732.294311523438 L 1517.324340820312 1731.98583984375 L 1517.171020507812 1731.180908203125 C 1517.118041992188 1730.902099609375 1517.091064453125 1730.589111328125 1517.091064453125 1730.250854492188 C 1517.091064453125 1727.26953125 1519.515502929688 1724.843994140625 1522.495483398438 1724.843994140625 C 1525.47705078125 1724.843994140625 1527.902709960938 1727.26953125 1527.902709960938 1730.250854492188 C 1527.902709960938 1730.589233398438 1527.875732421875 1730.902099609375 1527.82275390625 1731.180908203125 L 1527.66943359375 1731.98583984375 L 1528.428588867188 1732.294311523438 C 1528.454711914062 1732.304931640625 1528.481201171875 1732.315185546875 1528.5078125 1732.325561523438 C 1528.528442382812 1732.333374023438 1528.556640625 1732.34423828125 1528.566528320312 1732.348754882812 L 1529.326171875 1732.695922851562 L 1529.803100585938 1732.010131835938 C 1529.988403320312 1731.74365234375 1530.18505859375 1731.507568359375 1530.404541015625 1731.28857421875 C 1531.42578125 1730.267333984375 1532.783813476562 1729.705200195312 1534.22900390625 1729.705200195312 C 1535.674438476562 1729.705200195312 1537.033325195312 1730.267456054688 1538.055297851562 1731.288452148438 C 1540.161865234375 1733.39453125 1540.162353515625 1736.823486328125 1538.056640625 1738.93310546875 C 1537.830688476562 1739.156616210938 1537.585815429688 1739.361450195312 1537.328735351562 1739.541870117188 L 1536.70068359375 1739.983154296875 L 1536.964477539062 1740.703979492188 C 1536.979370117188 1740.744506835938 1536.995727539062 1740.785034179688 1537.01220703125 1740.825317382812 C 1537.01904296875 1740.841796875 1537.026123046875 1740.858276367188 1537.032104492188 1740.874877929688 L 1537.317138671875 1741.662353515625 L 1538.142456054688 1741.52001953125 C 1538.467895507812 1741.4638671875 1538.778564453125 1741.4365234375 1539.09228515625 1741.4365234375 C 1542.072387695312 1741.4365234375 1544.496826171875 1743.8623046875 1544.496826171875 1746.843994140625 C 1544.496826171875 1749.825317382812 1542.072387695312 1752.250854492188 1539.09228515625 1752.250854492188 C 1538.778564453125 1752.250854492188 1538.467895507812 1752.223510742188 1538.142456054688 1752.167358398438 L 1537.317138671875 1752.025024414062 L 1537.032104492188 1752.8125 C 1537.026123046875 1752.829223632812 1537.01904296875 1752.845703125 1537.01220703125 1752.8623046875 C 1536.995483398438 1752.9033203125 1536.978881835938 1752.944458007812 1536.9638671875 1752.98583984375 L 1536.70166015625 1753.70654296875 L 1537.329711914062 1754.146728515625 C 1537.588134765625 1754.327880859375 1537.832153320312 1754.532592773438 1538.054809570312 1754.75537109375 C 1539.075927734375 1755.7763671875 1539.638061523438 1757.133666992188 1539.638061523438 1758.577758789062 C 1539.638061523438 1760.021850585938 1539.075927734375 1761.379150390625 1538.055053710938 1762.39990234375 C 1537.033325195312 1763.420288085938 1535.674438476562 1763.982421875 1534.22900390625 1763.982421875 C 1532.783813476562 1763.982421875 1531.425659179688 1763.42041015625 1530.404907226562 1762.39990234375 C 1530.1923828125 1762.187255859375 1529.993896484375 1761.949462890625 1529.798095703125 1761.673095703125 L 1529.339965820312 1761.0263671875 L 1528.605712890625 1761.324584960938 C 1528.568725585938 1761.339599609375 1528.514282226562 1761.361450195312 1528.469848632812 1761.377319335938 L 1527.663696289062 1761.664184570312 L 1527.822387695312 1762.505004882812 C 1527.87646484375 1762.791137695312 1527.902709960938 1763.095947265625 1527.902709960938 1763.43701171875 C 1527.902709960938 1766.41845703125 1525.47705078125 1768.843994140625 1522.495483398438 1768.843994140625 Z" stroke="none"/>
      <path d="M 1522.495483398438 1767.843994140625 C 1524.925659179688 1767.843994140625 1526.902709960938 1765.867065429688 1526.902709960938 1763.43701171875 C 1526.902709960938 1763.158935546875 1526.882080078125 1762.914794921875 1526.83984375 1762.690551757812 C 1526.656982421875 1761.722412109375 1527.206420898438 1760.765380859375 1528.134643554688 1760.435180664062 C 1528.15380859375 1760.428344726562 1528.185668945312 1760.415893554688 1528.229370117188 1760.398071289062 C 1529.089233398438 1760.048706054688 1530.0771484375 1760.337158203125 1530.614135742188 1761.095092773438 C 1530.776977539062 1761.324951171875 1530.93994140625 1761.520629882812 1531.111938476562 1761.692626953125 C 1531.94384765625 1762.5244140625 1533.05078125 1762.982421875 1534.22900390625 1762.982421875 C 1535.407592773438 1762.982421875 1536.515502929688 1762.524169921875 1537.348022460938 1761.692749023438 C 1538.179931640625 1760.860961914062 1538.638061523438 1759.754638671875 1538.638061523438 1758.577758789062 C 1538.638061523438 1757.40087890625 1538.179931640625 1756.294555664062 1537.347534179688 1755.462280273438 C 1537.165893554688 1755.280639648438 1536.966796875 1755.113525390625 1536.755859375 1754.965698242188 C 1536.014770507812 1754.446411132812 1535.714721679688 1753.494262695312 1536.024047851562 1752.643920898438 C 1536.048095703125 1752.577880859375 1536.070434570312 1752.5234375 1536.086669921875 1752.483642578125 L 1536.095947265625 1752.4609375 C 1536.429321289062 1751.55615234375 1537.36083984375 1751.017456054688 1538.312622070312 1751.182006835938 C 1538.581176757812 1751.228271484375 1538.836181640625 1751.250854492188 1539.09228515625 1751.250854492188 C 1541.52099609375 1751.250854492188 1543.496826171875 1749.27392578125 1543.496826171875 1746.843994140625 C 1543.496826171875 1744.413696289062 1541.52099609375 1742.4365234375 1539.09228515625 1742.4365234375 C 1538.836181640625 1742.4365234375 1538.581176757812 1742.459106445312 1538.312622070312 1742.50537109375 C 1537.36083984375 1742.669677734375 1536.429931640625 1742.13134765625 1536.09619140625 1741.227294921875 L 1536.087158203125 1741.205078125 C 1536.065673828125 1741.15283203125 1536.044677734375 1741.100341796875 1536.025390625 1741.047729492188 C 1535.714233398438 1740.197387695312 1536.013061523438 1739.244018554688 1536.754028320312 1738.7236328125 C 1536.964477539062 1738.575805664062 1537.165283203125 1738.407958984375 1537.35107421875 1738.224609375 C 1539.065307617188 1736.504638671875 1539.064331054688 1733.71142578125 1537.3486328125 1731.995849609375 C 1536.515380859375 1731.16357421875 1535.407470703125 1730.705200195312 1534.22900390625 1730.705200195312 C 1533.050903320312 1730.705200195312 1531.943969726562 1731.163330078125 1531.111083984375 1731.99609375 C 1530.934326171875 1732.172607421875 1530.775024414062 1732.364013671875 1530.6240234375 1732.5810546875 C 1530.075927734375 1733.369018554688 1529.046264648438 1733.655883789062 1528.170532226562 1733.267211914062 C 1528.163208007812 1733.264282226562 1528.155883789062 1733.261474609375 1528.148559570312 1733.258666992188 C 1528.116088867188 1733.246215820312 1528.083862304688 1733.233642578125 1528.052124023438 1733.220825195312 C 1527.169189453125 1732.862060546875 1526.662109375 1731.930053710938 1526.84033203125 1730.993774414062 C 1526.881713867188 1730.776489257812 1526.902709960938 1730.526611328125 1526.902709960938 1730.250854492188 C 1526.902709960938 1727.820922851562 1524.925659179688 1725.843994140625 1522.495483398438 1725.843994140625 C 1520.06689453125 1725.843994140625 1518.091064453125 1727.820922851562 1518.091064453125 1730.250854492188 C 1518.091064453125 1730.526489257812 1518.112060546875 1730.776489257812 1518.153442382812 1730.993896484375 C 1518.331665039062 1731.930053710938 1517.824584960938 1732.862060546875 1516.941650390625 1733.220825195312 C 1516.909790039062 1733.233764648438 1516.87744140625 1733.246337890625 1516.844848632812 1733.2587890625 L 1516.822265625 1733.267578125 C 1515.947143554688 1733.655883789062 1514.917358398438 1733.369018554688 1514.369384765625 1732.580688476562 C 1514.224365234375 1732.371948242188 1514.063842773438 1732.179321289062 1513.878784179688 1731.992065429688 C 1513.047119140625 1731.162109375 1511.94140625 1730.705200195312 1510.764770507812 1730.705200195312 C 1509.586303710938 1730.705200195312 1508.478393554688 1731.16357421875 1507.645874023438 1731.9951171875 C 1505.929565429688 1733.711547851562 1505.928588867188 1736.505249023438 1507.643310546875 1738.225219726562 C 1507.8291015625 1738.408447265625 1508.02978515625 1738.576293945312 1508.23974609375 1738.723754882812 C 1508.977294921875 1739.241943359375 1509.276977539062 1740.189453125 1508.971801757812 1741.037475585938 C 1508.92626953125 1741.163818359375 1508.88037109375 1741.265869140625 1508.846801757812 1741.34033203125 L 1508.84033203125 1741.354858398438 C 1508.465209960938 1742.18896484375 1507.573120117188 1742.662109375 1506.671142578125 1742.504516601562 C 1506.409790039062 1742.458740234375 1506.158081054688 1742.4365234375 1505.901489257812 1742.4365234375 C 1503.472778320312 1742.4365234375 1501.496826171875 1744.413696289062 1501.496826171875 1746.843994140625 C 1501.496826171875 1749.27392578125 1503.472778320312 1751.250854492188 1505.901489257812 1751.250854492188 C 1506.158081054688 1751.250854492188 1506.409790039062 1751.228637695312 1506.671142578125 1751.182861328125 C 1507.572021484375 1751.02490234375 1508.465209960938 1751.49853515625 1508.84033203125 1752.33251953125 L 1508.845703125 1752.344604492188 C 1508.878051757812 1752.416381835938 1508.926879882812 1752.524780273438 1508.97314453125 1752.654174804688 C 1509.276489257812 1753.502197265625 1508.9755859375 1754.448364257812 1508.238037109375 1754.965454101562 C 1508.027221679688 1755.11328125 1507.828125 1755.280395507812 1507.645874023438 1755.462646484375 C 1505.92822265625 1757.180297851562 1505.92822265625 1759.975219726562 1507.64501953125 1761.69189453125 C 1508.478271484375 1762.524169921875 1509.586181640625 1762.982421875 1510.764770507812 1762.982421875 C 1511.941040039062 1762.982421875 1513.04638671875 1762.52587890625 1513.8779296875 1761.696899414062 C 1514.056396484375 1761.515747070312 1514.22509765625 1761.3134765625 1514.379272460938 1761.095581054688 C 1514.916381835938 1760.337036132812 1515.905029296875 1760.048706054688 1516.765747070312 1760.398681640625 C 1516.818115234375 1760.420043945312 1516.845458984375 1760.430297851562 1516.859130859375 1760.435180664062 C 1517.787353515625 1760.765380859375 1518.336791992188 1761.722412109375 1518.154052734375 1762.6904296875 C 1518.111694335938 1762.914794921875 1518.091064453125 1763.158935546875 1518.091064453125 1763.43701171875 C 1518.091064453125 1765.867065429688 1520.06689453125 1767.843994140625 1522.495483398438 1767.843994140625 M 1522.495483398438 1769.843994140625 C 1518.959106445312 1769.843994140625 1516.091064453125 1766.973266601562 1516.091064453125 1763.43701171875 C 1516.091064453125 1763.056884765625 1516.119873046875 1762.68408203125 1516.188720703125 1762.319458007812 C 1516.130737304688 1762.298828125 1516.069580078125 1762.274658203125 1516.01171875 1762.251098632812 C 1515.800537109375 1762.549438476562 1515.562622070312 1762.83740234375 1515.296142578125 1763.107055664062 C 1512.794677734375 1765.607543945312 1508.7353515625 1765.607543945312 1506.231689453125 1763.107055664062 C 1503.730712890625 1760.606079101562 1503.730712890625 1756.549438476562 1506.231689453125 1754.048461914062 C 1506.501220703125 1753.77880859375 1506.7890625 1753.538696289062 1507.089965820312 1753.327758789062 C 1507.068969726562 1753.26904296875 1507.04248046875 1753.211181640625 1507.016235351562 1753.15283203125 C 1506.654541015625 1753.216186523438 1506.284545898438 1753.250854492188 1505.901489257812 1753.250854492188 C 1502.362548828125 1753.250854492188 1499.496826171875 1750.380249023438 1499.496826171875 1746.843994140625 C 1499.496826171875 1743.305297851562 1502.362548828125 1740.4365234375 1505.901489257812 1740.4365234375 C 1506.284545898438 1740.4365234375 1506.654541015625 1740.47119140625 1507.016235351562 1740.534545898438 C 1507.04248046875 1740.476196289062 1507.068969726562 1740.418579101562 1507.089965820312 1740.360229492188 C 1506.7890625 1740.148803710938 1506.501220703125 1739.90869140625 1506.231689453125 1739.641967773438 C 1503.730712890625 1737.138427734375 1503.730712890625 1733.081909179688 1506.231689453125 1730.580932617188 C 1508.7353515625 1728.079956054688 1512.794677734375 1728.079956054688 1515.296142578125 1730.580932617188 C 1515.562622070312 1730.85009765625 1515.800537109375 1731.135375976562 1516.01171875 1731.439208984375 C 1516.069580078125 1731.412719726562 1516.130737304688 1731.391479492188 1516.188720703125 1731.367919921875 C 1516.119873046875 1731.00634765625 1516.091064453125 1730.631103515625 1516.091064453125 1730.250854492188 C 1516.091064453125 1726.714721679688 1518.959106445312 1723.843994140625 1522.495483398438 1723.843994140625 C 1526.03466796875 1723.843994140625 1528.902709960938 1726.714721679688 1528.902709960938 1730.250854492188 C 1528.902709960938 1730.631103515625 1528.873901367188 1731.00634765625 1528.805053710938 1731.367919921875 C 1528.863037109375 1731.391479492188 1528.924072265625 1731.412719726562 1528.982055664062 1731.439208984375 C 1529.193359375 1731.135375976562 1529.428344726562 1730.85009765625 1529.697875976562 1730.580932617188 C 1532.199340820312 1728.079956054688 1536.258666992188 1728.080078125 1538.762084960938 1730.580932617188 C 1541.263427734375 1733.081909179688 1541.263427734375 1737.138427734375 1538.762084960938 1739.641967773438 C 1538.492553710938 1739.90869140625 1538.20458984375 1740.148803710938 1537.903564453125 1740.360229492188 C 1537.924926757812 1740.418579101562 1537.951293945312 1740.476196289062 1537.972412109375 1740.534545898438 C 1538.339477539062 1740.47119140625 1538.709228515625 1740.4365234375 1539.09228515625 1740.4365234375 C 1542.631225585938 1740.4365234375 1545.496826171875 1743.305297851562 1545.496826171875 1746.843994140625 C 1545.496826171875 1750.380249023438 1542.631225585938 1753.250854492188 1539.09228515625 1753.250854492188 C 1538.709228515625 1753.250854492188 1538.339477539062 1753.216186523438 1537.972412109375 1753.15283203125 C 1537.951293945312 1753.211181640625 1537.924926757812 1753.26904296875 1537.903564453125 1753.327758789062 C 1538.20458984375 1753.538696289062 1538.492553710938 1753.77880859375 1538.762084960938 1754.048461914062 C 1541.263427734375 1756.549438476562 1541.263427734375 1760.606079101562 1538.762084960938 1763.107055664062 C 1536.258544921875 1765.607421875 1532.19921875 1765.607666015625 1529.697875976562 1763.107055664062 C 1529.428344726562 1762.83740234375 1529.193359375 1762.549438476562 1528.982055664062 1762.251098632812 C 1528.924072265625 1762.274658203125 1528.863037109375 1762.298828125 1528.805053710938 1762.319458007812 C 1528.873901367188 1762.68408203125 1528.902709960938 1763.056884765625 1528.902709960938 1763.43701171875 C 1528.902709960938 1766.973266601562 1526.03466796875 1769.843994140625 1522.495483398438 1769.843994140625 Z" stroke="none" fill="#333"/>
    </g>
    <g id="패스_3137" data-name="패스 3137" transform="translate(13.402 5.694)" fill="#55cf96" stroke-linecap="round" stroke-linejoin="round">
      <path d="M 1514.801513671875 1749.149658203125 C 1509.288330078125 1749.149658203125 1504.802978515625 1744.664306640625 1504.802978515625 1739.151123046875 C 1504.802978515625 1733.636352539062 1509.288330078125 1729.149658203125 1514.801513671875 1729.149658203125 C 1520.316284179688 1729.149658203125 1524.802978515625 1733.636352539062 1524.802978515625 1739.151123046875 C 1524.802978515625 1744.664306640625 1520.316284179688 1749.149658203125 1514.801513671875 1749.149658203125 Z" stroke="none"/>
      <path d="M 1514.801513671875 1730.149658203125 C 1509.839721679688 1730.149658203125 1505.802978515625 1734.187744140625 1505.802978515625 1739.151123046875 C 1505.802978515625 1744.112915039062 1509.839721679688 1748.149658203125 1514.801513671875 1748.149658203125 C 1519.764892578125 1748.149658203125 1523.802978515625 1744.112915039062 1523.802978515625 1739.151123046875 C 1523.802978515625 1734.187744140625 1519.764892578125 1730.149658203125 1514.801513671875 1730.149658203125 M 1514.801513671875 1728.149658203125 C 1520.878051757812 1728.149658203125 1525.802978515625 1733.076782226562 1525.802978515625 1739.151123046875 C 1525.802978515625 1745.224975585938 1520.878051757812 1750.149658203125 1514.801513671875 1750.149658203125 C 1508.727661132812 1750.149658203125 1503.802978515625 1745.224975585938 1503.802978515625 1739.151123046875 C 1503.802978515625 1733.076782226562 1508.727661132812 1728.149658203125 1514.801513671875 1728.149658203125 Z" stroke="none" fill="#333"/>
    </g>
  </g>
</svg>
