<svg xmlns="http://www.w3.org/2000/svg" width="33.396" height="43.705" viewBox="0 0 33.396 43.705">
  <g id="그룹_2263" data-name="그룹 2263" transform="translate(-420.05 -1538.629)">
    <path id="사각형_923" data-name="사각형 923" d="M1.3,0H4.5A1.3,1.3,0,0,1,5.8,1.3V33.24a0,0,0,0,1,0,0H1.3A1.3,1.3,0,0,1,0,31.94V1.3A1.3,1.3,0,0,1,1.3,0Z" transform="translate(420.8 1547.66)" fill="#0e935d"/>
    <path id="패스_2964" data-name="패스 2964" d="M426.6,1539.379c-3.206,0-5.8,2.061-5.8,4.6s1.712,4.6,5.8,4.6H452.7" fill="none" stroke="#333" stroke-linecap="round" stroke-width="1.5"/>
    <path id="패스_2965" data-name="패스 2965" d="M452.7,1548.583v30.88a2.141,2.141,0,0,1-2.16,2.12H425.55a4.706,4.706,0,0,1-4.75-4.661v-33.345a4.239,4.239,0,0,1,4.279-4.2H449.6a.32.32,0,0,1,.158.6c-1.468.863-1.318,2.631-1.318,3.578a4.91,4.91,0,0,0,4.257,4.959" fill="none" stroke="#333" stroke-width="1.5"/>
    <line id="선_145" data-name="선 145" y2="32.17" transform="translate(426.6 1548.58)" fill="#fff" stroke="#333" stroke-linecap="round" stroke-width="1.5"/>
  </g>
</svg>
