<svg xmlns="http://www.w3.org/2000/svg" width="36.01" height="39.996" viewBox="0 0 36.01 39.996">
  <g id="그룹_2259" data-name="그룹 2259" transform="translate(-419.251 -1393.078)">
    <path id="사각형_920" data-name="사각형 920" d="M420.072,1397.14a3,3,0,0,1,3-3h28.438a3,3,0,0,1,3,3v2.7a5,5,0,0,1-5,5H425.072a5,5,0,0,1-5-5Z" fill="#0e935d"/>
    <path id="사각형_921" data-name="사각형 921" d="M420,1396.709a2.881,2.881,0,0,1,2.881-2.881h28.748a2.881,2.881,0,0,1,2.881,2.881v32.734a2.881,2.881,0,0,1-2.881,2.881H422.882a2.881,2.881,0,0,1-2.881-2.881Z" fill="none" stroke="#333" stroke-linecap="square" stroke-width="1.5"/>
    <circle id="타원_124" data-name="타원 124" cx="2.56" cy="2.56" r="2.56" transform="translate(434.73 1413.85)" fill="#fff" stroke="#333" stroke-width="1.5"/>
    <path id="패스_2961" data-name="패스 2961" d="M454.51,1398.942a8.406,8.406,0,0,1-8.3,6.974H428.1A8.207,8.207,0,0,1,420,1399" fill="#0e935d" stroke="#333" stroke-width="1.5"/>
    <circle id="타원_125" data-name="타원 125" cx="2.56" cy="2.56" r="2.56" transform="translate(434.73 1402.92)" fill="#fff" stroke="#333" stroke-linecap="square" stroke-width="1.5"/>
    <line id="선_142" data-name="선 142" y2="9.02" transform="translate(434.73 1406.16)" fill="none" stroke="#333" stroke-linecap="square" stroke-width="1.5"/>
    <line id="선_143" data-name="선 143" y2="8.42" transform="translate(439.85 1406.98)" fill="none" stroke="#333" stroke-linecap="square" stroke-width="1.5"/>
  </g>
</svg>
