<svg xmlns="http://www.w3.org/2000/svg" width="36.559" height="39.642" viewBox="0 0 36.559 39.642">
  <g id="그룹_2485" data-name="그룹 2485" transform="translate(-422.251 -1664.628)">
    <g id="그룹_2481" data-name="그룹 2481">
      <path id="사각형_921" data-name="사각형 921" d="M423,1667.4a2.017,2.017,0,0,1,2.017-2.017h23.088a2.017,2.017,0,0,1,2.017,2.017v31.722a2.017,2.017,0,0,1-2.017,2.017H425.018a2.017,2.017,0,0,1-2.017-2.017Z" fill="none" stroke="#333" stroke-linecap="square" stroke-width="1.5"/>
      <circle id="타원_124" data-name="타원 124" cx="2.01" cy="2.01" r="2.01" transform="translate(434.58 1681.11)" fill="#fff" stroke="#333" stroke-width="1.5"/>
      <path id="패스_2961" data-name="패스 2961" d="M450.124,1669.4a6.6,6.6,0,0,1-6.524,5.481H429.376a6.452,6.452,0,0,1-6.367-5.435" fill="none" stroke="#333" stroke-width="1.5"/>
      <circle id="타원_125" data-name="타원 125" cx="2.01" cy="2.01" r="2.01" transform="translate(434.58 1672.53)" fill="#fff" stroke="#333" stroke-linecap="square" stroke-width="1.5"/>
      <line id="선_142" data-name="선 142" y2="7.09" transform="translate(434.58 1675.07)" fill="none" stroke="#333" stroke-linecap="square" stroke-width="1.5"/>
      <line id="선_143" data-name="선 143" y2="6.62" transform="translate(438.6 1675.72)" fill="none" stroke="#333" stroke-linecap="square" stroke-width="1.5"/>
      <line id="선_130" data-name="선 130" x2="5.1" transform="translate(428.2 1696.54)" fill="none" stroke="#333" stroke-linecap="round" stroke-width="1.5"/>
      <line id="선_131" data-name="선 131" x2="1.22" transform="translate(427.36 1696.54)" fill="none" stroke="#333" stroke-linecap="round" stroke-width="1.5"/>
    </g>
    <circle id="타원_132" data-name="타원 132" cx="8.24" cy="8.24" r="8.24" transform="translate(441.58 1687.04)" fill="#0e935d" stroke="#333" stroke-linecap="round" stroke-width="1.5"/>
    <path id="패스_3010" data-name="패스 3010" d="M445.983,1695.364l2.648,2.019,4.031-4.2" fill="none" stroke="#fff" stroke-linecap="round" stroke-width="2.5"/>
  </g>
</svg>
