<svg xmlns="http://www.w3.org/2000/svg" width="56.5" height="35.5" viewBox="0 0 56.5 35.5">
  <g id="그룹_2972" data-name="그룹 2972" transform="translate(-1805.713 -1894.582)">
    <g id="패스_3154" data-name="패스 3154" transform="translate(1.135 0.621)" fill="#fff">
      <path d="M 1857.300170898438 1926.1162109375 L 1856.550170898438 1926.1162109375 L 1814.601928710938 1926.1162109375 L 1813.851928710938 1926.1162109375 L 1813.851928710938 1925.3662109375 L 1813.851928710938 1903.264038085938 L 1813.851928710938 1899.595336914062 C 1813.851928710938 1898.459228515625 1814.82373046875 1897.535034179688 1816.018188476562 1897.535034179688 L 1855.133911132812 1897.535034179688 C 1856.328369140625 1897.535034179688 1857.300170898438 1898.459228515625 1857.300170898438 1899.595336914062 L 1857.300170898438 1903.264038085938 L 1857.300170898438 1925.3662109375 L 1857.300170898438 1926.1162109375 Z" stroke="none"/>
      <path d="M 1816.018188476562 1898.285034179688 C 1815.235961914062 1898.285034179688 1814.601928710938 1898.872314453125 1814.601928710938 1899.595336914062 L 1814.601928710938 1925.3662109375 L 1856.550170898438 1925.3662109375 L 1856.550170898438 1899.595336914062 C 1856.550170898438 1898.872314453125 1855.916137695312 1898.285034179688 1855.133911132812 1898.285034179688 L 1816.018188476562 1898.285034179688 M 1816.018188476562 1896.785034179688 L 1855.133911132812 1896.785034179688 C 1856.741943359375 1896.785034179688 1858.050170898438 1898.045776367188 1858.050170898438 1899.595336914062 L 1858.050170898438 1926.8662109375 L 1813.101928710938 1926.8662109375 L 1813.101928710938 1899.595336914062 C 1813.101928710938 1898.045776367188 1814.41015625 1896.785034179688 1816.018188476562 1896.785034179688 Z" stroke="none" fill="#333"/>
    </g>
    <g id="패스_3155" data-name="패스 3155" transform="translate(1.056 4.739)" fill="#fff">
      <path d="M 1858.295166015625 1924.592529296875 L 1813.37060546875 1924.592529296875 C 1812.206176757812 1924.592529296875 1811.258911132812 1923.69921875 1811.258911132812 1922.601318359375 L 1811.258911132812 1921.248046875 L 1811.258911132812 1920.498046875 L 1812.008911132812 1920.498046875 L 1859.656982421875 1920.498046875 L 1860.406982421875 1920.498046875 L 1860.406982421875 1921.248046875 L 1860.406982421875 1922.601318359375 C 1860.406982421875 1923.69921875 1859.459594726562 1924.592529296875 1858.295166015625 1924.592529296875 Z" stroke="none"/>
      <path d="M 1812.008911132812 1921.248046875 L 1812.008911132812 1922.601318359375 C 1812.008911132812 1923.286865234375 1812.61865234375 1923.842529296875 1813.37060546875 1923.842529296875 L 1858.295166015625 1923.842529296875 C 1859.047607421875 1923.842529296875 1859.656982421875 1923.286865234375 1859.656982421875 1922.601318359375 L 1859.656982421875 1921.248046875 L 1812.008911132812 1921.248046875 M 1810.508911132812 1919.748046875 L 1861.156982421875 1919.748046875 L 1861.156982421875 1922.601318359375 C 1861.156982421875 1924.11279296875 1859.873168945312 1925.342529296875 1858.295166015625 1925.342529296875 L 1813.37060546875 1925.342529296875 C 1811.792602539062 1925.342529296875 1810.508911132812 1924.11279296875 1810.508911132812 1922.601318359375 L 1810.508911132812 1919.748046875 Z" stroke="none" fill="#333"/>
    </g>
    <path id="패스_3156" data-name="패스 3156" d="M1829.045,1921.248v.676a.651.651,0,0,0,.675.621h6.868a.649.649,0,0,0,.674-.621v-.676Z" transform="translate(3.707 4.739)" fill="#333"/>
    <circle id="타원_163" data-name="타원 163" cx="7.845" cy="7.845" r="7.845" transform="translate(1829.011 1904.088)" fill="#0e935d"/>
    <path id="패스_3157" data-name="패스 3157" d="M1830.683,1910.042v-2.7a.448.448,0,0,1,.673-.382l2.376,1.347,2.375,1.347a.438.438,0,0,1,0,.765l-2.375,1.348-2.376,1.349a.449.449,0,0,1-.673-.383Z" transform="translate(3.979 2.206)" fill="#fff"/>
    <g id="그룹_2931" data-name="그룹 2931" transform="translate(1805.713 1894.582)">
      <g id="타원_164" data-name="타원 164" fill="#fff" stroke="#333" stroke-width="1.5">
        <circle cx="9.731" cy="9.731" r="9.731" stroke="none"/>
        <circle cx="9.731" cy="9.731" r="8.981" fill="none"/>
      </g>
    </g>
    <path id="패스_3158" data-name="패스 3158" d="M1819.4,1903.731h-.912a.428.428,0,0,0-.411.411,3.47,3.47,0,0,1-3.451,3.111,3.468,3.468,0,1,1-.036-6.936v.554c0,.251.179.34.411.251l2.915-1.467c.232-.125.232-.322,0-.447l-2.915-1.484a.561.561,0,0,0-.16-.017c-.161,0-.251.09-.251.269v.572a5.22,5.22,0,1,0,5.221,5.6.429.429,0,0,0-.411-.411Z" transform="translate(0.619 0.524)" fill="#0e935d"/>
  </g>
</svg>
