<svg xmlns="http://www.w3.org/2000/svg" width="39.908" height="39.867" viewBox="0 0 39.908 39.867"><defs><style>.a{fill:#fff;stroke-linecap:round;}.a,.b,.c,.e{stroke:#333;stroke-width:2px;}.a,.b,.c{stroke-linejoin:round;}.b,.e{fill:none;}.b,.c{stroke-linecap:square;}.c{fill:#0e935d;}.d{fill:#333;}.e{stroke-miterlimit:10;}</style></defs><g transform="translate(-359.847 -305.46)"><g transform="translate(360.847 306.46)"><ellipse class="a" cx="16.363" cy="16.37" rx="16.363" ry="16.37" transform="translate(2.591 2.16)"/><g transform="translate(29.261)"><line class="b" y1="1.592" x2="1.613" transform="translate(1.983 5.08)"/><path class="c" d="M408.165,307.944a5.066,5.066,0,0,1,7.164,7.164Z" transform="translate(-408.165 -306.46)"/></g><line class="b" x1="1.613" y1="1.592" transform="translate(5.051 5.08)"/><path class="c" d="M369.495,307.944a5.066,5.066,0,0,0-7.164,7.164Z" transform="translate(-360.847 -306.46)"/><line class="b" x2="4.835" y2="5.565" transform="translate(28.701 31.891)"/><line class="b" x1="4.835" y2="5.565" transform="translate(4.373 31.891)"/><circle class="d" cx="1.739" cy="1.739" r="1.739" transform="translate(17.202 18.32)"/><path class="e" d="M383.079,328.631l5.227,4.046,7.154-7.7" transform="translate(-369.422 -312.464)"/></g><line class="e" y2="2.348" transform="translate(379.815 310.442)"/><line class="e" x2="1.174" y2="2.034" transform="translate(372.371 312.29)"/><line class="e" x2="2.034" y2="1.174" transform="translate(366.927 317.725)"/><line class="e" x2="2.348" transform="translate(365.062 325.165)"/><line class="e" y1="1.174" x2="2.034" transform="translate(366.914 331.434)"/><line class="e" y1="2.034" x2="1.174" transform="translate(372.348 335.843)"/><line class="e" y1="2.348" transform="translate(379.788 337.586)"/><line class="e" x1="1.174" y1="2.034" transform="translate(386.058 335.857)"/><line class="e" x1="2.034" y1="1.174" transform="translate(390.642 331.457)"/><line class="e" x1="2.348" transform="translate(392.192 325.192)"/><line class="e" x1="2.034" y2="1.174" transform="translate(390.656 317.748)"/><line class="e" x1="1.174" y2="2.034" transform="translate(386.081 312.304)"/></g></svg>