<svg xmlns="http://www.w3.org/2000/svg" width="29" height="37.456" viewBox="0 0 29 37.456">
  <g id="합격증" transform="translate(-754.639 -170.152)">
    <g id="그룹_2043" data-name="그룹 2043" transform="translate(758.667 173.64)">
      <g id="패스_2927" data-name="패스 2927" transform="translate(-759.183 -174.086)" fill="#0e935d" stroke-linecap="round">
        <path d="M 783.4044799804688 207.30419921875 L 759.9332275390625 207.30419921875 L 759.9332275390625 204.5661163330078 L 759.9332275390625 174.8362426757812 L 780.124267578125 174.8362426757812 L 783.4044799804688 174.8362426757812 L 783.4044799804688 207.30419921875 Z" stroke="none"/>
        <path d="M 782.6544799804688 206.55419921875 L 782.6544799804688 175.5862426757812 L 760.6832275390625 175.5862426757812 L 760.6832275390625 206.55419921875 L 782.6544799804688 206.55419921875 M 784.1544799804688 208.05419921875 L 759.1832275390625 208.05419921875 L 759.1832275390625 174.0862426757812 L 784.1544799804688 174.0862426757812 L 784.1544799804688 208.05419921875 Z" stroke="none" fill="#333"/>
      </g>
    </g>
    <g id="그룹_2041" data-name="그룹 2041" transform="translate(754.639 170.152)">
      <g id="패스_2925" data-name="패스 2925" transform="translate(-754.639 -170.152)" fill="#fff" stroke-linecap="round">
        <path d="M 778.8599243164062 203.3695220947266 L 755.388671875 203.3695220947266 L 755.388671875 178.2090759277344 L 755.388671875 170.9015655517578 L 762.698974609375 170.9015655517578 L 778.8599243164062 170.9015655517578 L 778.8599243164062 203.3695220947266 Z" stroke="none"/>
        <path d="M 756.138671875 171.6515655517578 L 756.138671875 202.6195220947266 L 778.1099243164062 202.6195220947266 L 778.1099243164062 171.6515655517578 L 756.138671875 171.6515655517578 M 754.638671875 170.1515655517578 L 779.6099243164062 170.1515655517578 L 779.6099243164062 204.1195220947266 L 754.638671875 204.1195220947266 L 754.638671875 170.1515655517578 Z" stroke="none" fill="#333"/>
      </g>
    </g>
    <g id="그룹_2040" data-name="그룹 2040" transform="translate(760.392 173.64)">
      <path id="패스_2922" data-name="패스 2922" d="M769.787,183.879l.481,1.483a.368.368,0,0,0,.349.254h1.559a.367.367,0,0,1,.216.664l-1.261.916a.368.368,0,0,0-.134.41l.482,1.483a.367.367,0,0,1-.565.41l-1.26-.916a.371.371,0,0,0-.432,0l-1.261.916a.367.367,0,0,1-.565-.41l.482-1.483a.366.366,0,0,0-.133-.41l-1.261-.916a.367.367,0,0,1,.216-.664h1.558a.368.368,0,0,0,.35-.254l.482-1.483A.367.367,0,0,1,769.787,183.879Z" transform="translate(-762.706 -180.793)" fill="#333"/>
      <path id="패스_2923" data-name="패스 2923" d="M770.35,190.633l2.738,4.743.3-2.095,2.027.8-2.756-4.774" transform="translate(-761.952 -179.435)" fill="#333"/>
      <path id="패스_2924" data-name="패스 2924" d="M767.191,190.633l-2.738,4.743-.3-2.095-2.027.8,2.756-4.774" transform="translate(-762.127 -179.435)" fill="#333"/>
      <circle id="타원_115" data-name="타원 115" cx="5.804" cy="5.804" r="5.804" transform="translate(0.927)" fill="none" stroke="#333" stroke-linecap="square" stroke-linejoin="round" stroke-width="1.5"/>
    </g>
    <g id="그룹_2042" data-name="그룹 2042" transform="translate(759.197 191.804)">
      <line id="선_127" data-name="선 127" x2="15.852" transform="translate(0 3.189)" fill="none" stroke="#333" stroke-linecap="square" stroke-linejoin="round" stroke-width="1.5"/>
      <line id="선_128" data-name="선 128" x2="15.852" transform="translate(0 6.378)" fill="none" stroke="#333" stroke-linecap="square" stroke-linejoin="round" stroke-width="1.5"/>
      <line id="선_129" data-name="선 129" x2="15.852" transform="translate(0 0)" fill="none" stroke="#333" stroke-linecap="square" stroke-linejoin="round" stroke-width="1.5"/>
    </g>
  </g>
</svg>
