<svg xmlns="http://www.w3.org/2000/svg" width="51.475" height="35.298" viewBox="0 0 51.475 35.298">
  <g id="그룹_2973" data-name="그룹 2973" transform="translate(-1748.463 -1878.931)">
    <path id="패스_3159" data-name="패스 3159" d="M1795.825,1882.158h3.363v28.622h-20.744a5.346,5.346,0,0,1-8.467,0h-20.764v-28.622h3.363" transform="translate(0 0.618)" fill="#fff" stroke="#333" stroke-width="1.5"/>
    <path id="패스_3160" data-name="패스 3160" d="M1779.284,1879.737h-1.526c-1.891,0-4.1,1.538-4.1,3.428h0c0-1.891-2.729-3.428-4.62-3.428h-16.249v27.392h16.673c1.6,0,2.4,2.079,4.276,2.079s2.739-2.079,4.25-2.079h16.673v-27.392h-9.611" transform="translate(0.684 0.154)" fill="#fff" stroke="#333" stroke-width="1.5"/>
    <path id="패스_3161" data-name="패스 3161" d="M1780.8,1895.269l-2.833-1.442-2.934,1.442V1878.93h5.767Z" transform="translate(4.939 0)" fill="#0e935d"/>
    <line id="선_189" data-name="선 189" y2="26.477" transform="translate(1774.307 1882.885)" fill="none" stroke="#333" stroke-width="1.5"/>
  </g>
</svg>
