<svg xmlns="http://www.w3.org/2000/svg" width="66" height="60" viewBox="0 0 66 60">
  <g id="그룹_2988" data-name="그룹 2988" transform="translate(-1107 -372)">
    <g id="그룹_2929" data-name="그룹 2929" transform="translate(127 -993)">
      <path id="패스_3148" data-name="패스 3148" d="M982.822,1409.99l-.092,8.287,24.037-1.156,5.34,3.12,8.187-2.773,23.241-2.132-2.428-6.9-2.562,1.2-21.336-.174-4.328,1.837-5.346-2.02Z" fill="#fff"/>
      <g id="패스_3149" data-name="패스 3149" fill="#55cf96" stroke-linejoin="round">
        <path d="M 1015.742004394531 1424 L 1010.257995605469 1424 C 1009.330200195312 1424 1008.463562011719 1423.501220703125 1007.996398925781 1422.698120117188 C 1007.3837890625 1421.648193359375 1006.352478027344 1421.02197265625 1005.236999511719 1421.02197265625 L 981 1421.02197265625 L 981 1416 L 1008.593017578125 1416 C 1009.156005859375 1416 1009.614013671875 1416.457153320312 1009.614013671875 1417.01904296875 C 1009.614013671875 1418.099243164062 1010.493713378906 1418.97802734375 1011.575012207031 1418.97802734375 L 1014.424987792969 1418.97802734375 C 1015.506286621094 1418.97802734375 1016.385986328125 1418.098754882812 1016.385986328125 1417.017944335938 C 1016.385986328125 1416.456665039062 1016.843994140625 1416 1017.406982421875 1416 L 1045 1416 L 1045 1421.02197265625 L 1020.763000488281 1421.02197265625 C 1019.647521972656 1421.02197265625 1018.6162109375 1421.648193359375 1018.004211425781 1422.697143554688 C 1017.536437988281 1423.501220703125 1016.669799804688 1424 1015.742004394531 1424 Z" stroke="none"/>
        <path d="M 982 1417 L 982 1420.02197265625 L 1005.236999511719 1420.02197265625 C 1006.712097167969 1420.02197265625 1008.066345214844 1420.833618164062 1008.860717773438 1422.1953125 C 1009.153869628906 1422.69921875 1009.67626953125 1423 1010.257995605469 1423 L 1015.742004394531 1423 C 1016.32373046875 1423 1016.846130371094 1422.69921875 1017.140502929688 1422.193237304688 C 1017.933654785156 1420.833618164062 1019.287902832031 1420.02197265625 1020.763000488281 1420.02197265625 L 1044 1420.02197265625 L 1044 1417 L 1017.406982421875 1417 C 1017.391235351562 1417 1017.386352539062 1417.012939453125 1017.385986328125 1417.017944335938 C 1017.385986328125 1418.650146484375 1016.057678222656 1419.97802734375 1014.424987792969 1419.97802734375 L 1011.575012207031 1419.97802734375 C 1009.942321777344 1419.97802734375 1008.614013671875 1418.650634765625 1008.614013671875 1417.01904296875 C 1008.614013671875 1417.011108398438 1008.606750488281 1417 1008.593017578125 1417 L 982 1417 M 980 1415 L 1008.593017578125 1415 C 1009.708984375 1415 1010.614013671875 1415.904052734375 1010.614013671875 1417.01904296875 C 1010.614013671875 1417.547973632812 1011.044006347656 1417.97802734375 1011.575012207031 1417.97802734375 L 1014.424987792969 1417.97802734375 C 1014.955993652344 1417.97802734375 1015.385986328125 1417.547973632812 1015.385986328125 1417.017944335938 C 1015.385986328125 1415.904052734375 1016.291015625 1415 1017.406982421875 1415 L 1046 1415 L 1046 1422.02197265625 L 1020.763000488281 1422.02197265625 C 1019.966003417969 1422.02197265625 1019.276977539062 1422.5 1018.867980957031 1423.201049804688 C 1018.242004394531 1424.276977539062 1017.077026367188 1425 1015.742004394531 1425 L 1010.257995605469 1425 C 1008.922973632812 1425 1007.757995605469 1424.276977539062 1007.132019042969 1423.201049804688 C 1006.723022460938 1422.5 1006.033020019531 1422.02197265625 1005.236999511719 1422.02197265625 L 980 1422.02197265625 L 980 1415 Z" stroke="none" fill="#333"/>
      </g>
      <g id="그룹_2928" data-name="그룹 2928">
        <path id="패스_3150" data-name="패스 3150" d="M983,1415v-5h24a6,6,0,0,1,4,1.125l1.5,1.5,1-1.5c1.351-1.052,2.77-1.125,4.5-1.125h19c2,0,2.784-.752,5-2" fill="none" stroke="#333" stroke-linecap="round" stroke-linejoin="round" stroke-width="2"/>
      </g>
    </g>
    <g id="그룹_2930" data-name="그룹 2930" transform="translate(-434.408 -1296.052)">
      <path id="패스_3151" data-name="패스 3151" d="M1588.119,1669.052c0,4.464-2.57,22.538-11.74,24.8a18.885,18.885,0,0,1,1.581,5.168c2.044,1.45,3.237,4.054,3.866,6.258,2.622,1.25,3.638,2.989,3.8,3.777h-22.372c.159-.788,1.176-2.526,3.8-3.777.629-2.2,1.822-4.808,3.868-6.258a19.02,19.02,0,0,1,1.58-5.168c-9.168-2.26-11.738-20.334-11.742-24.8Zm-20.621,21.482c-10.751,0-25.838-20.152-7.477-19.888" transform="translate(0 0)" fill="#fff" stroke="#333" stroke-linecap="round" stroke-linejoin="round" stroke-width="2"/>
      <path id="패스_3152" data-name="패스 3152" d="M1568,1689.776c10.677,0,25.653-20.1,7.423-19.836" transform="translate(13.437 0.703)" fill="none" stroke="#333" stroke-linecap="round" stroke-linejoin="round" stroke-width="2"/>
    </g>
    <path id="패스_3153" data-name="패스 3153" d="M1458.954,1736.452l2.061,4.471,4.938.5-3.717,3.3,1.042,4.737-4.361-2.431-4.291,2.431,1.021-4.8-3.7-3.236,4.992-.534,2.009-4.432Z" transform="translate(-318.953 -1359.452)" fill="#0e935d"/>
  </g>
</svg>
