<svg xmlns="http://www.w3.org/2000/svg" width="47.75" height="35.983" viewBox="0 0 47.75 35.983">
  <g id="그룹_2959" data-name="그룹 2959" transform="translate(-1848.826 -1939.601)">
    <g id="패스_3168" data-name="패스 3168" transform="translate(0)" fill="#fff">
      <path d="M 1893.23291015625 1972.610961914062 L 1892.48291015625 1972.610961914062 L 1852.917846679688 1972.610961914062 L 1852.167846679688 1972.610961914062 L 1852.167846679688 1971.860961914062 L 1852.167846679688 1953.120971679688 L 1852.167846679688 1950.010009765625 C 1852.167846679688 1948.98388671875 1853.104125976562 1948.149047851562 1854.2548828125 1948.149047851562 L 1891.14697265625 1948.149047851562 C 1892.297119140625 1948.149047851562 1893.23291015625 1948.98388671875 1893.23291015625 1950.010009765625 L 1893.23291015625 1953.120971679688 L 1893.23291015625 1971.860961914062 L 1893.23291015625 1972.610961914062 Z" stroke="none"/>
      <path d="M 1854.2548828125 1948.899047851562 C 1853.515991210938 1948.899047851562 1852.917846679688 1949.39697265625 1852.917846679688 1950.010009765625 L 1852.917846679688 1971.860961914062 L 1892.48291015625 1971.860961914062 L 1892.48291015625 1950.010009765625 C 1892.48291015625 1949.39697265625 1891.885009765625 1948.899047851562 1891.14697265625 1948.899047851562 L 1854.2548828125 1948.899047851562 M 1854.2548828125 1947.399047851562 L 1891.14697265625 1947.399047851562 C 1892.710693359375 1947.399047851562 1893.98291015625 1948.5703125 1893.98291015625 1950.010009765625 L 1893.98291015625 1973.360961914062 L 1851.417846679688 1973.360961914062 L 1851.417846679688 1950.010009765625 C 1851.417846679688 1948.5703125 1852.690551757812 1947.399047851562 1854.2548828125 1947.399047851562 Z" stroke="none" fill="#333"/>
    </g>
    <g id="패스_3169" data-name="패스 3169" fill="#fff">
      <path d="M 1893.796875 1974.833984375 L 1851.60498046875 1974.833984375 C 1850.486206054688 1974.833984375 1849.576049804688 1974.020629882812 1849.576049804688 1973.02099609375 L 1849.576049804688 1971.860961914062 L 1849.576049804688 1971.110961914062 L 1850.326049804688 1971.110961914062 L 1895.075927734375 1971.110961914062 L 1895.825927734375 1971.110961914062 L 1895.825927734375 1971.860961914062 L 1895.825927734375 1973.02099609375 C 1895.825927734375 1974.020629882812 1894.915649414062 1974.833984375 1893.796875 1974.833984375 Z" stroke="none"/>
      <path d="M 1850.326049804688 1971.860961914062 L 1850.326049804688 1973.02099609375 C 1850.326049804688 1973.608032226562 1850.898559570312 1974.083984375 1851.60498046875 1974.083984375 L 1893.796875 1974.083984375 C 1894.50341796875 1974.083984375 1895.075927734375 1973.608032226562 1895.075927734375 1973.02099609375 L 1895.075927734375 1971.860961914062 L 1850.326049804688 1971.860961914062 M 1848.826049804688 1970.360961914062 L 1896.575927734375 1970.360961914062 L 1896.575927734375 1973.02099609375 C 1896.575927734375 1974.434204101562 1895.329223632812 1975.583984375 1893.796875 1975.583984375 L 1851.60498046875 1975.583984375 C 1850.072631835938 1975.583984375 1848.826049804688 1974.434204101562 1848.826049804688 1973.02099609375 L 1848.826049804688 1970.360961914062 Z" stroke="none" fill="#333"/>
    </g>
    <path id="패스_3170" data-name="패스 3170" d="M1867.362,1971.861v.579a.556.556,0,0,0,.578.532h5.882a.556.556,0,0,0,.577-.532v-.579Z" transform="translate(1)" fill="#333"/>
    <g id="그룹_2958" data-name="그룹 2958" transform="translate(1)">
      <rect id="사각형_1103" data-name="사각형 1103" width="26.703" height="4.046" transform="translate(1858.432 1940.351)" fill="#0e935d" stroke="#333" stroke-width="1.5"/>
      <rect id="사각형_1104" data-name="사각형 1104" width="26.703" height="26.703" transform="translate(1858.432 1944.397)" fill="#fff" stroke="#333" stroke-width="1.5"/>
      <circle id="타원_172" data-name="타원 172" cx="0.405" cy="0.405" r="0.405" transform="translate(1882.1 1942.034)" fill="#333"/>
      <g id="그룹_2948" data-name="그룹 2948">
        <path id="패스_3171" data-name="패스 3171" d="M1866.726,1942.843h-1.295v-.809h1.295Zm-2.59,0h-1.294v-.809h1.294Zm-2.589,0h-1.3v-.809h1.3Z" fill="#333"/>
      </g>
      <g id="그룹_2949" data-name="그룹 2949">
        <rect id="사각형_1105" data-name="사각형 1105" width="4.45" height="0.809" transform="translate(1877.245 1962.882)" fill="#c7dbf9"/>
      </g>
      <g id="그룹_2950" data-name="그룹 2950">
        <rect id="사각형_1106" data-name="사각형 1106" width="8.901" height="0.809" transform="translate(1865.917 1962.882)" fill="#c7dbf9"/>
      </g>
      <g id="그룹_2951" data-name="그룹 2951">
        <rect id="사각형_1107" data-name="사각형 1107" width="2.832" height="0.809" transform="translate(1861.466 1962.882)" fill="#c7dbf9"/>
      </g>
      <g id="그룹_2952" data-name="그룹 2952">
        <rect id="사각형_1108" data-name="사각형 1108" width="20.229" height="0.809" transform="translate(1861.466 1965.714)" fill="#c7dbf9"/>
      </g>
      <g id="그룹_2953" data-name="그룹 2953">
        <rect id="사각형_1109" data-name="사각형 1109" width="20.229" height="0.809" transform="translate(1861.466 1960.05)" fill="#c7dbf9"/>
      </g>
      <g id="그룹_2954" data-name="그룹 2954">
        <rect id="사각형_1110" data-name="사각형 1110" width="6.473" height="0.809" transform="translate(1864.703 1950.339)" fill="#c7dbf9"/>
      </g>
      <g id="그룹_2955" data-name="그룹 2955">
        <rect id="사각형_1111" data-name="사각형 1111" width="1.618" height="0.809" transform="translate(1861.466 1950.339)" fill="#c7dbf9"/>
      </g>
      <g id="그룹_2956" data-name="그룹 2956">
        <rect id="사각형_1112" data-name="사각형 1112" width="9.71" height="0.809" transform="translate(1861.466 1953.172)" fill="#c7dbf9"/>
      </g>
      <g id="그룹_2957" data-name="그룹 2957">
        <rect id="사각형_1113" data-name="사각형 1113" width="6.878" height="0.809" transform="translate(1861.466 1956.004)" fill="#c7dbf9"/>
      </g>
      <circle id="타원_173" data-name="타원 173" cx="3.443" cy="3.443" r="3.443" transform="translate(1873.802 1947.462)" fill="#0e935d"/>
      <path id="패스_3172" data-name="패스 3172" d="M1876.078,1950.905v-1.228a.2.2,0,0,1,.3-.175l1.064.615,1.064.614a.2.2,0,0,1,0,.348l-1.064.615-1.064.614a.2.2,0,0,1-.3-.174Z" fill="#fff"/>
    </g>
  </g>
</svg>
