<svg xmlns="http://www.w3.org/2000/svg" width="16" height="15" viewBox="0 0 16 15">
  <g id="그룹_3041" data-name="그룹 3041" transform="translate(-865 -148)">
    <path id="Icon_material-live-tv" data-name="Icon material-live-tv" d="M16.045,6h-5.52l2.393-2.467L12.409,3,9.5,6,6.591,3l-.516.533L8.475,6H2.955A1.477,1.477,0,0,0,1.5,7.5v9A1.482,1.482,0,0,0,2.955,18H16.045A1.482,1.482,0,0,0,17.5,16.5v-9A1.477,1.477,0,0,0,16.045,6Zm0,10.5H2.955v-9H16.045Z" transform="translate(863.5 145)" fill="#333"/>
    <path id="Icon_material-live-tv-2" data-name="Icon material-live-tv" d="M7.318,9v6l5-3Z" transform="translate(863.682 145)" fill="#d1555f"/>
  </g>
</svg>
