<svg xmlns="http://www.w3.org/2000/svg" width="28.918" height="28.899" viewBox="0 0 28.918 28.899"><defs><style>.a{fill:#fff;stroke-linecap:round;}.a,.b,.c,.e{stroke:#333;stroke-width:1.5px;}.a,.b,.c{stroke-linejoin:round;}.b,.e{fill:none;}.b,.c{stroke-linecap:square;}.c{fill:#0e935d;}.d{fill:#333;}.e{stroke-miterlimit:10;}</style></defs><g transform="translate(-360.097 -305.71)"><g transform="translate(360.847 306.46)"><ellipse class="a" cx="11.835" cy="11.84" rx="11.835" ry="11.84" transform="translate(1.874 1.562)"/><g transform="translate(21.164)"><line class="b" y1="1.151" x2="1.167" transform="translate(1.435 3.674)"/><path class="c" d="M408.165,307.533a3.664,3.664,0,0,1,5.181,5.181Z" transform="translate(-408.165 -306.46)"/></g><line class="b" x1="1.167" y1="1.151" transform="translate(3.654 3.674)"/><path class="c" d="M367.1,307.533a3.664,3.664,0,0,0-5.181,5.181Z" transform="translate(-360.847 -306.46)"/><line class="b" x2="3.497" y2="4.025" transform="translate(20.759 23.066)"/><line class="b" x1="3.497" y2="4.025" transform="translate(3.163 23.066)"/><circle class="d" cx="1.258" cy="1.258" r="1.258" transform="translate(12.442 13.251)"/><path class="e" d="M383.079,327.62l3.781,2.926,5.174-5.569" transform="translate(-373.201 -315.926)"/></g><line class="e" y2="3" transform="translate(374.556 308.551)"/><line class="e" x2="3" transform="translate(363.556 320.051)"/><line class="e" y1="3" transform="translate(374.556 328.551)"/><line class="e" x1="3" transform="translate(382.556 320.051)"/></g></svg>