<svg xmlns="http://www.w3.org/2000/svg" width="50.765" height="50" viewBox="0 0 50.765 50"><defs><style>.a,.c{fill:#fff;}.b{fill:#0e935d;}.c{stroke-miterlimit:10;}.d{fill:none;stroke:#333;stroke-linejoin:round;stroke-width:2px;}.e,.f{stroke:none;}.f{fill:#333;}</style></defs><g transform="translate(-559.235 -593)"><path class="a" d="M578.2,611h23.4s3.8,0,3.8,4.6v19.2s-3,3.4-7.2,3.4V643H578l.2-20-7.6,2.2-10-12.2v-2l2.6-6,8.6,10.6Z" transform="translate(4)"/><g transform="translate(560 593)"><rect class="b" width="14" height="15" transform="translate(29 30)"/><g class="c" transform="translate(-1259 -1432)"><path class="e" d="M 1292.500854492188 1448 C 1290.498413085938 1447.997436523438 1288.615600585938 1447.21630859375 1287.19970703125 1445.80029296875 C 1285.783569335938 1444.38427734375 1285.002319335938 1442.50146484375 1284.999877929688 1440.498901367188 C 1284.999877929688 1436.364501953125 1288.364379882812 1433 1292.499877929688 1433 C 1296.635375976562 1433 1299.999877929688 1436.364501953125 1299.999877929688 1440.500122070312 C 1299.999877929688 1444.635375976562 1296.635986328125 1447.999633789062 1292.500854492188 1448 Z"/><path class="f" d="M 1292.501831054688 1447 C 1296.085083007812 1446.998901367188 1298.999877929688 1444.08349609375 1298.999877929688 1440.500122070312 C 1298.999877929688 1436.915893554688 1296.083984375 1434 1292.499877929688 1434 C 1288.915771484375 1434 1285.999877929688 1436.915893554688 1285.999877929688 1440.497680664062 C 1286.00439453125 1444.078491210938 1288.921142578125 1446.995239257812 1292.501831054688 1447 M 1292.499877929688 1449 C 1287.807861328125 1448.994262695312 1284.005737304688 1445.192138671875 1283.999877929688 1440.500122070312 C 1283.999877929688 1435.805786132812 1287.805786132812 1432 1292.499877929688 1432 C 1297.194091796875 1432 1300.999877929688 1435.805786132812 1300.999877929688 1440.500122070312 C 1300.999877929688 1445.194213867188 1297.194091796875 1449 1292.499877929688 1449 Z"/></g><path class="d" d="M1283.434,1481v-20.118l-7.645,2.235-8.337-10.429a4.687,4.687,0,0,1-.844-4.183l1.536-5.505" transform="translate(-1261.434 -1431)"/><path class="d" d="M1262,1436l7.2,8.548L1278,1455l6-5,24,.268c2.3,0,3,2.463,3,4.732v17c0,2.269-.7,5-3,5h-16v-16h12v21" transform="translate(-1262 -1432)"/></g></g></svg>