<svg xmlns="http://www.w3.org/2000/svg" width="20" height="19" viewBox="0 0 20 19"><defs><style>.a{fill:#666;}</style></defs><g transform="translate(625.81 -862)"><path class="a" d="M-609.006,876h-9.86a.73.73,0,0,1-.707-.539l-3.209-12.013h-2.3a.728.728,0,0,1-.732-.724.728.728,0,0,1,.732-.724h2.86a.731.731,0,0,1,.707.539l.782,2.926a.76.76,0,0,1,.187-.023h14a.734.734,0,0,1,.58.282.723.723,0,0,1,.127.629l-2.465,9.11A.732.732,0,0,1-609.006,876Zm-9.3-1.448h8.734l2.074-7.662h-12.855Z"/><circle class="a" cx="1.5" cy="1.5" r="1.5" transform="translate(-619.929 878)"/><circle class="a" cx="1.5" cy="1.5" r="1.5" transform="translate(-611.929 878)"/></g></svg>