<svg xmlns="http://www.w3.org/2000/svg" width="20.001" height="14.546" viewBox="0 0 20.001 14.546"><defs><style>.a{fill:#666;}.b,.c{fill:none;stroke-linejoin:round;}.b{stroke-linecap:round;}.c{stroke:#666;stroke-width:1.5px;}.d,.e{stroke:none;}.e{fill:#666;}</style></defs><g transform="translate(-1223 -380)"><ellipse class="a" cx="1.303" cy="1.303" rx="1.303" ry="1.303" transform="translate(1237.394 388.697)"/><g transform="translate(1221.5 374)"><g class="b"><path class="d" d="M3.318,6H19.683A1.818,1.818,0,0,1,21.5,7.818v10.91a1.818,1.818,0,0,1-1.818,1.818H3.318A1.818,1.818,0,0,1,1.5,18.728V7.818A1.818,1.818,0,0,1,3.318,6Z"/><path class="e" d="M 3.318267822265625 7.500001907348633 C 3.142778396606445 7.500001907348633 2.999998092651367 7.642782211303711 2.999998092651367 7.818271636962891 L 2.999998092651367 18.72789192199707 C 2.999998092651367 18.90338134765625 3.142778396606445 19.04616165161133 3.318267822265625 19.04616165161133 L 19.68270874023438 19.04616165161133 C 19.85819816589355 19.04616165161133 20.00097846984863 18.90338134765625 20.00097846984863 18.72789192199707 L 20.00097846984863 7.818271636962891 C 20.00097846984863 7.642782211303711 19.85819816589355 7.500001907348633 19.68270874023438 7.500001907348633 L 3.318267822265625 7.500001907348633 M 3.318267822265625 6.000001907348633 L 19.68270874023438 6.000001907348633 C 20.68690872192383 6.000001907348633 21.50097846984863 6.814071655273438 21.50097846984863 7.818271636962891 L 21.50097846984863 18.72789192199707 C 21.50097846984863 19.73210144042969 20.68690872192383 20.54616165161133 19.68270874023438 20.54616165161133 L 3.318267822265625 20.54616165161133 C 2.314067840576172 20.54616165161133 1.499998092651367 19.73210144042969 1.499998092651367 18.72789192199707 L 1.499998092651367 7.818271636962891 C 1.499998092651367 6.814062118530273 2.314067840576172 6.000001907348633 3.318267822265625 6.000001907348633 Z"/></g><path class="c" d="M1.5,15h18" transform="translate(1 -4)"/></g><path class="c" d="M1.5,15h6" transform="translate(1225.5 375)"/></g></svg>