<svg xmlns="http://www.w3.org/2000/svg" width="15" height="20" viewBox="0 0 15 20"><defs><style>.a{fill:#ddd;}</style></defs><path class="a" d="M13.5,16.738a1.9,1.9,0,1,0-1.875-1.9A1.9,1.9,0,0,0,13.5,16.738Zm5.625-8.571h-.937v-1.9a4.688,4.688,0,1,0-9.375,0v1.9H7.875A1.9,1.9,0,0,0,6,10.071V19.6a1.9,1.9,0,0,0,1.875,1.9h11.25A1.9,1.9,0,0,0,21,19.6V10.071A1.9,1.9,0,0,0,19.125,8.167Zm-8.531-1.9a2.907,2.907,0,1,1,5.812,0v1.9H10.594ZM19.125,19.6H7.875V10.071h11.25Z" transform="translate(-6 -1.5)"/></svg>