<?xml version="1.0" encoding="utf-8"?>
<!-- Generator: Adobe Illustrator 24.2.3, SVG Export Plug-In . SVG Version: 6.00 Build 0)  -->
<svg version="1.1" id="Layer_1" xmlns="http://www.w3.org/2000/svg" xmlns:xlink="http://www.w3.org/1999/xlink" x="0px" y="0px"
	 viewBox="0 0 15 20" style="enable-background:new 0 0 15 20;" xml:space="preserve">
<style type="text/css">
	.st0{fill:#D1555F;}
</style>
<path class="st0" d="M7.5,15.2c1,0,1.9-0.8,1.9-1.9s-0.8-1.9-1.9-1.9s-1.9,0.8-1.9,1.9l0,0C5.6,14.4,6.5,15.2,7.5,15.2z M13.1,6.7
	h-0.9V4.8c0-2.6-2-4.7-4.6-4.8C5,0,2.9,2,2.8,4.6v0.1v1.9H1.9C0.8,6.7,0,7.5,0,8.6v9.5c0,1,0.8,1.9,1.9,1.9h11.3
	c1,0,1.9-0.9,1.9-1.9V8.6C15,7.5,14.2,6.7,13.1,6.7z M4.6,4.8c0-1.6,1.2-2.9,2.8-3s2.9,1.2,3,2.8c0,0.1,0,0.1,0,0.2v1.9H4.6V4.8z
	 M13.1,18.1H1.9V8.6h11.3L13.1,18.1L13.1,18.1z"/>
</svg>
