<svg xmlns="http://www.w3.org/2000/svg" width="16.276" height="15.069" viewBox="0 0 16.276 15.069"><defs><style>.a,.b{fill:#666;}.b{stroke:#707070;}.c,.f{fill:none;}.c{stroke-linecap:round;stroke-linejoin:round;}.d,.e,.g{stroke:none;}.e{fill:#707070;}.g{fill:#666;}</style></defs><g transform="translate(-652.82 -380.254)"><g class="a" transform="translate(-15.053 -19.84)"><path class="d" d="M674.373,407.738a.564.564,0,1,1-.564-.564A.564.564,0,0,1,674.373,407.738Z"/><path class="e" d="M 673.8091430664062 408.3020324707031 C 673.4974975585938 408.3020324707031 673.2449951171875 408.049560546875 673.2449951171875 407.7381591796875 C 673.2449951171875 407.426513671875 673.4974975585938 407.1740112304688 673.8091430664062 407.1740112304688 C 674.1205444335938 407.1740112304688 674.373046875 407.426513671875 674.373046875 407.7381591796875 C 674.373046875 408.049560546875 674.1205444335938 408.3020324707031 673.8091430664062 408.3020324707031 Z"/></g><g class="a" transform="translate(-23.146 -19.84)"><path class="d" d="M685.354,407.738a.564.564,0,1,1-.564-.564A.564.564,0,0,1,685.354,407.738Z"/><path class="e" d="M 684.7899169921875 408.3020324707031 C 684.478515625 408.3020324707031 684.2260131835938 408.049560546875 684.2260131835938 407.7381591796875 C 684.2260131835938 407.426513671875 684.478515625 407.1740112304688 684.7899169921875 407.1740112304688 C 685.1015625 407.1740112304688 685.3540649414062 407.426513671875 685.3540649414062 407.7381591796875 C 685.3540649414062 408.049560546875 685.1015625 408.3020324707031 684.7899169921875 408.3020324707031 Z"/></g><g class="b" transform="translate(663.968 387.334)"><circle class="d" cx="0.564" cy="0.564" r="0.564"/><circle class="f" cx="0.564" cy="0.564" r="0.064"/></g><g class="c"><path class="d" d="M661.561,380.254a7.531,7.531,0,0,0-6.658,11.057l-2.083,3.46,4.383-.839-.006-.008a7.532,7.532,0,1,0,4.363-13.67Z"/><path class="g" d="M 661.5611572265625 381.2539978027344 C 657.9580078125 381.2539978027344 655.0266723632812 384.1853637695312 655.0266723632812 387.7885131835938 C 655.0266723632812 388.8641357421875 655.2822875976562 389.8917541503906 655.7864990234375 390.8428039550781 C 655.9508666992188 391.1528625488281 655.940673828125 391.5263671875 655.7596435546875 391.8269958496094 L 654.8321533203125 393.3674621582031 L 656.8809204101562 392.975341796875 C 657.1761474609375 392.8768310546875 657.5103149414062 392.9186401367188 657.7781982421875 393.1094055175781 C 658.8926391601562 393.9033813476562 660.2007446289062 394.3230285644531 661.5611572265625 394.3230285644531 C 665.1644287109375 394.3230285644531 668.095947265625 391.3916625976562 668.095947265625 387.7885131835938 C 668.095947265625 384.1853637695312 665.1644287109375 381.2539978027344 661.5611572265625 381.2539978027344 M 661.5611572265625 380.2539978027344 C 665.722412109375 380.2539978027344 669.095947265625 383.6272888183594 669.095947265625 387.7885131835938 C 669.095947265625 391.9497680664062 665.722412109375 395.3230285644531 661.5611572265625 395.3230285644531 C 659.9331665039062 395.3230285644531 658.4298706054688 394.801513671875 657.1979370117188 393.9238586425781 L 657.2034912109375 393.9317626953125 L 652.8200073242188 394.7707214355469 L 654.9029541015625 391.3111877441406 C 654.3453979492188 390.2594299316406 654.0266723632812 389.0617065429688 654.0266723632812 387.7885131835938 C 654.0266723632812 383.6272888183594 657.39990234375 380.2539978027344 661.5611572265625 380.2539978027344 Z"/></g></g></svg>