<svg xmlns="http://www.w3.org/2000/svg" width="18.107" height="17.607" viewBox="0 0 18.107 17.607">
  <g id="search_icon" data-name="search icon" transform="translate(-1186.405 -272.905)">
    <g id="Ellipse_532_copy" data-name="Ellipse 532 copy" fill="none">
      <path d="M1188.535,275.034a7.273,7.273,0,1,1,0,10.285A7.273,7.273,0,0,1,1188.535,275.034Z" stroke="none"/>
      <path d="M 1193.677124023438 274.904541015625 C 1192.268676757812 274.904541015625 1190.944580078125 275.4528503417969 1189.948974609375 276.4483642578125 C 1188.953002929688 277.4443664550781 1188.404541015625 278.7685241699219 1188.404541015625 280.1769409179688 C 1188.404541015625 281.5853271484375 1188.953002929688 282.9093322753906 1189.948974609375 283.9051208496094 C 1190.944702148438 284.9009399414062 1192.268798828125 285.4493713378906 1193.677124023438 285.4493713378906 C 1195.08544921875 285.4493713378906 1196.409423828125 284.9009399414062 1197.4052734375 283.9050598144531 C 1199.461059570312 281.8494873046875 1199.461059570312 278.5043640136719 1197.4052734375 276.4485168457031 C 1196.409545898438 275.4528503417969 1195.085571289062 274.904541015625 1193.677124023438 274.904541015625 M 1193.677124023438 272.904541015625 C 1195.538330078125 272.904541015625 1197.399536132812 273.6144104003906 1198.819458007812 275.0342102050781 C 1201.659545898438 277.8745727539062 1201.659545898438 282.4794616699219 1198.819458007812 285.3193054199219 C 1195.979614257812 288.1593933105469 1191.374755859375 288.1593933105469 1188.53466796875 285.3193054199219 C 1185.694458007812 282.4794616699219 1185.694458007812 277.8745727539062 1188.53466796875 275.0342102050781 C 1189.954711914062 273.6144104003906 1191.81591796875 272.904541015625 1193.677124023438 272.904541015625 Z" stroke="none" fill="#666"/>
    </g>
    <path id="Rectangle_839" data-name="Rectangle 839" d="M1198.439,284.439a.891.891,0,0,1,1.261,0l4.551,4.551a.892.892,0,1,1-1.261,1.261l-4.551-4.551A.891.891,0,0,1,1198.439,284.439Z" fill="#666"/>
  </g>
</svg>
