<svg xmlns="http://www.w3.org/2000/svg" width="23" height="20" viewBox="0 0 23 20"><defs><style>.a,.b{fill:none;stroke-linejoin:round;}.a{stroke-linecap:round;}.b{stroke:#ddd;stroke-width:2px;}.c,.d{stroke:none;}.d{fill:#ddd;}</style></defs><g transform="translate(655.644 -615.079)"><g class="a"><path class="c" d="M-633.866,633.334-644,635.079l-10.432-1.738a1.49,1.49,0,0,1-1.212-1.473v-15.28a1.477,1.477,0,0,1,1.726-1.473l9.918,1.891,9.642-1.907a1.476,1.476,0,0,1,1.714,1.474V631.86A1.487,1.487,0,0,1-633.866,633.334Z"/><path class="d" d="M -644.005615234375 633.0509643554688 L -634.6439819335938 631.4381103515625 L -634.6439819335938 617.1964111328125 L -643.612060546875 618.9697265625 C -643.8637084960938 619.0195922851562 -644.1226806640625 619.0203857421875 -644.3746948242188 618.9722900390625 L -653.6439819335938 617.2045288085938 L -653.6439819335938 631.4452514648438 L -644.005615234375 633.0509643554688 M -644 635.0794677734375 L -654.4320068359375 633.341552734375 C -655.1329956054688 633.214111328125 -655.6439819335938 632.5935668945312 -655.6439819335938 631.8687133789062 L -655.6439819335938 616.5889892578125 C -655.6439819335938 615.6582641601562 -654.8180541992188 614.9535522460938 -653.9180297851562 615.1162109375 L -644 617.0076904296875 L -634.3579711914062 615.1011352539062 C -633.4623413085938 614.945556640625 -632.6439819335938 615.6492309570312 -632.6439819335938 616.574951171875 L -632.6439819335938 631.8597412109375 C -632.6439819335938 632.5885620117188 -633.1599731445312 633.2110595703125 -633.8660278320312 633.3335571289062 L -644 635.0794677734375 Z"/></g><line class="b" y2="15.079" transform="translate(-644 618)"/></g></svg>