<svg xmlns="http://www.w3.org/2000/svg" width="22" height="21" viewBox="0 0 22 21"><defs><style>.a,.b,.c{fill:none;stroke-linejoin:round;}.a,.c{stroke:#ddd;stroke-width:2px;}.b,.c{stroke-linecap:round;}.d,.e{stroke:none;}.e{fill:#ddd;}</style></defs><g transform="translate(684 -613)"><path class="a" d="M-678,626V615.989A1.86,1.86,0,0,1-676.3,614h9.6a1.86,1.86,0,0,1,1.7,1.989V626"/><g class="b"><path class="d" d="M-664.356,625h-17.288a2.383,2.383,0,0,0-2.323,2.791l.664,4.055A2.546,2.546,0,0,0-680.8,634h15.61a2.546,2.546,0,0,0,2.5-2.154l.664-4.055A2.383,2.383,0,0,0-664.356,625Z"/><path class="e" d="M -681.6439819335938 627 C -681.7451171875 627 -681.831787109375 627.041748046875 -681.9016723632812 627.1240234375 C -681.947998046875 627.1785888671875 -682.0215454101562 627.295654296875 -681.9932861328125 627.4678344726562 L -681.3291015625 631.5236206054688 C -681.2840576171875 631.7996826171875 -681.0635986328125 632 -680.8049926757812 632 L -665.1950073242188 632 C -664.9364013671875 632 -664.7159423828125 631.7996826171875 -664.6707153320312 631.5228271484375 L -664.006591796875 627.4668579101562 C -663.9784545898438 627.295654296875 -664.052001953125 627.1785888671875 -664.0983276367188 627.1240234375 C -664.168212890625 627.041748046875 -664.2548828125 627 -664.3560180664062 627 L -681.6439819335938 627 M -681.6439819335938 625 L -664.3560180664062 625 C -662.9000244140625 625 -661.7930297851562 626.3300170898438 -662.0330200195312 627.791015625 L -662.697021484375 631.8460083007812 C -662.9000244140625 633.0889892578125 -663.9569702148438 634 -665.1950073242188 634 L -680.8049926757812 634 C -682.0430297851562 634 -683.0999755859375 633.0889892578125 -683.302978515625 631.8460083007812 L -683.9669799804688 627.791015625 C -684.2069702148438 626.3300170898438 -683.0999755859375 625 -681.6439819335938 625 Z"/></g><line class="c" x2="5" transform="translate(-674 618)"/><line class="c" x2="5" transform="translate(-674 621)"/><path class="a" d="M-681,625v-6.327A1.861,1.861,0,0,1-679,617h1"/></g></svg>