<?xml version="1.0" encoding="utf-8"?>
<!-- Generator: Adobe Illustrator 24.2.3, SVG Export Plug-In . SVG Version: 6.00 Build 0)  -->
<svg version="1.1" id="Layer_1" xmlns="http://www.w3.org/2000/svg" xmlns:xlink="http://www.w3.org/1999/xlink" x="0px" y="0px"
	 viewBox="0 0 22 22" style="enable-background:new 0 0 22 22;" xml:space="preserve">
<style type="text/css">
	.st0{fill:none;stroke:#DDDDDD;stroke-width:2;stroke-linecap:round;stroke-linejoin:round;}
	.st1{fill:none;}
	.st2{fill:#DDDDDD;}
</style>
<g transform="translate(599 -614)">
	<path class="st0" d="M-579,626.3v6.5c0,1.2-1,2.2-2.2,2.2l0,0h-14.6c-1.2,0-2.2-1-2.2-2.2l0,0v-14.6c0-1.2,1-2.2,2.2-2.2l0,0h6.6"
		/>
	<g>
		<path class="st1" d="M-581.6,614.3l4.3,4.3c0.4,0.4,0.4,1.1,0,1.5l-10.2,10.2c-0.4,0.4-1,0.7-1.6,0.7h-4.9v-4.9
			c0-0.6,0.2-1.2,0.7-1.6l10.2-10.2C-582.7,613.9-582,613.9-581.6,614.3z"/>
		<path class="st2" d="M-582.4,616.4l-9.5,9.5c-0.1,0.1-0.1,0.1-0.1,0.2v2.9h2.9c0.1,0,0.2,0,0.2-0.1l9.5-9.5L-582.4,616.4
			 M-582.4,614c0.3,0,0.6,0.1,0.8,0.3l4.3,4.3c0.4,0.4,0.4,1.1,0,1.5l-10.2,10.2c-0.4,0.4-1,0.7-1.6,0.7h-4.9v-4.9
			c0-0.6,0.2-1.2,0.7-1.6l10.2-10.2C-582.9,614.1-582.6,614-582.4,614z"/>
	</g>
</g>
</svg>
