<?xml version="1.0" encoding="utf-8"?>
<!-- Generator: Adobe Illustrator 24.2.3, SVG Export Plug-In . SVG Version: 6.00 Build 0)  -->
<svg version="1.1" id="Layer_1" xmlns="http://www.w3.org/2000/svg" xmlns:xlink="http://www.w3.org/1999/xlink" x="0px" y="0px"
	 viewBox="0 0 22 21" style="enable-background:new 0 0 22 21;" xml:space="preserve">
<style type="text/css">
	.st0{fill:none;stroke:#333333;stroke-width:2;stroke-linejoin:round;}
	.st1{fill:none;}
	.st2{fill:#333333;}
	.st3{fill:none;stroke:#333333;stroke-width:2;stroke-linecap:round;stroke-linejoin:round;}
</style>
<g transform="translate(684 -613)">
	<path class="st0" d="M-678,626v-10c-0.1-1,0.7-1.9,1.7-2h9.6c1,0.1,1.8,1,1.7,2v10"/>
	<g>
		<path class="st1" d="M-664.4,625h-17.3c-1.3,0-2.4,1.1-2.4,2.4c0,0.1,0,0.3,0,0.4l0.7,4.1c0.2,1.2,1.3,2.1,2.5,2.2h15.6
			c1.2,0,2.3-0.9,2.5-2.2l0.7-4.1c0.2-1.3-0.6-2.5-1.9-2.8C-664.1,625-664.2,625-664.4,625z"/>
		<path class="st2" d="M-681.6,627c-0.1,0-0.2,0-0.3,0.1c0,0.1-0.1,0.2-0.1,0.3l0.7,4.1c0,0.3,0.3,0.5,0.5,0.5h15.6
			c0.3,0,0.5-0.2,0.5-0.5l0.7-4.1c0-0.2,0-0.3-0.1-0.3c-0.1-0.1-0.2-0.1-0.3-0.1H-681.6 M-681.6,625h17.3c1.5,0,2.6,1.3,2.3,2.8
			l-0.7,4.1c-0.2,1.2-1.3,2.2-2.5,2.2h-15.6c-1.2,0-2.3-0.9-2.5-2.2l-0.7-4.1C-684.2,626.3-683.1,625-681.6,625z"/>
	</g>
	<line class="st3" x1="-674" y1="618" x2="-669" y2="618"/>
	<line class="st3" x1="-674" y1="621" x2="-669" y2="621"/>
	<path class="st0" d="M-681,625v-6.3c0.1-1,1-1.8,2-1.7h1"/>
</g>
</svg>
