<?xml version="1.0" encoding="utf-8"?>
<!-- Generator: Adobe Illustrator 24.2.3, SVG Export Plug-In . SVG Version: 6.00 Build 0)  -->
<svg version="1.1" id="Layer_1" xmlns="http://www.w3.org/2000/svg" xmlns:xlink="http://www.w3.org/1999/xlink" x="0px" y="0px"
	 viewBox="0 0 23 20" style="enable-background:new 0 0 23 20;" xml:space="preserve">
<style type="text/css">
	.st0{fill:none;}
	.st1{fill:#333333;}
	.st2{fill:none;stroke:#333333;stroke-width:2;stroke-linejoin:round;}
</style>
<g transform="translate(655.644 -615.079)">
	<g>
		<path class="st0" d="M-633.9,633.3l-10.1,1.7l-10.4-1.7c-0.7-0.1-1.2-0.8-1.2-1.5v-15.3c0-0.8,0.6-1.5,1.5-1.5c0.1,0,0.2,0,0.3,0
			l9.9,1.9l9.6-1.9c0.8-0.1,1.6,0.4,1.7,1.2c0,0.1,0,0.2,0,0.3v15.3C-632.6,632.6-633.2,633.2-633.9,633.3z"/>
		<path class="st1" d="M-644,633.1l9.4-1.6v-14.2l-9,1.8c-0.3,0-0.5,0.1-0.8,0l-9.3-1.8v14.2L-644,633.1 M-644,635.1l-10.4-1.7
			c-0.7-0.1-1.2-0.7-1.2-1.5v-15.3c0-0.9,0.8-1.6,1.7-1.5l9.9,1.9l9.6-1.9c0.9-0.2,1.7,0.5,1.7,1.5v15.3c0,0.7-0.5,1.4-1.2,1.5
			L-644,635.1z"/>
	</g>
	<line class="st2" x1="-644" y1="618" x2="-644" y2="633.1"/>
</g>
</svg>
