<svg xmlns="http://www.w3.org/2000/svg" width="22" height="25" viewBox="0 0 22 25"><defs><style>.a,.b{fill:none;}.b{stroke:#fff;stroke-width:2px;}.c,.d{stroke:none;}.d{fill:#fff;}</style></defs><g transform="translate(-272 -207)"><g class="a" transform="translate(272 208)"><path class="c" d="M1.078,5H20.922L22,23.375a.636.636,0,0,1-.647.625H.647A.636.636,0,0,1,0,23.375Z"/><path class="d" d="M 2.964488983154297 7 L 2.084146499633789 22 L 19.91585350036621 22 L 19.0355110168457 7 L 2.964488983154297 7 M 1.07843017578125 5 L 20.92156982421875 5 L 22 23.37520027160645 C 22 23.72027015686035 21.71030044555664 24 21.35293960571289 24 L 0.6470603942871094 24 C 0.2896995544433594 24 0 23.72027015686035 0 23.37520027160645 L 1.07843017578125 5 Z"/></g><path class="b" d="M-576.667,11793.334s.852-6,6.074-6,5.926,6,5.926,6" transform="translate(853.667 -11579.334)"/></g></svg>