<svg xmlns="http://www.w3.org/2000/svg" width="36" height="43.108" viewBox="0 0 36 43.108">
  <g id="그룹_3" data-name="그룹 3" transform="translate(-66.177 -180.25)">
    <g id="그룹_772" data-name="그룹 772">
      <path id="패스_1203" data-name="패스 1203" d="M92.027,188.755c.1-.009.2-.025.3-.025A2.483,2.483,0,0,1,95,190.959v3.865a2.483,2.483,0,0,1-2.676,2.23c-.1,0-.3-.025-.3-.025" fill="none" stroke="#fff" stroke-linecap="round" stroke-width="1.5"/>
      <path id="패스_1204" data-name="패스 1204" d="M75.973,188.755c-.1-.009-.2-.025-.3-.025A2.483,2.483,0,0,0,73,190.959v3.865a2.483,2.483,0,0,0,2.676,2.23c.1,0,.2-.016.3-.025l.457-.065" fill="none" stroke="#fff" stroke-linecap="round" stroke-width="1.5"/>
      <path id="패스_1205" data-name="패스 1205" d="M87.865,201.513A1.486,1.486,0,0,1,86.379,203H82.216a1.486,1.486,0,0,1-1.487-1.486h0a1.486,1.486,0,0,1,1.487-1.487h4.162a1.486,1.486,0,0,1,1.486,1.487Z" fill="none" stroke="#fff" stroke-linecap="round" stroke-width="1.5"/>
      <path id="패스_1206" data-name="패스 1206" d="M81.076,200.562a5.947,5.947,0,0,1-5.1-5.886v-7.73A5.946,5.946,0,0,1,81.919,181h4.162a5.946,5.946,0,0,1,5.946,5.946v10.108" fill="none" stroke="#fff" stroke-linecap="round" stroke-width="1.5"/>
    </g>
    <text id="상담센터" transform="translate(66.177 220.358)" fill="#fff" font-size="10" font-family="NotoSansCJKkr-Regular, Noto Sans CJK KR" letter-spacing="-0.03em"><tspan x="0" y="0">상담센터</tspan></text>
  </g>
</svg>
