<svg xmlns="http://www.w3.org/2000/svg" width="33.764" height="20.25" viewBox="0 0 33.764 20.25"><defs><style>.a{fill:#fff;}</style></defs><path class="a" d="M31.5,25.84V9.077a1.217,1.217,0,0,0-1.209-1.2H5.709A1.212,1.212,0,0,0,4.5,9.077V25.84H1.118a2.042,2.042,0,0,0,1.329,1.6,9.329,9.329,0,0,0,3.459.689H30.094a9.313,9.313,0,0,0,3.4-.619,2.121,2.121,0,0,0,1.392-1.666H31.5ZM18,8.438a.281.281,0,1,1-.281.281A.282.282,0,0,1,18,8.438ZM6.766,9.577H29.234a.141.141,0,0,1,.141.141V24.574a.141.141,0,0,1-.141.141H6.766a.141.141,0,0,1-.141-.141V9.717A.137.137,0,0,1,6.766,9.577ZM20.974,26.4H15.026a.838.838,0,0,1-.682-.527h7.313A.7.7,0,0,1,20.974,26.4Z" transform="translate(-1.118 -7.875)"/></svg>