<svg xmlns="http://www.w3.org/2000/svg" width="24" height="24" viewBox="0 0 24 24"><defs><style>.a{fill:none;stroke:#fff;stroke-linecap:round;stroke-linejoin:round;stroke-width:2px;}</style></defs><g transform="translate(-147.179 -531.369)"><path class="a" d="M201.4,554.018c.1-.009.2-.025.3-.025a2.483,2.483,0,0,1,2.676,2.23v3.865a2.483,2.483,0,0,1-2.676,2.23c-.1,0-.3-.025-.3-.025" transform="translate(-34.199 -13.894)"/><path class="a" d="M151.152,554.018c-.1-.009-.2-.025-.3-.025a2.483,2.483,0,0,0-2.676,2.23v3.865a2.483,2.483,0,0,0,2.676,2.23c.1,0,.2-.016.3-.025l.457-.065" transform="translate(0 -13.894)"/><path class="a" d="M176.937,587.082a1.486,1.486,0,0,1-1.486,1.486h-4.162a1.486,1.486,0,0,1-1.487-1.486h0a1.487,1.487,0,0,1,1.487-1.487h4.162a1.486,1.486,0,0,1,1.486,1.487Z" transform="translate(-13.893 -34.199)"/><path class="a" d="M161.6,551.931a5.947,5.947,0,0,1-5.1-5.887v-7.73a5.946,5.946,0,0,1,5.946-5.946H166.6a5.946,5.946,0,0,1,5.946,5.946v10.108" transform="translate(-5.344)"/></g></svg>