<svg xmlns="http://www.w3.org/2000/svg" width="22" height="21.999" viewBox="0 0 22 21.999"><defs><style>.a{fill:#fff;}</style></defs><g transform="translate(771.394 -782.624)"><g transform="translate(-765.82 782.624)"><path class="a" d="M-755.241,784.734l2.978,2.978-9.581,9.578h-2.976v-2.978l9.579-9.578m0-2.11a.913.913,0,0,0-.647.267l-10.424,10.422a.92.92,0,0,0-.267.648v4.171a.916.916,0,0,0,.916.917h4.171a.915.915,0,0,0,.647-.269l10.424-10.422a.916.916,0,0,0,0-1.3l-4.171-4.172a.916.916,0,0,0-.648-.267Z" transform="translate(766.58 -782.624)"/></g><g transform="translate(-771.394 784.091)"><path class="a" d="M-754.181,804.423h-13.892a3.325,3.325,0,0,1-3.321-3.321V787.211a3.324,3.324,0,0,1,3.321-3.32h5.773a.88.88,0,0,1,.88.88.881.881,0,0,1-.88.88h-5.773a1.562,1.562,0,0,0-1.561,1.56V801.1a1.563,1.563,0,0,0,1.561,1.561h13.892a1.563,1.563,0,0,0,1.561-1.561v-5.772a.88.88,0,0,1,.88-.88.88.88,0,0,1,.88.88V801.1A3.325,3.325,0,0,1-754.181,804.423Z" transform="translate(771.394 -783.891)"/></g></g></svg>