<svg xmlns="http://www.w3.org/2000/svg" width="22" height="26" viewBox="0 0 22 26">
  <path id="패스_1221" data-name="패스 1221" d="M84.2,54h-.46a.553.553,0,0,0-.306-.162c-.039-.011-.08-.023-.119-.037q-2.451-.915-4.9-1.826l-.029-.011-2.754-1.025a.784.784,0,0,1-.587-.847v-.44c0-.723,0-1.468,0-2.2a.22.22,0,0,0-.188-.26,2.525,2.525,0,0,1-.005-4.871c.151-.043.2-.1.194-.256-.009-.82-.006-1.654,0-2.461a.752.752,0,0,1,.747-.832,1.061,1.061,0,0,1,.361.068c.393.143.81.3,1.24.463a.317.317,0,0,0,.111.024.211.211,0,0,0,.141-.06,9.066,9.066,0,0,1,3.286-2.105l.007,0a5.048,5.048,0,0,1-2.04-4.426,4.834,4.834,0,0,1,1.637-3.387A5.108,5.108,0,0,1,89.1,33.451a5,5,0,0,1-2.029,3.717,8.877,8.877,0,0,1,3.221,2.041.3.3,0,0,0,.217.108.426.426,0,0,0,.16-.038c.393-.159.788-.3,1.192-.447a1.01,1.01,0,0,1,.339-.062.76.76,0,0,1,.753.826c0,.8.005,1.626,0,2.437,0,.164.028.241.211.293a2.526,2.526,0,0,1,.009,4.859c-.174.049-.224.113-.221.285.008.682.007,1.375.006,2.046q0,.284,0,.568a.777.777,0,0,1-.581.85L88,52.561l-.079.029-3.666,1.361a.093.093,0,0,0-.033.031L84.2,54ZM76.581,40.624c0,.143,0,.283,0,.422v.006c0,.362,0,.7,0,1.05,0,.117.045.145.152.184a1.261,1.261,0,0,1,.873,1.239c0,.93,0,1.744,0,2.488a1.239,1.239,0,0,1-.851,1.2.215.215,0,0,0-.175.247c.009.711.009,1.367,0,2.005a.239.239,0,0,0,.187.268c1.012.372,2.04.755,3.034,1.125l1,.372.014.005,2.407.895c0-.02,0-.036.006-.051a.5.5,0,0,0,.006-.064V49.827c0-2.149,0-4.371.005-6.568,0-.158-.081-.188-.194-.231l-.007,0q-1.79-.663-3.578-1.33l-.011,0-1.064-.4-.769-.287L77.576,41l-.009,0Zm14.837,0-.127.048-1.517.564-.06.022c-1.548.576-3.149,1.172-4.727,1.754a.283.283,0,0,0-.223.319c.005,2.333,0,4.7,0,7V52.1l.026.008.017,0,1.853-.687q2.321-.861,4.641-1.72c.1-.036.116-.092.116-.189,0-.72,0-1.438,0-2.108a.155.155,0,0,0-.123-.178,1.251,1.251,0,0,1-.9-1.3q0-1.181,0-2.361a1.262,1.262,0,0,1,.9-1.3l.03-.01c.053-.017.1-.032.1-.111,0-.4,0-.795,0-1.212Zm.59,3.112a.082.082,0,0,0-.062.02.12.12,0,0,0-.016.089c0,.011,0,.022,0,.032,0,.191,0,.383,0,.574q0,.144,0,.288v.507c0,.448,0,.529.308.529.065,0,.142,0,.239-.008a1.033,1.033,0,0,0,.982-.9,1.02,1.02,0,0,0-.754-1.093,1.243,1.243,0,0,0-.34-.039l-.122,0h-.123l-.1,0h-.012ZM75.685,45.769c.071,0,.144,0,.216.005l.037,0a.136.136,0,0,0,.1-.032.179.179,0,0,0,.032-.134c-.008-.2-.006-.4,0-.6,0-.082,0-.161,0-.239V44.29c0-.464,0-.574-.262-.574-.088,0-.2.013-.36.03a1.034,1.034,0,0,0-.909.919,1.02,1.02,0,0,0,.728,1.064,1.211,1.211,0,0,0,.358.041ZM84,38.161h0a7.18,7.18,0,0,0-4.829,1.8l1,.372c1.2.447,2.435.909,3.672,1.373a.422.422,0,0,0,.152.029.524.524,0,0,0,.187-.039l2.268-.848.617-.23.534-.2.007,0,1.223-.454a7.181,7.181,0,0,0-4.83-1.8Zm0-8.64a3.571,3.571,0,0,0-3.584,3.532,3.575,3.575,0,0,0,3.57,3.577H84A3.573,3.573,0,0,0,87.581,33.1a3.574,3.574,0,0,0-3.571-3.578Z" transform="translate(-73 -27.999)" fill="#fff"/>
</svg>
