<svg xmlns="http://www.w3.org/2000/svg" width="24" height="22" viewBox="0 0 24 22"><defs><style>.a,.b{fill:none;stroke-miterlimit:10;}.b{stroke:#fff;stroke-width:2px;}.c,.d{stroke:none;}.d{fill:#fff;}</style></defs><g transform="translate(-385 -14)"><g class="a" transform="translate(1154 -732)"><path class="c" d="M-757,757a5.507,5.507,0,0,1-5.5-5.5A5.507,5.507,0,0,1-757,746a5.507,5.507,0,0,1,5.5,5.5A5.507,5.507,0,0,1-757,757Z"/><path class="d" d="M -757 755 C -755.070068359375 755 -753.5 753.429931640625 -753.5 751.5 C -753.5 749.570068359375 -755.070068359375 748 -757 748 C -758.929931640625 748 -760.5 749.570068359375 -760.5 751.5 C -760.5 753.429931640625 -758.929931640625 755 -757 755 M -757 757 C -760.0323486328125 757 -762.5 754.5323486328125 -762.5 751.5 C -762.5 748.4676513671875 -760.0323486328125 746 -757 746 C -753.9676513671875 746 -751.5 748.4676513671875 -751.5 751.5 C -751.5 754.5323486328125 -753.9676513671875 757 -757 757 Z"/></g><path class="b" d="M-767,766a11.012,11.012,0,0,1,11-11,11.012,11.012,0,0,1,11,11" transform="translate(1153 -730)"/></g></svg>