<svg xmlns="http://www.w3.org/2000/svg" width="28" height="23" viewBox="0 0 28 23"><defs><style>.a,.d{fill:none;}.a{stroke:#fff;stroke-width:2px;}.b{fill:#fff;}.c{stroke:none;}</style></defs><g transform="translate(-299 -254)"><g class="a" transform="translate(299 254)"><rect class="c" width="28" height="23" rx="3"/><rect class="d" x="1" y="1" width="26" height="21" rx="2"/></g><path class="b" d="M3,0H25a3,3,0,0,1,3,3V4a0,0,0,0,1,0,0H0A0,0,0,0,1,0,4V3A3,3,0,0,1,3,0Z" transform="translate(299 254)"/><rect class="b" width="2" height="22" transform="translate(312 255)"/><rect class="b" width="7" height="1" transform="translate(303 261)"/><rect class="b" width="7" height="1" transform="translate(316 261)"/><rect class="b" width="7" height="1" transform="translate(303 265)"/><rect class="b" width="7" height="1" transform="translate(316 265)"/><rect class="b" width="7" height="1" transform="translate(303 269)"/></g></svg>