<svg xmlns="http://www.w3.org/2000/svg" width="35" height="31.009" viewBox="0 0 35 31.009"><defs><style>.a{fill:#fff;}.a,.b{stroke:#333;stroke-width:2px;}.a,.c{stroke-linecap:round;}.a,.b,.c{stroke-linejoin:round;}.b,.e{fill:none;}.c{fill:#49b68a;}.d,.f{stroke:none;}.f{fill:#333;}</style></defs><g transform="translate(86 -1213.991)"><g class="a" transform="translate(-86 1220)"><rect class="d" width="35" height="25" rx="2.5"/><rect class="e" x="1" y="1" width="33" height="23" rx="1.5"/></g><path class="b" d="M-81.132,1221.391s-2.622-5.236,1.25-6.25,6.25,3.75,6.25,3.75" transform="translate(1 0)"/><path class="b" d="M-60.5,1221.391s2.622-5.236-1.25-6.25-6.25,3.75-6.25,3.75" transform="translate(4.5 0)"/><line class="b" y2="13" transform="translate(-68 1231)"/><g class="c" transform="translate(3 0)"><path class="d" d="M -66.00000762939453 1234.19580078125 L -70.47000885009766 1231.401977539062 L -71.00000762939453 1231.07080078125 L -71.53000640869141 1231.401977539062 L -76.00000762939453 1234.19580078125 L -76.00000762939453 1218.8662109375 C -76.00000762939453 1217.854614257812 -75.33744812011719 1217 -74.55319976806641 1217 L -67.44680786132812 1217 C -66.66255950927734 1217 -66.00000762939453 1217.854614257812 -66.00000762939453 1218.8662109375 L -66.00000762939453 1234.19580078125 Z"/><path class="f" d="M -67.00000762939453 1232.391479492188 L -67.00000762939453 1218.8662109375 C -67.00000762939453 1218.303588867188 -67.317138671875 1218 -67.44680786132812 1218 L -74.55319976806641 1218 C -74.68286895751953 1218 -75.00000762939453 1218.303588867188 -75.00000762939453 1218.8662109375 L -75.00000762939453 1232.391479492188 L -72.06000518798828 1230.553955078125 C -71.41147613525391 1230.148681640625 -70.58853912353516 1230.148681640625 -69.94001007080078 1230.553955078125 L -67.00000762939453 1232.391479492188 M -65.00000762939453 1236 L -71.00000762939453 1232.25 L -77.00000762939453 1236 L -77.00000762939453 1218.8662109375 C -77.00000762939453 1217.28369140625 -75.90441131591797 1216 -74.55319976806641 1216 L -67.44680786132812 1216 C -66.09560394287109 1216 -65.00000762939453 1217.28369140625 -65.00000762939453 1218.8662109375 L -65.00000762939453 1236 Z"/></g></g></svg>