<svg xmlns="http://www.w3.org/2000/svg" width="47" height="37" viewBox="0 0 47 37"><defs><style>.a,.b{fill:none;stroke:#333;stroke-linejoin:round;stroke-width:2px;}.b{stroke-linecap:round;}.c{fill:#49b68a;stroke-miterlimit:10;}.d,.e{stroke:none;}.e{fill:#333;}</style></defs><g transform="translate(-788 -2109)"><g transform="translate(947 1154)"><path class="a" d="M-133.583,991h-18.75A5.667,5.667,0,0,1-158,985.333V961.667A5.667,5.667,0,0,1-152.333,956h23.666A5.667,5.667,0,0,1-123,961.667V976.25"/><line class="b" x2="21" transform="translate(-151 966)"/><line class="b" x2="12" transform="translate(-151 973)"/><line class="b" x2="12" transform="translate(-151 980)"/></g><g class="c" transform="translate(930.333 1324.376)"><path class="d" d="M -113.8880004882812 820.6240234375 L -120.3330001831055 820.6240234375 L -120.3330001831055 814.1790161132812 C -120.3330001831055 813.520751953125 -120.066162109375 812.8763427734375 -119.6008911132812 812.4110717773438 L -104.0038909912109 796.8140869140625 C -103.8813323974609 796.69189453125 -103.7176208496094 796.6240234375 -103.5439987182617 796.6240234375 C -103.3706436157227 796.6240234375 -103.2076797485352 796.6915283203125 -103.0851440429688 796.8140869140625 L -96.52306365966797 803.3751831054688 C -96.27023315429688 803.62841796875 -96.26998901367188 804.040771484375 -96.52309417724609 804.2938232421875 L -112.1211090087891 819.8919067382812 C -112.5932312011719 820.364013671875 -113.2207260131836 820.6240234375 -113.8880004882812 820.6240234375 Z"/><path class="e" d="M -103.5444869995117 797.7689208984375 L -118.8937911987305 813.1181640625 C -119.1729125976562 813.3973388671875 -119.3330001831055 813.7839965820312 -119.3330001831055 814.1790161132812 L -119.3330001831055 819.6240234375 L -113.8880004882812 819.6240234375 C -113.4936294555664 819.6240234375 -113.1073608398438 819.4639282226562 -112.8282089233398 819.1847534179688 L -97.47798156738281 803.8345336914062 L -103.5444869995117 797.7689208984375 M -103.5439987182617 795.6240234375 C -103.1220016479492 795.6240234375 -102.6999893188477 795.7849731445312 -102.3780059814453 796.1069946289062 L -95.81600189208984 802.6680297851562 C -95.17200469970703 803.31298828125 -95.17200469970703 804.3569946289062 -95.81600189208984 805.0009765625 L -111.4140014648438 820.5989990234375 C -112.0699996948242 821.2550048828125 -112.9599990844727 821.6240234375 -113.8880004882812 821.6240234375 L -121.3330001831055 821.6240234375 L -121.3330001831055 814.1790161132812 C -121.3330001831055 813.2509765625 -120.9640045166016 812.3599853515625 -120.3079986572266 811.7039794921875 L -104.7110061645508 796.1069946289062 C -104.3880004882812 795.7849731445312 -103.9660034179688 795.6240234375 -103.5439987182617 795.6240234375 Z"/></g></g></svg>