<svg xmlns="http://www.w3.org/2000/svg" width="34" height="34" viewBox="0 0 34 34"><defs><style>.a{fill:#fff;stroke-linecap:square;}.a,.c{stroke:#333;stroke-linejoin:bevel;stroke-width:2px;}.b{fill:#0e935d;}.c,.f{fill:none;}.c,.d{stroke-linecap:round;}.d{fill:#49b68a;stroke-linejoin:round;}.e,.g{stroke:none;}.g{fill:#333;}</style></defs><g transform="translate(-1360.703 -1545.832)"><g class="a" transform="translate(1360.703 1545.832)"><circle class="e" cx="17" cy="17" r="17"/><circle class="f" cx="17" cy="17" r="16"/></g><g class="a" transform="translate(1365.703 1550.832)"><circle class="e" cx="12" cy="12" r="12"/><circle class="f" cx="12" cy="12" r="11"/></g><circle class="b" cx="5" cy="5" r="5" transform="translate(1372.703 1557.832)"/><line class="c" y1="10.161" x2="10.161" transform="translate(1377.638 1552.735)"/><g class="d" transform="translate(-5.968 1)"><path class="e" d="M 1392.0341796875 1558.007568359375 L 1388.34619140625 1557.156616210938 L 1387.494995117188 1553.468505859375 L 1394.644409179688 1546.319091796875 L 1395.389892578125 1549.550659179688 L 1395.495361328125 1550.007446289062 L 1395.9521484375 1550.112915039062 L 1399.183471679688 1550.858276367188 L 1392.0341796875 1558.007568359375 Z"/><path class="g" d="M 1394.2177734375 1547.806274414062 L 1388.3193359375 1553.704956054688 L 1388.971557617188 1556.531127929688 L 1391.7978515625 1557.183227539062 L 1397.696166992188 1551.284912109375 L 1395.783569335938 1550.84375 C 1395.224609375 1550.714721679688 1394.7880859375 1550.2783203125 1394.659057617188 1549.71923828125 L 1394.2177734375 1547.806274414062 M 1395.070922851562 1544.831787109375 L 1396.120727539062 1549.382080078125 L 1400.670776367188 1550.431640625 L 1392.270629882812 1558.831787109375 L 1387.720825195312 1557.781982421875 L 1386.670776367188 1553.232177734375 L 1395.070922851562 1544.831787109375 Z"/></g></g></svg>