<svg xmlns="http://www.w3.org/2000/svg" width="29" height="37.456" viewBox="0 0 29 37.456">
  <g id="합격증" transform="translate(-1175 -468.544)">
    <g id="그룹_2043" data-name="그룹 2043">
      <g id="패스_2927" data-name="패스 2927" fill="#0e935d" stroke-linecap="round">
        <path d="M 1203.249633789062 505.2496032714844 L 1179.778198242188 505.2496032714844 L 1179.778198242188 502.5115966796875 L 1179.778198242188 472.7820129394531 L 1199.969360351562 472.7820129394531 L 1203.249633789062 472.7820129394531 L 1203.249633789062 505.2496032714844 Z" stroke="none"/>
        <path d="M 1202.499633789062 504.4996032714844 L 1202.499633789062 473.5320129394531 L 1180.528198242188 473.5320129394531 L 1180.528198242188 504.4996032714844 L 1202.499633789062 504.4996032714844 M 1203.999633789062 505.9996032714844 L 1179.028198242188 505.9996032714844 L 1179.028198242188 472.0320129394531 L 1203.999633789062 472.0320129394531 L 1203.999633789062 505.9996032714844 Z" stroke="none" fill="#333"/>
      </g>
    </g>
    <g id="그룹_2041" data-name="그룹 2041">
      <g id="패스_2925" data-name="패스 2925" fill="#fff" stroke-linecap="round">
        <path d="M 1199.220825195312 501.7615966796875 L 1175.749633789062 501.7615966796875 L 1175.749633789062 476.6011047363281 L 1175.749633789062 469.2936096191406 L 1183.059692382812 469.2936096191406 L 1199.220825195312 469.2936096191406 L 1199.220825195312 501.7615966796875 Z" stroke="none"/>
        <path d="M 1176.499633789062 470.0436401367188 L 1176.499633789062 501.0115966796875 L 1198.470825195312 501.0115966796875 L 1198.470825195312 470.0436401367188 L 1176.499633789062 470.0436401367188 M 1174.999633789062 468.5436401367188 L 1199.970825195312 468.5436401367188 L 1199.970825195312 502.5115966796875 L 1174.999633789062 502.5115966796875 L 1174.999633789062 468.5436401367188 Z" stroke="none" fill="#333"/>
      </g>
    </g>
    <g id="그룹_2040" data-name="그룹 2040">
      <path id="패스_2922" data-name="패스 2922" d="M1187.834,475.117l.481,1.483a.368.368,0,0,0,.349.254h1.559a.367.367,0,0,1,.216.664l-1.261.916a.369.369,0,0,0-.134.41l.481,1.483a.367.367,0,0,1-.565.41l-1.26-.916a.371.371,0,0,0-.432,0l-1.261.916a.367.367,0,0,1-.565-.41l.481-1.483a.365.365,0,0,0-.133-.41l-1.261-.916a.367.367,0,0,1,.216-.664h1.558a.369.369,0,0,0,.35-.254l.481-1.483A.367.367,0,0,1,1187.834,475.117Z" fill="#333"/>
      <path id="패스_2923" data-name="패스 2923" d="M1189.151,483.231l2.738,4.743.3-2.1,2.026.8-2.756-4.774" fill="#333"/>
      <path id="패스_2924" data-name="패스 2924" d="M1185.817,483.231l-2.738,4.743-.3-2.1-2.027.8,2.756-4.774" fill="#333"/>
      <circle id="타원_115" data-name="타원 115" cx="5.8" cy="5.8" r="5.8" transform="translate(1181.68 472.04)" fill="none" stroke="#333" stroke-linecap="square" stroke-width="1.5"/>
    </g>
    <g id="그룹_2042" data-name="그룹 2042">
      <line id="선_127" data-name="선 127" x2="15.85" transform="translate(1179.56 493.38)" fill="none" stroke="#333" stroke-linecap="square" stroke-width="1.5"/>
      <line id="선_128" data-name="선 128" x2="15.85" transform="translate(1179.56 496.57)" fill="none" stroke="#333" stroke-linecap="square" stroke-width="1.5"/>
      <line id="선_129" data-name="선 129" x2="15.85" transform="translate(1179.56 490.2)" fill="none" stroke="#333" stroke-linecap="square" stroke-width="1.5"/>
    </g>
  </g>
</svg>
