<svg xmlns="http://www.w3.org/2000/svg" xmlns:xlink="http://www.w3.org/1999/xlink" width="319.077" height="321.439" viewBox="0 0 319.077 321.439"><defs><style>.a{fill:none;}.b{clip-path:url(#a);}.c{fill:#fbaf84;}.d{fill:#d9804a;}.e{fill:#e8e8e8;}.f{fill:#8d3c1c;}.g{fill:#ab5c39;}.h{fill:#fdae80;}.i{fill:#292929;}.j{fill:#fff;}.k{fill:#fd0030;}.l{fill:#2d2d2d;}.m{fill:#f9b121;}.n{fill:#fcc854;}.o{fill:#ffb081;}.p{fill:#e0e0e0;}.q{fill:#fdb186;}.r{fill:#db804a;}.s{fill:#292928;}.t{fill:#e6e3e3;}.u{fill:#c01e15;}.v{fill:#844700;}.w{fill:#5b2900;}</style><clipPath id="a"><rect class="a" width="319.077" height="321.439"/></clipPath></defs><g class="b"><g transform="translate(589.652 -15.629)"><g transform="translate(-588.73 95.002)"><path class="c" d="M-468.795,187.4a.432.432,0,0,0-.2-.24.453.453,0,0,0-.6-.175,1.943,1.943,0,0,0-.249.141c-.366,5.552-5.653,7.066-11.319,7.381-.064.392-.132.782-.209,1.171a19.714,19.714,0,0,1-1.749,4.269c-.483.61-.906,1.294-.741,1.8.109.333.46.453.732.622.975.607,2.047,1.109,3.057,1.656a.518.518,0,0,0,.6-.166l4.029-4.3c2.88-.712,4.831-3.36,6.14-5.648a14.7,14.7,0,0,0,1.7-3.668A28.773,28.773,0,0,0-468.795,187.4Z" transform="translate(551.135 -157.484)"/><path class="d" d="M-464.144,192.678c-1.246.048-1.578-.755-1.57-1.682a6.085,6.085,0,0,1-.69,1.209,3.492,3.492,0,0,1-1.713,2.193,4.4,4.4,0,0,0,.258-.757q-.268.2-.556.371a1.361,1.361,0,0,1-1.449.984,5.05,5.05,0,0,1-.515-.071q-.337.119-.687.222l.236.059a5.668,5.668,0,0,1,.067,4.276c-.082.216.25.352.333.135a6.038,6.038,0,0,0,.025-4.315,2.934,2.934,0,0,0,1.467.011,1.213,1.213,0,0,0,.556-.453h.007a2.789,2.789,0,0,0,1.336-.815,3.222,3.222,0,0,1,1.029,1.817c.044.226.4.176.356-.051a3.625,3.625,0,0,0-1.148-2.033c.055-.068.106-.139.156-.211a5.183,5.183,0,0,0,1.2,1.042c.2.122.412-.165.216-.287a4.916,4.916,0,0,1-1.214-1.067,4.258,4.258,0,0,0,.486-1.207,1.886,1.886,0,0,0,1.863.984C-463.863,193.025-463.915,192.669-464.144,192.678Z" transform="translate(546.462 -158.963)"/><path class="e" d="M-485.28,203.183c.752-1.012,9.167,5.272,8.394,6.238a61.833,61.833,0,0,0-4.222,5.735,25.817,25.817,0,0,0-8.431-5.974C-488.085,207.049-486.654,205.031-485.28,203.183Z" transform="translate(553.19 -163.362)"/><path d="M-502,209.352a31.652,31.652,0,0,1,9.564,6.376c-8,12.544-13.263,31.763-13.013,36.729.285,5.691,7.986,11.031,13.116,15.5,2.615,2.277,8.394,3.9,12.208,3.9s-8.72,26.566-14.422,22.438c-9.386-6.8-31.669-22.272-31.256-37.619C-525.528,246.662-513.183,224.781-502,209.352Z" transform="translate(566.397 -165.648)"/><path class="c" d="M-372.466,216.016c1.06,2.413,2.723,5.25,5.512,6.261l3.555,4.7a.518.518,0,0,0,.58.229c1.061-.438,2.18-.825,3.214-1.326.288-.139.65-.221.793-.541.218-.486-.132-1.211-.547-1.869a19.743,19.743,0,0,1-1.291-4.43c-.144-1.584-.148-3.186-.231-4.774-.086-1.639-.4-2.655-1.752-3.161a1.332,1.332,0,0,0-.535-.8,1.845,1.845,0,0,0-.8-.244,3.978,3.978,0,0,0-1.981-.664,28.628,28.628,0,0,0-3.443-.676c-.923-.09-1.357.272-1.541.86a2.339,2.339,0,0,0-.511-.423.454.454,0,0,0-.61.112.438.438,0,0,0-.228.218,28.681,28.681,0,0,0-1.485,2.7A14.665,14.665,0,0,0-372.466,216.016Z" transform="translate(511.027 -165.413)"/><path class="d" d="M-372.152,213.863c2.034.294,1.848-1.969,1.637-3.29-.036-.226.309-.328.345-.1a12.64,12.64,0,0,1,.185,1.465c.737-.984,2.59-1.078,3.677-1.161.231-.018.238.341.008.359-1.06.081-3.289.217-3.561,1.486a3.538,3.538,0,0,0,1.479,3.368,4.773,4.773,0,0,1-.141-2.4c.16-.566.71-.783,1.206-1a13.765,13.765,0,0,1,2.715-.774c.225-.046.326.3.1.345a17.691,17.691,0,0,0-1.982.5,3.15,3.15,0,0,0-1.252.534,2.217,2.217,0,0,0-.46,1.638c.1.942.366,1.907,1.489,1.939a6.154,6.154,0,0,0,.885-.05,4.494,4.494,0,0,0,.711-.116.528.528,0,0,0,.216-.853,1.385,1.385,0,0,0-1.1-.45c-.228-.022-.238-.381-.008-.359.721.069,2.276.579,1.56,1.622a1.465,1.465,0,0,1-1.077.481l-.249.035a5.666,5.666,0,0,0-.516,4.245.18.18,0,0,1-.345.1,6.038,6.038,0,0,1,.429-4.293,2.934,2.934,0,0,1-1.46-.143,1.213,1.213,0,0,1-.505-.509h-.006a2.785,2.785,0,0,1-1.244-.951,3.227,3.227,0,0,0-1.214,1.7c-.067.221-.416.134-.348-.088a3.628,3.628,0,0,1,1.355-1.9c-.047-.073-.09-.149-.133-.226a5.193,5.193,0,0,1-1.3.91c-.207.1-.392-.207-.184-.308a4.908,4.908,0,0,0,1.32-.933,4.24,4.24,0,0,1-.357-1.252,1.888,1.888,0,0,1-1.957.783C-372.468,214.178-372.379,213.83-372.152,213.863Z" transform="translate(510.516 -166.01)"/><path class="e" d="M-355.676,227.729c-.642-1.085-9.67,4.279-9,5.322a62.086,62.086,0,0,1,3.6,6.147,25.829,25.829,0,0,1,9.012-5.055C-353.293,231.867-354.5,229.71-355.676,227.729Z" transform="translate(507.727 -172.289)"/><path d="M-362.883,234.463a31.665,31.665,0,0,0-10.182,5.336c6.641,13.316,12.58,36.3,11.811,41.207-.882,5.629-29.842,1.069-31.5,0s7.2,26.573,16.943,26.879,31.583-7.744,32.786-23.049C-342.242,274.847-353.38,250.983-362.883,234.463Z" transform="translate(518.014 -174.794)"/><path class="f" d="M-429.5,269.8c-2.16-6.289-9.192-10.868-15.408-6.844-3.225,2.088-4.924,5.6-7.01,8.691A34,34,0,0,1-463,281.93a1.306,1.306,0,0,0-.469,1.8,1.2,1.2,0,0,0,.315.775c2.426,2.775,6.971,5.9,9.993,2.794a8.007,8.007,0,0,0,7.189.956c1.432-.516,2.771-2.092,4.276-2.266,1.646-.19,3.246.3,4.946-.081C-429.231,284.222-427.235,276.4-429.5,269.8Z" transform="translate(543.759 -184.621)"/><path class="g" d="M-422.064,244.655s2.68-3.606,4.975-3.364c7.505-.607,9.356,11.548,8.7,13.558a6.934,6.934,0,0,1,2.84,6.2,8.236,8.236,0,0,1-2.222,4.778,8.934,8.934,0,0,1,.553,8.075c-1.292,2.662-4.006,3.789-6.9,3.944a5.268,5.268,0,0,1-2.107,1.577,16.951,16.951,0,0,1-6.955.746c-.287-.013-.582-.045-.873-.067C-423.381,268.272-422.064,244.655-422.064,244.655Z" transform="translate(529.339 -177.273)"/><path class="h" d="M-404.226,643.764c8.672-18.75,31.855-58.057,34.18-69.929a35.686,35.686,0,0,0,.184-10.464l-20.243,2.108c-19.4,31.034-15.161,47.179-23.071,76.681Z" transform="translate(525.378 -294.587)"/><path class="h" d="M-509.1,557.885q-.5,2.206-1,4.411c-17.216-6.835-26.129-7.333-47.175-14.019l-8.5,5.454c18.335,9.518,44.644,31.025,59.63,32.3s19.151-13.376,20.889-17.958c.977-2.574,1.779-5.21,2.536-7.855C-482.348,558.947-509.054,557.7-509.1,557.885Z" transform="translate(580.953 -289.089)"/><path d="M-585.7,547.264a56.462,56.462,0,0,0,6.4-.205c4.151-.253,8.518.33,12.575-.706a.876.876,0,0,0,.638-.513.878.878,0,0,0,.443-.766c.163-2.806-1.8-5.638-3.977-7.242-2.883-2.123-8.883-4.332-9.87-4.737s-1.493.8-1.159,1.377,3.514,3.56,3.514,3.56a76.585,76.585,0,0,0-8.007.968,6.885,6.885,0,0,0-3.708,3.337c-.718,1.184-1.272,2.541-.216,3.713A4.827,4.827,0,0,0-585.7,547.264Z" transform="translate(589.652 -283.53)"/><path class="h" d="M-562.125,556.364A11.133,11.133,0,0,0-558,557.729c2.578.129,3.862-2.288,4.393-4.458a1.524,1.524,0,0,0-.642-1.479,1.688,1.688,0,0,0-.359-.3c-2-1.268-4.133-2.283-6.17-3.481a10.664,10.664,0,0,0-5.5-1.757c-3.689-.057-11.626,1.277-11.688,3.887C-578.008,552.06-575.23,550.1-562.125,556.364Z" transform="translate(585.395 -288.35)"/><g transform="translate(106.153 339.054)"><path d="M-407.9,702.178c-3.747-1.83-6.47-12.817-8.078-13.458s-3.487.9-4.862,3.308c-1.82,3.188-1.57,9.516-1.822,10.531s1.253,1.2,1.841.748a52.924,52.924,0,0,0,3.415-4.594s.387,4.661,1.306,6.1a5.8,5.8,0,0,0,4.749,2.82c2.548.279,5.934-.311,7.055-1.574C-403.421,705.072-404.26,703.953-407.9,702.178Z" transform="translate(422.688 -679.241)"/><path class="h" d="M-402.241,677.67c.4-1.377-8.544-3.923-8.617-3.768-1,2.143-2.92,7.308-3.847,9.482-.809,1.9,3.373,9.956,5.545,12.131,1.8,1.806,3.859,1.107,3.317.3C-407.038,694.047-404.151,684.246-402.241,677.67Z" transform="translate(419.818 -673.895)"/></g><path class="i" d="M-478.642,517.677c14.583,10.255,76.7,7.6,86.182.928-.608-27.273-11.177-64.7-13.243-86.348,0,0-68.505-7.488-68.775-5.976C-481.46,465.428-472.413,493.355-478.642,517.677Z" transform="translate(549.221 -244.584)"/><path class="h" d="M-427.9,294.537a23.742,23.742,0,0,0,5.618.4c2.308-.011,4.858.437,7.092-.316a.882.882,0,0,0,.62-.807c.622-7.219.256-14.492.968-21.7a.809.809,0,0,0-.117-.539.782.782,0,0,0-.715-1.006c-2.784,0-5.568.068-8.352.023-1.111-.018-2.223-.046-3.331-.128a22.68,22.68,0,0,1-2.506-.519s-.464,11.283-.5,14.178c-.032,2.562-.094,5.131-.213,7.689C-429.4,293.239-429.3,294.2-427.9,294.537Z" transform="translate(531.268 -187.717)"/><path class="e" d="M-414.194,305.939l-6.374.514-15.01-3.531c5.8,16.781,12.544,31.573,20.767,43.281C-409.418,334.591-411.212,320.472-414.194,305.939Z" transform="translate(533.536 -199.728)"/><path class="j" d="M-432.167,295.966c.423-.478.759-.83,1.026-.5,1.272,1.588,9.841,7.57,10.788,7.457s3.786-5.362,4.19-5.519,2.012,5.4,2.112,5.982-.792,7.439-1.333,7.45-4.981-6.554-4.981-6.554-3.209,5.456-4.34,6.54a.694.694,0,0,1-.975-.019c-1.174-1.544-2.583-2.887-3.76-4.428-.362-.474-5.152-6.048-5.164-6.636S-433.138,297.065-432.167,295.966Z" transform="translate(533.182 -196.966)"/><path class="i" d="M-437.914,300.345c.645.2-.068.321,2.24,5.205.951,2.01,7.752,13.631,9.586,17.761,1.693,3.812,3.187,7.7,4.61,11.621,1.088,3,2.692,6.09,3.5,9.258,1.336-6.311,2.755-12.61,2.372-19.111-.212-3.6-.148-7.4-.552-11.532a41.978,41.978,0,0,0-2.793-12.458c-.139-.7,5.295,2.336,5.927,2.858,1.08.89,4,10.044,3.724,10.38a12.515,12.515,0,0,1-2.926.835,31.061,31.061,0,0,1,2.883,3.078c.23.523-.51,6.4-1.277,9.55a67.323,67.323,0,0,1-2.543,9.431c-1.147,2.841-3.709,7.7-4.393,9.237s-9.883-12.66-14.522-18.924c-2.052-2.771-7.811-10.288-7.892-10.936s1.83-2.839,1.83-2.839a29.019,29.019,0,0,1-3.335.045c-.653-.116-2.812-9.431-2.831-10.377S-438.558,300.145-437.914,300.345Z" transform="translate(536.715 -198.785)"/><path class="h" d="M-431.919,260.623a10.993,10.993,0,0,1,.177-8.193c2.149-4.382,8.284-6.658,12.566-3.976a9.391,9.391,0,0,1,3.771,5.254c.748,1.755,3.176,9.3,2.239,11.955-2.079,5.874-10.325,6.83-13.737,3.432-.622-.619-2.689-3.933-3.213-4.728a2.064,2.064,0,0,1-1.38.365C-433.893,264.558-433.815,261.288-431.919,260.623Z" transform="translate(532.714 -179.47)"/><path d="M-424.336,264.421c1.109.079.914,1.792-.192,1.713S-425.442,264.342-424.336,264.421Z" transform="translate(529.782 -185.704)"/><path d="M-412.19,258.99c1.094.078.9,1.767-.189,1.689S-413.28,258.912-412.19,258.99Z" transform="translate(525.353 -183.726)"/><path class="f" d="M-416.413,256.235a.172.172,0,0,0-.1.127.185.185,0,0,0-.02.13c.133.633.6.694,1.134.458.921-.4,1.663-.943,2.709-.517.123.05.2-.083.1-.176C-413.8,255.2-415.764,255.953-416.413,256.235Z" transform="translate(526.603 -182.533)"/><path d="M-418.18,261.771c.97,1.23,1.829,2.53,2.81,3.752.549.684.565,1.294-.34,1.6-.217.074-.362-.256-.142-.331,1.148-.393-.559-1.889-.9-2.35-.589-.806-1.1-1.664-1.714-2.449A.18.18,0,0,1-418.18,261.771Z" transform="translate(527.317 -184.715)"/><path class="g" d="M-439.328,241.9c-7.258-5.051-17.184.415-18.994,10.078-4.791.629-6.223,7.181-6.223,7.181a10.769,10.769,0,0,0-6.055,6.525c-1.628,4.267-8.265,2.626-7.652,4.381a4.879,4.879,0,0,0,3.224,2.655,5.924,5.924,0,0,0,4.559,5.318,5.442,5.442,0,0,0,2.874-.387c5.4,3,13.053-2.824,12.861-8.061,2.257-1.448,5.2-3.38,5.686-6.392.106-.66.458-6.126,1.872-8.851,2.932-3.722,8.022-6.884,8.655-10.716Z" transform="translate(549.093 -176.805)"/><g transform="translate(108.642 82.789)"><path class="k" d="M-418.537,273.758c.562-.12,1.357-1.065,2.279-1.4.518-.186,1.407.343,1.527.284.184-.092.16-1.026.646-1.287a4.652,4.652,0,0,1,1.785-.284c.243-.029.635-.2.885-.243.2-.034.221.179.145.329-.567,1.123-.9,3.67-2.2,4.262-1.436.65-3.932-.738-5.156-1.3C-418.822,274.031-418.856,273.826-418.537,273.758Z" transform="translate(418.775 -270.827)"/><path class="j" d="M-417.713,274.321c4.169.432,4.575.439,6.361-2.682A22.774,22.774,0,0,1-417.713,274.321Z" transform="translate(418.388 -271.123)"/></g><g transform="translate(73.559 0.321)"><path class="l" d="M-438,141.713c-.207,1.229-7.5,16.294-13.151,20.892s-20.658,9.858-22.343,9.878,10.5-22.965,10.9-23.316S-437.791,140.484-438,141.713Z" transform="translate(473.845 -141.289)"/><path d="M-438.7,141.149c-8.132,2.185-16.228,4.379-24.1,7.361a.7.7,0,0,0-.363.315c-4.06,7.376-7.418,15.124-10.725,22.868-.3.7.5.875.793.183q4.88-11.428,10.877-22.329,11.623-4.4,23.637-7.627C-437.856,141.724-437.967,140.952-438.7,141.149Z" transform="translate(473.955 -141.117)"/><path d="M-432.855,161.426a60.133,60.133,0,0,0-10.072-6.851,25.033,25.033,0,0,0-9.667,5.208,25.037,25.037,0,0,0-6.516,8.837,60.063,60.063,0,0,0,5.366,10.936.7.7,0,0,0,.769.246c4.2-2.118,8.867-3.317,13.515-4.492a.48.48,0,0,0,.231-.127.476.476,0,0,0,.158-.211c1.818-4.436,3.662-8.886,6.35-12.749A.7.7,0,0,0-432.855,161.426Z" transform="translate(468.549 -146.018)"/><path class="m" d="M-408.5,163.979c-2.431-1.073-7.624-3.195-7.969-2.775s1,2.506,1.392,3.221a47.156,47.156,0,0,0,2.6,4.178.2.2,0,0,0,.334-.224c-.756-1.09-1.472-2.2-2.134-3.354-.135-.233-.266-.468-.4-.7q1.465,2.141,3.039,4.2c.157.2.491-.019.334-.224l-.066-.088a.212.212,0,0,0,.02-.312,16.038,16.038,0,0,1-1.413-1.656l1.01,1.064a.169.169,0,0,0,.272-.025l.432.439a.177.177,0,0,0,.291-.053c.049.04.1.082.145.121.2.163.463-.141.262-.305-.752-.612-1.469-1.259-2.159-1.933l2.18,1.867a.2.2,0,0,0,.323-.117l.137.1c.208.152.472-.152.263-.305q-.628-.458-1.238-.933a.235.235,0,0,0,.066-.087l.431.377a.181.181,0,0,0,.219.023c.132.1.263.2.4.293.208.152.472-.152.263-.305-.238-.174-.473-.35-.709-.526.34.233.68.467,1.024.7.213.141.478-.162.263-.305q-1.471-.975-2.889-2.019,1.5.983,2.992,1.988c.212.143.477-.16.263-.305q-2.463-1.663-4.965-3.265a19.815,19.815,0,0,1,4.047,2.548c.2.163.464-.141.263-.305-.336-.273-.68-.53-1.03-.779q.768.455,1.513.953c.212.142.477-.161.263-.305-.708-.476-1.433-.918-2.171-1.336q.971.41,1.936.835C-408.433,164.448-408.26,164.084-408.5,163.979Z" transform="translate(453.038 -148.414)"/><path class="n" d="M-423.5,155.715a12.267,12.267,0,0,0-2.429-.993l-7.643-6.282c-1.491-1.225-3.092-2.77-4.058-3.4-.729-.479-3.745,1.619-3.745,1.619l3.4-1.02c1.43,1.171,3.6,2.987,5.027,4.161,2.2,1.811,6.646,5.412,6.646,5.412a24.021,24.021,0,0,0,1.4,2.117C-424.706,157.453-423.4,155.954-423.5,155.715Z" transform="translate(462.088 -142.519)"/></g><g transform="translate(162.78)"><path class="l" d="M-319.134,175.786c.178-1.234,7.12-16.466,12.657-21.2s20.42-10.34,22.1-10.4-9.956,23.206-10.353,23.566S-319.312,177.02-319.134,175.786Z" transform="translate(328.346 -141.915)"/><path d="M-318.542,176.162c8.078-2.375,16.121-4.758,23.923-7.924a.7.7,0,0,0,.355-.323c3.886-7.471,7.061-15.294,10.185-23.114.281-.7-.518-.863-.8-.164q-4.61,11.539-10.349,22.578-11.516,4.667-23.451,8.181C-319.4,175.607-319.27,176.377-318.542,176.162Z" transform="translate(328.355 -141.914)"/><path d="M-319.573,159.5a60.162,60.162,0,0,0,10.229,6.613,25.036,25.036,0,0,0,9.542-5.434,25.04,25.04,0,0,0,6.307-8.988,60.1,60.1,0,0,0-5.622-10.806.7.7,0,0,0-.774-.228c-4.152,2.216-8.787,3.524-13.406,4.809a.473.473,0,0,0-.228.132.472.472,0,0,0-.153.215c-1.713,4.477-3.452,8.97-6.048,12.894A.7.7,0,0,0-319.573,159.5Z" transform="translate(328.586 -140.613)"/><path class="m" d="M-333.457,167.649c2.456,1.015,7.7,3.015,8.033,2.586s-1.057-2.481-1.467-3.187a46.928,46.928,0,0,0-2.7-4.116.2.2,0,0,0-.329.233c.782,1.071,1.524,2.169,2.213,3.3.14.23.277.462.413.695q-1.514-2.106-3.136-4.132c-.162-.2-.492.031-.329.233l.068.086a.21.21,0,0,0-.012.312,16.1,16.1,0,0,1,1.451,1.623l-1.035-1.04a.169.169,0,0,0-.271.031l-.443-.429a.177.177,0,0,0-.29.061c-.05-.039-.1-.08-.148-.119-.2-.158-.46.152-.255.312.766.594,1.5,1.225,2.2,1.881l-2.223-1.815a.2.2,0,0,0-.32.125l-.14-.1c-.211-.147-.468.163-.255.311q.637.443,1.26.9a.224.224,0,0,0-.064.089l-.439-.367a.182.182,0,0,0-.22-.018c-.134-.095-.267-.19-.4-.284-.212-.146-.469.163-.256.312.242.168.481.34.721.509-.345-.226-.69-.451-1.04-.671-.216-.137-.474.173-.255.311q1.492.94,2.935,1.951-1.525-.948-3.038-1.918c-.215-.138-.473.172-.255.312q2.5,1.6,5.039,3.148a19.823,19.823,0,0,1-4.106-2.452c-.2-.158-.46.153-.255.312.342.264.692.514,1.048.755q-.778-.437-1.535-.917c-.216-.137-.473.172-.255.312.719.458,1.454.884,2.2,1.284q-.98-.387-1.955-.789C-333.532,167.182-333.7,167.55-333.457,167.649Z" transform="translate(333.623 -148.712)"/><path class="n" d="M-323.925,172.959a12.275,12.275,0,0,0,2.452.935l7.788,6.1c1.52,1.19,3.157,2.7,4.137,3.308.74.462,3.706-1.706,3.706-1.706l-3.373,1.1c-1.457-1.137-3.668-2.9-5.123-4.041-2.246-1.759-6.772-5.254-6.772-5.254a24,24,0,0,0-1.451-2.083C-322.756,171.193-324.022,172.722-323.925,172.959Z" transform="translate(330.093 -151.793)"/></g><path class="c" d="M-468.275,186.78a2.849,2.849,0,0,0-.3.226c-.12-.6-.515-1.01-1.441-1.017a28.584,28.584,0,0,0-3.5.311,3.981,3.981,0,0,0-2.04.451,1.847,1.847,0,0,0-.825.158,1.332,1.332,0,0,0-.616.741c-1.4.36-1.816,1.338-2.075,2.959-.188,1.179-.331,2.371-.522,3.553C-473.928,193.846-468.641,192.332-468.275,186.78Z" transform="translate(549.568 -157.139)"/><path class="d" d="M-468.08,191.363c-.1-.58-.624-.854-1.095-1.12a13.721,13.721,0,0,0-2.618-1.055c-.219-.07-.356.263-.135.333a17.45,17.45,0,0,1,1.919.7,3.157,3.157,0,0,1,1.19.663,2.217,2.217,0,0,1,.285,1.677,4.586,4.586,0,0,1-.235.787q.289-.175.556-.371A4.352,4.352,0,0,0-468.08,191.363Z" transform="translate(546.816 -158.301)"/><path class="d" d="M-464.717,188.082c.06-.221-.273-.358-.332-.135a12.615,12.615,0,0,0-.339,1.438c-.628-1.057-2.462-1.345-3.534-1.542-.228-.041-.272.315-.046.357,1.046.191,3.249.561,3.385,1.852a2.69,2.69,0,0,1-.111,1,6.084,6.084,0,0,0,.69-1.209A7.29,7.29,0,0,1-464.717,188.082Z" transform="translate(545.752 -157.811)"/><path d="M-438.688,406.754c5.986-3.538,8.918-15.786,8.918-15.786s.916,15.034,6.847,17.163,19.432.106,20.871-1.941c1.167-1.659-7.323-36.237-7.566-48.324-.126-6.226,8.222-19.66-1.763-32.91-2.824-3.747-9.018-16.656-17.669-20.834,6.661,23.1-3.44,42.75-3.44,42.75s-11.913-28.357-19.587-42.779a25.1,25.1,0,0,0-23.876,12.847c-6.11,10.475-1.691,29.665-.246,53.752.946,15.768-6,33.875-6.87,37.093C-483.626,409.847-448.22,412.389-438.688,406.754Z" transform="translate(550.835 -200.121)"/><path class="f" d="M-427.259,263.1c-.006.149.154.183.2.053.432-1.1,1.378-1.277,2.351-1.686.568-.239.856-.635.471-1.193a.194.194,0,0,0-.112-.078.182.182,0,0,0-.172-.013C-425.2,260.47-427.191,261.415-427.259,263.1Z" transform="translate(530.507 -184.155)"/><path class="g" d="M-416.607,242.706c-.522.136-.83,1.242.187,2.063.666.39.034.524.663.982,1.474,1.076,5.487,4.64,6.264,6.242l.746-.213C-409,247.44-414.2,241.734-416.607,242.706Z" transform="translate(526.804 -177.757)"/></g><g transform="translate(-523.518 15.629)"><path class="o" d="M-285.447,536.935c-.306-.846-1.392-6.532-1.064-6.585s3.613,5.872,4.457,7.39c.773,1.388,2.5.531,1.771-1.074-.725-1.587-3.967-7.874-3.485-8.01s5.742,6.185,7.032,7.53c1.183,1.234,2.342-.329,1.374-1.487-.526-.63-5.892-7.823-5.531-8.074s6.266,4.093,7.038,4.649c1.284.925,2.3-.16,1.067-1.356-.413-.4-9.046-8.966-9.152-9.08.171.1,3.27-.048,3.74.025,1.191.185,3.293-.344,3.645-1.279.286-.759-.619-.881-1.3-.912-1.156-.054-2.253-.436-3.4-.561a35.927,35.927,0,0,1-6.079-2.1,21.566,21.566,0,0,0-1.922-.989c-.01-.018-.017-.035-.027-.053-.465-.784-3.265-5.179-3.984-6.049s-7.711,4.331-7.183,4.967,4.123,4.965,4.229,5.088c.123.709.294,1.41.451,2.125.382,1.733,3.243,6.577,4.009,8.141.753,1.537,2.092,6.393,2.676,8.005C-286.543,538.742-284.906,538.426-285.447,536.935Z" transform="translate(384.121 -195.347)"/><path class="p" d="M-290.661,506.225c-.367-.363-4.564,3.1-6.5,4.126a28.423,28.423,0,0,0-3.654,3.117s2.963,5.065,4.517,5.968c.317.184,9.214-5.567,9.553-6.719C-286.454,511.731-289.5,507.371-290.661,506.225Z" transform="translate(384.972 -194.391)"/><path d="M-334.308,417.628c6.346,16.832,18.5,34.13,20.289,34.671s12.15-8.394,11.24-9.423c-2.6-2.942-12.081-25.491-13.628-33.575-1.508-7.88,14.538-33.548,22.417-38.3,9.711-5.852-1.146-41.338-8.581-36.834C-331.095,351.445-342.164,396.791-334.308,417.628Z" transform="translate(398.066 -131.592)"/><path d="M-294.5,520.2c-1.092,0-1.02,1.692.068,1.692S-293.414,520.2-294.5,520.2Z" transform="translate(382.959 -199.489)"/><path class="q" d="M-101.023,177.123c.03-.3.071-.594.107-.892a24.652,24.652,0,0,1-5.974-.922c-4.258-2.129-5.724-7.514-4.4-12.09a2.856,2.856,0,0,0-.505-.612.56.56,0,0,0-.766-.008.538.538,0,0,0-.327.21,35.522,35.522,0,0,0-2.434,2.929,18.1,18.1,0,0,0,.683,4.946c.72,3.174,2.069,7.005,5.213,8.885l3.207,6.529a.641.641,0,0,0,.649.413c1.389-.282,2.837-.488,4.208-.852.382-.1.841-.116,1.089-.47.378-.538.125-1.5-.225-2.394A24.349,24.349,0,0,1-101.023,177.123Z" transform="translate(317.427 -69.194)"/><path class="r" d="M-105.192,180.787a7.487,7.487,0,0,0-.665,3.661.222.222,0,0,0,.442-.04,7.02,7.02,0,0,1,.573-3.333C-104.961,180.98-105.08,180.887-105.192,180.787Z" transform="translate(313.972 -75.872)"/><path class="p" d="M-108.167,199.288c.163.491,5.477-.69,7.664-.721a28.425,28.425,0,0,0,4.672-1.116s-.337-5.859-1.311-7.369c-.2-.308-10.738.771-11.564,1.643C-109.412,192.472-108.679,197.74-108.167,199.288Z" transform="translate(315.11 -79.238)"/><path d="M-125.928,239.433c2-17.878-.963-38.808-2.314-40.1s-14.638,1.955-14.3,3.284c.979,3.8-.824,28.2-3.12,36.1-2.238,7.7-38.413,24.993-47.59,25.641-11.31.8-7.552,35.625,1.118,34.993C-158.87,296.924-128.4,261.563-125.928,239.433Z" transform="translate(348.359 -82.516)"/><path d="M-93.412,195.411c.973.5,1.678-1.043.708-1.538S-94.381,194.917-93.412,195.411Z" transform="translate(309.602 -80.603)"/><path d="M-220.636,825.6c-.9-2.858-3.181-4.98-4.964-7.29a28.326,28.326,0,0,1-4.732-10.4,1.685,1.685,0,0,0-1.642-1.165,94.222,94.222,0,0,1-11.616-.86,1.675,1.675,0,0,0-2,1.676c-.01,1.3-.1,2.59-.2,3.882a21.408,21.408,0,0,0-1.116,5.14c-.071,2.918,1.551,4.676,3.7,6.43,4.782,3.911,10.18,5.96,15.989,7.8,1.659.526,3.826,1.167,5.433.132C-220.013,829.8-220.067,827.4-220.636,825.6Z" transform="translate(365.34 -303.531)"/><path d="M-135.8,746.5c1.053-2.806.572-5.882.594-8.8a28.336,28.336,0,0,1,2.7-11.1,1.685,1.685,0,0,0-.573-1.93,94.3,94.3,0,0,1-8.608-7.847,1.675,1.675,0,0,0-2.609.083c-.809,1.015-1.679,1.975-2.556,2.929a21.429,21.429,0,0,0-4.051,3.355c-1.856,2.251-1.666,4.635-1.062,7.34,1.348,6.029,4.329,10.972,7.761,16.01.98,1.439,2.289,3.28,4.192,3.457C-137.907,750.192-136.465,748.267-135.8,746.5Z" transform="translate(330.914 -270.89)"/><path class="s" d="M-231.9,687.576c19.945-98.059,25.613-183.069,32.674-197.394s-9.288-30.913-19.537-32.8c-22.361-4.114-40.973,19.03-41.08,37.626-.355,61.7,3.513,185.591,6.807,189.683S-232.363,689.866-231.9,687.576Z" transform="translate(370.056 -176.437)"/><path class="s" d="M-77.864,548.681c3.191-35.988-61.522-90.93-61.522-90.93-31.535,34.782-38.5,44.169-38.5,44.169s61.259,51.1,54.951,61.469c-5.139,8.45-36.049,57.354-35.472,59.317s16.681,13.657,18.084,13.683S-81.282,587.23-77.864,548.681Z" transform="translate(340.2 -176.746)"/><path d="M-286.063,322.515c-11.218,6.468-1.968,69.018,1.626,81,.723,2.412,12.119,47.676,12.507,47.961,37.282,27.394,103.822-19.175,106.538-36.261.681-4.281-14.481-47.233-15.726-51.109-1.836-5.713-17.45-44.6-45.327-62.333,0,0-15.2,1.209-22.186,3.124C-265.7,309.58-274.844,316.047-286.063,322.515Z" transform="translate(381.558 -119.938)"/><path class="s" d="M-214.169,318.141c-.54-.877-7.153-2.391-7.153-2.391s6.865-3.637,6.6-4.487c-1.474-4.792-5.622-9.71-5.622-9.71s-14.992-3.133-22.042-.7-18.439,11.37-18.435,12.8c.007,3.519,1.444,15.671,2.459,15.78s6.47-2.01,6.47-2.01-4.157,5.683-4.057,6.615,9.026,9.729,11.093,11.788c4.128,4.111,26.241,23.457,27.6,22.272s3.513-27.477,3.561-34.02C-213.668,330.9-213.628,319.018-214.169,318.141Z" transform="translate(370.405 -119.265)"/><path class="t" d="M-213.683,367.867c1.5,0-3.154-25.8-3.663-30-1.026-8.474-2.822-16.805-4.634-25.162a50.6,50.6,0,0,0-3.262-8.656,57.46,57.46,0,0,0-7.936,1.682,99,99,0,0,0-15.83,5.671c-.115,1.712,2.117,9.693,2.9,11.927,1.781,5.1,4.781,9.618,7.781,13.943a155.252,155.252,0,0,0,9.5,12.391C-225.729,353.3-215.188,367.867-213.683,367.867Z" transform="translate(366.105 -120.764)"/><path class="u" d="M-207.706,360.172c-1.139-3.932-3.941-7.464-5.835-11.062-2.139-4.066-4.162-8.192-6.278-12.27-1.8-3.471-4.171-7.017-5.687-10.668a30.341,30.341,0,0,0,1.647-3.557c.315-.781.893-1.77.56-2.636-.873-2.264-4.63-1.507-6.269-.831-1.261.521-4.54,1.786-4.147,3.64a1.439,1.439,0,0,0,.2.492.845.845,0,0,0,.619.792c1.832.551,3.139,2.092,4.762,3.071.263,3.08,1.479,6.295,2.272,9.211,1.13,4.158,2.179,8.315,2.977,12.552.736,3.906.991,8.073,2.084,11.892a13.319,13.319,0,0,0,4.948,6.6.869.869,0,0,0,.408.174,40.813,40.813,0,0,0,6.891,5.821c.581.395,1.2-.231,1.234-.787C-207.089,368.576-206.565,364.115-207.706,360.172Z" transform="translate(360.545 -126.014)"/><g transform="translate(198.521 56.407)"><path class="l" d="M-105.6,104.794c.6,1.09,4.286,17.42,2.736,24.535s-10.012,20.584-11.317,21.65-6.1-24.5-6-25.03S-106.2,103.7-105.6,104.794Z" transform="translate(120.662 -104.587)"/><path d="M-106.577,104.76c-5,6.776-9.963,13.538-14.263,20.778a.7.7,0,0,0-.087.472c1.422,8.3,3.624,16.451,5.865,24.567.2.731.934.374.734-.351q-3.305-11.978-5.409-24.241,6.35-10.68,13.732-20.7C-105.559,104.684-106.127,104.15-106.577,104.76Z" transform="translate(120.937 -104.491)"/><path d="M-92.41,123.371a60.077,60.077,0,0,0-12.146.918,25.025,25.025,0,0,0-4.314,10.1,25.03,25.03,0,0,0,.411,10.972,60.077,60.077,0,0,0,11.011,5.207.7.7,0,0,0,.755-.287c1.966-4.275,4.868-8.12,7.769-11.936a.47.47,0,0,0,.1-.243.47.47,0,0,0-.008-.264c-1.343-4.6-2.674-9.231-2.98-13.927A.7.7,0,0,0-92.41,123.371Z" transform="translate(116.696 -111.35)"/><path class="m" d="M-76.265,114.918c-2.57.676-7.954,2.253-7.962,2.8s2.344,1.337,3.1,1.651a47.143,47.143,0,0,0,4.637,1.647.2.2,0,0,0,.121-.383c-1.27-.381-2.525-.806-3.759-1.292q-.376-.149-.748-.3c1.652.507,3.317.976,5,1.394.251.062.373-.321.121-.384l-.106-.027a.211.211,0,0,0-.179-.256,15.981,15.981,0,0,1-2.137-.415l1.453.2a.169.169,0,0,0,.2-.189l.611.073a.177.177,0,0,0,.195-.223c.063,0,.126,0,.189.005a.2.2,0,0,0,.015-.4c-.97-.01-1.934-.069-2.893-.165l2.869.1a.2.2,0,0,0,.179-.293l.172-.005c.257-.011.274-.413.015-.4q-.775.032-1.55.042a.22.22,0,0,0,0-.109l.572.026a.181.181,0,0,0,.186-.118c.164-.006.328-.01.492-.017.257-.011.274-.413.015-.4-.294.013-.588.021-.882.031.411-.029.823-.057,1.234-.093.255-.022.273-.425.015-.4q-1.758.154-3.518.222,1.788-.168,3.579-.31c.255-.02.273-.423.015-.4q-2.962.235-5.917.54a19.813,19.813,0,0,1,4.753-.53.2.2,0,0,0,.015-.4c-.432,0-.862.009-1.291.032q.884-.123,1.777-.2c.255-.02.273-.423.015-.4-.85.069-1.693.175-2.53.308q1.015-.285,2.035-.554A.2.2,0,0,0-76.265,114.918Z" transform="translate(107.567 -108.286)"/><path class="n" d="M-92.586,117.829a12.273,12.273,0,0,0-2.518.738l-9.892-.149c-1.93-.029-4.144-.238-5.295-.133-.868.08-1.92,3.6-1.92,3.6l2.022-2.915c1.848.024,4.676.092,6.524.12,2.852.043,8.57.091,8.57.091a23.865,23.865,0,0,0,2.416.781C-92.448,119.943-92.365,117.959-92.586,117.829Z" transform="translate(117.759 -109.344)"/></g><path class="q" d="M-104.827,175.3a24.652,24.652,0,0,0,5.974.922c.207-1.653.5-3.3.734-4.95.28-2.008.141-3.312-1.382-4.243a1.648,1.648,0,0,0-.461-1.1,2.28,2.28,0,0,0-.918-.485c-.469-.7-1.5-.942-2.245-1.269a35.4,35.4,0,0,0-4.016-1.63c-1.1-.324-1.71.011-2.07.682l-.015-.02C-110.551,167.784-109.085,173.17-104.827,175.3Z" transform="translate(315.364 -69.183)"/><path class="r" d="M-105.18,173.288l.309.015a1.811,1.811,0,0,0,1.419-.33c1.113-1.1-.652-2.078-1.511-2.333-.273-.081-.346.357-.075.437a1.707,1.707,0,0,1,1.228.8.652.652,0,0,1-.461.983,5.542,5.542,0,0,1-.889-.025,7.6,7.6,0,0,1-1.085-.148c-1.353-.3-1.452-1.534-1.349-2.7a2.734,2.734,0,0,1,.942-1.877,3.9,3.9,0,0,1,1.644-.354,21.815,21.815,0,0,1,2.52-.138c.285,0,.244-.445-.04-.442a16.952,16.952,0,0,0-3.473.3c-.652.144-1.371.278-1.7.928a5.891,5.891,0,0,0-.394,2.944,4.367,4.367,0,0,1-1-4.431c.628-1.476,3.362-1.116,4.667-.966.282.033.359-.4.074-.437-1.337-.155-3.607-.476-4.73.544a15.661,15.661,0,0,0,.12-1.82c.006-.194-.194-.233-.327-.151-.046.175-.091.351-.129.528a8.715,8.715,0,0,1-.231,1.672,11.559,11.559,0,0,0,.533,4.461,3.313,3.313,0,0,0,1.165,1.24l.008,0a1.5,1.5,0,0,0,.493.736,3.624,3.624,0,0,0,1.736.516,7.6,7.6,0,0,0-.863,1.444c.113.1.231.193.35.287A7.206,7.206,0,0,1-105.18,173.288Z" transform="translate(315.359 -69.777)"/><path class="s" d="M-210.422,353.158l-1.169.458c.048.373.1.746.148,1.12.509,4.208,5.168,30,3.663,30s-12.046-14.57-15.15-18.207c-1.439-1.686-2.822-3.4-4.175-5.147-1.969,1.423-3.85,2.975-5.7,4.567,6.683,6.182,24.537,21.581,25.756,20.519,1.361-1.186,3.513-27.477,3.561-34.02,0-.5.008-1.22.01-2.078C-205.877,351.139-208.223,352.3-210.422,353.158Z" transform="translate(360.202 -137.638)"/><path class="j" d="M-225.391,302.457c-.75-2.225-11.812-3.2-13.472-3.2s-11.328,7.71-10.506,10.49a43.483,43.483,0,0,0,1.926,4.465,48.056,48.056,0,0,0,6.533,8.669c.83.9,5.55-6.285,6.68-9.194,2.214,1.52,8.792,4.973,9.207,4.025C-223.4,314.014-224.436,306.3-225.391,302.457Z" transform="translate(366.253 -119.022)"/><rect class="a" width="381.865" height="285.583" transform="translate(0 0)"/><path class="v" d="M-236.83,246.467a1.1,1.1,0,0,0-1.277-.017,2.141,2.141,0,0,0-1.829.844c-1.653,1.724-.8,3.443.135,4.746,1.408,1.966,3.135,4.138,5.515,5.274A1.388,1.388,0,0,0-232.478,256C-233.146,252.589-234.1,248.8-236.83,246.467Z" transform="translate(363.14 -99.716)"/><path class="o" d="M-236.975,279.64a.614.614,0,0,0-.791-.35c-3.859,1.247-17.59,3.245-17.59,3.245s5.976,16.65,7.315,20.285c.8,2.179,10.582,2.083,11.2,1.569s7.274-5.963,6.823-7.044C-230.719,295.669-236.813,279.723-236.975,279.64Z" transform="translate(368.415 -111.734)"/><path class="o" d="M-261.371,265.674c-1.23-3.37-1.5-7.069-.112-10.156,2.485-5.514,9.991-8.581,15.405-5.432a11.637,11.637,0,0,1,4.883,6.355,2.636,2.636,0,0,1,1.4-.315c3.208.125,3,4.822.1,5.219,1.225,1.941,2.8,6.493,1.747,9.814-2.338,7.359-12.514,8.877-16.878,4.805-.8-.742-3.49-4.763-4.17-5.727a2.566,2.566,0,0,1-1.7.507C-263.659,270.629-263.694,266.574-261.371,265.674Z" transform="translate(371.208 -100.65)"/><path d="M-247.921,268.908c1.3.051,1.14,2.068-.16,2.017S-249.222,268.858-247.921,268.908Z" transform="translate(366.093 -107.966)"/><path d="M-234.77,262.611c1.286.05,1.124,2.039-.158,1.989S-236.052,262.561-234.77,262.611Z" transform="translate(361.298 -105.673)"/><path class="w" d="M-252.251,267.964c0,.175.188.209.242.054.465-1.312,1.568-1.551,2.694-2.068.658-.3.98-.777.507-1.418a.227.227,0,0,0-.135-.088.214.214,0,0,0-.2-.008C-249.934,264.8-252.235,265.987-252.251,267.964Z" transform="translate(367.284 -106.33)"/><path d="M-240.785,264.4c1.185,1.406,2.243,2.9,3.441,4.3.671.781.713,1.5-.338,1.894-.252.1-.434-.286-.179-.383,1.333-.5-.728-2.2-1.141-2.724-.722-.923-1.349-1.911-2.105-2.808A.212.212,0,0,1-240.785,264.4Z" transform="translate(363.244 -106.297)"/><path class="j" d="M-232.865,274.686c-.816.875-4.183,2.342-4.656,2.5-.573.187-3.074.924-3.81,1.08a2.924,2.924,0,0,0-1.035.291.251.251,0,0,0,.17.449.253.253,0,0,0,.055.031c1.757.555,4.171,1.737,5.907.945,1.658-.756,3.155-3.352,3.793-5.029A.253.253,0,0,0-232.865,274.686Z" transform="translate(363.722 -110.039)"/><path class="v" d="M-250.74,235.021a6.332,6.332,0,0,0-1.3.541,4.747,4.747,0,0,0-.989-.278,8.1,8.1,0,0,0-5.337,1.469,5.931,5.931,0,0,0-2.692,5.547,8.8,8.8,0,0,0-3.091,1.886,3.511,3.511,0,0,0-.989,3.766,4.689,4.689,0,0,0-2.826,4,8.345,8.345,0,0,0,1.234,4.343,22,22,0,0,0,2.572,4.374,1.221,1.221,0,0,0,2.026-.567,15.107,15.107,0,0,0,.093-5.952,9.7,9.7,0,0,0,6.293-4.527c3.229-.124,6.345-1.736,7.385-4.438a7.209,7.209,0,0,0,2.492-1.081,4.618,4.618,0,0,0,1.088-6.182C-245.972,235.913-248.367,234.412-250.74,235.021Z" transform="translate(373.012 -95.575)"/><path class="w" d="M-239.834,259.506a.2.2,0,0,0-.117.153.22.22,0,0,0-.018.153c.181.737.725.792,1.348.494,1.066-.509,1.916-1.17,3.16-.71.146.054.237-.1.108-.21C-236.811,258.19-239.083,259.151-239.834,259.506Z" transform="translate(362.813 -104.287)"/></g></g></g></svg>