<svg xmlns="http://www.w3.org/2000/svg" width="60.464" height="49.209" viewBox="0 0 60.464 49.209">
  <g id="그룹_1187" data-name="그룹 1187" transform="translate(-446.536 -533.661)">
    <path id="패스_1371" data-name="패스 1371" d="M500.035,570.017c0-4.078-4.656-12.89-11-14.688a.948.948,0,0,1-.089-1.785,9.844,9.844,0,1,0-10.88-15.977" fill="none" stroke="#333" stroke-linecap="round" stroke-width="2"/>
    <path id="패스_1372" data-name="패스 1372" d="M447.536,570.017c0-4.078,4.656-12.89,11-14.688a.948.948,0,0,0,.089-1.785,9.88,9.88,0,0,1,3.966-18.883,9.674,9.674,0,0,1,6.913,2.907" fill="none" stroke="#333" stroke-linecap="round" stroke-width="2"/>
    <path id="패스_1373" data-name="패스 1373" d="M489.857,573.231c0-4.078-4.723-12.89-11.155-14.688a.944.944,0,0,1-.09-1.785,9.766,9.766,0,0,0,5.9-8.958,9.918,9.918,0,1,0-14.172,8.958c1,.478.971,1.554.1,1.785-6.412,1.811-11.117,10.746-11.117,14.688" fill="none" stroke="#0e935d" stroke-linecap="round" stroke-width="2"/>
    <g id="그룹_1188" data-name="그룹 1188">
      <circle id="타원_50" data-name="타원 50" cx="9.64" cy="9.64" r="9.64" transform="translate(487.72 563.59)" fill="#333"/>
      <g id="그룹_1186" data-name="그룹 1186">
        <g id="그룹_1185" data-name="그룹 1185">
          <path id="패스_1374" data-name="패스 1374" d="M500.928,575.675a1.734,1.734,0,0,0-1.17.456l-4.241-2.458a1.624,1.624,0,0,0,0-.828l4.2-2.435a1.769,1.769,0,1,0-.571-1.3,1.727,1.727,0,0,0,.054.414l-4.2,2.435a1.775,1.775,0,1,0,0,2.591l4.241,2.458a1.681,1.681,0,0,0-.048.388,1.735,1.735,0,1,0,1.735-1.725Z" fill="#fff"/>
        </g>
      </g>
    </g>
  </g>
</svg>
