<svg xmlns="http://www.w3.org/2000/svg" width="59" height="44.552" viewBox="0 0 59 44.552">
  <g id="그룹_1139" data-name="그룹 1139" transform="translate(-150 -609.448)">
    <g id="패스_1344" data-name="패스 1344" fill="#0e935d">
      <path d="M 196.9169158935547 633.1663208007812 C 196.9167938232422 633.1663208007812 196.9166870117188 633.1663208007812 196.9165649414062 633.1663208007812 C 194.60791015625 633.166259765625 192.3888854980469 632.45458984375 190.4993743896484 631.1082763671875 L 189.1128234863281 632.4608764648438 L 189.7393951416016 630.9526977539062 L 184.9102935791016 631.8766479492188 L 187.0951690673828 628.2483520507812 L 187.3870544433594 627.7636108398438 L 187.1218719482422 627.2637939453125 C 186.0928649902344 625.3242797851562 185.6675262451172 623.1341552734375 185.8918609619141 620.9302368164062 C 186.1473541259766 618.4208984375 187.2898864746094 616.0420532226562 189.1089630126953 614.23193359375 C 190.9284820556641 612.42138671875 193.3123626708984 611.2921752929688 195.8214569091797 611.0523681640625 C 196.1856231689453 611.0175170898438 196.5539398193359 610.9998779296875 196.9162139892578 610.9998779296875 C 198.5073547363281 610.9998779296875 200.0428314208984 611.3296508789062 201.4799499511719 611.97998046875 C 202.869140625 612.608642578125 204.0955505371094 613.50244140625 205.1250915527344 614.6365966796875 C 206.1519470214844 615.7677612304688 206.9209594726562 617.0704956054688 207.4107513427734 618.5084838867188 C 207.9217834472656 620.0087890625 208.1018524169922 621.585205078125 207.9459533691406 623.1937866210938 C 207.6996154785156 625.732666015625 206.5450744628906 628.1358032226562 204.6950073242188 629.96044921875 C 202.8457489013672 631.7843017578125 200.4258728027344 632.908203125 197.8811645507812 633.1251220703125 C 197.5603942871094 633.1524658203125 197.2359466552734 633.1663208007812 196.9169158935547 633.1663208007812 Z" stroke="none"/>
      <path d="M 196.9161529541016 611.9998779296875 L 196.9161987304688 611.9998779296875 C 196.5854187011719 611.9998779296875 196.2491455078125 612.0159912109375 195.9166259765625 612.0478515625 C 193.6373596191406 612.2657470703125 191.4701538085938 613.2931518554688 189.8143157958984 614.9407958984375 C 188.1585693359375 616.58837890625 187.1188812255859 618.75146484375 186.8867340087891 621.031494140625 C 186.6824645996094 623.0379028320312 187.0692596435547 625.0309448242188 188.0052490234375 626.7951049804688 L 188.5356292724609 627.7947998046875 L 188.2463684082031 628.2750854492188 L 191.0796813964844 630.2938842773438 C 192.798828125 631.5188598632812 194.8171997070312 632.1663208007812 196.9165649414062 632.1663208007812 C 197.2073669433594 632.1663208007812 197.50341796875 632.1536865234375 197.7962036132812 632.1287231445312 C 200.1087799072266 631.931640625 202.3094635009766 630.9087524414062 203.9928283691406 629.2484741210938 C 205.6764068603516 627.5880126953125 206.7268829345703 625.4033813476562 206.9506225585938 623.0972900390625 C 207.2307891845703 620.206298828125 206.3195648193359 617.4403686523438 204.3848419189453 615.3089599609375 C 203.4477233886719 614.276611328125 202.3316802978516 613.463134765625 201.0677795410156 612.8911743164062 C 199.760986328125 612.2998046875 198.3641967773438 611.9999389648438 196.9161529541016 611.9998779296875 M 196.9161987304688 609.9998779296875 C 203.987060546875 610.0001220703125 209.6405792236328 616.07470703125 208.9413146972656 623.2902221679688 C 208.3849945068359 629.0236206054688 203.7050933837891 633.63232421875 197.9660949707031 634.1215209960938 C 194.9527130126953 634.37841796875 192.1566619873047 633.5170288085938 189.9190979003906 631.9227294921875 L 189.9273071289062 631.9348754882812 L 184.4289855957031 632.9868774414062 C 183.8378601074219 633.1004028320312 183.3911895751953 632.46044921875 183.7019958496094 631.9447021484375 L 186.238525390625 627.7324829101562 C 185.1627349853516 625.7047729492188 184.6416778564453 623.3372192382812 184.8969879150391 620.8289794921875 C 185.4734191894531 615.1679077148438 190.0617828369141 610.598388671875 195.7263031005859 610.056884765625 C 196.1268768310547 610.0185546875 196.5235137939453 609.9998779296875 196.9161987304688 609.9998779296875 Z" stroke="none" fill="#333"/>
    </g>
    <circle id="패스_1345" data-name="패스 1345" cx="1.38" cy="1.38" r="1.38" transform="translate(195.64 620.82)" fill="#fff"/>
    <circle id="패스_1346" data-name="패스 1346" cx="1.38" cy="1.38" r="1.38" transform="translate(199.81 620.82)" fill="#fff"/>
    <circle id="패스_1347" data-name="패스 1347" cx="1.38" cy="1.38" r="1.38" transform="translate(191.49 620.82)" fill="#fff"/>
    <path id="패스_1348" data-name="패스 1348" d="M188.125,653c0-4.909-5.742-15.513-13.561-17.677a1.132,1.132,0,0,1-.11-2.147,11.755,11.755,0,0,0,7.168-10.782,12.059,12.059,0,1,0-17.23,10.782c1.222.574,1.181,1.869.126,2.147C156.72,637.5,151,648.255,151,653" fill="none" stroke="#333" stroke-linecap="round" stroke-width="2"/>
    <line id="선_59" data-name="선 59" x2="2.47" y2="1.43" transform="translate(164.55 635.32)" fill="none" stroke="#333" stroke-linecap="round" stroke-width="2"/>
    <line id="선_60" data-name="선 60" y1="1.44" x2="2.43" transform="translate(172.19 635.32)" fill="none" stroke="#333" stroke-linecap="round" stroke-width="2"/>
    <g id="그룹_1138" data-name="그룹 1138">
      <path id="패스_1349" data-name="패스 1349" d="M171.3,640.274a4.533,4.533,0,0,0-3.387-.01l-1.39,10.4,3.2,2.333,2.972-2.326Z" fill="#0e935d"/>
      <path id="패스_1350" data-name="패스 1350" d="M171.3,641.081l.88-4.414a5.4,5.4,0,0,0-5.151-.006l.883,4.409" fill="#0e935d"/>
    </g>
  </g>
</svg>
