<svg xmlns="http://www.w3.org/2000/svg" width="44" height="43" viewBox="0 0 44 43">
  <g id="그룹_1140" data-name="그룹 1140" transform="translate(-81 -408)">
    <path id="Icon_map-volume-control-telephone" data-name="Icon map-volume-control-telephone" d="M116.695,416.3a20.388,20.388,0,0,0-14-5.994l.052-2.3A22.812,22.812,0,0,1,125,430.3l-2.312.046A20.354,20.354,0,0,0,116.695,416.3Zm-4.132,3.8a14.831,14.831,0,0,0-10.07-4.35l.105-2.308A17.157,17.157,0,0,1,119.21,430.11l-2.3.1A14.794,14.794,0,0,0,112.563,420.1Zm-4.131,3.788a9.228,9.228,0,0,0-6.148-2.7l.157-2.294a11.543,11.543,0,0,1,10.99,11.007l-2.3.167A9.184,9.184,0,0,0,108.432,423.889Zm-4.133,3.8a3.62,3.62,0,0,0-2.229-1.053l.221-2.3a5.978,5.978,0,0,1,5.359,5.358l-2.3.222A3.618,3.618,0,0,0,104.3,427.693Zm-2.229-1.053h0Z" fill="#0e935d"/>
    <path id="Icon_metro-phone" data-name="Icon metro-phone" d="M104.106,438.4c-2.1,2.1-2.1,4.2-4.2,4.2s-4.2-2.1-6.3-4.2-4.2-4.2-4.2-6.3,2.1-2.1,4.2-4.2-4.2-8.4-6.3-8.4-6.3,6.3-6.3,6.3c0,4.2,4.316,12.718,8.4,16.8s12.6,8.4,16.8,8.4c0,0,6.3-4.2,6.3-6.3s-6.3-8.4-8.4-6.3Z" fill="#333"/>
  </g>
</svg>
