<svg xmlns="http://www.w3.org/2000/svg" width="49.414" height="72.984" viewBox="0 0 49.414 72.984">
  <g id="_3" data-name="3" transform="translate(-1418.998 -865.016)">
    <path id="Shape_1" data-name="Shape 1" d="M1430,936v-4s-10.144-12.779-10-19,4.189-14.445,8-15,17,0,17,0,1.189,9.555-13,9c0,0,9.856,4.221,11,15" fill="none" stroke="#333" stroke-linecap="round" stroke-linejoin="round" stroke-width="2"/>
    <path id="Shape_2" data-name="Shape 2" d="M1428.972,897.468l-3.192-25.8s-1.088-4.9,4.348-5.576,5.576,4.348,5.576,4.348l3.192,25.8" fill="none" stroke="#333" stroke-linecap="round" stroke-linejoin="round" stroke-width="2"/>
    <path id="Shape_2_copy" data-name="Shape 2 copy" d="M1449.021,897.485l3.489-25.765s1.144-4.891-4.284-5.626-5.626,4.284-5.626,4.284l-3.489,25.765" fill="none" stroke="#333" stroke-linecap="round" stroke-linejoin="round" stroke-width="2"/>
    <path id="Shape_2_copy_2" data-name="Shape 2 copy 2" d="M1457.468,901.9l9.444-24.224s2.261-4.485-2.842-6.475-6.475,2.842-6.475,2.842l-9.444,24.224" fill="none" stroke="#333" stroke-linecap="round" stroke-linejoin="round" stroke-width="2"/>
    <path id="Rectangle_638_copy" data-name="Rectangle 638 copy" d="M1463.563,901.434a4.373,4.373,0,0,1,.979,6.107l-7.18,9.92a4.373,4.373,0,0,1-7.086-5.128l7.18-9.92A4.374,4.374,0,0,1,1463.563,901.434Z" fill="none" stroke="#333" stroke-linecap="round" stroke-linejoin="round" stroke-width="2"/>
    <path id="Shape_3" data-name="Shape 3" d="M1463,910s1.746,10.072-2,14-5,6.071-5,8v5" fill="none" stroke="#333" stroke-linecap="round" stroke-linejoin="round" stroke-width="2"/>
  </g>
</svg>
