<svg xmlns="http://www.w3.org/2000/svg" width="47.382" height="72.977" viewBox="0 0 47.382 72.977">
  <g id="_2" data-name="2" transform="translate(-1059.998 -865.023)">
    <path id="Shape_1" data-name="Shape 1" d="M1071,936v-4s-10.144-12.779-10-19,4.189-14.445,8-15,17,0,17,0,1.189,9.555-13,9c0,0,9.856,4.221,11,15" fill="none" stroke="#333" stroke-linecap="round" stroke-linejoin="round" stroke-width="2"/>
    <path id="Shape_2" data-name="Shape 2" d="M1069.972,897.468l-3.192-25.8s-1.088-4.9,4.348-5.576,5.576,4.348,5.576,4.348l3.192,25.8" fill="none" stroke="#333" stroke-linecap="round" stroke-linejoin="round" stroke-width="2"/>
    <path id="Shape_2_copy" data-name="Shape 2 copy" d="M1089.692,897.751l6.247-25.238s1.665-4.739-3.652-6.055-6.055,3.652-6.055,3.652l-6.247,25.238" fill="none" stroke="#333" stroke-linecap="round" stroke-linejoin="round" stroke-width="2"/>
    <path id="Rectangle_638" data-name="Rectangle 638" d="M1097.563,895.434a4.373,4.373,0,0,1,.979,6.107l-7.18,9.92a4.373,4.373,0,0,1-7.086-5.128l7.18-9.92A4.373,4.373,0,0,1,1097.563,895.434Z" fill="none" stroke="#333" stroke-linecap="round" stroke-linejoin="round" stroke-width="2"/>
    <path id="Rectangle_638_copy" data-name="Rectangle 638 copy" d="M1104.563,901.434a4.373,4.373,0,0,1,.978,6.107l-7.18,9.92a4.373,4.373,0,0,1-7.086-5.128l7.18-9.92A4.374,4.374,0,0,1,1104.563,901.434Z" fill="none" stroke="#333" stroke-linecap="round" stroke-linejoin="round" stroke-width="2"/>
    <path id="Shape_3" data-name="Shape 3" d="M1104,910s1.746,10.072-2,14-5,6.071-5,8v5" fill="none" stroke="#333" stroke-linecap="round" stroke-linejoin="round" stroke-width="2"/>
  </g>
</svg>
