<svg xmlns="http://www.w3.org/2000/svg" width="120" height="120" viewBox="0 0 120 120"><defs><style>.a{fill:$greenColor;}.b,.d{fill:#fff;}.b{font-size:20px;font-family:AppleSDGothicNeoH00;}.c{fill:#fefea0;font-size:24px;font-family:GmarketSansTTFBold, Gmarket Sans TTF;letter-spacing:-0.02em;}</style></defs><g transform="translate(-1480 -391)"><rect class="a" width="120" height="120" transform="translate(1480 391)"/><text class="b" transform="translate(1540 432)"><tspan x="-33.73" y="0">SMART</tspan></text><text class="c" transform="translate(1540 457)"><tspan x="-45.456" y="0">수강신청</tspan></text><path class="d" d="M20.629,11.5a.869.869,0,0,0-.007,1.246l4.224,4.123H-1.229a.888.888,0,0,0-.9.88.888.888,0,0,0,.9.88H24.839l-4.224,4.123A.875.875,0,0,0,20.622,24a.916.916,0,0,0,1.271-.007l5.724-5.619h0a.987.987,0,0,0,.188-.278.822.822,0,0,0,.069-.339.871.871,0,0,0-.257-.616l-5.724-5.619A.9.9,0,0,0,20.629,11.5Z" transform="translate(1527.125 463.748)"/></g></svg>