<svg xmlns="http://www.w3.org/2000/svg" width="60" height="51.201" viewBox="0 0 60 51.201">
  <g id="그룹_1192" data-name="그룹 1192" transform="translate(-1003 -531.099)">
    <g id="타원_51" data-name="타원 51" transform="translate(1040.2 559.5)" fill="none" stroke="#333" stroke-width="2">
      <circle cx="11.4" cy="11.4" r="11.4" stroke="none"/>
      <circle cx="11.4" cy="11.4" r="10.4" fill="none"/>
    </g>
    <path id="패스_1375" data-name="패스 1375" d="M1020.933,580.777h-14.424a3.514,3.514,0,0,1-3.509-3.511V567.013a3.514,3.514,0,0,1,3.509-3.51h8.923a16.212,16.212,0,0,1,14.62-23.2,16.066,16.066,0,0,1,9.683,3.211,16.34,16.34,0,0,1,5.783,8.149,1.028,1.028,0,1,1-1.962.614,14.278,14.278,0,0,0-5.051-7.115A14.153,14.153,0,0,0,1017.75,563.5h3.159a3.557,3.557,0,0,1,3.508,3.511v2.5a16.8,16.8,0,0,0,5.634,1.146,14.016,14.016,0,0,0,8.5-2.838,14.266,14.266,0,0,0,5.04-7.189,1.028,1.028,0,0,1,1.967.6,16.342,16.342,0,0,1-5.771,8.234,16.052,16.052,0,0,1-9.734,3.251,18.327,18.327,0,0,1-5.633-1.014l-.032,6.037A3.551,3.551,0,0,1,1020.933,580.777Zm-14.424-15.218a1.455,1.455,0,0,0-1.453,1.453v10.254a1.455,1.455,0,0,0,1.453,1.453h14.4a1.455,1.455,0,0,0,1.453-1.453V567.013a1.473,1.473,0,0,0-1.453-1.453Z" fill="#333"/>
    <path id="패스_1376" data-name="패스 1376" d="M1046.177,556.266a1.2,1.2,0,1,0-.692,1.331,1.214,1.214,0,0,0,.692-1.331Z" fill="#333"/>
    <path id="패스_1377" data-name="패스 1377" d="M1016.219,571.055l-3.048-1.8a1.191,1.191,0,0,0-1.771,1.045V573.9a1.191,1.191,0,0,0,1.771,1.045l3.048-1.8a1.23,1.23,0,0,0,0-2.089Z" fill="#d1555f"/>
    <g id="그룹_1190" data-name="그룹 1190">
      <g id="그룹_1189" data-name="그룹 1189">
        <path id="패스_1378" data-name="패스 1378" d="M1033.4,559.836a1.942,1.942,0,0,0-1.31.51l-4.75-2.753a1.819,1.819,0,0,0,0-.928l4.7-2.727a1.981,1.981,0,1,0-.64-1.451,1.953,1.953,0,0,0,.06.464l-4.7,2.727a1.988,1.988,0,1,0,0,2.9l4.75,2.753a1.881,1.881,0,0,0-.053.434,1.943,1.943,0,1,0,1.944-1.931Z" fill="#0e935d"/>
      </g>
    </g>
    <g id="Group_1" data-name="Group 1">
      <g id="사각형_663" data-name="사각형 663" fill="none">
        <path d="M1036,539.026a3.927,3.927,0,0,1,3.926-3.927h12.547a3.927,3.927,0,0,1,3.927,3.927v12.547a3.927,3.927,0,0,1-3.927,3.927h-12.547a3.927,3.927,0,0,1-3.926-3.927Z" stroke="none"/>
        <path d="M 1039.926147460938 537.0993041992188 C 1038.864013671875 537.0993041992188 1037.999877929688 537.963623046875 1037.999877929688 539.0260009765625 L 1037.999877929688 551.5726928710938 C 1037.999877929688 552.6350708007812 1038.864013671875 553.4993896484375 1039.926147460938 553.4993896484375 L 1052.47314453125 553.4993896484375 C 1053.535522460938 553.4993896484375 1054.39990234375 552.6350708007812 1054.39990234375 551.5726928710938 L 1054.39990234375 539.0260009765625 C 1054.39990234375 537.963623046875 1053.535522460938 537.0993041992188 1052.47314453125 537.0993041992188 L 1039.926147460938 537.0993041992188 M 1039.926147460938 535.0993041992188 L 1052.47314453125 535.0993041992188 C 1054.641845703125 535.0993041992188 1056.39990234375 536.857421875 1056.39990234375 539.0260009765625 L 1056.39990234375 551.5726928710938 C 1056.39990234375 553.7412719726562 1054.641845703125 555.4993896484375 1052.47314453125 555.4993896484375 L 1039.926147460938 555.4993896484375 C 1037.7578125 555.4993896484375 1035.999877929688 553.7412719726562 1035.999877929688 551.5726928710938 L 1035.999877929688 539.0260009765625 C 1035.999877929688 536.857421875 1037.7578125 535.0993041992188 1039.926147460938 535.0993041992188 Z" stroke="none" fill="#333"/>
      </g>
      <path id="패스_1379" data-name="패스 1379" d="M1041.4,536.027a3.928,3.928,0,0,1,3.928-3.927h11.344a3.928,3.928,0,0,1,3.928,3.927v12.544a3.928,3.928,0,0,1-3.928,3.928h-1.788" fill="none" stroke="#333" stroke-width="2"/>
      <circle id="타원_52" data-name="타원 52" cx="1.2" cy="1.2" r="1.2" transform="translate(1040.2 539.3)" fill="#333"/>
      <circle id="타원_53" data-name="타원 53" cx="1.2" cy="1.2" r="1.2" transform="translate(1040.2 543.5)" fill="#333"/>
      <circle id="타원_54" data-name="타원 54" cx="1.2" cy="1.2" r="1.2" transform="translate(1040.2 547.7)" fill="#333"/>
      <path id="사각형_664" data-name="사각형 664" d="M1043.8,540.5a.6.6,0,0,1,.6-.6h6.6a.6.6,0,0,1,.6.6h0a.6.6,0,0,1-.6.6h-6.6a.6.6,0,0,1-.6-.6Z" fill="#333"/>
      <path id="사각형_665" data-name="사각형 665" d="M1043.8,544.7a.6.6,0,0,1,.6-.6h6.6a.6.6,0,0,1,.6.6h0a.6.6,0,0,1-.6.6h-6.6a.6.6,0,0,1-.6-.6Z" fill="#333"/>
      <path id="사각형_666" data-name="사각형 666" d="M1043.8,548.9a.6.6,0,0,1,.6-.6h6.6a.6.6,0,0,1,.6.6h0a.6.6,0,0,1-.6.6h-6.6a.6.6,0,0,1-.6-.6Z" fill="#333"/>
    </g>
    <g id="그룹_1191" data-name="그룹 1191">
      <path id="패스_1380" data-name="패스 1380" d="M1049.689,572.62l.057-.425c.307-1.264.682-2.761,1.018-4.075a.32.32,0,0,1,.278-.222h1.123a.31.31,0,0,1,.278.222l1.027,4.113a1.935,1.935,0,0,0,.038.377c.029-.145.01-.281.038-.474.153-.7.3-1.429.864-4.006a.308.308,0,0,1,.279-.232h1.42a.28.28,0,0,1,.279.358c-.643,2.693-1.248,5.146-1.892,7.82a.308.308,0,0,1-.278.222h-1.248a.311.311,0,0,1-.279-.212c-.355-1.39-.643-2.568-1.027-3.959-.01-.068-.048-.328-.078-.444l-.067.454c-.337,1.323-.691,2.617-1.027,3.939a.309.309,0,0,1-.278.222h-1.239a.31.31,0,0,1-.279-.222c-.672-2.684-1.257-5.155-1.891-7.82a.28.28,0,0,1,.279-.358h1.43a.307.307,0,0,1,.279.232l.835,3.958C1049.632,572.128,1049.689,572.515,1049.689,572.62Z" fill="#333"/>
    </g>
    <rect id="사각형_667" data-name="사각형 667" width="10.8" height="1.2" transform="translate(1046.2 569.7)" fill="#333"/>
  </g>
</svg>
