<svg xmlns="http://www.w3.org/2000/svg" width="30.5" height="30.5" viewBox="0 0 30.5 30.5"><defs><style>.a{fill:#4289be;stroke:rgba(0,0,0,0);}.b{fill:#45c4a9;}</style></defs><g transform="translate(-95.5 -464)"><path class="a" d="M-260-48.992h0a3.008,3.008,0,0,0,3.008,3.008h9.023v9.023a3.008,3.008,0,0,0,3.008,3.008h0a3.008,3.008,0,0,0,3.008-3.008V-49.878A2.122,2.122,0,0,0-244.075-52h-12.917A3.008,3.008,0,0,0-260-48.992Z" transform="translate(356 527.953)"/><path class="b" d="M-225.953-52.961h0a3.008,3.008,0,0,0-3.008-3.008h-9.023v-9.023A3.008,3.008,0,0,0-240.992-68h0A3.008,3.008,0,0,0-244-64.992v12.917a2.122,2.122,0,0,0,2.122,2.122h12.917A3.008,3.008,0,0,0-225.953-52.961Z" transform="translate(351.953 532)"/></g></svg>