<svg xmlns="http://www.w3.org/2000/svg" xmlns:xlink="http://www.w3.org/1999/xlink" width="289.252" height="304.229" viewBox="0 0 289.252 304.229"><defs><style>.a{fill:none;}.b{clip-path:url(#a);}.c{fill:#fdb186;}.d{fill:#db804a;}.e{fill:#e0e0e0;}.f{fill:#887a7b;}.g{fill:#292928;}.h{fill:#ff9054;}.i{fill:#4f4041;}.j{fill:#ffb081;}.k{fill:#6a5b5c;}.l{fill:#9c9292;}.m{fill:#e6e3e3;}.n{fill:#fff;}.o{fill:#4a1e00;}.p{fill:#ff0030;}.q{fill:#ff9d8d;}.r{fill:#fbaf84;}.s{fill:#d9804a;}.t{fill:#e8e8e8;}.u{fill:#2e3030;}.v{fill:#292929;}.w{fill:#fdae80;}.x{fill:#2d2d2d;}.y{fill:#f9b121;}.z{fill:#fcc854;}</style><clipPath id="a"><rect class="a" width="289.252" height="304.229"/></clipPath></defs><g class="b"><g transform="translate(-157.396 -125.95)"><g transform="translate(157.396 187.059)"><path class="c" d="M215.5,216.227a35.38,35.38,0,0,0-.814-3.716.539.539,0,0,0-.193-.337.56.56,0,0,0-.684-.345,2.872,2.872,0,0,0-.751.322c-.012-.76-.4-1.34-1.523-1.555a35.427,35.427,0,0,0-4.309-.4,4.914,4.914,0,0,0-2.575.094,2.279,2.279,0,0,0-1.037.009,1.64,1.64,0,0,0-.912.761c-1.777.126-2.5,1.219-3.174,3.128-.652,1.849-1.215,3.744-1.938,5.566a24.274,24.274,0,0,1-3.071,4.79c-.721.634-1.388,1.369-1.3,2.02.058.429.458.652.75.918,1.048.953,2.237,1.8,3.34,2.688a.638.638,0,0,0,.765-.068l5.843-4.317c3.652-.222,6.607-3,8.7-5.484A18.106,18.106,0,0,0,215.5,216.227Z" transform="translate(-167.193 -210.067)"/><path class="d" d="M217.757,217.62c-2.509-.362-1.5-2.973-.79-4.462.121-.255-.251-.5-.373-.238a15.575,15.575,0,0,0-.73,1.669c-.528-1.422-2.688-2.179-3.945-2.657-.267-.1-.4.322-.134.422,1.226.466,3.815,1.4,3.694,3a4.362,4.362,0,0,1-2.923,3.47,5.871,5.871,0,0,0,1-2.792c.009-.726-.567-1.174-1.078-1.6a16.952,16.952,0,0,0-2.942-1.863c-.25-.134-.49.239-.238.373a21.677,21.677,0,0,1,2.171,1.28c.4.277,1.088.632,1.3,1.069a2.733,2.733,0,0,1-.028,2.1c-.444,1.081-1.1,2.129-2.437,1.775a7.623,7.623,0,0,1-1.03-.368,5.518,5.518,0,0,1-.8-.386.651.651,0,0,1,.043-1.083,1.7,1.7,0,0,1,1.458-.148c.277.053.414-.368.134-.422-.878-.169-2.9-.109-2.41,1.374a1.8,1.8,0,0,0,1.106.944l.281.128a6.99,6.99,0,0,1-.87,5.2c-.148.244.225.482.373.239a7.445,7.445,0,0,0,.99-5.228,3.624,3.624,0,0,0,1.777.34,1.5,1.5,0,0,0,.774-.426h.009a3.437,3.437,0,0,0,1.8-.692,3.975,3.975,0,0,1,.843,2.433c0,.284.445.3.442.017a4.465,4.465,0,0,0-.939-2.721c.081-.07.159-.146.236-.221a6.43,6.43,0,0,0,1.226,1.531c.209.19.536-.108.325-.3a6.066,6.066,0,0,1-1.235-1.565,5.249,5.249,0,0,0,.859-1.356,2.325,2.325,0,0,0,2.041,1.608C218.022,218.1,218.037,217.66,217.757,217.62Z" transform="translate(-171.134 -210.573)"/><path class="e" d="M203.278,232.737c-.332-1.152-9.183-6.95-9.5-6.768-1.557.892-4.547,5.932-4.547,5.932a28.382,28.382,0,0,0,3.63,3.135c1.926,1.032,6.1,4.521,6.466,4.16C200.492,238.06,203.562,233.724,203.278,232.737Z" transform="translate(-166.103 -214.415)"/><path class="f" d="M191.134,349.929c7.4,4.543,26.727-24.613,17.065-30.517-7.839-4.79-31.977-36.738-30.423-44.6,1.595-8.064,11.2-30.525,13.815-33.446.914-1.022-9.374-10.009-11.168-9.479s-14.033,17.729-20.474,34.5C151.977,287.149,162.754,332.5,191.134,349.929Z" transform="translate(-157.396 -216.029)"/><path d="M194.861,231.3c-1.09-.007-1.009-1.7.078-1.689S195.948,231.3,194.861,231.3Z" transform="translate(-167.43 -215.412)"/><path class="g" d="M240.563,742.343c1.84,1.782,4.074.963,6.036-.134,2.378-1.33,4.748-3.129,5.628-5.823s2.034-12.933,2.034-12.933,4.311,4.878,6.729,5.93a1.781,1.781,0,0,0,2.11-2.679c-3.141-4.905-4.8-10.632-8.078-15.43-2.477-3.627-6.955-6.973-11.518-6.872a3.764,3.764,0,0,0-2.138,1.68c-1.914,6.522-1.222,13.64-1.872,20.359a91.705,91.705,0,0,0-.7,10.369C238.824,738.708,239.131,740.956,240.563,742.343Z" transform="translate(-179.658 -345.277)"/><path class="h" d="M230.03,700.394a18.1,18.1,0,0,1-1.975-6.776c-.06-4.189,3.936-6.134,7.486-6.869a2.471,2.471,0,0,1,2.363,1.127,2.722,2.722,0,0,1,.472.6c1.943,3.313,3.465,6.837,5.29,10.211a17.322,17.322,0,0,1,2.532,9.021c-.121,5.987-2.744,18.785-6.981,18.735C236.092,726.407,239.439,722.015,230.03,700.394Z" transform="translate(-176.722 -340.439)"/><path class="i" d="M211.226,647.59c1.262.342,14.833-4.188,15.781-5.924s-21.627-81.4-21.627-81.4,19.268-27.648,32.153-53.03l-50.421-8.621s-20.266,34.162-19.213,52.925C170.047,589.821,209.964,647.247,211.226,647.59Z" transform="translate(-160.258 -288.991)"/><path class="g" d="M259.779,770.894c1.549,2.04,3.882,1.568,5.986.779,2.552-.955,5.166-2.376,6.443-4.905s3.965-12.477,3.965-12.477,3.525,5.474,5.756,6.878a1.781,1.781,0,0,0,2.491-2.328c-2.365-5.324-3.141-11.236-5.654-16.474-1.9-3.959-5.822-7.944-10.347-8.533a3.757,3.757,0,0,0-2.368,1.338c-2.878,6.158-3.268,13.3-4.926,19.842a91.752,91.752,0,0,0-2.263,10.144C258.609,767.038,258.573,769.307,259.779,770.894Z" transform="translate(-185.11 -353.323)"/><path class="j" d="M257.176,728.011a18.083,18.083,0,0,1-.928-7c.573-4.15,4.817-5.469,8.437-5.66a2.471,2.471,0,0,1,2.166,1.472,2.723,2.723,0,0,1,.376.664c1.42,3.569,2.392,7.281,3.686,10.894a17.313,17.313,0,0,1,1.14,9.3c-1.024,5.9-5.551,18.155-9.731,17.465C259.238,754.641,263.211,750.805,257.176,728.011Z" transform="translate(-184.41 -348.273)"/><path class="k" d="M243.881,657.839c1.2.53,15.3-1.9,16.5-3.47s-8.755-76.663-10.029-86.437c-1.565-11.995,69.156-44.28,52.28-102.937l-56.594,7.1s-28.675,65.543-30.47,84.249C211.9,594.512,242.686,657.31,243.881,657.839Z" transform="translate(-173.223 -279.795)"/><path class="f" d="M236.521,347.035c-7.226.168-20.131,4.713-24.788,7.329-11.871,6.669-18.309,33.625-19.246,39.54-1.453,9.17-6.5,62.719-4.62,66.617,7.486,15.559,82.694,45.093,110.5,8.231.29-.384.61-35.155.612-37.667.006-12.49-7.871-63.712-19.377-69.6C265.678,354.364,254.18,346.625,236.521,347.035Z" transform="translate(-165.617 -247.526)"/><g transform="translate(46.116 93.28)"><path class="l" d="M221.375,379.41c.363,6.015,3.359,30.575,4.931,31.115,5.991,2.058,39.334-38.568,38.753-40.437s-5.622-5-5.622-5,6.6-.372,7.527-.522.783-10.94.618-14.177c-.067-1.314-9.635-7.7-16.987-7.7-6.87,0-16.4,4.053-16.4,4.053s-11.869,7.148-12.991,11.627c-.2.794,6.291,3.805,6.291,3.805s-6.009,1.715-6.463,2.547S221.2,376.489,221.375,379.41Z" transform="translate(-220.874 -339.623)"/><path class="m" d="M229.025,410.819c-1.384.073,1.645-23.879,1.908-27.774.53-7.845,3.22-28.206,9.124-33.322,3.094.267,19.44-.459,23.85,1.291.19,1.568-5.09,16.357-13.7,30.464a135.5,135.5,0,0,1-8.131,11.858C239.4,396.832,230.41,410.746,229.025,410.819Z" transform="translate(-223.005 -341.546)"/><path d="M227.858,414.133c.055.51.658,1.055,1.173.663a37.566,37.566,0,0,0,6.054-5.689.8.8,0,0,0,.367-.179,12.267,12.267,0,0,0,4.23-6.314c.819-3.566.851-7.41,1.337-11.039.527-3.935,1.29-7.81,2.127-11.689.587-2.721,1.55-5.737,1.641-8.583,1.445-.979,2.572-2.461,4.23-3.056a.778.778,0,0,0,.53-.758,1.325,1.325,0,0,0,.164-.463c.27-1.725-2.807-2.727-3.992-3.146-1.539-.543-5.032-1.056-5.725,1.069-.264.813.316,1.695.644,2.4a27.949,27.949,0,0,0,1.688,3.191c-1.216,3.432-3.224,6.809-4.711,10.089-1.747,3.853-3.406,7.746-5.176,11.59-1.566,3.4-3.972,6.786-4.827,10.458S227.454,410.435,227.858,414.133Z" transform="translate(-222.606 -345.288)"/><path class="n" d="M240.542,363.525c.853.239,5.882-3.5,7.844-5,1.181,2.62,5.871,9,6.592,8.129,2.123-2.564,11.968-15.529,12.081-18.719.073-2.031-4.695-9.468-10.426-9.468s-12.45,6.971-14.336,9.2S239.69,363.287,240.542,363.525Z" transform="translate(-226.157 -338.467)"/><path class="l" d="M241.667,406.139c-.427.575-.849,1.154-1.286,1.725-2.679,3.5-11.664,17.41-13.048,17.484-1.03.054.384-13.2,1.284-21.59-.215-.028-.429-.064-.644-.089-1.848-.219-3.688-.453-5.5-.83,1.06,9.473,3.074,23.728,4.268,24.137,3.057,1.05,13.234-9.013,22.394-19.37C246.648,407.072,244.139,406.617,241.667,406.139Z" transform="translate(-221.313 -356.074)"/></g><g transform="translate(37.816 34.634)"><path class="o" d="M263.293,286.516a11.3,11.3,0,0,0,.9-12.693c-2.449-4.23-6.376-4.6-10.617-4.687.536-9.406-10.882-11.263-17.392-5.814-2.708-4.715-9.4-7.081-14.448-4.555-4.279,2.142-6.355,7.155-6.245,11.882A11.909,11.909,0,0,0,210.5,276.4c-2.078,4.8-1.01,8.47,2.618,11.568-5.287,7.529,2.367,14.237,9.886,16.122,3.016.756,2.5,1.722,4.092,4.6a16.416,16.416,0,0,0,5.331,5.947c4.591,2.989,10.481,3.253,15.737,2.471,3.6-.536,8.6-1.013,11.275-3.8,1.859-1.935,1.623-4.076,2.343-6.438.742-2.437,0-1.433,2.3-2.843C271,299.773,270.3,289.634,263.293,286.516Z" transform="translate(-209.449 -257.74)"/><path class="j" d="M248.039,341.987c-.251,2.4.968,10.726,3.5,10.726s14.533-7.688,14.813-12.178c.24-3.859,1.673-19.96,1.673-19.96s-13.7,2.019-17.749,1.932a.612.612,0,0,0-.656.562C249.492,323.193,248.228,340.183,248.039,341.987Z" transform="translate(-219.995 -274.927)"/><path class="j" d="M268.111,306.588c.211-3.574-.586-7.189-2.8-9.742-3.954-4.562-12.009-5.346-16.284-.785a11.618,11.618,0,0,0-2.851,7.474,2.633,2.633,0,0,0-1.432.1c-3.032,1.038-1.487,5.469,1.393,5.021-.615,2.206-.819,7.01,1.139,9.883,4.341,6.368,14.506,4.907,17.513-.235.548-.938,1.974-5.553,2.349-6.67a2.551,2.551,0,0,0,1.766,0C271.716,310.671,270.589,306.785,268.111,306.588Z" transform="translate(-218.651 -267.386)"/><path d="M264.712,309.59c-1.232.422-.5,2.3.73,1.883S265.94,309.169,264.712,309.59Z" transform="translate(-224.391 -271.906)"/><path d="M252.14,307.613c-1.215.416-.491,2.271.72,1.856S253.352,307.2,252.14,307.613Z" transform="translate(-220.955 -271.365)"/><path class="p" d="M260.593,321.041c-.673.032-1.857-.8-3-.9-.643-.056-1.491.809-1.646.778-.235-.049-.487-1.114-1.117-1.265a5.435,5.435,0,0,0-2.107.213c-.285.039-.78-.039-1.075-.012-.238.022-.2.27-.066.417.979,1.1,2,4.635,3.66,4.915,1.821.307,4.342-2.758,5.56-3.762C261,321.265,260.975,321.023,260.593,321.041Z" transform="translate(-220.944 -274.66)"/><path class="o" d="M263.735,305.866a.215.215,0,0,0-.191.066.231.231,0,0,0-.1.123c-.269.748.175,1.11.891,1.21,1.225.172,2.349.086,3.168,1.207.1.132.268.045.216-.121C267.135,306.465,264.6,305.99,263.735,305.866Z" transform="translate(-224.195 -270.903)"/><path class="o" d="M250.413,305.1c-.092.138.04.264.164.171,1.058-.8,2.06-.407,3.224-.225.681.106,1.186-.1,1.148-.858a.22.22,0,0,0-.062-.14.2.2,0,0,0-.155-.113C253.912,303.812,251.465,303.544,250.413,305.1Z" transform="translate(-220.645 -270.349)"/><g transform="translate(28.061 38.343)"><path class="q" d="M266.574,312.991a3.385,3.385,0,0,0-2.262-.513c-1.515-.028-3.706.151-4.259,1.864a1.758,1.758,0,0,0,.358,1.79,2.7,2.7,0,0,0,.319.479c1.667,1.955,6.782,1.361,6.642-1.769A2.816,2.816,0,0,0,266.574,312.991Z" transform="translate(-251.323 -311.055)"/><path class="q" d="M253.595,312.183c-.3-.939-1.395-1.316-2.264-1.5a2.939,2.939,0,0,0-2.766.386,2.329,2.329,0,0,0-.2,2.581,3.206,3.206,0,0,0,1.813,1.956,2.46,2.46,0,0,0,2.574-.681,2.7,2.7,0,0,0,.488-.867A2.2,2.2,0,0,0,253.595,312.183Z" transform="translate(-248.075 -310.519)"/></g><path d="M257.335,307.516c-.731,1.684-1.315,3.414-2.061,5.091-.418.94-.254,1.635.865,1.715.27.02.334-.4.062-.418-1.418-.1.068-2.307.312-2.931.426-1.089.744-2.214,1.21-3.287A.211.211,0,0,0,257.335,307.516Z" transform="translate(-221.926 -271.322)"/><path class="o" d="M270.778,295.555c-1.472-3.117-4.695-4.819-7.918-5.6a1.189,1.189,0,0,0-.245-.032c-.01-.015-.025-.026-.038-.041a.841.841,0,0,0-.7-.546,20.313,20.313,0,0,0-9.375.326c-3.633.985-5.64,2.926-8.142,5.652-.006.006-.006.012-.011.018-.081-.01,2.17,7.087,2.17,7.087a21.462,21.462,0,0,0,2.2-4.791,19.186,19.186,0,0,0,12.028-4.644,8.524,8.524,0,0,0,1.943,3.54,8.2,8.2,0,0,0,2.88,2.109c-.06.987.137,1.972.121,2.855-.064,3.542,2.765,3.985,2.765,3.985s1.706-.071,1.857-.1a.951.951,0,0,0,.872-.753A13.522,13.522,0,0,0,270.778,295.555Z" transform="translate(-218.995 -266.277)"/></g><path class="j" d="M338.933,550.991c.145-.934.113-7.005-.235-6.993s-2.533,6.774-3.095,8.508c-.515,1.585-2.47,1.052-2.04-.748.425-1.78,2.492-8.907,1.968-8.949s-4.661,7.526-5.717,9.172c-.968,1.509-2.477.134-1.715-1.253.415-.756,4.485-9.244,4.062-9.429s-5.623,5.478-6.305,6.207c-1.135,1.212-2.4.3-1.372-1.18.344-.495,7.5-11.057,7.586-11.2-.157.133-3.376.61-3.845.781-1.189.431-3.459.311-4.01-.581-.448-.724.458-1.031,1.157-1.2,1.181-.288,2.231-.9,3.383-1.263a37.685,37.685,0,0,0,5.834-3.388c.575-.487,1.154-.976,1.779-1.406.007-.02.01-.04.017-.06.32-.9,2.315-5.991,2.879-7.032s8.813,2.9,8.4,3.661-3.241,5.944-3.325,6.092c.017.755-.018,1.51-.036,2.279-.043,1.86-2.009,7.426-2.482,9.191-.465,1.734-.862,7-1.138,8.781C340.427,552.629,338.678,552.635,338.933,550.991Z" transform="translate(-202.992 -295.06)"/><path class="e" d="M338.655,526.439c.582,1.117,10.9,5.239,11.192,4.986,1.417-1.243,3.443-7.056,3.443-7.056A29.8,29.8,0,0,0,348.9,521.9c-2.2-.661-7.218-3.382-7.524-2.934C340.413,520.379,338.158,525.482,338.655,526.439Z" transform="translate(-206.955 -294.543)"/><path class="f" d="M307.26,364.435c-8.564-3.133-12.57,35.588-1.39,39.65,9.07,3.3,30.774,26.476,30.814,34.892.041,8.634-5.162,33.761-7.244,37.315-.728,1.243,11.738,8.348,13.475,7.429s10.748-21.18,13.879-39.789C360.669,420.9,340.112,376.455,307.26,364.435Z" transform="translate(-196.135 -252.24)"/><path d="M352.92,529.919c1.124-.221,1.393,1.535.272,1.755S351.8,530.139,352.92,529.919Z" transform="translate(-210.679 -297.547)"/><path class="n" d="M252.663,320.694c1.45,1.228,2.43,2.732,3.215,2.9s2.365-1.071,4.337-1.842A20.589,20.589,0,0,1,252.663,320.694Z" transform="translate(-183.453 -240.325)"/></g><g transform="translate(265.728 154.95)"><g transform="translate(0 44.334)"><path class="r" d="M368.519,191.673a36.633,36.633,0,0,0-1.713-3.531.555.555,0,0,0-.275-.292.578.578,0,0,0-.769-.182,2.982,2.982,0,0,0-.676.5c-.195-.76-.725-1.247-1.9-1.193a36.472,36.472,0,0,0-4.42.639,5.067,5.067,0,0,0-2.559.716,2.349,2.349,0,0,0-1.037.259,1.692,1.692,0,0,0-.732.983c-1.753.556-2.215,1.827-2.429,3.9-.208,2.012-.315,4.049-.6,6.052-.3,2.1-1.215,3.662-1.924,5.546-.571.809-1.061,1.707-.816,2.339.161.416.617.543.974.739,1.281.7,2.678,1.266,4,1.891a.659.659,0,0,0,.751-.254l4.819-5.741c3.609-1.1,5.9-4.6,7.407-7.6A18.707,18.707,0,0,0,368.519,191.673Z" transform="translate(-318.026 -186.976)"/><path class="s" d="M370.155,193.5c-2.6.243-2.222-2.621-1.869-4.286.06-.285-.371-.437-.432-.149a16.072,16.072,0,0,0-.33,1.851c-.872-1.3-3.222-1.538-4.6-1.712-.293-.037-.324.418-.033.456,1.343.171,4.166.486,4.43,2.118a4.5,4.5,0,0,1-2.1,4.185,6.069,6.069,0,0,0,.333-3.042c-.166-.73-.853-1.041-1.469-1.347a17.443,17.443,0,0,0-3.4-1.158c-.283-.074-.434.358-.149.432a22.17,22.17,0,0,1,2.487.76,4,4,0,0,1,1.557.759,2.821,2.821,0,0,1,.479,2.11c-.185,1.191-.588,2.4-2.016,2.368a7.985,7.985,0,0,1-1.122-.12,5.723,5.723,0,0,1-.9-.194.672.672,0,0,1-.219-1.1,1.759,1.759,0,0,1,1.427-.5c.291-.013.326-.469.033-.455-.921.042-2.93.59-2.086,1.961a1.863,1.863,0,0,0,1.337.68l.314.061a7.212,7.212,0,0,1,.383,5.427.229.229,0,0,0,.432.149,7.682,7.682,0,0,0-.269-5.483,3.738,3.738,0,0,0,1.865-.088,1.548,1.548,0,0,0,.674-.615h.009a3.546,3.546,0,0,0,1.642-1.129,4.1,4.1,0,0,1,1.433,2.237c.071.284.52.2.448-.089a4.621,4.621,0,0,0-1.6-2.5c.065-.089.124-.184.183-.278a6.621,6.621,0,0,0,1.6,1.24c.256.141.511-.238.254-.38a6.24,6.24,0,0,1-1.616-1.271,5.414,5.414,0,0,0,.533-1.568,2.4,2.4,0,0,0,2.437,1.121C370.537,193.918,370.446,193.47,370.155,193.5Z" transform="translate(-321.14 -187.505)"/><path class="t" d="M347.493,207.225c.885-1.337,12.014,6.06,11.1,7.341a78.889,78.889,0,0,0-4.964,7.581,32.857,32.857,0,0,0-11.128-7C344.2,212.332,345.876,209.669,347.493,207.225Z" transform="translate(-316.358 -192.471)"/><path d="M333.465,214.412a40.273,40.273,0,0,1,12.595,7.434c-9.295,16.495-14.637,41.279-13.975,47.57.759,7.211,9.849,15.308,17.744,18.779,4.039,1.776,14.068,1.043,17.632.762s-17.681,44.589-25.212,39.741c-12.4-7.982-35.182-32.973-35.728-52.5C306.166,263.454,320.327,234.793,333.465,214.412Z" transform="translate(-306.515 -194.48)"/><path class="r" d="M470.812,196.452c1.5,3,3.8,6.5,7.407,7.6l4.819,5.741a.658.658,0,0,0,.75.254c1.321-.625,2.718-1.188,4-1.891.357-.2.812-.323.973-.739.246-.632-.245-1.531-.815-2.339-.71-1.884-1.627-3.45-1.925-5.546-.284-2-.392-4.04-.6-6.052-.214-2.078-.676-3.349-2.429-3.9a1.7,1.7,0,0,0-.732-.983,2.352,2.352,0,0,0-1.038-.259,5.067,5.067,0,0,0-2.559-.716,36.451,36.451,0,0,0-4.42-.639c-1.178-.054-1.707.433-1.9,1.193a2.949,2.949,0,0,0-.676-.5.577.577,0,0,0-.768.182.552.552,0,0,0-.275.292,36.275,36.275,0,0,0-1.713,3.531A18.676,18.676,0,0,0,470.812,196.452Z" transform="translate(-350.932 -186.976)"/><path class="s" d="M470.841,193.5c2.6.243,2.223-2.621,1.87-4.286-.06-.285.371-.437.432-.149a15.9,15.9,0,0,1,.33,1.851c.872-1.3,3.223-1.538,4.6-1.712.292-.037.323.418.033.456-1.342.171-4.166.486-4.429,2.118a4.5,4.5,0,0,0,2.1,4.185,6.06,6.06,0,0,1-.333-3.042c.166-.73.852-1.041,1.468-1.347a17.459,17.459,0,0,1,3.4-1.158c.283-.074.434.358.15.432a22.121,22.121,0,0,0-2.487.76,3.994,3.994,0,0,0-1.557.759,2.818,2.818,0,0,0-.479,2.11c.185,1.191.588,2.4,2.017,2.368a7.974,7.974,0,0,0,1.122-.12,5.723,5.723,0,0,0,.9-.194.672.672,0,0,0,.219-1.1,1.761,1.761,0,0,0-1.427-.5c-.291-.013-.327-.469-.033-.455.921.042,2.931.59,2.086,1.961a1.863,1.863,0,0,1-1.337.68l-.313.061a7.2,7.2,0,0,0-.383,5.427.229.229,0,0,1-.432.149,7.682,7.682,0,0,1,.269-5.483,3.736,3.736,0,0,1-1.864-.088,1.544,1.544,0,0,1-.674-.615h-.009a3.542,3.542,0,0,1-1.642-1.129,4.106,4.106,0,0,0-1.434,2.237c-.071.284-.519.2-.448-.089a4.618,4.618,0,0,1,1.6-2.5c-.065-.089-.124-.184-.184-.278a6.6,6.6,0,0,1-1.6,1.24c-.256.141-.511-.238-.254-.38a6.264,6.264,0,0,0,1.616-1.271,5.416,5.416,0,0,1-.534-1.568,2.4,2.4,0,0,1-2.436,1.121C470.46,193.918,470.551,193.47,470.841,193.5Z" transform="translate(-351.388 -187.505)"/><path class="t" d="M491.355,207.225c-.885-1.337-12.014,6.06-11.1,7.341a78.883,78.883,0,0,1,4.964,7.581,32.865,32.865,0,0,1,11.128-7C494.65,212.332,492.973,209.669,491.355,207.225Z" transform="translate(-354.022 -192.471)"/><path d="M488.657,214.412a40.268,40.268,0,0,0-12.6,7.434c9.3,16.495,14.637,41.279,13.975,47.57-.759,7.211-10.093,13.313-17.685,17.475-7.242,3.971-15.188,3.544-17.183,2.927s18.691,43.728,26.222,38.88c12.4-7.982,33.664-32.973,34.209-52.5C515.957,263.454,501.8,234.793,488.657,214.412Z" transform="translate(-347.138 -194.48)"/><g transform="translate(74.948 392.206)"><path d="M449.643,740.685c-.4-1.416-9.808,3.608-9.533,4.442a10.3,10.3,0,0,0,1.855,2.886c1.106.217,7.414-1.568,8.291-1.969C450.923,745.739,450.039,742.1,449.643,740.685Z" transform="translate(-418.002 -730.565)"/><path d="M441.778,739.018c-.928-6.522-3.411-6.294-5.2-12.161-.739-.145-10.923,1.484-10.923,1.484-1.881,5.092-5.55,8.859-9.47,12.415-4.45,3.311-6.746,4.737-6.479,5.885.548,2.367,3.749,2.692,12.748.543,6.39-1.526,8.033-4.9,10.557-5.335C435.349,741.443,442.039,740.847,441.778,739.018Z" transform="translate(-409.681 -726.848)"/><path class="u" d="M423.069,744.156c-.408-.668-1.077-1.125-1.48-1.788a1.1,1.1,0,0,1,.178-1.409l.777.855c.272.3.721-.138.45-.437l-.782-.862.035-.032c.468-.419.942-.831,1.415-1.244a6.914,6.914,0,0,0,.884,1.016c.3.271.751-.166.451-.437a6.81,6.81,0,0,1-.864-.99c.471-.411.94-.825,1.4-1.246.3.283.6.563.876.859s.724-.141.45-.437-.57-.564-.871-.844c.323-.307.647-.631.962-.971.246.2.5.383.742.582.31.253.764-.182.45-.437-.255-.208-.519-.407-.776-.613a12.725,12.725,0,0,0,1.063-1.414,7.913,7.913,0,0,0,.727.5.314.314,0,0,0,.325-.537,7.784,7.784,0,0,1-.73-.5,7.788,7.788,0,0,0,.555-1.234,2.517,2.517,0,0,1,.726.311c.33.235.651-.3.324-.537a3.126,3.126,0,0,0-.875-.365c.045-.188.083-.378.11-.57s-.287-.2-.315,0c-.022.156-.052.31-.086.463-.456-.2-.905-.439-1.345-.67-.357-.188-.683.348-.324.537.453.238.914.469,1.379.685.04.018.081.036.123.052a7.24,7.24,0,0,1-.5,1.158c-.092-.068-.183-.137-.277-.2-.416-.294-.871-.528-1.295-.812-.338-.225-.66.312-.324.537.424.283.88.516,1.3.812.1.068.189.137.282.208a11.729,11.729,0,0,1-1.058,1.4c-.094-.08-.187-.161-.277-.247a8.741,8.741,0,0,0-1.082-.959c-.335-.229-.657.31-.324.537a10.6,10.6,0,0,1,1.1.993c.054.049.11.1.166.142-.308.328-.628.644-.953.951a5.969,5.969,0,0,1-.875-1c-.22-.336-.769-.028-.547.31a6.694,6.694,0,0,0,.967,1.109c-.463.42-.926.822-1.369,1.207-.222-.3-.443-.6-.689-.886-.267-.305-.716.134-.45.437.239.274.454.567.669.859-.493.429-.991.854-1.478,1.29l-.447-.492c-.272-.3-.721.138-.45.437l.442.487a1.8,1.8,0,0,0-.417.665c-.378,1.186,1.141,2.073,1.666,2.93C422.9,744.483,423.175,744.329,423.069,744.156Z" transform="translate(-412.783 -728.018)"/></g><path class="v" d="M351.259,460.462c.519-2.328,13.514-9.341,32.03-7.705,3.71.328,21.214-.889,25.139-.245-.838,14.063-17.7,106.838-17.7,106.838s15.364,37.639,21.415,50.825c2.927,6.377,5.481,12.92,8.36,19.317,2.786,6.191,5.855,12.234,7.535,18.9.423,1.682-23.555,11.69-24.4,9.511-1.183-3.033-16.988-28.173-25.5-41.829-5.684-9.118-25.2-34.035-29.163-52.333S348.084,474.722,351.259,460.462Z" transform="translate(-317.615 -259.553)"/><path class="v" d="M459.2,450.763c1.116,3.765,12.231,34.466,19.472,62.454,1.734,6.7,5.414,20.059,5.414,20.059S503,522.041,512.571,516.611c6.124-3.476,12.448-6.6,18.6-10.028,5.951-3.319,15.426-9.275,21.953-11.543,1.646-.572,13.851,22.253,11.745,23.292-2.931,1.446-13.751,11.626-16.405,13.53-26.488,19-65.6,62.215-88.371,43.916s-49.2-84.2-49.2-84.2c-4.373-13.345-2.5-24.7-6.479-38.221C429.563,448.81,458.6,448.748,459.2,450.763Z" transform="translate(-333.29 -258.781)"/><g transform="translate(33.368 220.592)"><path d="M353.684,491.275c-.027-.911,1.394-.849,1.42.057.786,27.005-4.891,54.383,3.829,80.667,7.165,21.6,21.048,40.117,32.854,59.33,6.531,10.628,12.49,21.6,16.632,33.383.3.857-1.09,1.154-1.39.3-7.718-21.956-21.842-40.721-33.812-60.464-5.736-9.461-11.028-19.244-14.778-29.667-4.194-11.656-5.859-23.785-5.984-36.129C352.3,522.913,354.145,507.122,353.684,491.275Z" transform="translate(-352.446 -490.621)"/><path d="M432.967,491.155c5.035,22.31,13.38,43.672,23.1,64.347,4.554,9.683,9.117,19.9,16.917,27.484a33.058,33.058,0,0,0,12.876,7.869,30.458,30.458,0,0,1-3.027.456,30.962,30.962,0,0,1-5.68-3.065c-9.238-6.329-14.743-16.349-19.511-26.153-11-22.613-20.522-46.071-26.066-70.635A.711.711,0,0,1,432.967,491.155Z" transform="translate(-374.085 -490.621)"/><path d="M505.156,570.1l5.707-5.1a.7.7,0,0,1,1.09.209.706.706,0,0,1,.677.889l-.021.076q.556,3.492,1.111,6.984c.142.894-1.246,1.205-1.389.3l-.633-3.977q-.48,1.743-.958,3.486c-.243.88-1.6.464-1.361-.413l1.58-5.742-4.838,4.323C505.44,571.742,504.474,570.705,505.156,570.1Z" transform="translate(-394.152 -510.914)"/><path d="M396.083,594.077l7.154,2.756a.69.69,0,0,1,.305,1.061.7.7,0,0,1-.492,1l-.078.016-5.767,4.14c-.738.53-1.644-.559-.9-1.094l3.284-2.358-3.562.725a.707.707,0,0,1-.243-1.393l5.868-1.194-6.065-2.337A.707.707,0,0,1,396.083,594.077Z" transform="translate(-364.125 -518.904)"/><path d="M407.244,507.057a25.853,25.853,0,0,0,3.014-1.254l-2.85-.658c-.894-.206-.471-1.557.416-1.352l4.238.978,2.92-2.677a.709.709,0,0,1,.964,1.039l-1.992,1.826,3.728-.156c.915-.039.852,1.374-.057,1.412l-4.429.187,3.773,10.24c.31.841-.949,1.5-1.264.648l-3.932-10.673a29.037,29.037,0,0,1-4.223,1.822C406.686,508.733,406.386,507.35,407.244,507.057Z" transform="translate(-367.294 -493.708)"/></g><path class="w" d="M424.5,305.2c-.157-3.367-.24-6.75-.281-10.121-.048-3.81-.174-7.621-.206-11.432-.014-1.6.692-5.169-.85-6.226a4.518,4.518,0,0,0-2.925-.32c-1.467.108-2.94.144-4.411.168-3.686.06-7.374-.024-11.061-.03a1.03,1.03,0,0,0-.947,1.324,1.061,1.061,0,0,0-.155.71c.943,9.494.458,19.066,1.282,28.569a1.165,1.165,0,0,0,.821,1.064c2.959.99,6.336.4,9.393.415a31.586,31.586,0,0,0,7.441-.532C424.45,308.336,424.588,307.077,424.5,305.2Z" transform="translate(-333.085 -211.603)"/><path class="t" d="M399.188,318.151l8.442.676,19.878-4.647c-7.677,22.088-16.613,41.559-27.5,56.971C392.864,355.866,395.24,337.281,399.188,318.151Z" transform="translate(-330.832 -221.769)"/><path d="M411.293,322.65c-.766-.639-1.785-1.9-2.826-2.057-1.23-.179-2.591,1.234-3.682,1.648a.705.705,0,0,0-.076.046.585.585,0,0,0-.614.666c0,.027.009.053.012.08a.871.871,0,0,0-.016.11,12.249,12.249,0,0,0,1.37,5.238c-1.969,5.325-4.349,10.516-6.091,15.945-1.9,5.927-2.474,11.927-3.181,18.074a.718.718,0,0,0,.024.291.549.549,0,0,0-.005.485c1.345,3.231,1.932,6.7,3.239,9.948a.7.7,0,0,0,1.262.139c.872-1.312,6.485-9.377,6.5-9.975.366-12.628,1.154-21.988,1.383-34.617a1.118,1.118,0,0,0,.073-.086c.886-1.333,1.932-2.522,2.888-3.8A1.334,1.334,0,0,0,411.293,322.65Z" transform="translate(-331.033 -223.519)"/><path class="n" d="M424.983,306.27c-.56-.629-1-1.093-1.358-.655-1.684,2.09-13.033,9.965-14.288,9.815s-5.013-7.057-5.548-7.264-2.665,7.1-2.8,7.874,1.05,9.792,1.765,9.807,6.6-8.628,6.6-8.628,4.25,7.182,5.747,8.609a.923.923,0,0,0,1.292-.025c1.555-2.033,3.42-3.8,4.979-5.828.479-.624,6.823-7.961,6.839-8.736S426.269,307.717,424.983,306.27Z" transform="translate(-332.353 -219.379)"/><path d="M457.831,446.911c-2.912-10.708,9.032-88.416-13.418-116.544-13.053-16.355-30.475-14.793-30.475-14.793-10.162,18.984-25.94,56.31-25.94,56.31s-13.377-25.87-4.555-56.272c-7.709.821-16.516,7.875-22.271,17.6-4.113,6.954-9.685,32.663-9.852,40.859-.323,15.909-2.666,74.755-1.12,76.94,1.907,2.695,17.272,4.306,25.128,1.5s9.069-22.592,9.069-22.592,3.883,16.123,11.81,20.78C408.83,458.123,458.568,449.623,457.831,446.911Z" transform="translate(-318.32 -222.139)"/><path class="v" d="M423.78,311.212c-.854.264.089.423-2.967,6.852-1.258,2.645-10.267,17.942-12.7,23.379-2.242,5.016-4.221,10.138-6.105,15.3-1.441,3.945-3.565,8.016-4.636,12.187-1.77-8.307-3.649-16.6-3.141-25.156.281-4.737.2-9.744.732-15.179,1.1-11.209,3.516-15.475,3.7-16.4s-6.013,1.786-6.851,2.474c-1.43,1.172-6.3,14.509-5.932,14.95s3.875,1.1,3.875,1.1a40.858,40.858,0,0,0-3.818,4.052c-.3.687.676,8.427,1.692,12.57,1.023,4.172,1.743,8.413,3.368,12.413,1.519,3.739,4.911,10.141,5.818,12.16S409.9,355.248,416.048,347c2.718-3.647,10.345-13.542,10.452-14.4s-2.424-3.736-2.424-3.736a38.806,38.806,0,0,0,4.418.06c.865-.153,3.724-12.414,3.749-13.659S424.633,310.948,423.78,311.212Z" transform="translate(-328.218 -220.953)"/><g transform="translate(68.627 46.638)"><path class="w" d="M424.934,277.916a2.718,2.718,0,0,1-2.141.24c-.021.063-.042.126-.064.189-1.308,3.779-4.41,9.229-8.756,9.492-4.4.267-10.315-1.838-12.446-6.034-1.473-2.9.391-7.794,1.4-10.9-2.047-.728-1.673-3.992-.144-5.1a2.433,2.433,0,0,1,2.274-.248c1.342-3.95,2.547-7.228,6.157-7.985,4.657-.976,12.5,1.121,14.307,5.542.943,2.3-.187,6.653-.849,8.9a2.783,2.783,0,0,1,1.158.836,3.538,3.538,0,0,1-.9,5.063Z" transform="translate(-400.981 -252.859)"/><path d="M405.3,263.7s.776-6.162,3.546-8.131a6.065,6.065,0,0,1-.4-1.433c-.247-1.642.38-2.219,1.9-1.811,1.263.338,1.048-.4,2.144-.614a4.293,4.293,0,0,1,2.229.443c.922-1.462,2.8-1.021,4.376-.36,2.452,1.028,4.968,2.056,6.733,4.134a8.093,8.093,0,0,1,1.682,3.3c3.187,2.936,1.836,8.633-.412,12.052a2.541,2.541,0,0,0-1.244-.948c.406-2.7,1.685-6.532.349-8.811a5.017,5.017,0,0,1-6.346-1.217,3.861,3.861,0,0,1-2.331-.084,4.1,4.1,0,0,1-1.464-1.064,13,13,0,0,1-6.556-1.749c-1.725,1.595-3.268,6.466-3.268,6.466Z" transform="translate(-402.161 -251.173)"/><path d="M426.3,276.155c.956.288.448,1.75-.506,1.462S425.35,275.867,426.3,276.155Z" transform="translate(-407.628 -257.996)"/><path d="M412.331,271.545c.955.288.447,1.75-.506,1.462S411.378,271.257,412.331,271.545Z" transform="translate(-403.807 -256.735)"/><path d="M425.123,272.064a8.044,8.044,0,0,1,3.59,2.094c.717.695.049,1.548-.854.87a9.5,9.5,0,0,0-3.231-1.318C423.669,273.43,424.168,271.785,425.123,272.064Z" transform="translate(-407.307 -256.879)"/><path d="M413.861,268.83a8.053,8.053,0,0,0-4.149-.238c-.981.182-.9,1.263.232,1.2a9.508,9.508,0,0,1,3.421.688C414.318,270.773,414.811,269.126,413.861,268.83Z" transform="translate(-403.183 -255.893)"/><path class="n" d="M407.576,282.307a5.568,5.568,0,0,0,2.906,4.965c2.022.922,5.624.13,6.442-.377a.342.342,0,0,0-.038-.623,3.157,3.157,0,0,0-1.208-.142,16.508,16.508,0,0,1-4.227-1.094c-1.558-.684-2.118-1.826-3.284-2.927A.342.342,0,0,0,407.576,282.307Z" transform="translate(-402.784 -259.607)"/><path d="M417.179,272.343a.387.387,0,0,1,.732.253,19.861,19.861,0,0,1-1.3,3.006c-.62,1.207-2.511,3.972-.055,4.5.487.1.229.835-.253.732a2.146,2.146,0,0,1-1.848-2.278C414.749,276.412,416.52,274.4,417.179,272.343Z" transform="translate(-404.66 -256.894)"/></g></g><g transform="translate(69.579)"><path class="x" d="M438.732,171.587c-1.356-.437-17.184-11.175-21.451-18.318s-7.735-24.985-7.48-26.894,24.232,15.662,24.562,16.179S440.088,172.024,438.732,171.587Z" transform="translate(-404.341 -126.027)"/><path d="M439.277,170.908c-1.127-9.555-2.271-19.072-4.343-28.467a.793.793,0,0,0-.3-.462c-7.67-5.808-15.876-10.884-24.085-15.9-.739-.451-1.072.418-.338.867q12.116,7.4,23.45,15.984,3.051,13.867,4.721,27.985C438.488,171.766,439.378,171.768,439.277,170.908Z" transform="translate(-404.345 -125.95)"/><path d="M419.765,173.394c3.438-2.8,9.453-9.924,9.409-10.256a28.665,28.665,0,0,0-13.21-20.616c-.283-.178-9.267,2.31-13.25,4.262a.8.8,0,0,0-.4.829c1.7,5.1,2.285,10.574,2.848,16.023a.718.718,0,0,0,.318.5c4.715,2.788,9.442,5.607,13.366,9.284A.8.8,0,0,0,419.765,173.394Z" transform="translate(-402.29 -130.481)"/><path class="y" d="M422.3,195.492c1.614-2.571,4.871-8.093,4.453-8.552s-3,.716-3.872,1.042a53.835,53.835,0,0,0-5.153,2.249.23.23,0,0,0,.2.415c1.356-.675,2.735-1.3,4.144-1.86.285-.113.573-.223.862-.332q-2.662,1.3-5.255,2.742c-.258.144-.06.559.2.415l.11-.06a.241.241,0,0,0,.349.073,18.335,18.335,0,0,1,2.105-1.324l-1.37.966a.193.193,0,0,0-.017.312l-.567.416a.2.2,0,0,0,.013.338c-.054.049-.109.1-.162.144-.218.2.084.548.3.347.817-.75,1.667-1.454,2.542-2.123l-2.471,2.157a.228.228,0,0,0,.079.384l-.139.138c-.206.21.094.559.3.347q.621-.633,1.26-1.246a.257.257,0,0,0,.088.089l-.5.426a.206.206,0,0,0-.063.243c-.132.133-.265.265-.4.4-.206.21.094.559.3.347.235-.24.474-.477.712-.715-.32.346-.642.691-.956,1.043-.195.217.1.567.3.347q1.345-1.5,2.759-2.934-1.36,1.538-2.742,3.055c-.2.216.1.566.3.347q2.286-2.51,4.511-5.074a22.687,22.687,0,0,1-3.55,4.155c-.217.2.084.548.3.347.364-.334.712-.681,1.052-1.035q-.642.793-1.328,1.552c-.2.217.1.567.3.347.654-.722,1.274-1.468,1.869-2.234q-.623,1.03-1.263,2.051C421.761,195.488,422.143,195.745,422.3,195.492Z" transform="translate(-406.466 -142.603)"/><path class="z" d="M428.523,182.988a14.054,14.054,0,0,0,1.523-2.583l8.365-7.6c1.632-1.483,3.642-3.039,4.519-4.026.662-.745-1.212-4.5-1.212-4.5l.592,4.01c-1.56,1.423-3.971,3.576-5.533,5-2.412,2.193-7.217,6.621-7.217,6.621a27.432,27.432,0,0,0-2.625,1.236C426.758,181.333,428.238,183.052,428.523,182.988Z" transform="translate(-409.027 -136.432)"/></g></g></g></g></svg>