<svg xmlns="http://www.w3.org/2000/svg" xmlns:xlink="http://www.w3.org/1999/xlink" width="579.482" height="563.247" viewBox="0 0 579.482 563.247"><defs><style>.a,.d{opacity:0.5;}.a{fill:url(#a);}.b{opacity:0.4;}.c{clip-path:url(#b);}.e{fill:#4289be;stroke:rgba(0,0,0,0);}.e,.f{opacity:0.3;}.f{fill:#45c4a9;}</style><linearGradient id="a" x1="0.115" y1="0.511" x2="0.831" y2="0.544" gradientUnits="objectBoundingBox"><stop offset="0" stop-color="#45c4a8" stop-opacity="0.502"/><stop offset="1" stop-color="#438abe" stop-opacity="0"/></linearGradient><clipPath id="b"><path class="a" d="M-3543.455,125.492a12.815,12.815,0,0,1-5.212-10.326v-38.5h-38.5A12.834,12.834,0,0,1-3600,63.834,12.834,12.834,0,0,1-3587.167,51H-3549V12.833A12.835,12.835,0,0,1-3536.166,0a12.834,12.834,0,0,1,12.833,12.833v38.5h38.5a12.775,12.775,0,0,1,6.541,1.79l.543-.123,456.732,438.653-69.138,71.595Z" transform="translate(4667 208)"/></clipPath></defs><g class="b" transform="translate(-1072.5 -205)"><g class="c" transform="translate(6 -3)"><rect class="a" width="635.784" height="99.527" transform="matrix(0.719, 0.695, -0.695, 0.719, 1123.202, 195.535)"/></g><g class="d" transform="translate(6 -3)"><path class="e" d="M-260-39.167h0a12.834,12.834,0,0,0,12.833,12.833h38.5v38.5A12.834,12.834,0,0,0-195.833,25h0A12.834,12.834,0,0,0-183,12.167V-42.946A9.052,9.052,0,0,0-192.054-52h-55.113A12.834,12.834,0,0,0-260-39.167Z" transform="translate(1327 311)"/><path class="f" d="M-167-3.833h0a12.834,12.834,0,0,0-12.833-12.833h-38.5v-38.5A12.834,12.834,0,0,0-231.167-68h0A12.834,12.834,0,0,0-244-55.167V-.054A9.052,9.052,0,0,0-234.946,9h55.113A12.834,12.834,0,0,0-167-3.833Z" transform="translate(1362 276)"/></g></g></svg>