<svg xmlns="http://www.w3.org/2000/svg" width="47.382" height="73" viewBox="0 0 47.382 73">
  <g id="_1" data-name="1" transform="translate(-697.998 -865)">
    <path id="Shape_1" data-name="Shape 1" d="M709,936v-4s-10.144-12.779-10-19,4.189-14.445,8-15,17,0,17,0,1.189,9.555-13,9c0,0,9.856,4.221,11,15" fill="none" stroke="#333" stroke-linecap="round" stroke-linejoin="round" stroke-width="2"/>
    <path id="Shape_2" data-name="Shape 2" d="M708,897V871s-.477-5,5-5,5,5,5,5v26" fill="none" stroke="#333" stroke-linecap="round" stroke-linejoin="round" stroke-width="2"/>
    <path id="Rectangle_638" data-name="Rectangle 638" d="M735.563,895.434a4.373,4.373,0,0,1,.979,6.107l-7.18,9.92a4.373,4.373,0,0,1-7.086-5.128l7.18-9.92A4.373,4.373,0,0,1,735.563,895.434Z" fill="none" stroke="#333" stroke-linecap="round" stroke-linejoin="round" stroke-width="2"/>
    <path id="Rectangle_638_copy" data-name="Rectangle 638 copy" d="M742.563,901.434a4.373,4.373,0,0,1,.979,6.107l-7.18,9.92a4.373,4.373,0,0,1-7.086-5.128l7.18-9.92A4.373,4.373,0,0,1,742.563,901.434Z" fill="none" stroke="#333" stroke-linecap="round" stroke-linejoin="round" stroke-width="2"/>
    <path id="Rectangle_638_copy_2" data-name="Rectangle 638 copy 2" d="M718.092,896.061l3.365-4.648a4.373,4.373,0,1,1,7.086,5.128l-3.042,4.2" fill="none" stroke="#333" stroke-linecap="round" stroke-linejoin="round" stroke-width="2"/>
    <path id="Shape_3" data-name="Shape 3" d="M742,910s1.746,10.072-2,14-5,6.071-5,8v5" fill="none" stroke="#333" stroke-linecap="round" stroke-linejoin="round" stroke-width="2"/>
  </g>
</svg>
