<svg xmlns="http://www.w3.org/2000/svg" width="50" height="22" viewBox="0 0 50 22">
  <g id="그룹_3037" data-name="그룹 3037" transform="translate(-232 -205)">
    <g id="그룹_3019" data-name="그룹 3019">
      <g id="사각형_1077" data-name="사각형 1077" fill="#fff">
        <path d="M 270.9997863769531 225.9998016357422 L 242.9998016357422 225.9998016357422 C 237.4857330322266 225.9998016357422 232.9996948242188 221.5138702392578 232.9996948242188 215.9998931884766 C 232.9996948242188 210.4857635498047 237.4857330322266 205.9996948242188 242.9998016357422 205.9996948242188 L 270.9997863769531 205.9996948242188 C 276.5138549804688 205.9996948242188 280.9999084472656 210.4857635498047 280.9999084472656 215.9998931884766 C 280.9999084472656 221.5138702392578 276.5138549804688 225.9998016357422 270.9997863769531 225.9998016357422 Z" stroke="none"/>
        <path d="M 270.999755859375 224.9998168945312 C 275.9624938964844 224.9998168945312 279.9999389648438 220.9624786376953 279.9999389648438 215.9998626708984 C 279.9999389648438 211.0371398925781 275.9624938964844 206.9996948242188 270.999755859375 206.9996948242188 L 242.9998168945312 206.9996948242188 C 238.0371551513672 206.9996948242188 233.9997100830078 211.0371398925781 233.9997100830078 215.9998626708984 C 233.9997100830078 220.9624786376953 238.0371551513672 224.9998168945312 242.9998168945312 224.9998168945312 L 270.999755859375 224.9998168945312 M 270.999755859375 226.9998168945312 L 242.9998168945312 226.9998168945312 C 236.9244842529297 226.9998168945312 231.9997100830078 222.0749206542969 231.9997100830078 215.9998626708984 C 231.9997100830078 209.9244842529297 236.9244842529297 204.9996948242188 242.9998168945312 204.9996948242188 L 270.999755859375 204.9996948242188 C 277.0744323730469 204.9996948242188 281.9999389648438 209.9244842529297 281.9999389648438 215.9998626708984 C 281.9999389648438 222.0749206542969 277.0744323730469 226.9998168945312 270.999755859375 226.9998168945312 Z" stroke="none" fill="#333"/>
      </g>
    </g>
    <text id="_1" data-name="1" transform="translate(246.58 221)" fill="#333" font-size="14" font-family="NotoSansCJKkr-Bold, Noto Sans CJK KR" font-weight="700" letter-spacing="-0.06em"><tspan x="-4.123" y="0">1</tspan></text>
    <path id="Rectangle_1_copy_8" data-name="Rectangle 1 copy 8" d="M267,217.121,262.977,213,262,214l4.882,5,.118-.121.118.121L272,214l-.976-1Z" fill="#333"/>
  </g>
</svg>
