<svg xmlns="http://www.w3.org/2000/svg" width="18" height="22" viewBox="0 0 18 22">
  <g id="폭맞춤" transform="translate(-1585 -205)">
    <g id="그룹_3033" data-name="그룹 3033">
      <g id="Icon_ionic-md-document" data-name="Icon ionic-md-document" fill="#fff">
        <path d="M 1601.12451171875 225.9998016357422 L 1586.874755859375 225.9998016357422 C 1586.400390625 225.9998016357422 1585.999633789062 225.4890594482422 1585.999633789062 224.8845062255859 L 1585.999633789062 207.1154022216797 C 1585.999633789062 206.5106201171875 1586.400390625 205.9996948242188 1586.874755859375 205.9996948242188 L 1596.5498046875 205.9996948242188 L 1601.999755859375 212.1484985351562 L 1601.999755859375 224.8845062255859 C 1601.999755859375 225.4890594482422 1601.598999023438 225.9998016357422 1601.12451171875 225.9998016357422 Z" stroke="none"/>
        <path d="M 1587.017700195312 206.9997100830078 C 1587.007934570312 207.0280914306641 1586.999633789062 207.0668487548828 1586.999633789062 207.1153869628906 L 1586.999633789062 224.8844909667969 C 1586.999633789062 224.932861328125 1587.0078125 224.9714965820312 1587.017578125 224.9998016357422 L 1600.981689453125 224.9998016357422 C 1600.991577148438 224.9715118408203 1600.999755859375 224.9328765869141 1600.999755859375 224.8844909667969 L 1600.999755859375 212.5279083251953 L 1596.099853515625 206.9997100830078 L 1587.017700195312 206.9997100830078 M 1586.874755859375 204.9997100830078 L 1596.999755859375 204.9997100830078 L 1602.999755859375 211.7691192626953 L 1602.999755859375 224.8844909667969 C 1602.999755859375 226.0527038574219 1602.160034179688 226.9998016357422 1601.12451171875 226.9998016357422 L 1586.874755859375 226.9998016357422 C 1585.838745117188 226.9998016357422 1584.999633789062 226.0527038574219 1584.999633789062 224.8844909667969 L 1584.999633789062 207.1153869628906 C 1584.999633789062 205.9468078613281 1585.838745117188 204.9997100830078 1586.874755859375 204.9997100830078 Z" stroke="none" fill="#333"/>
      </g>
      <g id="Icon_ionic-md-document-2" data-name="Icon ionic-md-document" fill="#333">
        <path d="M 1600.585571289062 210.9998016357422 L 1596.999755859375 210.9998016357422 L 1596.999755859375 207.4139251708984 L 1600.585571289062 210.9998016357422 Z" stroke="none"/>
        <path d="M 1602.999755859375 211.9998016357422 L 1595.999755859375 211.9998016357422 L 1595.999755859375 204.9997100830078 L 1602.999755859375 211.9998016357422 Z" stroke="none" fill="#333"/>
      </g>
    </g>
    <path id="Icon_awesome-arrows-alt-h" data-name="Icon awesome-arrows-alt-h" d="M1596.857,215.546v1.046h-5.716v-1.046a.565.565,0,0,0-.96-.386l-2.017,1.954a.534.534,0,0,0,0,.771l2.017,1.954a.565.565,0,0,0,.96-.385v-1.046h5.716v1.046a.565.565,0,0,0,.96.386l2.017-1.954a.533.533,0,0,0,0-.771l-2.017-1.954a.565.565,0,0,0-.96.385Z" fill="#333"/>
  </g>
</svg>
