<svg xmlns="http://www.w3.org/2000/svg" width="16.344" height="15" viewBox="0 0 16.344 15">
  <g id="처음으로" transform="translate(-620 -716)">
    <path id="Icon_awesome-play_copy" data-name="Icon awesome-play copy" d="M623.713,722.289l10.476-6.1a1.421,1.421,0,0,1,2.155,1.21v12.19a1.428,1.428,0,0,1-2.155,1.21l-10.476-6.094A1.394,1.394,0,0,1,623.713,722.289Z" fill="#fff"/>
    <path id="사각형_104" data-name="사각형 104" d="M620,717a1,1,0,0,1,1-1h1a1,1,0,0,1,1,1v13a1,1,0,0,1-1,1h-1a1,1,0,0,1-1-1Z" fill="#fff"/>
  </g>
</svg>
